999
"DXF R12 Output" (www.mydxf.blogspot.com)
 0 
SECTION
 2 
HEADER
 9 
$ACADVER
 1 
AC1009
 9 
$EXTMIN
 10 
 0 
 20 
 0 
 9 
$EXTMAX
 10 
 8.5 
 20 
 11 
 0 
ENDSEC
 0 
SECTION
 2 
ENTITIES
0
LINE
8
Layer 1
10
0.793749
20
138.565000
11
-0.793749
21
136.977000
0
LINE
8
Layer 1
10
0.000000
20
139.094000
11
0.000000
21
136.448000
0
LINE
8
Layer 1
10
2.116660
20
136.713000
11
1.058330
21
135.654670
0
LINE
8
Layer 1
10
1.587500
20
137.242000
11
0.529170
21
136.183670
0
LINE
8
Layer 1
10
1.058330
20
137.771000
11
0.000000
21
136.712670
0
LINE
8
0
10
134.746000
20
6.596590
11
134.466549
21
5.212436
0
LINE
8
0
10
134.466549
20
5.212436
11
133.704469
21
4.082121
0
LINE
8
0
10
133.704469
20
4.082121
11
132.574154
21
3.320041
0
LINE
8
0
10
132.574154
20
3.320041
11
131.190000
21
3.040590
0
LINE
8
0
10
131.190000
20
3.040570
11
27.049800
21
3.040570
0
LINE
8
0
10
27.049800
20
3.040600
11
25.688976
21
3.311282
0
LINE
8
0
10
25.688976
20
3.311282
11
24.535325
21
4.082125
0
LINE
8
0
10
24.535325
20
4.082125
11
23.764482
21
5.235776
0
LINE
8
0
10
23.764482
20
5.235776
11
23.493800
21
6.596600
0
LINE
8
0
10
23.493900
20
6.596570
11
23.493900
21
130.041000
0
LINE
8
0
10
23.493800
20
130.040000
11
23.773247
21
131.424153
0
LINE
8
0
10
23.773247
20
131.424153
11
24.535325
21
132.554468
0
LINE
8
0
10
24.535325
20
132.554468
11
25.665638
21
133.316549
0
LINE
8
0
10
25.665638
20
133.316549
11
27.049790
21
133.596000
0
LINE
8
0
10
27.049800
20
133.597000
11
115.442000
21
133.597000
0
LINE
8
0
10
115.442000
20
133.597000
11
131.190000
21
133.597000
0
LINE
8
0
10
131.190000
20
133.596000
11
132.574142
21
133.316549
0
LINE
8
0
10
132.574142
20
133.316549
11
133.704448
21
132.554475
0
LINE
8
0
10
133.704448
20
132.554475
11
134.466525
21
131.424171
0
LINE
8
0
10
134.466525
20
131.424171
11
134.745980
21
130.040030
0
LINE
8
0
10
134.746000
20
130.041000
11
134.746000
21
6.596570
0
LINE
8
0
10
28.649800
20
6.596590
11
28.435441
21
5.796590
0
LINE
8
0
10
28.435441
20
5.796590
11
27.849800
21
5.210949
0
LINE
8
0
10
27.849800
20
5.210949
11
27.049800
21
4.996590
0
LINE
8
0
10
27.049800
20
4.996590
11
26.249800
21
5.210949
0
LINE
8
0
10
26.249800
20
5.210949
11
25.664159
21
5.796590
0
LINE
8
0
10
25.664159
20
5.796590
11
25.449800
21
6.596590
0
LINE
8
0
10
25.449800
20
6.596590
11
25.664159
21
7.396590
0
LINE
8
0
10
25.664159
20
7.396590
11
26.249800
21
7.982231
0
LINE
8
0
10
26.249800
20
7.982231
11
27.049800
21
8.196590
0
LINE
8
0
10
27.049800
20
8.196590
11
27.849800
21
7.982231
0
LINE
8
0
10
27.849800
20
7.982231
11
28.435441
21
7.396590
0
LINE
8
0
10
28.435441
20
7.396590
11
28.649800
21
6.596590
0
LINE
8
0
10
28.649800
20
6.596590
11
28.649800
21
6.596590
0
LINE
8
0
10
132.790000
20
6.596590
11
132.664264
21
5.973798
0
LINE
8
0
10
132.664264
20
5.973798
11
132.321371
21
5.465219
0
LINE
8
0
10
132.321371
20
5.465219
11
131.812792
21
5.122326
0
LINE
8
0
10
131.812792
20
5.122326
11
131.190000
21
4.996590
0
LINE
8
0
10
131.190000
20
4.996590
11
130.567208
21
5.122326
0
LINE
8
0
10
130.567208
20
5.122326
11
130.058629
21
5.465219
0
LINE
8
0
10
130.058629
20
5.465219
11
129.715736
21
5.973798
0
LINE
8
0
10
129.715736
20
5.973798
11
129.590000
21
6.596590
0
LINE
8
0
10
129.590000
20
6.596590
11
129.715736
21
7.219382
0
LINE
8
0
10
129.715736
20
7.219382
11
130.058629
21
7.727961
0
LINE
8
0
10
130.058629
20
7.727961
11
130.567208
21
8.070854
0
LINE
8
0
10
130.567208
20
8.070854
11
131.190000
21
8.196590
0
LINE
8
0
10
131.190000
20
8.196590
11
131.812792
21
8.070854
0
LINE
8
0
10
131.812792
20
8.070854
11
132.321371
21
7.727961
0
LINE
8
0
10
132.321371
20
7.727961
11
132.664264
21
7.219382
0
LINE
8
0
10
132.664264
20
7.219382
11
132.790000
21
6.596590
0
LINE
8
0
10
132.790000
20
6.596590
11
132.790000
21
6.596590
0
LINE
8
0
10
28.649800
20
130.040000
11
28.435441
21
129.240000
0
LINE
8
0
10
28.435441
20
129.240000
11
27.849800
21
128.654359
0
LINE
8
0
10
27.849800
20
128.654359
11
27.049800
21
128.440000
0
LINE
8
0
10
27.049800
20
128.440000
11
26.249800
21
128.654359
0
LINE
8
0
10
26.249800
20
128.654359
11
25.664159
21
129.240000
0
LINE
8
0
10
25.664159
20
129.240000
11
25.449800
21
130.040000
0
LINE
8
0
10
25.449800
20
130.040000
11
25.664159
21
130.840000
0
LINE
8
0
10
25.664159
20
130.840000
11
26.249800
21
131.425641
0
LINE
8
0
10
26.249800
20
131.425641
11
27.049800
21
131.640000
0
LINE
8
0
10
27.049800
20
131.640000
11
27.849800
21
131.425641
0
LINE
8
0
10
27.849800
20
131.425641
11
28.435441
21
130.840000
0
LINE
8
0
10
28.435441
20
130.840000
11
28.649800
21
130.040000
0
LINE
8
0
10
28.649800
20
130.040000
11
28.649800
21
130.040000
0
LINE
8
0
10
132.790000
20
130.040000
11
132.664264
21
129.417208
0
LINE
8
0
10
132.664264
20
129.417208
11
132.321371
21
128.908629
0
LINE
8
0
10
132.321371
20
128.908629
11
131.812792
21
128.565736
0
LINE
8
0
10
131.812792
20
128.565736
11
131.190000
21
128.440000
0
LINE
8
0
10
131.190000
20
128.440000
11
130.567208
21
128.565736
0
LINE
8
0
10
130.567208
20
128.565736
11
130.058629
21
128.908629
0
LINE
8
0
10
130.058629
20
128.908629
11
129.715736
21
129.417208
0
LINE
8
0
10
129.715736
20
129.417208
11
129.590000
21
130.040000
0
LINE
8
0
10
129.590000
20
130.040000
11
129.715736
21
130.662792
0
LINE
8
0
10
129.715736
20
130.662792
11
130.058629
21
131.171371
0
LINE
8
0
10
130.058629
20
131.171371
11
130.567208
21
131.514264
0
LINE
8
0
10
130.567208
20
131.514264
11
131.190000
21
131.640000
0
LINE
8
0
10
131.190000
20
131.640000
11
131.812792
21
131.514264
0
LINE
8
0
10
131.812792
20
131.514264
11
132.321371
21
131.171371
0
LINE
8
0
10
132.321371
20
131.171371
11
132.664264
21
130.662792
0
LINE
8
0
10
132.664264
20
130.662792
11
132.790000
21
130.040000
0
LINE
8
0
10
132.790000
20
130.040000
11
132.790000
21
130.040000
0
LINE
8
0
10
162.690000
20
55.638200
11
162.475641
21
54.838200
0
LINE
8
0
10
162.475641
20
54.838200
11
161.890000
21
54.252559
0
LINE
8
0
10
161.890000
20
54.252559
11
161.090000
21
54.038200
0
LINE
8
0
10
161.090000
20
54.038200
11
160.290000
21
54.252559
0
LINE
8
0
10
160.290000
20
54.252559
11
159.704359
21
54.838200
0
LINE
8
0
10
159.704359
20
54.838200
11
159.490000
21
55.638200
0
LINE
8
0
10
159.490000
20
55.638200
11
159.704359
21
56.438200
0
LINE
8
0
10
159.704359
20
56.438200
11
160.290000
21
57.023841
0
LINE
8
0
10
160.290000
20
57.023841
11
161.090000
21
57.238200
0
LINE
8
0
10
161.090000
20
57.238200
11
161.890000
21
57.023841
0
LINE
8
0
10
161.890000
20
57.023841
11
162.475641
21
56.438200
0
LINE
8
0
10
162.475641
20
56.438200
11
162.690000
21
55.638200
0
LINE
8
0
10
162.690000
20
55.638200
11
162.690000
21
55.638200
0
LINE
8
0
10
162.690000
20
99.638200
11
162.475641
21
98.838200
0
LINE
8
0
10
162.475641
20
98.838200
11
161.890000
21
98.252559
0
LINE
8
0
10
161.890000
20
98.252559
11
161.090000
21
98.038200
0
LINE
8
0
10
161.090000
20
98.038200
11
160.290000
21
98.252559
0
LINE
8
0
10
160.290000
20
98.252559
11
159.704359
21
98.838200
0
LINE
8
0
10
159.704359
20
98.838200
11
159.490000
21
99.638200
0
LINE
8
0
10
159.490000
20
99.638200
11
159.704359
21
100.438200
0
LINE
8
0
10
159.704359
20
100.438200
11
160.290000
21
101.023841
0
LINE
8
0
10
160.290000
20
101.023841
11
161.090000
21
101.238200
0
LINE
8
0
10
161.090000
20
101.238200
11
161.890000
21
101.023841
0
LINE
8
0
10
161.890000
20
101.023841
11
162.475641
21
100.438200
0
LINE
8
0
10
162.475641
20
100.438200
11
162.690000
21
99.638200
0
LINE
8
0
10
162.690000
20
99.638200
11
162.690000
21
99.638200
0
LINE
8
0
10
206.690000
20
99.638200
11
206.475641
21
98.838200
0
LINE
8
0
10
206.475641
20
98.838200
11
205.890000
21
98.252559
0
LINE
8
0
10
205.890000
20
98.252559
11
205.090000
21
98.038200
0
LINE
8
0
10
205.090000
20
98.038200
11
204.290000
21
98.252559
0
LINE
8
0
10
204.290000
20
98.252559
11
203.704359
21
98.838200
0
LINE
8
0
10
203.704359
20
98.838200
11
203.490000
21
99.638200
0
LINE
8
0
10
203.490000
20
99.638200
11
203.704359
21
100.438200
0
LINE
8
0
10
203.704359
20
100.438200
11
204.290000
21
101.023841
0
LINE
8
0
10
204.290000
20
101.023841
11
205.090000
21
101.238200
0
LINE
8
0
10
205.090000
20
101.238200
11
205.890000
21
101.023841
0
LINE
8
0
10
205.890000
20
101.023841
11
206.475641
21
100.438200
0
LINE
8
0
10
206.475641
20
100.438200
11
206.690000
21
99.638200
0
LINE
8
0
10
206.690000
20
99.638200
11
206.690000
21
99.638200
0
LINE
8
0
10
206.690000
20
55.638200
11
206.475641
21
54.838200
0
LINE
8
0
10
206.475641
20
54.838200
11
205.890000
21
54.252559
0
LINE
8
0
10
205.890000
20
54.252559
11
205.090000
21
54.038200
0
LINE
8
0
10
205.090000
20
54.038200
11
204.290000
21
54.252559
0
LINE
8
0
10
204.290000
20
54.252559
11
203.704359
21
54.838200
0
LINE
8
0
10
203.704359
20
54.838200
11
203.490000
21
55.638200
0
LINE
8
0
10
203.490000
20
55.638200
11
203.704359
21
56.438200
0
LINE
8
0
10
203.704359
20
56.438200
11
204.290000
21
57.023841
0
LINE
8
0
10
204.290000
20
57.023841
11
205.090000
21
57.238200
0
LINE
8
0
10
205.090000
20
57.238200
11
205.890000
21
57.023841
0
LINE
8
0
10
205.890000
20
57.023841
11
206.475641
21
56.438200
0
LINE
8
0
10
206.475641
20
56.438200
11
206.690000
21
55.638200
0
LINE
8
0
10
206.690000
20
55.638200
11
206.690000
21
55.638200
0
LINE
8
0
10
205.090000
20
52.637200
11
161.090000
21
52.637200
0
LINE
8
0
10
161.090000
20
52.638200
11
159.941950
21
52.866561
0
LINE
8
0
10
159.941950
20
52.866561
11
158.968680
21
53.516880
0
LINE
8
0
10
158.968680
20
53.516880
11
158.318361
21
54.490150
0
LINE
8
0
10
158.318361
20
54.490150
11
158.090000
21
55.638200
0
LINE
8
0
10
158.090000
20
55.637600
11
158.090000
21
99.637700
0
LINE
8
0
10
158.090000
20
99.638200
11
158.325764
21
100.805926
0
LINE
8
0
10
158.325764
20
100.805926
11
158.968690
21
101.759501
0
LINE
8
0
10
158.968690
20
101.759501
11
159.922272
21
102.402418
0
LINE
8
0
10
159.922272
20
102.402418
11
161.090000
21
102.638170
0
LINE
8
0
10
161.090000
20
102.638000
11
205.090000
21
102.638000
0
LINE
8
0
10
205.090000
20
102.638000
11
206.257728
21
102.402248
0
LINE
8
0
10
206.257728
20
102.402248
11
207.211310
21
101.759331
0
LINE
8
0
10
207.211310
20
101.759331
11
207.854236
21
100.805756
0
LINE
8
0
10
207.854236
20
100.805756
11
208.090000
21
99.638030
0
LINE
8
0
10
208.089000
20
99.637700
11
208.089000
21
55.637600
0
LINE
8
0
10
208.090000
20
55.638200
11
207.854236
21
54.470474
0
LINE
8
0
10
207.854236
20
54.470474
11
207.211310
21
53.516899
0
LINE
8
0
10
207.211310
20
53.516899
11
206.257728
21
52.873982
0
LINE
8
0
10
206.257728
20
52.873982
11
205.090000
21
52.638230
0
LINE
8
0
10
0.132295
20
7.632140
11
0.132295
21
130.138000
0
LINE
8
0
10
0.132295
20
130.138000
11
0.277735
21
131.608009
0
LINE
8
0
10
0.277735
20
131.608009
11
0.703194
21
133.008124
0
LINE
8
0
10
0.703194
20
133.008124
11
1.392377
21
134.299001
0
LINE
8
0
10
1.392377
20
134.299001
11
2.328986
21
135.441298
0
LINE
8
0
10
2.328986
20
135.441298
11
3.471281
21
136.377910
0
LINE
8
0
10
3.471281
20
136.377910
11
4.762157
21
137.067095
0
LINE
8
0
10
4.762157
20
137.067095
11
6.162271
21
137.492557
0
LINE
8
0
10
6.162271
20
137.492557
11
7.632280
21
137.638000
0
LINE
8
0
10
7.632280
20
137.638000
11
205.842000
21
137.638000
0
LINE
8
0
10
205.842000
20
137.638000
11
207.353508
21
137.485627
0
LINE
8
0
10
207.353508
20
137.485627
11
208.761332
21
137.048615
0
LINE
8
0
10
208.761332
20
137.048615
11
210.035313
21
136.357122
0
LINE
8
0
10
210.035313
20
136.357122
11
211.145290
21
135.441307
0
LINE
8
0
10
211.145290
20
135.441307
11
212.061106
21
134.331331
0
LINE
8
0
10
212.061106
20
134.331331
11
212.752601
21
133.057351
0
LINE
8
0
10
212.752601
20
133.057351
11
213.189615
21
131.649528
0
LINE
8
0
10
213.189615
20
131.649528
11
213.341990
21
130.138020
0
LINE
8
0
10
213.341990
20
130.138020
11
213.342000
21
7.632170
0
LINE
8
0
10
213.342000
20
7.632170
11
213.196560
21
6.162160
0
LINE
8
0
10
213.196560
20
6.162160
11
212.771100
21
4.762045
0
LINE
8
0
10
212.771100
20
4.762045
11
212.081917
21
3.471167
0
LINE
8
0
10
212.081917
20
3.471167
11
211.145307
21
2.328870
0
LINE
8
0
10
211.145307
20
2.328870
11
210.003011
21
1.392258
0
LINE
8
0
10
210.003011
20
1.392258
11
208.712134
21
0.703074
0
LINE
8
0
10
208.712134
20
0.703074
11
207.312019
21
0.277612
0
LINE
8
0
10
207.312019
20
0.277612
11
205.842010
21
0.132170
0
LINE
8
0
10
205.842010
20
0.132170
11
7.632290
21
0.132168
0
LINE
8
0
10
7.632290
20
0.132168
11
6.120782
21
0.284541
0
LINE
8
0
10
6.120782
20
0.284541
11
4.712958
21
0.721553
0
LINE
8
0
10
4.712958
20
0.721553
11
3.438977
21
1.413046
0
LINE
8
0
10
3.438977
20
1.413046
11
2.329000
21
2.328861
0
LINE
8
0
10
2.329000
20
2.328861
11
1.413184
21
3.438837
0
LINE
8
0
10
1.413184
20
3.438837
11
0.721689
21
4.712817
0
LINE
8
0
10
0.721689
20
4.712817
11
0.284675
21
6.120640
0
LINE
8
0
10
0.284675
20
6.120640
11
0.132300
21
7.632148
0
LINE
8
0
10
0.132300
20
7.632148
11
0.132295
21
7.632140
0
LINE
8
0
10
9.132280
20
130.138000
11
8.931318
21
129.388000
0
LINE
8
0
10
8.931318
20
129.388000
11
8.382280
21
128.838962
0
LINE
8
0
10
8.382280
20
128.838962
11
7.632280
21
128.638000
0
LINE
8
0
10
7.632280
20
128.638000
11
6.882280
21
128.838962
0
LINE
8
0
10
6.882280
20
128.838962
11
6.333242
21
129.388000
0
LINE
8
0
10
6.333242
20
129.388000
11
6.132280
21
130.138000
0
LINE
8
0
10
6.132280
20
130.138000
11
6.333242
21
130.888000
0
LINE
8
0
10
6.333242
20
130.888000
11
6.882280
21
131.437038
0
LINE
8
0
10
6.882280
20
131.437038
11
7.632280
21
131.638000
0
LINE
8
0
10
7.632280
20
131.638000
11
8.382280
21
131.437038
0
LINE
8
0
10
8.382280
20
131.437038
11
8.931318
21
130.888000
0
LINE
8
0
10
8.931318
20
130.888000
11
9.132280
21
130.138000
0
LINE
8
0
10
9.132280
20
130.138000
11
9.132280
21
130.138000
0
LINE
8
0
10
9.132280
20
7.632140
11
8.931318
21
6.882140
0
LINE
8
0
10
8.931318
20
6.882140
11
8.382280
21
6.333102
0
LINE
8
0
10
8.382280
20
6.333102
11
7.632280
21
6.132140
0
LINE
8
0
10
7.632280
20
6.132140
11
6.882280
21
6.333102
0
LINE
8
0
10
6.882280
20
6.333102
11
6.333242
21
6.882140
0
LINE
8
0
10
6.333242
20
6.882140
11
6.132280
21
7.632140
0
LINE
8
0
10
6.132280
20
7.632140
11
6.333242
21
8.382140
0
LINE
8
0
10
6.333242
20
8.382140
11
6.882280
21
8.931178
0
LINE
8
0
10
6.882280
20
8.931178
11
7.632280
21
9.132140
0
LINE
8
0
10
7.632280
20
9.132140
11
8.382280
21
8.931178
0
LINE
8
0
10
8.382280
20
8.931178
11
8.931318
21
8.382140
0
LINE
8
0
10
8.931318
20
8.382140
11
9.132280
21
7.632140
0
LINE
8
0
10
9.132280
20
7.632140
11
9.132280
21
7.632140
0
LINE
8
0
10
207.342000
20
7.632170
11
207.141038
21
6.882170
0
LINE
8
0
10
207.141038
20
6.882170
11
206.592000
21
6.333132
0
LINE
8
0
10
206.592000
20
6.333132
11
205.842000
21
6.132170
0
LINE
8
0
10
205.842000
20
6.132170
11
205.092000
21
6.333132
0
LINE
8
0
10
205.092000
20
6.333132
11
204.542962
21
6.882170
0
LINE
8
0
10
204.542962
20
6.882170
11
204.342000
21
7.632170
0
LINE
8
0
10
204.342000
20
7.632170
11
204.542962
21
8.382170
0
LINE
8
0
10
204.542962
20
8.382170
11
205.092000
21
8.931208
0
LINE
8
0
10
205.092000
20
8.931208
11
205.842000
21
9.132170
0
LINE
8
0
10
205.842000
20
9.132170
11
206.592000
21
8.931208
0
LINE
8
0
10
206.592000
20
8.931208
11
207.141038
21
8.382170
0
LINE
8
0
10
207.141038
20
8.382170
11
207.342000
21
7.632170
0
LINE
8
0
10
207.342000
20
7.632170
11
207.342000
21
7.632170
0
LINE
8
0
10
207.342000
20
130.138000
11
207.141038
21
129.388000
0
LINE
8
0
10
207.141038
20
129.388000
11
206.592000
21
128.838962
0
LINE
8
0
10
206.592000
20
128.838962
11
205.842000
21
128.638000
0
LINE
8
0
10
205.842000
20
128.638000
11
205.092000
21
128.838962
0
LINE
8
0
10
205.092000
20
128.838962
11
204.542962
21
129.388000
0
LINE
8
0
10
204.542962
20
129.388000
11
204.342000
21
130.138000
0
LINE
8
0
10
204.342000
20
130.138000
11
204.542962
21
130.888000
0
LINE
8
0
10
204.542962
20
130.888000
11
205.092000
21
131.437038
0
LINE
8
0
10
205.092000
20
131.437038
11
205.842000
21
131.638000
0
LINE
8
0
10
205.842000
20
131.638000
11
206.592000
21
131.437038
0
LINE
8
0
10
206.592000
20
131.437038
11
207.141038
21
130.888000
0
LINE
8
0
10
207.141038
20
130.888000
11
207.342000
21
130.138000
0
LINE
8
0
10
207.342000
20
130.138000
11
207.342000
21
130.138000
 0 
ENDSEC
 0 
EOF