G04 #@! TF.GenerationSoftware,KiCad,Pcbnew,(6.0.0)*
G04 #@! TF.CreationDate,2022-05-24T20:35:50-07:00*
G04 #@! TF.ProjectId,TrackpadLights,54726163-6b70-4616-944c-69676874732e,rev?*
G04 #@! TF.SameCoordinates,Original*
G04 #@! TF.FileFunction,Paste,Top*
G04 #@! TF.FilePolarity,Positive*
%FSLAX46Y46*%
G04 Gerber Fmt 4.6, Leading zero omitted, Abs format (unit mm)*
G04 Created by KiCad (PCBNEW (6.0.0)) date 2022-05-24 20:35:50*
%MOMM*%
%LPD*%
G01*
G04 APERTURE LIST*
G04 Aperture macros list*
%AMRoundRect*
0 Rectangle with rounded corners*
0 $1 Rounding radius*
0 $2 $3 $4 $5 $6 $7 $8 $9 X,Y pos of 4 corners*
0 Add a 4 corners polygon primitive as box body*
4,1,4,$2,$3,$4,$5,$6,$7,$8,$9,$2,$3,0*
0 Add four circle primitives for the rounded corners*
1,1,$1+$1,$2,$3*
1,1,$1+$1,$4,$5*
1,1,$1+$1,$6,$7*
1,1,$1+$1,$8,$9*
0 Add four rect primitives between the rounded corners*
20,1,$1+$1,$2,$3,$4,$5,0*
20,1,$1+$1,$4,$5,$6,$7,0*
20,1,$1+$1,$6,$7,$8,$9,0*
20,1,$1+$1,$8,$9,$2,$3,0*%
G04 Aperture macros list end*
%ADD10C,0.010000*%
%ADD11RoundRect,0.135000X0.135000X0.185000X-0.135000X0.185000X-0.135000X-0.185000X0.135000X-0.185000X0*%
%ADD12RoundRect,0.250000X-0.255000X-0.255000X0.255000X-0.255000X0.255000X0.255000X-0.255000X0.255000X0*%
%ADD13RoundRect,0.075000X-0.662500X-0.075000X0.662500X-0.075000X0.662500X0.075000X-0.662500X0.075000X0*%
%ADD14RoundRect,0.075000X-0.075000X-0.662500X0.075000X-0.662500X0.075000X0.662500X-0.075000X0.662500X0*%
%ADD15RoundRect,0.135000X-0.135000X-0.185000X0.135000X-0.185000X0.135000X0.185000X-0.135000X0.185000X0*%
%ADD16RoundRect,0.135000X-0.185000X0.135000X-0.185000X-0.135000X0.185000X-0.135000X0.185000X0.135000X0*%
%ADD17RoundRect,0.218750X-0.218750X-0.256250X0.218750X-0.256250X0.218750X0.256250X-0.218750X0.256250X0*%
%ADD18RoundRect,0.140000X-0.140000X-0.170000X0.140000X-0.170000X0.140000X0.170000X-0.140000X0.170000X0*%
%ADD19RoundRect,0.250000X-0.625000X0.312500X-0.625000X-0.312500X0.625000X-0.312500X0.625000X0.312500X0*%
%ADD20RoundRect,0.135000X0.185000X-0.135000X0.185000X0.135000X-0.185000X0.135000X-0.185000X-0.135000X0*%
%ADD21RoundRect,0.225000X0.250000X-0.225000X0.250000X0.225000X-0.250000X0.225000X-0.250000X-0.225000X0*%
%ADD22R,2.200000X0.600000*%
%ADD23R,2.150000X3.450000*%
%ADD24RoundRect,0.250000X-0.475000X0.250000X-0.475000X-0.250000X0.475000X-0.250000X0.475000X0.250000X0*%
%ADD25RoundRect,0.225000X-0.250000X0.225000X-0.250000X-0.225000X0.250000X-0.225000X0.250000X0.225000X0*%
%ADD26R,0.900000X0.254000*%
%ADD27R,0.254000X0.900000*%
%ADD28RoundRect,0.140000X-0.170000X0.140000X-0.170000X-0.140000X0.170000X-0.140000X0.170000X0.140000X0*%
%ADD29R,1.300000X1.100000*%
%ADD30RoundRect,0.075000X0.075000X-0.662500X0.075000X0.662500X-0.075000X0.662500X-0.075000X-0.662500X0*%
%ADD31RoundRect,0.075000X0.662500X-0.075000X0.662500X0.075000X-0.662500X0.075000X-0.662500X-0.075000X0*%
%ADD32R,2.100000X1.400000*%
%ADD33RoundRect,0.140000X0.140000X0.170000X-0.140000X0.170000X-0.140000X-0.170000X0.140000X-0.170000X0*%
%ADD34RoundRect,0.150000X-0.587500X-0.150000X0.587500X-0.150000X0.587500X0.150000X-0.587500X0.150000X0*%
%ADD35RoundRect,0.150000X0.150000X-0.512500X0.150000X0.512500X-0.150000X0.512500X-0.150000X-0.512500X0*%
%ADD36RoundRect,0.140000X0.170000X-0.140000X0.170000X0.140000X-0.170000X0.140000X-0.170000X-0.140000X0*%
%ADD37RoundRect,0.250000X0.475000X-0.250000X0.475000X0.250000X-0.475000X0.250000X-0.475000X-0.250000X0*%
%ADD38RoundRect,0.225000X0.225000X0.250000X-0.225000X0.250000X-0.225000X-0.250000X0.225000X-0.250000X0*%
%ADD39RoundRect,0.150000X0.150000X-0.587500X0.150000X0.587500X-0.150000X0.587500X-0.150000X-0.587500X0*%
%ADD40R,1.400000X2.100000*%
%ADD41RoundRect,0.250000X0.625000X-0.312500X0.625000X0.312500X-0.625000X0.312500X-0.625000X-0.312500X0*%
%ADD42RoundRect,0.225000X-0.225000X-0.250000X0.225000X-0.250000X0.225000X0.250000X-0.225000X0.250000X0*%
%ADD43RoundRect,0.243750X-0.243750X-0.456250X0.243750X-0.456250X0.243750X0.456250X-0.243750X0.456250X0*%
%ADD44RoundRect,0.218750X-0.381250X0.218750X-0.381250X-0.218750X0.381250X-0.218750X0.381250X0.218750X0*%
%ADD45RoundRect,0.218750X0.381250X-0.218750X0.381250X0.218750X-0.381250X0.218750X-0.381250X-0.218750X0*%
G04 APERTURE END LIST*
D10*
X96052544Y-119416000D02*
X94803000Y-119416000D01*
X94803000Y-119416000D02*
X94803000Y-118163270D01*
X94803000Y-118163270D02*
X96052544Y-118163270D01*
X96052544Y-118163270D02*
X96052544Y-119416000D01*
G36*
X96052544Y-119416000D02*
G01*
X94803000Y-119416000D01*
X94803000Y-118163270D01*
X96052544Y-118163270D01*
X96052544Y-119416000D01*
G37*
X96052544Y-119416000D02*
X94803000Y-119416000D01*
X94803000Y-118163270D01*
X96052544Y-118163270D01*
X96052544Y-119416000D01*
X96052938Y-121166000D02*
X94803000Y-121166000D01*
X94803000Y-121166000D02*
X94803000Y-119916062D01*
X94803000Y-119916062D02*
X96052938Y-119916062D01*
X96052938Y-119916062D02*
X96052938Y-121166000D01*
G36*
X96052938Y-121166000D02*
G01*
X94803000Y-121166000D01*
X94803000Y-119916062D01*
X96052938Y-119916062D01*
X96052938Y-121166000D01*
G37*
X96052938Y-121166000D02*
X94803000Y-121166000D01*
X94803000Y-119916062D01*
X96052938Y-119916062D01*
X96052938Y-121166000D01*
X97805520Y-119416000D02*
X96553000Y-119416000D01*
X96553000Y-119416000D02*
X96553000Y-118163480D01*
X96553000Y-118163480D02*
X97805520Y-118163480D01*
X97805520Y-118163480D02*
X97805520Y-119416000D01*
G36*
X97805520Y-119416000D02*
G01*
X96553000Y-119416000D01*
X96553000Y-118163480D01*
X97805520Y-118163480D01*
X97805520Y-119416000D01*
G37*
X97805520Y-119416000D02*
X96553000Y-119416000D01*
X96553000Y-118163480D01*
X97805520Y-118163480D01*
X97805520Y-119416000D01*
X97805480Y-121166000D02*
X96553000Y-121166000D01*
X96553000Y-121166000D02*
X96553000Y-119916413D01*
X96553000Y-119916413D02*
X97805480Y-119916413D01*
X97805480Y-119916413D02*
X97805480Y-121166000D01*
G36*
X97805480Y-121166000D02*
G01*
X96553000Y-121166000D01*
X96553000Y-119916413D01*
X97805480Y-119916413D01*
X97805480Y-121166000D01*
G37*
X97805480Y-121166000D02*
X96553000Y-121166000D01*
X96553000Y-119916413D01*
X97805480Y-119916413D01*
X97805480Y-121166000D01*
D11*
X114085000Y-87027000D03*
X113065000Y-87027000D03*
D12*
X110156000Y-94617000D03*
X110156000Y-92117000D03*
X108906000Y-92117000D03*
X112656000Y-94617000D03*
X111406000Y-90867000D03*
X112656000Y-92117000D03*
X111406000Y-94617000D03*
X112656000Y-93367000D03*
X108906000Y-93367000D03*
X112656000Y-90867000D03*
X108906000Y-94617000D03*
X111406000Y-93367000D03*
X108906000Y-90867000D03*
X110156000Y-93367000D03*
X110156000Y-90867000D03*
X111406000Y-92117000D03*
D13*
X106618500Y-89992000D03*
X106618500Y-90492000D03*
X106618500Y-90992000D03*
X106618500Y-91492000D03*
X106618500Y-91992000D03*
X106618500Y-92492000D03*
X106618500Y-92992000D03*
X106618500Y-93492000D03*
X106618500Y-93992000D03*
X106618500Y-94492000D03*
X106618500Y-94992000D03*
X106618500Y-95492000D03*
D14*
X108031000Y-96904500D03*
X108531000Y-96904500D03*
X109031000Y-96904500D03*
X109531000Y-96904500D03*
X110031000Y-96904500D03*
X110531000Y-96904500D03*
X111031000Y-96904500D03*
X111531000Y-96904500D03*
X112031000Y-96904500D03*
X112531000Y-96904500D03*
X113031000Y-96904500D03*
X113531000Y-96904500D03*
D13*
X114943500Y-95492000D03*
X114943500Y-94992000D03*
X114943500Y-94492000D03*
X114943500Y-93992000D03*
X114943500Y-93492000D03*
X114943500Y-92992000D03*
X114943500Y-92492000D03*
X114943500Y-91992000D03*
X114943500Y-91492000D03*
X114943500Y-90992000D03*
X114943500Y-90492000D03*
X114943500Y-89992000D03*
D14*
X113531000Y-88579500D03*
X113031000Y-88579500D03*
X112531000Y-88579500D03*
X112031000Y-88579500D03*
X111531000Y-88579500D03*
X111031000Y-88579500D03*
X110531000Y-88579500D03*
X110031000Y-88579500D03*
X109531000Y-88579500D03*
X109031000Y-88579500D03*
X108531000Y-88579500D03*
X108031000Y-88579500D03*
D15*
X131734000Y-115094000D03*
X132754000Y-115094000D03*
D16*
X88683000Y-99344000D03*
X88683000Y-100364000D03*
D17*
X127646500Y-84994996D03*
X129221500Y-84994996D03*
D18*
X111825000Y-81820000D03*
X112785000Y-81820000D03*
D19*
X121957000Y-119600500D03*
X121957000Y-122525500D03*
D17*
X127646500Y-83217000D03*
X129221500Y-83217000D03*
D20*
X125132000Y-93760000D03*
X125132000Y-92740000D03*
D17*
X117740492Y-83216996D03*
X119315492Y-83216996D03*
X124344500Y-83217000D03*
X125919500Y-83217000D03*
D21*
X101383000Y-118282000D03*
X101383000Y-116732000D03*
D17*
X124344500Y-84994996D03*
X125919500Y-84994996D03*
D16*
X132371000Y-106047000D03*
X132371000Y-107067000D03*
D22*
X111378500Y-111411000D03*
X111378500Y-110141000D03*
D23*
X105078500Y-108871000D03*
D22*
X111378500Y-108871000D03*
X111378500Y-107601000D03*
X111378500Y-106331000D03*
D17*
X130948492Y-90328996D03*
X132523492Y-90328996D03*
D24*
X118401000Y-121764000D03*
X118401000Y-123664000D03*
D17*
X130948492Y-84994996D03*
X132523492Y-84994996D03*
X121042492Y-88550996D03*
X122617492Y-88550996D03*
D25*
X113575000Y-107461000D03*
X113575000Y-109011000D03*
D26*
X98893000Y-121166000D03*
X98893000Y-120666000D03*
X98893000Y-120166000D03*
X98893000Y-119666000D03*
X98893000Y-119166000D03*
X98893000Y-118666000D03*
X98893000Y-118166000D03*
D27*
X97803000Y-117076000D03*
X97303000Y-117076000D03*
X96803000Y-117076000D03*
X96303000Y-117076000D03*
X95803000Y-117076000D03*
X95303000Y-117076000D03*
X94803000Y-117076000D03*
D26*
X93713000Y-118166000D03*
X93713000Y-118666000D03*
X93713000Y-119166000D03*
X93713000Y-119666000D03*
X93713000Y-120166000D03*
X93713000Y-120666000D03*
X93713000Y-121166000D03*
D27*
X94803000Y-122256000D03*
X95303000Y-122256000D03*
X95803000Y-122256000D03*
X96303000Y-122256000D03*
X96803000Y-122256000D03*
X97303000Y-122256000D03*
X97803000Y-122256000D03*
D28*
X94144000Y-107248000D03*
X94144000Y-108208000D03*
D16*
X101383000Y-122966000D03*
X101383000Y-123986000D03*
D17*
X121042500Y-83217000D03*
X122617500Y-83217000D03*
X117740492Y-88550996D03*
X119315492Y-88550996D03*
D29*
X90327000Y-108501000D03*
X92627000Y-108501000D03*
X92627000Y-106701000D03*
X90327000Y-106701000D03*
D11*
X103417000Y-120682000D03*
X102397000Y-120682000D03*
X132881000Y-104553000D03*
X131861000Y-104553000D03*
D30*
X91620000Y-102521000D03*
X92120000Y-102521000D03*
X92620000Y-102521000D03*
X93120000Y-102521000D03*
X93620000Y-102521000D03*
X94120000Y-102521000D03*
X94620000Y-102521000D03*
X95120000Y-102521000D03*
X95620000Y-102521000D03*
X96120000Y-102521000D03*
X96620000Y-102521000D03*
X97120000Y-102521000D03*
D31*
X98532500Y-101108500D03*
X98532500Y-100608500D03*
X98532500Y-100108500D03*
X98532500Y-99608500D03*
X98532500Y-99108500D03*
X98532500Y-98608500D03*
X98532500Y-98108500D03*
X98532500Y-97608500D03*
X98532500Y-97108500D03*
X98532500Y-96608500D03*
X98532500Y-96108500D03*
X98532500Y-95608500D03*
D30*
X97120000Y-94196000D03*
X96620000Y-94196000D03*
X96120000Y-94196000D03*
X95620000Y-94196000D03*
X95120000Y-94196000D03*
X94620000Y-94196000D03*
X94120000Y-94196000D03*
X93620000Y-94196000D03*
X93120000Y-94196000D03*
X92620000Y-94196000D03*
X92120000Y-94196000D03*
X91620000Y-94196000D03*
D31*
X90207500Y-95608500D03*
X90207500Y-96108500D03*
X90207500Y-96608500D03*
X90207500Y-97108500D03*
X90207500Y-97608500D03*
X90207500Y-98108500D03*
X90207500Y-98608500D03*
X90207500Y-99108500D03*
X90207500Y-99608500D03*
X90207500Y-100108500D03*
X90207500Y-100608500D03*
X90207500Y-101108500D03*
D17*
X127646500Y-86772996D03*
X129221500Y-86772996D03*
D32*
X129394500Y-110994000D03*
X120294500Y-110994000D03*
X129394500Y-106494000D03*
X120294500Y-106494000D03*
D33*
X92465000Y-105315000D03*
X91505000Y-105315000D03*
D21*
X102907000Y-118282000D03*
X102907000Y-116732000D03*
D34*
X126988500Y-113001000D03*
X126988500Y-114901000D03*
X128863500Y-113951000D03*
D24*
X116369000Y-121764000D03*
X116369000Y-123664000D03*
D35*
X122785000Y-117628500D03*
X123735000Y-117628500D03*
X124685000Y-117628500D03*
X124685000Y-115353500D03*
X122785000Y-115353500D03*
D36*
X100113000Y-118368000D03*
X100113000Y-117408000D03*
D16*
X94144000Y-104043000D03*
X94144000Y-105063000D03*
D37*
X118401000Y-117949000D03*
X118401000Y-116049000D03*
D17*
X127646500Y-88550996D03*
X129221500Y-88550996D03*
X127646500Y-90328996D03*
X129221500Y-90328996D03*
D20*
X86905000Y-88553000D03*
X86905000Y-87533000D03*
D25*
X115099000Y-107461000D03*
X115099000Y-109011000D03*
D38*
X97332000Y-110014000D03*
X95782000Y-110014000D03*
D28*
X119925000Y-121472000D03*
X119925000Y-122432000D03*
D17*
X117740492Y-84994996D03*
X119315492Y-84994996D03*
D28*
X90560000Y-102704500D03*
X90560000Y-103664500D03*
D17*
X121042492Y-86772996D03*
X122617492Y-86772996D03*
D37*
X116369000Y-117949000D03*
X116369000Y-116049000D03*
D33*
X96148000Y-105061000D03*
X95188000Y-105061000D03*
D11*
X87923000Y-86519000D03*
X86903000Y-86519000D03*
D39*
X86844000Y-84916500D03*
X88744000Y-84916500D03*
X87794000Y-83041500D03*
D17*
X121042492Y-90328996D03*
X122617492Y-90328996D03*
D33*
X106308000Y-81947000D03*
X105348000Y-81947000D03*
D40*
X118056000Y-102626000D03*
X118056000Y-93526000D03*
X122556000Y-102626000D03*
X122556000Y-93526000D03*
D41*
X125640000Y-122525500D03*
X125640000Y-119600500D03*
D42*
X98957000Y-115094000D03*
X100507000Y-115094000D03*
D17*
X117740492Y-86772996D03*
X119315492Y-86772996D03*
D33*
X96148000Y-104045000D03*
X95188000Y-104045000D03*
D16*
X102145000Y-81945000D03*
X102145000Y-82965000D03*
D43*
X131052500Y-113189000D03*
X132927500Y-113189000D03*
D15*
X95666000Y-115856000D03*
X96686000Y-115856000D03*
D17*
X130948492Y-88550996D03*
X132523492Y-88550996D03*
D44*
X95668000Y-106284500D03*
X95668000Y-108409500D03*
D28*
X113321000Y-111439000D03*
X113321000Y-112399000D03*
D17*
X124344500Y-88550996D03*
X125919500Y-88550996D03*
D11*
X101385000Y-97568000D03*
X100365000Y-97568000D03*
D21*
X99958000Y-94307500D03*
X99958000Y-92757500D03*
D17*
X130948492Y-86772996D03*
X132523492Y-86772996D03*
X124344500Y-90328996D03*
X125919500Y-90328996D03*
D15*
X92745000Y-122968000D03*
X93765000Y-122968000D03*
D36*
X98688000Y-94647500D03*
X98688000Y-93687500D03*
D16*
X103288000Y-81945000D03*
X103288000Y-82965000D03*
D17*
X121042492Y-84994996D03*
X122617492Y-84994996D03*
D42*
X111144000Y-85757000D03*
X112694000Y-85757000D03*
D18*
X111063000Y-87027000D03*
X112023000Y-87027000D03*
D17*
X124344500Y-86772996D03*
X125919500Y-86772996D03*
D45*
X97446000Y-108409500D03*
X97446000Y-106284500D03*
D20*
X93890000Y-83473000D03*
X93890000Y-82453000D03*
D42*
X112038000Y-83090000D03*
X113588000Y-83090000D03*
D25*
X116115000Y-111271000D03*
X116115000Y-112821000D03*
D16*
X106971000Y-87406000D03*
X106971000Y-88426000D03*
D18*
X129859000Y-104553000D03*
X130819000Y-104553000D03*
D36*
X131355000Y-107037000D03*
X131355000Y-106077000D03*
D20*
X102526000Y-96554000D03*
X102526000Y-95534000D03*
D40*
X127581000Y-102626000D03*
X127581000Y-93526000D03*
X132081000Y-102626000D03*
X132081000Y-93526000D03*
D16*
X102526000Y-122966000D03*
X102526000Y-123986000D03*
D11*
X101385000Y-96552000D03*
X100365000Y-96552000D03*
D16*
X102526000Y-97566000D03*
X102526000Y-98586000D03*
D17*
X130948492Y-83216996D03*
X132523492Y-83216996D03*
D36*
X121449000Y-116717000D03*
X121449000Y-115757000D03*
D43*
X90666500Y-82963000D03*
X92541500Y-82963000D03*
D25*
X89290000Y-102536500D03*
X89290000Y-104086500D03*
D11*
X103417000Y-119666000D03*
X102397000Y-119666000D03*
D17*
X117740492Y-90328996D03*
X119315492Y-90328996D03*
D15*
X92745000Y-123984000D03*
X93765000Y-123984000D03*
D18*
X98744000Y-116364000D03*
X99704000Y-116364000D03*
D25*
X114591000Y-111271000D03*
X114591000Y-112821000D03*
D36*
X124116000Y-93730000D03*
X124116000Y-92770000D03*
M02*
