G04 #@! TF.GenerationSoftware,KiCad,Pcbnew,(6.0.0)*
G04 #@! TF.CreationDate,2022-05-24T20:35:50-07:00*
G04 #@! TF.ProjectId,TrackpadLights,54726163-6b70-4616-944c-69676874732e,rev?*
G04 #@! TF.SameCoordinates,Original*
G04 #@! TF.FileFunction,Legend,Top*
G04 #@! TF.FilePolarity,Positive*
%FSLAX46Y46*%
G04 Gerber Fmt 4.6, Leading zero omitted, Abs format (unit mm)*
G04 Created by KiCad (PCBNEW (6.0.0)) date 2022-05-24 20:35:50*
%MOMM*%
%LPD*%
G01*
G04 APERTURE LIST*
G04 Aperture macros list*
%AMRoundRect*
0 Rectangle with rounded corners*
0 $1 Rounding radius*
0 $2 $3 $4 $5 $6 $7 $8 $9 X,Y pos of 4 corners*
0 Add a 4 corners polygon primitive as box body*
4,1,4,$2,$3,$4,$5,$6,$7,$8,$9,$2,$3,0*
0 Add four circle primitives for the rounded corners*
1,1,$1+$1,$2,$3*
1,1,$1+$1,$4,$5*
1,1,$1+$1,$6,$7*
1,1,$1+$1,$8,$9*
0 Add four rect primitives between the rounded corners*
20,1,$1+$1,$2,$3,$4,$5,0*
20,1,$1+$1,$4,$5,$6,$7,0*
20,1,$1+$1,$6,$7,$8,$9,0*
20,1,$1+$1,$8,$9,$2,$3,0*%
G04 Aperture macros list end*
%ADD10C,0.150000*%
%ADD11C,0.254000*%
%ADD12C,0.127000*%
%ADD13C,0.120000*%
%ADD14C,0.100000*%
%ADD15C,0.200000*%
%ADD16C,0.441000*%
%ADD17C,0.360000*%
%ADD18RoundRect,0.135000X0.135000X0.185000X-0.135000X0.185000X-0.135000X-0.185000X0.135000X-0.185000X0*%
%ADD19RoundRect,0.075000X-0.662500X-0.075000X0.662500X-0.075000X0.662500X0.075000X-0.662500X0.075000X0*%
%ADD20RoundRect,0.075000X-0.075000X-0.662500X0.075000X-0.662500X0.075000X0.662500X-0.075000X0.662500X0*%
%ADD21R,5.000000X5.000000*%
%ADD22C,3.200000*%
%ADD23RoundRect,0.135000X-0.135000X-0.185000X0.135000X-0.185000X0.135000X0.185000X-0.135000X0.185000X0*%
%ADD24RoundRect,0.135000X-0.185000X0.135000X-0.185000X-0.135000X0.185000X-0.135000X0.185000X0.135000X0*%
%ADD25RoundRect,0.218750X-0.218750X-0.256250X0.218750X-0.256250X0.218750X0.256250X-0.218750X0.256250X0*%
%ADD26RoundRect,0.140000X-0.140000X-0.170000X0.140000X-0.170000X0.140000X0.170000X-0.140000X0.170000X0*%
%ADD27RoundRect,0.250000X-0.625000X0.312500X-0.625000X-0.312500X0.625000X-0.312500X0.625000X0.312500X0*%
%ADD28RoundRect,0.135000X0.185000X-0.135000X0.185000X0.135000X-0.185000X0.135000X-0.185000X-0.135000X0*%
%ADD29RoundRect,0.225000X0.250000X-0.225000X0.250000X0.225000X-0.250000X0.225000X-0.250000X-0.225000X0*%
%ADD30R,2.200000X0.600000*%
%ADD31R,2.150000X3.450000*%
%ADD32RoundRect,0.250000X-0.475000X0.250000X-0.475000X-0.250000X0.475000X-0.250000X0.475000X0.250000X0*%
%ADD33RoundRect,0.225000X-0.250000X0.225000X-0.250000X-0.225000X0.250000X-0.225000X0.250000X0.225000X0*%
%ADD34R,0.900000X0.254000*%
%ADD35R,0.254000X0.900000*%
%ADD36R,3.100000X3.100000*%
%ADD37RoundRect,0.140000X-0.170000X0.140000X-0.170000X-0.140000X0.170000X-0.140000X0.170000X0.140000X0*%
%ADD38R,1.300000X1.100000*%
%ADD39RoundRect,0.075000X0.075000X-0.662500X0.075000X0.662500X-0.075000X0.662500X-0.075000X-0.662500X0*%
%ADD40RoundRect,0.075000X0.662500X-0.075000X0.662500X0.075000X-0.662500X0.075000X-0.662500X-0.075000X0*%
%ADD41R,2.100000X1.400000*%
%ADD42RoundRect,0.140000X0.140000X0.170000X-0.140000X0.170000X-0.140000X-0.170000X0.140000X-0.170000X0*%
%ADD43RoundRect,0.150000X-0.587500X-0.150000X0.587500X-0.150000X0.587500X0.150000X-0.587500X0.150000X0*%
%ADD44RoundRect,0.150000X0.150000X-0.512500X0.150000X0.512500X-0.150000X0.512500X-0.150000X-0.512500X0*%
%ADD45RoundRect,0.140000X0.170000X-0.140000X0.170000X0.140000X-0.170000X0.140000X-0.170000X-0.140000X0*%
%ADD46RoundRect,0.250000X0.475000X-0.250000X0.475000X0.250000X-0.475000X0.250000X-0.475000X-0.250000X0*%
%ADD47RoundRect,0.225000X0.225000X0.250000X-0.225000X0.250000X-0.225000X-0.250000X0.225000X-0.250000X0*%
%ADD48C,0.685800*%
%ADD49O,1.300000X2.500000*%
%ADD50O,1.300000X3.200000*%
%ADD51RoundRect,0.150000X0.150000X-0.587500X0.150000X0.587500X-0.150000X0.587500X-0.150000X-0.587500X0*%
%ADD52R,1.400000X2.100000*%
%ADD53RoundRect,0.250000X0.625000X-0.312500X0.625000X0.312500X-0.625000X0.312500X-0.625000X-0.312500X0*%
%ADD54RoundRect,0.225000X-0.225000X-0.250000X0.225000X-0.250000X0.225000X0.250000X-0.225000X0.250000X0*%
%ADD55RoundRect,0.243750X-0.243750X-0.456250X0.243750X-0.456250X0.243750X0.456250X-0.243750X0.456250X0*%
%ADD56RoundRect,0.218750X-0.381250X0.218750X-0.381250X-0.218750X0.381250X-0.218750X0.381250X0.218750X0*%
%ADD57RoundRect,0.218750X0.381250X-0.218750X0.381250X0.218750X-0.381250X0.218750X-0.381250X-0.218750X0*%
%ADD58RoundRect,0.250000X-0.350000X-0.625000X0.350000X-0.625000X0.350000X0.625000X-0.350000X0.625000X0*%
%ADD59O,1.200000X1.750000*%
%ADD60C,1.100000*%
G04 APERTURE END LIST*
D10*
X91378738Y-84753380D02*
X91950166Y-84753380D01*
X91664452Y-85753380D02*
X91664452Y-84753380D01*
X92283500Y-85753380D02*
X92283500Y-85086714D01*
X92283500Y-85277190D02*
X92331119Y-85181952D01*
X92378738Y-85134333D01*
X92473976Y-85086714D01*
X92569214Y-85086714D01*
X93331119Y-85753380D02*
X93331119Y-85229571D01*
X93283500Y-85134333D01*
X93188261Y-85086714D01*
X92997785Y-85086714D01*
X92902547Y-85134333D01*
X93331119Y-85705761D02*
X93235880Y-85753380D01*
X92997785Y-85753380D01*
X92902547Y-85705761D01*
X92854928Y-85610523D01*
X92854928Y-85515285D01*
X92902547Y-85420047D01*
X92997785Y-85372428D01*
X93235880Y-85372428D01*
X93331119Y-85324809D01*
X94235880Y-85705761D02*
X94140642Y-85753380D01*
X93950166Y-85753380D01*
X93854928Y-85705761D01*
X93807309Y-85658142D01*
X93759690Y-85562904D01*
X93759690Y-85277190D01*
X93807309Y-85181952D01*
X93854928Y-85134333D01*
X93950166Y-85086714D01*
X94140642Y-85086714D01*
X94235880Y-85134333D01*
X94664452Y-85753380D02*
X94664452Y-84753380D01*
X94759690Y-85372428D02*
X95045404Y-85753380D01*
X95045404Y-85086714D02*
X94664452Y-85467666D01*
X95473976Y-85753380D02*
X95473976Y-84753380D01*
X95854928Y-84753380D01*
X95950166Y-84801000D01*
X95997785Y-84848619D01*
X96045404Y-84943857D01*
X96045404Y-85086714D01*
X95997785Y-85181952D01*
X95950166Y-85229571D01*
X95854928Y-85277190D01*
X95473976Y-85277190D01*
X96902547Y-85753380D02*
X96902547Y-85229571D01*
X96854928Y-85134333D01*
X96759690Y-85086714D01*
X96569214Y-85086714D01*
X96473976Y-85134333D01*
X96902547Y-85705761D02*
X96807309Y-85753380D01*
X96569214Y-85753380D01*
X96473976Y-85705761D01*
X96426357Y-85610523D01*
X96426357Y-85515285D01*
X96473976Y-85420047D01*
X96569214Y-85372428D01*
X96807309Y-85372428D01*
X96902547Y-85324809D01*
X97807309Y-85753380D02*
X97807309Y-84753380D01*
X97807309Y-85705761D02*
X97712071Y-85753380D01*
X97521595Y-85753380D01*
X97426357Y-85705761D01*
X97378738Y-85658142D01*
X97331119Y-85562904D01*
X97331119Y-85277190D01*
X97378738Y-85181952D01*
X97426357Y-85134333D01*
X97521595Y-85086714D01*
X97712071Y-85086714D01*
X97807309Y-85134333D01*
X98759690Y-85753380D02*
X98283500Y-85753380D01*
X98283500Y-84753380D01*
X99093023Y-85753380D02*
X99093023Y-85086714D01*
X99093023Y-84753380D02*
X99045404Y-84801000D01*
X99093023Y-84848619D01*
X99140642Y-84801000D01*
X99093023Y-84753380D01*
X99093023Y-84848619D01*
X99997785Y-85086714D02*
X99997785Y-85896238D01*
X99950166Y-85991476D01*
X99902547Y-86039095D01*
X99807309Y-86086714D01*
X99664452Y-86086714D01*
X99569214Y-86039095D01*
X99997785Y-85705761D02*
X99902547Y-85753380D01*
X99712071Y-85753380D01*
X99616833Y-85705761D01*
X99569214Y-85658142D01*
X99521595Y-85562904D01*
X99521595Y-85277190D01*
X99569214Y-85181952D01*
X99616833Y-85134333D01*
X99712071Y-85086714D01*
X99902547Y-85086714D01*
X99997785Y-85134333D01*
X100473976Y-85753380D02*
X100473976Y-84753380D01*
X100902547Y-85753380D02*
X100902547Y-85229571D01*
X100854928Y-85134333D01*
X100759690Y-85086714D01*
X100616833Y-85086714D01*
X100521595Y-85134333D01*
X100473976Y-85181952D01*
X101235880Y-85086714D02*
X101616833Y-85086714D01*
X101378738Y-84753380D02*
X101378738Y-85610523D01*
X101426357Y-85705761D01*
X101521595Y-85753380D01*
X101616833Y-85753380D01*
X101902547Y-85705761D02*
X101997785Y-85753380D01*
X102188261Y-85753380D01*
X102283500Y-85705761D01*
X102331119Y-85610523D01*
X102331119Y-85562904D01*
X102283500Y-85467666D01*
X102188261Y-85420047D01*
X102045404Y-85420047D01*
X101950166Y-85372428D01*
X101902547Y-85277190D01*
X101902547Y-85229571D01*
X101950166Y-85134333D01*
X102045404Y-85086714D01*
X102188261Y-85086714D01*
X102283500Y-85134333D01*
X102521595Y-85848619D02*
X103283500Y-85848619D01*
X103521595Y-85753380D02*
X103521595Y-84753380D01*
X103854928Y-85467666D01*
X104188261Y-84753380D01*
X104188261Y-85753380D01*
X105093023Y-85753380D02*
X105093023Y-85229571D01*
X105045404Y-85134333D01*
X104950166Y-85086714D01*
X104759690Y-85086714D01*
X104664452Y-85134333D01*
X105093023Y-85705761D02*
X104997785Y-85753380D01*
X104759690Y-85753380D01*
X104664452Y-85705761D01*
X104616833Y-85610523D01*
X104616833Y-85515285D01*
X104664452Y-85420047D01*
X104759690Y-85372428D01*
X104997785Y-85372428D01*
X105093023Y-85324809D01*
X105569214Y-85753380D02*
X105569214Y-85086714D01*
X105569214Y-84753380D02*
X105521595Y-84801000D01*
X105569214Y-84848619D01*
X105616833Y-84801000D01*
X105569214Y-84753380D01*
X105569214Y-84848619D01*
X106045404Y-85086714D02*
X106045404Y-85753380D01*
X106045404Y-85181952D02*
X106093023Y-85134333D01*
X106188261Y-85086714D01*
X106331119Y-85086714D01*
X106426357Y-85134333D01*
X106473976Y-85229571D01*
X106473976Y-85753380D01*
X92093023Y-87363380D02*
X91759690Y-86887190D01*
X91521595Y-87363380D02*
X91521595Y-86363380D01*
X91902547Y-86363380D01*
X91997785Y-86411000D01*
X92045404Y-86458619D01*
X92093023Y-86553857D01*
X92093023Y-86696714D01*
X92045404Y-86791952D01*
X91997785Y-86839571D01*
X91902547Y-86887190D01*
X91521595Y-86887190D01*
X92902547Y-87315761D02*
X92807309Y-87363380D01*
X92616833Y-87363380D01*
X92521595Y-87315761D01*
X92473976Y-87220523D01*
X92473976Y-86839571D01*
X92521595Y-86744333D01*
X92616833Y-86696714D01*
X92807309Y-86696714D01*
X92902547Y-86744333D01*
X92950166Y-86839571D01*
X92950166Y-86934809D01*
X92473976Y-87030047D01*
X93283500Y-86696714D02*
X93521595Y-87363380D01*
X93759690Y-86696714D01*
X93902547Y-87458619D02*
X94664452Y-87458619D01*
X94854928Y-87077666D02*
X95331119Y-87077666D01*
X94759690Y-87363380D02*
X95093023Y-86363380D01*
X95426357Y-87363380D01*
D11*
X93774380Y-89969170D02*
X94379142Y-89969170D01*
X93653428Y-90332027D02*
X94076761Y-89062027D01*
X94500095Y-90332027D01*
X94923428Y-90332027D02*
X94923428Y-89062027D01*
X95649142Y-90332027D01*
X95649142Y-89062027D01*
D12*
X115071785Y-87314261D02*
X114860119Y-87011880D01*
X114708928Y-87314261D02*
X114708928Y-86679261D01*
X114950833Y-86679261D01*
X115011309Y-86709500D01*
X115041547Y-86739738D01*
X115071785Y-86800214D01*
X115071785Y-86890928D01*
X115041547Y-86951404D01*
X115011309Y-86981642D01*
X114950833Y-87011880D01*
X114708928Y-87011880D01*
X115313690Y-86739738D02*
X115343928Y-86709500D01*
X115404404Y-86679261D01*
X115555595Y-86679261D01*
X115616071Y-86709500D01*
X115646309Y-86739738D01*
X115676547Y-86800214D01*
X115676547Y-86860690D01*
X115646309Y-86951404D01*
X115283452Y-87314261D01*
X115676547Y-87314261D01*
X116220833Y-86890928D02*
X116220833Y-87314261D01*
X116069642Y-86649023D02*
X115918452Y-87102595D01*
X116311547Y-87102595D01*
X104328190Y-89727261D02*
X104328190Y-90241309D01*
X104358428Y-90301785D01*
X104388666Y-90332023D01*
X104449142Y-90362261D01*
X104570095Y-90362261D01*
X104630571Y-90332023D01*
X104660809Y-90301785D01*
X104691047Y-90241309D01*
X104691047Y-89727261D01*
X105265571Y-89938928D02*
X105265571Y-90362261D01*
X105114380Y-89697023D02*
X104963190Y-90150595D01*
X105356285Y-90150595D01*
X131516180Y-118437271D02*
X131516180Y-117802271D01*
X131516180Y-118104652D02*
X131879037Y-118104652D01*
X131879037Y-118437271D02*
X131879037Y-117802271D01*
X132120942Y-117802271D02*
X132514037Y-117802271D01*
X132302370Y-118044176D01*
X132393085Y-118044176D01*
X132453561Y-118074414D01*
X132483799Y-118104652D01*
X132514037Y-118165129D01*
X132514037Y-118316319D01*
X132483799Y-118376795D01*
X132453561Y-118407033D01*
X132393085Y-118437271D01*
X132211656Y-118437271D01*
X132151180Y-118407033D01*
X132120942Y-118376795D01*
X131962785Y-116397261D02*
X131751119Y-116094880D01*
X131599928Y-116397261D02*
X131599928Y-115762261D01*
X131841833Y-115762261D01*
X131902309Y-115792500D01*
X131932547Y-115822738D01*
X131962785Y-115883214D01*
X131962785Y-115973928D01*
X131932547Y-116034404D01*
X131902309Y-116064642D01*
X131841833Y-116094880D01*
X131599928Y-116094880D01*
X132204690Y-115822738D02*
X132234928Y-115792500D01*
X132295404Y-115762261D01*
X132446595Y-115762261D01*
X132507071Y-115792500D01*
X132537309Y-115822738D01*
X132567547Y-115883214D01*
X132567547Y-115943690D01*
X132537309Y-116034404D01*
X132174452Y-116397261D01*
X132567547Y-116397261D01*
X133111833Y-115762261D02*
X132990880Y-115762261D01*
X132930404Y-115792500D01*
X132900166Y-115822738D01*
X132839690Y-115913452D01*
X132809452Y-116034404D01*
X132809452Y-116276309D01*
X132839690Y-116336785D01*
X132869928Y-116367023D01*
X132930404Y-116397261D01*
X133051357Y-116397261D01*
X133111833Y-116367023D01*
X133142071Y-116336785D01*
X133172309Y-116276309D01*
X133172309Y-116125119D01*
X133142071Y-116064642D01*
X133111833Y-116034404D01*
X133051357Y-116004166D01*
X132930404Y-116004166D01*
X132869928Y-116034404D01*
X132839690Y-116064642D01*
X132809452Y-116125119D01*
X88081261Y-100262214D02*
X87778880Y-100473880D01*
X88081261Y-100625071D02*
X87446261Y-100625071D01*
X87446261Y-100383166D01*
X87476500Y-100322690D01*
X87506738Y-100292452D01*
X87567214Y-100262214D01*
X87657928Y-100262214D01*
X87718404Y-100292452D01*
X87748642Y-100322690D01*
X87778880Y-100383166D01*
X87778880Y-100625071D01*
X88081261Y-99657452D02*
X88081261Y-100020309D01*
X88081261Y-99838880D02*
X87446261Y-99838880D01*
X87536976Y-99899357D01*
X87597452Y-99959833D01*
X87627690Y-100020309D01*
X87657928Y-99113166D02*
X88081261Y-99113166D01*
X87416023Y-99264357D02*
X87869595Y-99415547D01*
X87869595Y-99022452D01*
X113674785Y-82046785D02*
X113644547Y-82077023D01*
X113553833Y-82107261D01*
X113493357Y-82107261D01*
X113402642Y-82077023D01*
X113342166Y-82016547D01*
X113311928Y-81956071D01*
X113281690Y-81835119D01*
X113281690Y-81744404D01*
X113311928Y-81623452D01*
X113342166Y-81562976D01*
X113402642Y-81502500D01*
X113493357Y-81472261D01*
X113553833Y-81472261D01*
X113644547Y-81502500D01*
X113674785Y-81532738D01*
X113916690Y-81532738D02*
X113946928Y-81502500D01*
X114007404Y-81472261D01*
X114158595Y-81472261D01*
X114219071Y-81502500D01*
X114249309Y-81532738D01*
X114279547Y-81593214D01*
X114279547Y-81653690D01*
X114249309Y-81744404D01*
X113886452Y-82107261D01*
X114279547Y-82107261D01*
X114823833Y-81472261D02*
X114702880Y-81472261D01*
X114642404Y-81502500D01*
X114612166Y-81532738D01*
X114551690Y-81623452D01*
X114521452Y-81744404D01*
X114521452Y-81986309D01*
X114551690Y-82046785D01*
X114581928Y-82077023D01*
X114642404Y-82107261D01*
X114763357Y-82107261D01*
X114823833Y-82077023D01*
X114854071Y-82046785D01*
X114884309Y-81986309D01*
X114884309Y-81835119D01*
X114854071Y-81774642D01*
X114823833Y-81744404D01*
X114763357Y-81714166D01*
X114642404Y-81714166D01*
X114581928Y-81744404D01*
X114551690Y-81774642D01*
X114521452Y-81835119D01*
X120339261Y-120201214D02*
X120036880Y-120412880D01*
X120339261Y-120564071D02*
X119704261Y-120564071D01*
X119704261Y-120322166D01*
X119734500Y-120261690D01*
X119764738Y-120231452D01*
X119825214Y-120201214D01*
X119915928Y-120201214D01*
X119976404Y-120231452D01*
X120006642Y-120261690D01*
X120036880Y-120322166D01*
X120036880Y-120564071D01*
X120339261Y-119596452D02*
X120339261Y-119959309D01*
X120339261Y-119777880D02*
X119704261Y-119777880D01*
X119794976Y-119838357D01*
X119855452Y-119898833D01*
X119885690Y-119959309D01*
X119704261Y-119021928D02*
X119704261Y-119324309D01*
X120006642Y-119354547D01*
X119976404Y-119324309D01*
X119946166Y-119263833D01*
X119946166Y-119112642D01*
X119976404Y-119052166D01*
X120006642Y-119021928D01*
X120067119Y-118991690D01*
X120218309Y-118991690D01*
X120278785Y-119021928D01*
X120309023Y-119052166D01*
X120339261Y-119112642D01*
X120339261Y-119263833D01*
X120309023Y-119324309D01*
X120278785Y-119354547D01*
X125419261Y-95436214D02*
X125116880Y-95647880D01*
X125419261Y-95799071D02*
X124784261Y-95799071D01*
X124784261Y-95557166D01*
X124814500Y-95496690D01*
X124844738Y-95466452D01*
X124905214Y-95436214D01*
X124995928Y-95436214D01*
X125056404Y-95466452D01*
X125086642Y-95496690D01*
X125116880Y-95557166D01*
X125116880Y-95799071D01*
X125419261Y-94831452D02*
X125419261Y-95194309D01*
X125419261Y-95012880D02*
X124784261Y-95012880D01*
X124874976Y-95073357D01*
X124935452Y-95133833D01*
X124965690Y-95194309D01*
X125419261Y-94226690D02*
X125419261Y-94589547D01*
X125419261Y-94408119D02*
X124784261Y-94408119D01*
X124874976Y-94468595D01*
X124935452Y-94529071D01*
X124965690Y-94589547D01*
X102371785Y-115375214D02*
X102402023Y-115405452D01*
X102432261Y-115496166D01*
X102432261Y-115556642D01*
X102402023Y-115647357D01*
X102341547Y-115707833D01*
X102281071Y-115738071D01*
X102160119Y-115768309D01*
X102069404Y-115768309D01*
X101948452Y-115738071D01*
X101887976Y-115707833D01*
X101827500Y-115647357D01*
X101797261Y-115556642D01*
X101797261Y-115496166D01*
X101827500Y-115405452D01*
X101857738Y-115375214D01*
X102432261Y-114770452D02*
X102432261Y-115133309D01*
X102432261Y-114951880D02*
X101797261Y-114951880D01*
X101887976Y-115012357D01*
X101948452Y-115072833D01*
X101978690Y-115133309D01*
X102069404Y-114407595D02*
X102039166Y-114468071D01*
X102008928Y-114498309D01*
X101948452Y-114528547D01*
X101918214Y-114528547D01*
X101857738Y-114498309D01*
X101827500Y-114468071D01*
X101797261Y-114407595D01*
X101797261Y-114286642D01*
X101827500Y-114226166D01*
X101857738Y-114195928D01*
X101918214Y-114165690D01*
X101948452Y-114165690D01*
X102008928Y-114195928D01*
X102039166Y-114226166D01*
X102069404Y-114286642D01*
X102069404Y-114407595D01*
X102099642Y-114468071D01*
X102129880Y-114498309D01*
X102190357Y-114528547D01*
X102311309Y-114528547D01*
X102371785Y-114498309D01*
X102402023Y-114468071D01*
X102432261Y-114407595D01*
X102432261Y-114286642D01*
X102402023Y-114226166D01*
X102371785Y-114195928D01*
X102311309Y-114165690D01*
X102190357Y-114165690D01*
X102129880Y-114195928D01*
X102099642Y-114226166D01*
X102069404Y-114286642D01*
X132658261Y-108186833D02*
X132355880Y-108398500D01*
X132658261Y-108549690D02*
X132023261Y-108549690D01*
X132023261Y-108307785D01*
X132053500Y-108247309D01*
X132083738Y-108217071D01*
X132144214Y-108186833D01*
X132234928Y-108186833D01*
X132295404Y-108217071D01*
X132325642Y-108247309D01*
X132355880Y-108307785D01*
X132355880Y-108549690D01*
X132658261Y-107582071D02*
X132658261Y-107944928D01*
X132658261Y-107763500D02*
X132023261Y-107763500D01*
X132113976Y-107823976D01*
X132174452Y-107884452D01*
X132204690Y-107944928D01*
X104709190Y-105856261D02*
X104709190Y-106370309D01*
X104739428Y-106430785D01*
X104769666Y-106461023D01*
X104830142Y-106491261D01*
X104951095Y-106491261D01*
X105011571Y-106461023D01*
X105041809Y-106430785D01*
X105072047Y-106370309D01*
X105072047Y-105856261D01*
X105676809Y-105856261D02*
X105374428Y-105856261D01*
X105344190Y-106158642D01*
X105374428Y-106128404D01*
X105434904Y-106098166D01*
X105586095Y-106098166D01*
X105646571Y-106128404D01*
X105676809Y-106158642D01*
X105707047Y-106219119D01*
X105707047Y-106370309D01*
X105676809Y-106430785D01*
X105646571Y-106461023D01*
X105586095Y-106491261D01*
X105434904Y-106491261D01*
X105374428Y-106461023D01*
X105344190Y-106430785D01*
X118295166Y-120654785D02*
X118264928Y-120685023D01*
X118174214Y-120715261D01*
X118113738Y-120715261D01*
X118023023Y-120685023D01*
X117962547Y-120624547D01*
X117932309Y-120564071D01*
X117902071Y-120443119D01*
X117902071Y-120352404D01*
X117932309Y-120231452D01*
X117962547Y-120170976D01*
X118023023Y-120110500D01*
X118113738Y-120080261D01*
X118174214Y-120080261D01*
X118264928Y-120110500D01*
X118295166Y-120140738D01*
X118839452Y-120080261D02*
X118718500Y-120080261D01*
X118658023Y-120110500D01*
X118627785Y-120140738D01*
X118567309Y-120231452D01*
X118537071Y-120352404D01*
X118537071Y-120594309D01*
X118567309Y-120654785D01*
X118597547Y-120685023D01*
X118658023Y-120715261D01*
X118778976Y-120715261D01*
X118839452Y-120685023D01*
X118869690Y-120654785D01*
X118899928Y-120594309D01*
X118899928Y-120443119D01*
X118869690Y-120382642D01*
X118839452Y-120352404D01*
X118778976Y-120322166D01*
X118658023Y-120322166D01*
X118597547Y-120352404D01*
X118567309Y-120382642D01*
X118537071Y-120443119D01*
X113801785Y-106231214D02*
X113832023Y-106261452D01*
X113862261Y-106352166D01*
X113862261Y-106412642D01*
X113832023Y-106503357D01*
X113771547Y-106563833D01*
X113711071Y-106594071D01*
X113590119Y-106624309D01*
X113499404Y-106624309D01*
X113378452Y-106594071D01*
X113317976Y-106563833D01*
X113257500Y-106503357D01*
X113227261Y-106412642D01*
X113227261Y-106352166D01*
X113257500Y-106261452D01*
X113287738Y-106231214D01*
X113227261Y-106019547D02*
X113227261Y-105626452D01*
X113469166Y-105838119D01*
X113469166Y-105747404D01*
X113499404Y-105686928D01*
X113529642Y-105656690D01*
X113590119Y-105626452D01*
X113741309Y-105626452D01*
X113801785Y-105656690D01*
X113832023Y-105686928D01*
X113862261Y-105747404D01*
X113862261Y-105928833D01*
X113832023Y-105989309D01*
X113801785Y-106019547D01*
X113227261Y-105414785D02*
X113227261Y-105021690D01*
X113469166Y-105233357D01*
X113469166Y-105142642D01*
X113499404Y-105082166D01*
X113529642Y-105051928D01*
X113590119Y-105021690D01*
X113741309Y-105021690D01*
X113801785Y-105051928D01*
X113832023Y-105082166D01*
X113862261Y-105142642D01*
X113862261Y-105324071D01*
X113832023Y-105384547D01*
X113801785Y-105414785D01*
X92644190Y-116778261D02*
X92644190Y-117292309D01*
X92674428Y-117352785D01*
X92704666Y-117383023D01*
X92765142Y-117413261D01*
X92886095Y-117413261D01*
X92946571Y-117383023D01*
X92976809Y-117352785D01*
X93007047Y-117292309D01*
X93007047Y-116778261D01*
X93248952Y-116778261D02*
X93642047Y-116778261D01*
X93430380Y-117020166D01*
X93521095Y-117020166D01*
X93581571Y-117050404D01*
X93611809Y-117080642D01*
X93642047Y-117141119D01*
X93642047Y-117292309D01*
X93611809Y-117352785D01*
X93581571Y-117383023D01*
X93521095Y-117413261D01*
X93339666Y-117413261D01*
X93279190Y-117383023D01*
X93248952Y-117352785D01*
X94370785Y-110168214D02*
X94401023Y-110198452D01*
X94431261Y-110289166D01*
X94431261Y-110349642D01*
X94401023Y-110440357D01*
X94340547Y-110500833D01*
X94280071Y-110531071D01*
X94159119Y-110561309D01*
X94068404Y-110561309D01*
X93947452Y-110531071D01*
X93886976Y-110500833D01*
X93826500Y-110440357D01*
X93796261Y-110349642D01*
X93796261Y-110289166D01*
X93826500Y-110198452D01*
X93856738Y-110168214D01*
X93856738Y-109926309D02*
X93826500Y-109896071D01*
X93796261Y-109835595D01*
X93796261Y-109684404D01*
X93826500Y-109623928D01*
X93856738Y-109593690D01*
X93917214Y-109563452D01*
X93977690Y-109563452D01*
X94068404Y-109593690D01*
X94431261Y-109956547D01*
X94431261Y-109563452D01*
X94007928Y-109019166D02*
X94431261Y-109019166D01*
X93766023Y-109170357D02*
X94219595Y-109321547D01*
X94219595Y-108928452D01*
X101670261Y-122057833D02*
X101367880Y-122269500D01*
X101670261Y-122420690D02*
X101035261Y-122420690D01*
X101035261Y-122178785D01*
X101065500Y-122118309D01*
X101095738Y-122088071D01*
X101156214Y-122057833D01*
X101246928Y-122057833D01*
X101307404Y-122088071D01*
X101337642Y-122118309D01*
X101367880Y-122178785D01*
X101367880Y-122420690D01*
X101246928Y-121513547D02*
X101670261Y-121513547D01*
X101005023Y-121664738D02*
X101458595Y-121815928D01*
X101458595Y-121422833D01*
X88380619Y-106569880D02*
X88380619Y-106872261D01*
X88168952Y-106237261D02*
X88380619Y-106569880D01*
X88592285Y-106237261D01*
X89136571Y-106872261D02*
X88773714Y-106872261D01*
X88955142Y-106872261D02*
X88955142Y-106237261D01*
X88894666Y-106327976D01*
X88834190Y-106388452D01*
X88773714Y-106418690D01*
X101277166Y-120969261D02*
X101065500Y-120666880D01*
X100914309Y-120969261D02*
X100914309Y-120334261D01*
X101156214Y-120334261D01*
X101216690Y-120364500D01*
X101246928Y-120394738D01*
X101277166Y-120455214D01*
X101277166Y-120545928D01*
X101246928Y-120606404D01*
X101216690Y-120636642D01*
X101156214Y-120666880D01*
X100914309Y-120666880D01*
X101640023Y-120606404D02*
X101579547Y-120576166D01*
X101549309Y-120545928D01*
X101519071Y-120485452D01*
X101519071Y-120455214D01*
X101549309Y-120394738D01*
X101579547Y-120364500D01*
X101640023Y-120334261D01*
X101760976Y-120334261D01*
X101821452Y-120364500D01*
X101851690Y-120394738D01*
X101881928Y-120455214D01*
X101881928Y-120485452D01*
X101851690Y-120545928D01*
X101821452Y-120576166D01*
X101760976Y-120606404D01*
X101640023Y-120606404D01*
X101579547Y-120636642D01*
X101549309Y-120666880D01*
X101519071Y-120727357D01*
X101519071Y-120848309D01*
X101549309Y-120908785D01*
X101579547Y-120939023D01*
X101640023Y-120969261D01*
X101760976Y-120969261D01*
X101821452Y-120939023D01*
X101851690Y-120908785D01*
X101881928Y-120848309D01*
X101881928Y-120727357D01*
X101851690Y-120666880D01*
X101821452Y-120636642D01*
X101760976Y-120606404D01*
X133964166Y-104840261D02*
X133752500Y-104537880D01*
X133601309Y-104840261D02*
X133601309Y-104205261D01*
X133843214Y-104205261D01*
X133903690Y-104235500D01*
X133933928Y-104265738D01*
X133964166Y-104326214D01*
X133964166Y-104416928D01*
X133933928Y-104477404D01*
X133903690Y-104507642D01*
X133843214Y-104537880D01*
X133601309Y-104537880D01*
X134538690Y-104205261D02*
X134236309Y-104205261D01*
X134206071Y-104507642D01*
X134236309Y-104477404D01*
X134296785Y-104447166D01*
X134447976Y-104447166D01*
X134508452Y-104477404D01*
X134538690Y-104507642D01*
X134568928Y-104568119D01*
X134568928Y-104719309D01*
X134538690Y-104779785D01*
X134508452Y-104810023D01*
X134447976Y-104840261D01*
X134296785Y-104840261D01*
X134236309Y-104810023D01*
X134206071Y-104779785D01*
X89342190Y-94299261D02*
X89342190Y-94813309D01*
X89372428Y-94873785D01*
X89402666Y-94904023D01*
X89463142Y-94934261D01*
X89584095Y-94934261D01*
X89644571Y-94904023D01*
X89674809Y-94873785D01*
X89705047Y-94813309D01*
X89705047Y-94299261D01*
X89977190Y-94359738D02*
X90007428Y-94329500D01*
X90067904Y-94299261D01*
X90219095Y-94299261D01*
X90279571Y-94329500D01*
X90309809Y-94359738D01*
X90340047Y-94420214D01*
X90340047Y-94480690D01*
X90309809Y-94571404D01*
X89946952Y-94934261D01*
X90340047Y-94934261D01*
X124031333Y-113065023D02*
X124122047Y-113095261D01*
X124273238Y-113095261D01*
X124333714Y-113065023D01*
X124363952Y-113034785D01*
X124394190Y-112974309D01*
X124394190Y-112913833D01*
X124363952Y-112853357D01*
X124333714Y-112823119D01*
X124273238Y-112792880D01*
X124152285Y-112762642D01*
X124091809Y-112732404D01*
X124061571Y-112702166D01*
X124031333Y-112641690D01*
X124031333Y-112581214D01*
X124061571Y-112520738D01*
X124091809Y-112490500D01*
X124152285Y-112460261D01*
X124303476Y-112460261D01*
X124394190Y-112490500D01*
X124605857Y-112460261D02*
X124757047Y-113095261D01*
X124878000Y-112641690D01*
X124998952Y-113095261D01*
X125150142Y-112460261D01*
X125724666Y-113095261D02*
X125361809Y-113095261D01*
X125543238Y-113095261D02*
X125543238Y-112460261D01*
X125482761Y-112550976D01*
X125422285Y-112611452D01*
X125361809Y-112641690D01*
X89671785Y-105668785D02*
X89641547Y-105699023D01*
X89550833Y-105729261D01*
X89490357Y-105729261D01*
X89399642Y-105699023D01*
X89339166Y-105638547D01*
X89308928Y-105578071D01*
X89278690Y-105457119D01*
X89278690Y-105366404D01*
X89308928Y-105245452D01*
X89339166Y-105184976D01*
X89399642Y-105124500D01*
X89490357Y-105094261D01*
X89550833Y-105094261D01*
X89641547Y-105124500D01*
X89671785Y-105154738D01*
X89913690Y-105154738D02*
X89943928Y-105124500D01*
X90004404Y-105094261D01*
X90155595Y-105094261D01*
X90216071Y-105124500D01*
X90246309Y-105154738D01*
X90276547Y-105215214D01*
X90276547Y-105275690D01*
X90246309Y-105366404D01*
X89883452Y-105729261D01*
X90276547Y-105729261D01*
X90488214Y-105094261D02*
X90881309Y-105094261D01*
X90669642Y-105336166D01*
X90760357Y-105336166D01*
X90820833Y-105366404D01*
X90851071Y-105396642D01*
X90881309Y-105457119D01*
X90881309Y-105608309D01*
X90851071Y-105668785D01*
X90820833Y-105699023D01*
X90760357Y-105729261D01*
X90578928Y-105729261D01*
X90518452Y-105699023D01*
X90488214Y-105668785D01*
X103387785Y-115375214D02*
X103418023Y-115405452D01*
X103448261Y-115496166D01*
X103448261Y-115556642D01*
X103418023Y-115647357D01*
X103357547Y-115707833D01*
X103297071Y-115738071D01*
X103176119Y-115768309D01*
X103085404Y-115768309D01*
X102964452Y-115738071D01*
X102903976Y-115707833D01*
X102843500Y-115647357D01*
X102813261Y-115556642D01*
X102813261Y-115496166D01*
X102843500Y-115405452D01*
X102873738Y-115375214D01*
X103448261Y-114770452D02*
X103448261Y-115133309D01*
X103448261Y-114951880D02*
X102813261Y-114951880D01*
X102903976Y-115012357D01*
X102964452Y-115072833D01*
X102994690Y-115133309D01*
X103448261Y-114468071D02*
X103448261Y-114347119D01*
X103418023Y-114286642D01*
X103387785Y-114256404D01*
X103297071Y-114195928D01*
X103176119Y-114165690D01*
X102934214Y-114165690D01*
X102873738Y-114195928D01*
X102843500Y-114226166D01*
X102813261Y-114286642D01*
X102813261Y-114407595D01*
X102843500Y-114468071D01*
X102873738Y-114498309D01*
X102934214Y-114528547D01*
X103085404Y-114528547D01*
X103145880Y-114498309D01*
X103176119Y-114468071D01*
X103206357Y-114407595D01*
X103206357Y-114286642D01*
X103176119Y-114226166D01*
X103145880Y-114195928D01*
X103085404Y-114165690D01*
X125071523Y-114171738D02*
X125011047Y-114141500D01*
X124950571Y-114081023D01*
X124859857Y-113990309D01*
X124799380Y-113960071D01*
X124738904Y-113960071D01*
X124769142Y-114111261D02*
X124708666Y-114081023D01*
X124648190Y-114020547D01*
X124617952Y-113899595D01*
X124617952Y-113687928D01*
X124648190Y-113566976D01*
X124708666Y-113506500D01*
X124769142Y-113476261D01*
X124890095Y-113476261D01*
X124950571Y-113506500D01*
X125011047Y-113566976D01*
X125041285Y-113687928D01*
X125041285Y-113899595D01*
X125011047Y-114020547D01*
X124950571Y-114081023D01*
X124890095Y-114111261D01*
X124769142Y-114111261D01*
X125283190Y-113536738D02*
X125313428Y-113506500D01*
X125373904Y-113476261D01*
X125525095Y-113476261D01*
X125585571Y-113506500D01*
X125615809Y-113536738D01*
X125646047Y-113597214D01*
X125646047Y-113657690D01*
X125615809Y-113748404D01*
X125252952Y-114111261D01*
X125646047Y-114111261D01*
X116263166Y-120654785D02*
X116232928Y-120685023D01*
X116142214Y-120715261D01*
X116081738Y-120715261D01*
X115991023Y-120685023D01*
X115930547Y-120624547D01*
X115900309Y-120564071D01*
X115870071Y-120443119D01*
X115870071Y-120352404D01*
X115900309Y-120231452D01*
X115930547Y-120170976D01*
X115991023Y-120110500D01*
X116081738Y-120080261D01*
X116142214Y-120080261D01*
X116232928Y-120110500D01*
X116263166Y-120140738D01*
X116807452Y-120291928D02*
X116807452Y-120715261D01*
X116656261Y-120050023D02*
X116505071Y-120503595D01*
X116898166Y-120503595D01*
X123124190Y-113476261D02*
X123124190Y-113990309D01*
X123154428Y-114050785D01*
X123184666Y-114081023D01*
X123245142Y-114111261D01*
X123366095Y-114111261D01*
X123426571Y-114081023D01*
X123456809Y-114050785D01*
X123487047Y-113990309D01*
X123487047Y-113476261D01*
X124122047Y-114111261D02*
X123759190Y-114111261D01*
X123940619Y-114111261D02*
X123940619Y-113476261D01*
X123880142Y-113566976D01*
X123819666Y-113627452D01*
X123759190Y-113657690D01*
X100339785Y-120328214D02*
X100370023Y-120358452D01*
X100400261Y-120449166D01*
X100400261Y-120509642D01*
X100370023Y-120600357D01*
X100309547Y-120660833D01*
X100249071Y-120691071D01*
X100128119Y-120721309D01*
X100037404Y-120721309D01*
X99916452Y-120691071D01*
X99855976Y-120660833D01*
X99795500Y-120600357D01*
X99765261Y-120509642D01*
X99765261Y-120449166D01*
X99795500Y-120358452D01*
X99825738Y-120328214D01*
X99825738Y-120086309D02*
X99795500Y-120056071D01*
X99765261Y-119995595D01*
X99765261Y-119844404D01*
X99795500Y-119783928D01*
X99825738Y-119753690D01*
X99886214Y-119723452D01*
X99946690Y-119723452D01*
X100037404Y-119753690D01*
X100400261Y-120116547D01*
X100400261Y-119723452D01*
X99765261Y-119330357D02*
X99765261Y-119269880D01*
X99795500Y-119209404D01*
X99825738Y-119179166D01*
X99886214Y-119148928D01*
X100007166Y-119118690D01*
X100158357Y-119118690D01*
X100279309Y-119148928D01*
X100339785Y-119179166D01*
X100370023Y-119209404D01*
X100400261Y-119269880D01*
X100400261Y-119330357D01*
X100370023Y-119390833D01*
X100339785Y-119421071D01*
X100279309Y-119451309D01*
X100158357Y-119481547D01*
X100007166Y-119481547D01*
X99886214Y-119451309D01*
X99825738Y-119421071D01*
X99795500Y-119390833D01*
X99765261Y-119330357D01*
X93542261Y-104707214D02*
X93239880Y-104918880D01*
X93542261Y-105070071D02*
X92907261Y-105070071D01*
X92907261Y-104828166D01*
X92937500Y-104767690D01*
X92967738Y-104737452D01*
X93028214Y-104707214D01*
X93118928Y-104707214D01*
X93179404Y-104737452D01*
X93209642Y-104767690D01*
X93239880Y-104828166D01*
X93239880Y-105070071D01*
X93542261Y-104102452D02*
X93542261Y-104465309D01*
X93542261Y-104283880D02*
X92907261Y-104283880D01*
X92997976Y-104344357D01*
X93058452Y-104404833D01*
X93088690Y-104465309D01*
X92907261Y-103890785D02*
X92907261Y-103467452D01*
X93542261Y-103739595D01*
X118295166Y-119511785D02*
X118264928Y-119542023D01*
X118174214Y-119572261D01*
X118113738Y-119572261D01*
X118023023Y-119542023D01*
X117962547Y-119481547D01*
X117932309Y-119421071D01*
X117902071Y-119300119D01*
X117902071Y-119209404D01*
X117932309Y-119088452D01*
X117962547Y-119027976D01*
X118023023Y-118967500D01*
X118113738Y-118937261D01*
X118174214Y-118937261D01*
X118264928Y-118967500D01*
X118295166Y-118997738D01*
X118506833Y-118937261D02*
X118930166Y-118937261D01*
X118658023Y-119572261D01*
X131516180Y-74437257D02*
X131516180Y-73802257D01*
X131516180Y-74104638D02*
X131879037Y-74104638D01*
X131879037Y-74437257D02*
X131879037Y-73802257D01*
X132514037Y-74437257D02*
X132151180Y-74437257D01*
X132332609Y-74437257D02*
X132332609Y-73802257D01*
X132272132Y-73892972D01*
X132211656Y-73953448D01*
X132151180Y-73983686D01*
X88208261Y-88324214D02*
X87905880Y-88535880D01*
X88208261Y-88687071D02*
X87573261Y-88687071D01*
X87573261Y-88445166D01*
X87603500Y-88384690D01*
X87633738Y-88354452D01*
X87694214Y-88324214D01*
X87784928Y-88324214D01*
X87845404Y-88354452D01*
X87875642Y-88384690D01*
X87905880Y-88445166D01*
X87905880Y-88687071D01*
X87633738Y-88082309D02*
X87603500Y-88052071D01*
X87573261Y-87991595D01*
X87573261Y-87840404D01*
X87603500Y-87779928D01*
X87633738Y-87749690D01*
X87694214Y-87719452D01*
X87754690Y-87719452D01*
X87845404Y-87749690D01*
X88208261Y-88112547D01*
X88208261Y-87719452D01*
X88208261Y-87114690D02*
X88208261Y-87477547D01*
X88208261Y-87296119D02*
X87573261Y-87296119D01*
X87663976Y-87356595D01*
X87724452Y-87417071D01*
X87754690Y-87477547D01*
X115325785Y-106231214D02*
X115356023Y-106261452D01*
X115386261Y-106352166D01*
X115386261Y-106412642D01*
X115356023Y-106503357D01*
X115295547Y-106563833D01*
X115235071Y-106594071D01*
X115114119Y-106624309D01*
X115023404Y-106624309D01*
X114902452Y-106594071D01*
X114841976Y-106563833D01*
X114781500Y-106503357D01*
X114751261Y-106412642D01*
X114751261Y-106352166D01*
X114781500Y-106261452D01*
X114811738Y-106231214D01*
X114751261Y-106019547D02*
X114751261Y-105626452D01*
X114993166Y-105838119D01*
X114993166Y-105747404D01*
X115023404Y-105686928D01*
X115053642Y-105656690D01*
X115114119Y-105626452D01*
X115265309Y-105626452D01*
X115325785Y-105656690D01*
X115356023Y-105686928D01*
X115386261Y-105747404D01*
X115386261Y-105928833D01*
X115356023Y-105989309D01*
X115325785Y-106019547D01*
X114811738Y-105384547D02*
X114781500Y-105354309D01*
X114751261Y-105293833D01*
X114751261Y-105142642D01*
X114781500Y-105082166D01*
X114811738Y-105051928D01*
X114872214Y-105021690D01*
X114932690Y-105021690D01*
X115023404Y-105051928D01*
X115386261Y-105414785D01*
X115386261Y-105021690D01*
X98610166Y-110240785D02*
X98579928Y-110271023D01*
X98489214Y-110301261D01*
X98428738Y-110301261D01*
X98338023Y-110271023D01*
X98277547Y-110210547D01*
X98247309Y-110150071D01*
X98217071Y-110029119D01*
X98217071Y-109938404D01*
X98247309Y-109817452D01*
X98277547Y-109756976D01*
X98338023Y-109696500D01*
X98428738Y-109666261D01*
X98489214Y-109666261D01*
X98579928Y-109696500D01*
X98610166Y-109726738D01*
X99184690Y-109666261D02*
X98882309Y-109666261D01*
X98852071Y-109968642D01*
X98882309Y-109938404D01*
X98942785Y-109908166D01*
X99093976Y-109908166D01*
X99154452Y-109938404D01*
X99184690Y-109968642D01*
X99214928Y-110029119D01*
X99214928Y-110180309D01*
X99184690Y-110240785D01*
X99154452Y-110271023D01*
X99093976Y-110301261D01*
X98942785Y-110301261D01*
X98882309Y-110271023D01*
X98852071Y-110240785D01*
X120278785Y-124265214D02*
X120309023Y-124295452D01*
X120339261Y-124386166D01*
X120339261Y-124446642D01*
X120309023Y-124537357D01*
X120248547Y-124597833D01*
X120188071Y-124628071D01*
X120067119Y-124658309D01*
X119976404Y-124658309D01*
X119855452Y-124628071D01*
X119794976Y-124597833D01*
X119734500Y-124537357D01*
X119704261Y-124446642D01*
X119704261Y-124386166D01*
X119734500Y-124295452D01*
X119764738Y-124265214D01*
X120339261Y-123660452D02*
X120339261Y-124023309D01*
X120339261Y-123841880D02*
X119704261Y-123841880D01*
X119794976Y-123902357D01*
X119855452Y-123962833D01*
X119885690Y-124023309D01*
X119704261Y-123085928D02*
X119704261Y-123388309D01*
X120006642Y-123418547D01*
X119976404Y-123388309D01*
X119946166Y-123327833D01*
X119946166Y-123176642D01*
X119976404Y-123116166D01*
X120006642Y-123085928D01*
X120067119Y-123055690D01*
X120218309Y-123055690D01*
X120278785Y-123085928D01*
X120309023Y-123116166D01*
X120339261Y-123176642D01*
X120339261Y-123327833D01*
X120309023Y-123388309D01*
X120278785Y-123418547D01*
X104403785Y-124295452D02*
X104434023Y-124325690D01*
X104464261Y-124416404D01*
X104464261Y-124476880D01*
X104434023Y-124567595D01*
X104373547Y-124628071D01*
X104313071Y-124658309D01*
X104192119Y-124688547D01*
X104101404Y-124688547D01*
X103980452Y-124658309D01*
X103919976Y-124628071D01*
X103859500Y-124567595D01*
X103829261Y-124476880D01*
X103829261Y-124416404D01*
X103859500Y-124325690D01*
X103889738Y-124295452D01*
X104464261Y-124023309D02*
X103829261Y-124023309D01*
X104464261Y-123660452D01*
X103829261Y-123660452D01*
X104464261Y-123025452D02*
X104464261Y-123388309D01*
X104464261Y-123206880D02*
X103829261Y-123206880D01*
X103919976Y-123267357D01*
X103980452Y-123327833D01*
X104010690Y-123388309D01*
X91195785Y-104525785D02*
X91165547Y-104556023D01*
X91074833Y-104586261D01*
X91014357Y-104586261D01*
X90923642Y-104556023D01*
X90863166Y-104495547D01*
X90832928Y-104435071D01*
X90802690Y-104314119D01*
X90802690Y-104223404D01*
X90832928Y-104102452D01*
X90863166Y-104041976D01*
X90923642Y-103981500D01*
X91014357Y-103951261D01*
X91074833Y-103951261D01*
X91165547Y-103981500D01*
X91195785Y-104011738D01*
X91800547Y-104586261D02*
X91437690Y-104586261D01*
X91619119Y-104586261D02*
X91619119Y-103951261D01*
X91558642Y-104041976D01*
X91498166Y-104102452D01*
X91437690Y-104132690D01*
X92012214Y-103951261D02*
X92435547Y-103951261D01*
X92163404Y-104586261D01*
X115960785Y-119511785D02*
X115930547Y-119542023D01*
X115839833Y-119572261D01*
X115779357Y-119572261D01*
X115688642Y-119542023D01*
X115628166Y-119481547D01*
X115597928Y-119421071D01*
X115567690Y-119300119D01*
X115567690Y-119209404D01*
X115597928Y-119088452D01*
X115628166Y-119027976D01*
X115688642Y-118967500D01*
X115779357Y-118937261D01*
X115839833Y-118937261D01*
X115930547Y-118967500D01*
X115960785Y-118997738D01*
X116565547Y-119572261D02*
X116202690Y-119572261D01*
X116384119Y-119572261D02*
X116384119Y-118937261D01*
X116323642Y-119027976D01*
X116263166Y-119088452D01*
X116202690Y-119118690D01*
X116958642Y-118937261D02*
X117019119Y-118937261D01*
X117079595Y-118967500D01*
X117109833Y-118997738D01*
X117140071Y-119058214D01*
X117170309Y-119179166D01*
X117170309Y-119330357D01*
X117140071Y-119451309D01*
X117109833Y-119511785D01*
X117079595Y-119542023D01*
X117019119Y-119572261D01*
X116958642Y-119572261D01*
X116898166Y-119542023D01*
X116867928Y-119511785D01*
X116837690Y-119451309D01*
X116807452Y-119330357D01*
X116807452Y-119179166D01*
X116837690Y-119058214D01*
X116867928Y-118997738D01*
X116898166Y-118967500D01*
X116958642Y-118937261D01*
X97037785Y-105287785D02*
X97007547Y-105318023D01*
X96916833Y-105348261D01*
X96856357Y-105348261D01*
X96765642Y-105318023D01*
X96705166Y-105257547D01*
X96674928Y-105197071D01*
X96644690Y-105076119D01*
X96644690Y-104985404D01*
X96674928Y-104864452D01*
X96705166Y-104803976D01*
X96765642Y-104743500D01*
X96856357Y-104713261D01*
X96916833Y-104713261D01*
X97007547Y-104743500D01*
X97037785Y-104773738D01*
X97642547Y-105348261D02*
X97279690Y-105348261D01*
X97461119Y-105348261D02*
X97461119Y-104713261D01*
X97400642Y-104803976D01*
X97340166Y-104864452D01*
X97279690Y-104894690D01*
X98247309Y-105348261D02*
X97884452Y-105348261D01*
X98065880Y-105348261D02*
X98065880Y-104713261D01*
X98005404Y-104803976D01*
X97944928Y-104864452D01*
X97884452Y-104894690D01*
X88909785Y-86806261D02*
X88698119Y-86503880D01*
X88546928Y-86806261D02*
X88546928Y-86171261D01*
X88788833Y-86171261D01*
X88849309Y-86201500D01*
X88879547Y-86231738D01*
X88909785Y-86292214D01*
X88909785Y-86382928D01*
X88879547Y-86443404D01*
X88849309Y-86473642D01*
X88788833Y-86503880D01*
X88546928Y-86503880D01*
X89151690Y-86231738D02*
X89181928Y-86201500D01*
X89242404Y-86171261D01*
X89393595Y-86171261D01*
X89454071Y-86201500D01*
X89484309Y-86231738D01*
X89514547Y-86292214D01*
X89514547Y-86352690D01*
X89484309Y-86443404D01*
X89121452Y-86806261D01*
X89514547Y-86806261D01*
X89756452Y-86231738D02*
X89786690Y-86201500D01*
X89847166Y-86171261D01*
X89998357Y-86171261D01*
X90058833Y-86201500D01*
X90089071Y-86231738D01*
X90119309Y-86292214D01*
X90119309Y-86352690D01*
X90089071Y-86443404D01*
X89726214Y-86806261D01*
X90119309Y-86806261D01*
X86553523Y-82897738D02*
X86493047Y-82867500D01*
X86432571Y-82807023D01*
X86341857Y-82716309D01*
X86281380Y-82686071D01*
X86220904Y-82686071D01*
X86251142Y-82837261D02*
X86190666Y-82807023D01*
X86130190Y-82746547D01*
X86099952Y-82625595D01*
X86099952Y-82413928D01*
X86130190Y-82292976D01*
X86190666Y-82232500D01*
X86251142Y-82202261D01*
X86372095Y-82202261D01*
X86432571Y-82232500D01*
X86493047Y-82292976D01*
X86523285Y-82413928D01*
X86523285Y-82625595D01*
X86493047Y-82746547D01*
X86432571Y-82807023D01*
X86372095Y-82837261D01*
X86251142Y-82837261D01*
X87128047Y-82837261D02*
X86765190Y-82837261D01*
X86946619Y-82837261D02*
X86946619Y-82202261D01*
X86886142Y-82292976D01*
X86825666Y-82353452D01*
X86765190Y-82383690D01*
X87516192Y-74437257D02*
X87516192Y-73802257D01*
X87516192Y-74104638D02*
X87879049Y-74104638D01*
X87879049Y-74437257D02*
X87879049Y-73802257D01*
X88151192Y-73862734D02*
X88181430Y-73832496D01*
X88241906Y-73802257D01*
X88393097Y-73802257D01*
X88453573Y-73832496D01*
X88483811Y-73862734D01*
X88514049Y-73923210D01*
X88514049Y-73983686D01*
X88483811Y-74074400D01*
X88120954Y-74437257D01*
X88514049Y-74437257D01*
X105722166Y-83189785D02*
X105691928Y-83220023D01*
X105601214Y-83250261D01*
X105540738Y-83250261D01*
X105450023Y-83220023D01*
X105389547Y-83159547D01*
X105359309Y-83099071D01*
X105329071Y-82978119D01*
X105329071Y-82887404D01*
X105359309Y-82766452D01*
X105389547Y-82705976D01*
X105450023Y-82645500D01*
X105540738Y-82615261D01*
X105601214Y-82615261D01*
X105691928Y-82645500D01*
X105722166Y-82675738D01*
X106326928Y-83250261D02*
X105964071Y-83250261D01*
X106145500Y-83250261D02*
X106145500Y-82615261D01*
X106085023Y-82705976D01*
X106024547Y-82766452D01*
X105964071Y-82796690D01*
X115820023Y-97804666D02*
X115850261Y-97713952D01*
X115850261Y-97562761D01*
X115820023Y-97502285D01*
X115789785Y-97472047D01*
X115729309Y-97441809D01*
X115668833Y-97441809D01*
X115608357Y-97472047D01*
X115578119Y-97502285D01*
X115547880Y-97562761D01*
X115517642Y-97683714D01*
X115487404Y-97744190D01*
X115457166Y-97774428D01*
X115396690Y-97804666D01*
X115336214Y-97804666D01*
X115275738Y-97774428D01*
X115245500Y-97744190D01*
X115215261Y-97683714D01*
X115215261Y-97532523D01*
X115245500Y-97441809D01*
X115215261Y-97230142D02*
X115850261Y-97078952D01*
X115396690Y-96958000D01*
X115850261Y-96837047D01*
X115215261Y-96685857D01*
X115215261Y-96504428D02*
X115215261Y-96111333D01*
X115457166Y-96323000D01*
X115457166Y-96232285D01*
X115487404Y-96171809D01*
X115517642Y-96141571D01*
X115578119Y-96111333D01*
X115729309Y-96111333D01*
X115789785Y-96141571D01*
X115820023Y-96171809D01*
X115850261Y-96232285D01*
X115850261Y-96413714D01*
X115820023Y-96474190D01*
X115789785Y-96504428D01*
X124276261Y-121217214D02*
X123973880Y-121428880D01*
X124276261Y-121580071D02*
X123641261Y-121580071D01*
X123641261Y-121338166D01*
X123671500Y-121277690D01*
X123701738Y-121247452D01*
X123762214Y-121217214D01*
X123852928Y-121217214D01*
X123913404Y-121247452D01*
X123943642Y-121277690D01*
X123973880Y-121338166D01*
X123973880Y-121580071D01*
X124276261Y-120612452D02*
X124276261Y-120975309D01*
X124276261Y-120793880D02*
X123641261Y-120793880D01*
X123731976Y-120854357D01*
X123792452Y-120914833D01*
X123822690Y-120975309D01*
X123641261Y-120068166D02*
X123641261Y-120189119D01*
X123671500Y-120249595D01*
X123701738Y-120279833D01*
X123792452Y-120340309D01*
X123913404Y-120370547D01*
X124155309Y-120370547D01*
X124215785Y-120340309D01*
X124246023Y-120310071D01*
X124276261Y-120249595D01*
X124276261Y-120128642D01*
X124246023Y-120068166D01*
X124215785Y-120037928D01*
X124155309Y-120007690D01*
X124004119Y-120007690D01*
X123943642Y-120037928D01*
X123913404Y-120068166D01*
X123883166Y-120128642D01*
X123883166Y-120249595D01*
X123913404Y-120310071D01*
X123943642Y-120340309D01*
X124004119Y-120370547D01*
X99323785Y-113923785D02*
X99293547Y-113954023D01*
X99202833Y-113984261D01*
X99142357Y-113984261D01*
X99051642Y-113954023D01*
X98991166Y-113893547D01*
X98960928Y-113833071D01*
X98930690Y-113712119D01*
X98930690Y-113621404D01*
X98960928Y-113500452D01*
X98991166Y-113439976D01*
X99051642Y-113379500D01*
X99142357Y-113349261D01*
X99202833Y-113349261D01*
X99293547Y-113379500D01*
X99323785Y-113409738D01*
X99565690Y-113409738D02*
X99595928Y-113379500D01*
X99656404Y-113349261D01*
X99807595Y-113349261D01*
X99868071Y-113379500D01*
X99898309Y-113409738D01*
X99928547Y-113470214D01*
X99928547Y-113530690D01*
X99898309Y-113621404D01*
X99535452Y-113984261D01*
X99928547Y-113984261D01*
X100533309Y-113984261D02*
X100170452Y-113984261D01*
X100351880Y-113984261D02*
X100351880Y-113349261D01*
X100291404Y-113439976D01*
X100230928Y-113500452D01*
X100170452Y-113530690D01*
X97037785Y-104271785D02*
X97007547Y-104302023D01*
X96916833Y-104332261D01*
X96856357Y-104332261D01*
X96765642Y-104302023D01*
X96705166Y-104241547D01*
X96674928Y-104181071D01*
X96644690Y-104060119D01*
X96644690Y-103969404D01*
X96674928Y-103848452D01*
X96705166Y-103787976D01*
X96765642Y-103727500D01*
X96856357Y-103697261D01*
X96916833Y-103697261D01*
X97007547Y-103727500D01*
X97037785Y-103757738D01*
X97642547Y-104332261D02*
X97279690Y-104332261D01*
X97461119Y-104332261D02*
X97461119Y-103697261D01*
X97400642Y-103787976D01*
X97340166Y-103848452D01*
X97279690Y-103878690D01*
X98186833Y-103908928D02*
X98186833Y-104332261D01*
X98035642Y-103667023D02*
X97884452Y-104120595D01*
X98277547Y-104120595D01*
X102432261Y-84211833D02*
X102129880Y-84423500D01*
X102432261Y-84574690D02*
X101797261Y-84574690D01*
X101797261Y-84332785D01*
X101827500Y-84272309D01*
X101857738Y-84242071D01*
X101918214Y-84211833D01*
X102008928Y-84211833D01*
X102069404Y-84242071D01*
X102099642Y-84272309D01*
X102129880Y-84332785D01*
X102129880Y-84574690D01*
X101797261Y-84000166D02*
X101797261Y-83607071D01*
X102039166Y-83818738D01*
X102039166Y-83728023D01*
X102069404Y-83667547D01*
X102099642Y-83637309D01*
X102160119Y-83607071D01*
X102311309Y-83607071D01*
X102371785Y-83637309D01*
X102402023Y-83667547D01*
X102432261Y-83728023D01*
X102432261Y-83909452D01*
X102402023Y-83969928D01*
X102371785Y-84000166D01*
X131406404Y-111825261D02*
X131104023Y-111825261D01*
X131104023Y-111190261D01*
X131618071Y-111492642D02*
X131829738Y-111492642D01*
X131920452Y-111825261D02*
X131618071Y-111825261D01*
X131618071Y-111190261D01*
X131920452Y-111190261D01*
X132192595Y-111825261D02*
X132192595Y-111190261D01*
X132343785Y-111190261D01*
X132434500Y-111220500D01*
X132494976Y-111280976D01*
X132525214Y-111341452D01*
X132555452Y-111462404D01*
X132555452Y-111553119D01*
X132525214Y-111674071D01*
X132494976Y-111734547D01*
X132434500Y-111795023D01*
X132343785Y-111825261D01*
X132192595Y-111825261D01*
X132797357Y-111250738D02*
X132827595Y-111220500D01*
X132888071Y-111190261D01*
X133039261Y-111190261D01*
X133099738Y-111220500D01*
X133129976Y-111250738D01*
X133160214Y-111311214D01*
X133160214Y-111371690D01*
X133129976Y-111462404D01*
X132767119Y-111825261D01*
X133160214Y-111825261D01*
X95767785Y-115127261D02*
X95556119Y-114824880D01*
X95404928Y-115127261D02*
X95404928Y-114492261D01*
X95646833Y-114492261D01*
X95707309Y-114522500D01*
X95737547Y-114552738D01*
X95767785Y-114613214D01*
X95767785Y-114703928D01*
X95737547Y-114764404D01*
X95707309Y-114794642D01*
X95646833Y-114824880D01*
X95404928Y-114824880D01*
X96009690Y-114552738D02*
X96039928Y-114522500D01*
X96100404Y-114492261D01*
X96251595Y-114492261D01*
X96312071Y-114522500D01*
X96342309Y-114552738D01*
X96372547Y-114613214D01*
X96372547Y-114673690D01*
X96342309Y-114764404D01*
X95979452Y-115127261D01*
X96372547Y-115127261D01*
X96765642Y-114492261D02*
X96826119Y-114492261D01*
X96886595Y-114522500D01*
X96916833Y-114552738D01*
X96947071Y-114613214D01*
X96977309Y-114734166D01*
X96977309Y-114885357D01*
X96947071Y-115006309D01*
X96916833Y-115066785D01*
X96886595Y-115097023D01*
X96826119Y-115127261D01*
X96765642Y-115127261D01*
X96705166Y-115097023D01*
X96674928Y-115066785D01*
X96644690Y-115006309D01*
X96614452Y-114885357D01*
X96614452Y-114734166D01*
X96644690Y-114613214D01*
X96674928Y-114552738D01*
X96705166Y-114522500D01*
X96765642Y-114492261D01*
X98797642Y-108765166D02*
X98797642Y-108976833D01*
X99130261Y-108976833D02*
X98495261Y-108976833D01*
X98495261Y-108674452D01*
X98797642Y-108220880D02*
X98827880Y-108130166D01*
X98858119Y-108099928D01*
X98918595Y-108069690D01*
X99009309Y-108069690D01*
X99069785Y-108099928D01*
X99100023Y-108130166D01*
X99130261Y-108190642D01*
X99130261Y-108432547D01*
X98495261Y-108432547D01*
X98495261Y-108220880D01*
X98525500Y-108160404D01*
X98555738Y-108130166D01*
X98616214Y-108099928D01*
X98676690Y-108099928D01*
X98737166Y-108130166D01*
X98767404Y-108160404D01*
X98797642Y-108220880D01*
X98797642Y-108432547D01*
X98555738Y-107827785D02*
X98525500Y-107797547D01*
X98495261Y-107737071D01*
X98495261Y-107585880D01*
X98525500Y-107525404D01*
X98555738Y-107495166D01*
X98616214Y-107464928D01*
X98676690Y-107464928D01*
X98767404Y-107495166D01*
X99130261Y-107858023D01*
X99130261Y-107464928D01*
X114182785Y-114740214D02*
X114213023Y-114770452D01*
X114243261Y-114861166D01*
X114243261Y-114921642D01*
X114213023Y-115012357D01*
X114152547Y-115072833D01*
X114092071Y-115103071D01*
X113971119Y-115133309D01*
X113880404Y-115133309D01*
X113759452Y-115103071D01*
X113698976Y-115072833D01*
X113638500Y-115012357D01*
X113608261Y-114921642D01*
X113608261Y-114861166D01*
X113638500Y-114770452D01*
X113668738Y-114740214D01*
X113608261Y-114528547D02*
X113608261Y-114135452D01*
X113850166Y-114347119D01*
X113850166Y-114256404D01*
X113880404Y-114195928D01*
X113910642Y-114165690D01*
X113971119Y-114135452D01*
X114122309Y-114135452D01*
X114182785Y-114165690D01*
X114213023Y-114195928D01*
X114243261Y-114256404D01*
X114243261Y-114437833D01*
X114213023Y-114498309D01*
X114182785Y-114528547D01*
X114243261Y-113530690D02*
X114243261Y-113893547D01*
X114243261Y-113712119D02*
X113608261Y-113712119D01*
X113698976Y-113772595D01*
X113759452Y-113833071D01*
X113789690Y-113893547D01*
X100593785Y-98871261D02*
X100382119Y-98568880D01*
X100230928Y-98871261D02*
X100230928Y-98236261D01*
X100472833Y-98236261D01*
X100533309Y-98266500D01*
X100563547Y-98296738D01*
X100593785Y-98357214D01*
X100593785Y-98447928D01*
X100563547Y-98508404D01*
X100533309Y-98538642D01*
X100472833Y-98568880D01*
X100230928Y-98568880D01*
X101198547Y-98871261D02*
X100835690Y-98871261D01*
X101017119Y-98871261D02*
X101017119Y-98236261D01*
X100956642Y-98326976D01*
X100896166Y-98387452D01*
X100835690Y-98417690D01*
X101440452Y-98296738D02*
X101470690Y-98266500D01*
X101531166Y-98236261D01*
X101682357Y-98236261D01*
X101742833Y-98266500D01*
X101773071Y-98296738D01*
X101803309Y-98357214D01*
X101803309Y-98417690D01*
X101773071Y-98508404D01*
X101410214Y-98871261D01*
X101803309Y-98871261D01*
X100184785Y-91733333D02*
X100215023Y-91763571D01*
X100245261Y-91854285D01*
X100245261Y-91914761D01*
X100215023Y-92005476D01*
X100154547Y-92065952D01*
X100094071Y-92096190D01*
X99973119Y-92126428D01*
X99882404Y-92126428D01*
X99761452Y-92096190D01*
X99700976Y-92065952D01*
X99640500Y-92005476D01*
X99610261Y-91914761D01*
X99610261Y-91854285D01*
X99640500Y-91763571D01*
X99670738Y-91733333D01*
X99882404Y-91370476D02*
X99852166Y-91430952D01*
X99821928Y-91461190D01*
X99761452Y-91491428D01*
X99731214Y-91491428D01*
X99670738Y-91461190D01*
X99640500Y-91430952D01*
X99610261Y-91370476D01*
X99610261Y-91249523D01*
X99640500Y-91189047D01*
X99670738Y-91158809D01*
X99731214Y-91128571D01*
X99761452Y-91128571D01*
X99821928Y-91158809D01*
X99852166Y-91189047D01*
X99882404Y-91249523D01*
X99882404Y-91370476D01*
X99912642Y-91430952D01*
X99942880Y-91461190D01*
X100003357Y-91491428D01*
X100124309Y-91491428D01*
X100184785Y-91461190D01*
X100215023Y-91430952D01*
X100245261Y-91370476D01*
X100245261Y-91249523D01*
X100215023Y-91189047D01*
X100184785Y-91158809D01*
X100124309Y-91128571D01*
X100003357Y-91128571D01*
X99942880Y-91158809D01*
X99912642Y-91189047D01*
X99882404Y-91249523D01*
X92211785Y-122239261D02*
X92000119Y-121936880D01*
X91848928Y-122239261D02*
X91848928Y-121604261D01*
X92090833Y-121604261D01*
X92151309Y-121634500D01*
X92181547Y-121664738D01*
X92211785Y-121725214D01*
X92211785Y-121815928D01*
X92181547Y-121876404D01*
X92151309Y-121906642D01*
X92090833Y-121936880D01*
X91848928Y-121936880D01*
X92816547Y-122239261D02*
X92453690Y-122239261D01*
X92635119Y-122239261D02*
X92635119Y-121604261D01*
X92574642Y-121694976D01*
X92514166Y-121755452D01*
X92453690Y-121785690D01*
X93179404Y-121876404D02*
X93118928Y-121846166D01*
X93088690Y-121815928D01*
X93058452Y-121755452D01*
X93058452Y-121725214D01*
X93088690Y-121664738D01*
X93118928Y-121634500D01*
X93179404Y-121604261D01*
X93300357Y-121604261D01*
X93360833Y-121634500D01*
X93391071Y-121664738D01*
X93421309Y-121725214D01*
X93421309Y-121755452D01*
X93391071Y-121815928D01*
X93360833Y-121846166D01*
X93300357Y-121876404D01*
X93179404Y-121876404D01*
X93118928Y-121906642D01*
X93088690Y-121936880D01*
X93058452Y-121997357D01*
X93058452Y-122118309D01*
X93088690Y-122178785D01*
X93118928Y-122209023D01*
X93179404Y-122239261D01*
X93300357Y-122239261D01*
X93360833Y-122209023D01*
X93391071Y-122178785D01*
X93421309Y-122118309D01*
X93421309Y-121997357D01*
X93391071Y-121936880D01*
X93360833Y-121906642D01*
X93300357Y-121876404D01*
X98914785Y-92670714D02*
X98945023Y-92700952D01*
X98975261Y-92791666D01*
X98975261Y-92852142D01*
X98945023Y-92942857D01*
X98884547Y-93003333D01*
X98824071Y-93033571D01*
X98703119Y-93063809D01*
X98612404Y-93063809D01*
X98491452Y-93033571D01*
X98430976Y-93003333D01*
X98370500Y-92942857D01*
X98340261Y-92852142D01*
X98340261Y-92791666D01*
X98370500Y-92700952D01*
X98400738Y-92670714D01*
X98975261Y-92065952D02*
X98975261Y-92428809D01*
X98975261Y-92247380D02*
X98340261Y-92247380D01*
X98430976Y-92307857D01*
X98491452Y-92368333D01*
X98521690Y-92428809D01*
X98340261Y-91521666D02*
X98340261Y-91642619D01*
X98370500Y-91703095D01*
X98400738Y-91733333D01*
X98491452Y-91793809D01*
X98612404Y-91824047D01*
X98854309Y-91824047D01*
X98914785Y-91793809D01*
X98945023Y-91763571D01*
X98975261Y-91703095D01*
X98975261Y-91582142D01*
X98945023Y-91521666D01*
X98914785Y-91491428D01*
X98854309Y-91461190D01*
X98703119Y-91461190D01*
X98642642Y-91491428D01*
X98612404Y-91521666D01*
X98582166Y-91582142D01*
X98582166Y-91703095D01*
X98612404Y-91763571D01*
X98642642Y-91793809D01*
X98703119Y-91824047D01*
X103575261Y-84084833D02*
X103272880Y-84296500D01*
X103575261Y-84447690D02*
X102940261Y-84447690D01*
X102940261Y-84205785D01*
X102970500Y-84145309D01*
X103000738Y-84115071D01*
X103061214Y-84084833D01*
X103151928Y-84084833D01*
X103212404Y-84115071D01*
X103242642Y-84145309D01*
X103272880Y-84205785D01*
X103272880Y-84447690D01*
X103000738Y-83842928D02*
X102970500Y-83812690D01*
X102940261Y-83752214D01*
X102940261Y-83601023D01*
X102970500Y-83540547D01*
X103000738Y-83510309D01*
X103061214Y-83480071D01*
X103121690Y-83480071D01*
X103212404Y-83510309D01*
X103575261Y-83873166D01*
X103575261Y-83480071D01*
X114055785Y-85844785D02*
X114025547Y-85875023D01*
X113934833Y-85905261D01*
X113874357Y-85905261D01*
X113783642Y-85875023D01*
X113723166Y-85814547D01*
X113692928Y-85754071D01*
X113662690Y-85633119D01*
X113662690Y-85542404D01*
X113692928Y-85421452D01*
X113723166Y-85360976D01*
X113783642Y-85300500D01*
X113874357Y-85270261D01*
X113934833Y-85270261D01*
X114025547Y-85300500D01*
X114055785Y-85330738D01*
X114297690Y-85330738D02*
X114327928Y-85300500D01*
X114388404Y-85270261D01*
X114539595Y-85270261D01*
X114600071Y-85300500D01*
X114630309Y-85330738D01*
X114660547Y-85391214D01*
X114660547Y-85451690D01*
X114630309Y-85542404D01*
X114267452Y-85905261D01*
X114660547Y-85905261D01*
X114872214Y-85270261D02*
X115295547Y-85270261D01*
X115023404Y-85905261D01*
X110245785Y-86927214D02*
X110276023Y-86957452D01*
X110306261Y-87048166D01*
X110306261Y-87108642D01*
X110276023Y-87199357D01*
X110215547Y-87259833D01*
X110155071Y-87290071D01*
X110034119Y-87320309D01*
X109943404Y-87320309D01*
X109822452Y-87290071D01*
X109761976Y-87259833D01*
X109701500Y-87199357D01*
X109671261Y-87108642D01*
X109671261Y-87048166D01*
X109701500Y-86957452D01*
X109731738Y-86927214D01*
X109731738Y-86685309D02*
X109701500Y-86655071D01*
X109671261Y-86594595D01*
X109671261Y-86443404D01*
X109701500Y-86382928D01*
X109731738Y-86352690D01*
X109792214Y-86322452D01*
X109852690Y-86322452D01*
X109943404Y-86352690D01*
X110306261Y-86715547D01*
X110306261Y-86322452D01*
X109943404Y-85959595D02*
X109913166Y-86020071D01*
X109882928Y-86050309D01*
X109822452Y-86080547D01*
X109792214Y-86080547D01*
X109731738Y-86050309D01*
X109701500Y-86020071D01*
X109671261Y-85959595D01*
X109671261Y-85838642D01*
X109701500Y-85778166D01*
X109731738Y-85747928D01*
X109792214Y-85717690D01*
X109822452Y-85717690D01*
X109882928Y-85747928D01*
X109913166Y-85778166D01*
X109943404Y-85838642D01*
X109943404Y-85959595D01*
X109973642Y-86020071D01*
X110003880Y-86050309D01*
X110064357Y-86080547D01*
X110185309Y-86080547D01*
X110245785Y-86050309D01*
X110276023Y-86020071D01*
X110306261Y-85959595D01*
X110306261Y-85838642D01*
X110276023Y-85778166D01*
X110245785Y-85747928D01*
X110185309Y-85717690D01*
X110064357Y-85717690D01*
X110003880Y-85747928D01*
X109973642Y-85778166D01*
X109943404Y-85838642D01*
X98797642Y-106860166D02*
X98797642Y-107071833D01*
X99130261Y-107071833D02*
X98495261Y-107071833D01*
X98495261Y-106769452D01*
X98797642Y-106315880D02*
X98827880Y-106225166D01*
X98858119Y-106194928D01*
X98918595Y-106164690D01*
X99009309Y-106164690D01*
X99069785Y-106194928D01*
X99100023Y-106225166D01*
X99130261Y-106285642D01*
X99130261Y-106527547D01*
X98495261Y-106527547D01*
X98495261Y-106315880D01*
X98525500Y-106255404D01*
X98555738Y-106225166D01*
X98616214Y-106194928D01*
X98676690Y-106194928D01*
X98737166Y-106225166D01*
X98767404Y-106255404D01*
X98797642Y-106315880D01*
X98797642Y-106527547D01*
X99130261Y-105559928D02*
X99130261Y-105922785D01*
X99130261Y-105741357D02*
X98495261Y-105741357D01*
X98585976Y-105801833D01*
X98646452Y-105862309D01*
X98676690Y-105922785D01*
X95320261Y-83371214D02*
X95017880Y-83582880D01*
X95320261Y-83734071D02*
X94685261Y-83734071D01*
X94685261Y-83492166D01*
X94715500Y-83431690D01*
X94745738Y-83401452D01*
X94806214Y-83371214D01*
X94896928Y-83371214D01*
X94957404Y-83401452D01*
X94987642Y-83431690D01*
X95017880Y-83492166D01*
X95017880Y-83734071D01*
X94745738Y-83129309D02*
X94715500Y-83099071D01*
X94685261Y-83038595D01*
X94685261Y-82887404D01*
X94715500Y-82826928D01*
X94745738Y-82796690D01*
X94806214Y-82766452D01*
X94866690Y-82766452D01*
X94957404Y-82796690D01*
X95320261Y-83159547D01*
X95320261Y-82766452D01*
X94685261Y-82554785D02*
X94685261Y-82161690D01*
X94927166Y-82373357D01*
X94927166Y-82282642D01*
X94957404Y-82222166D01*
X94987642Y-82191928D01*
X95048119Y-82161690D01*
X95199309Y-82161690D01*
X95259785Y-82191928D01*
X95290023Y-82222166D01*
X95320261Y-82282642D01*
X95320261Y-82464071D01*
X95290023Y-82524547D01*
X95259785Y-82554785D01*
X114944785Y-83316785D02*
X114914547Y-83347023D01*
X114823833Y-83377261D01*
X114763357Y-83377261D01*
X114672642Y-83347023D01*
X114612166Y-83286547D01*
X114581928Y-83226071D01*
X114551690Y-83105119D01*
X114551690Y-83014404D01*
X114581928Y-82893452D01*
X114612166Y-82832976D01*
X114672642Y-82772500D01*
X114763357Y-82742261D01*
X114823833Y-82742261D01*
X114914547Y-82772500D01*
X114944785Y-82802738D01*
X115186690Y-82802738D02*
X115216928Y-82772500D01*
X115277404Y-82742261D01*
X115428595Y-82742261D01*
X115489071Y-82772500D01*
X115519309Y-82802738D01*
X115549547Y-82863214D01*
X115549547Y-82923690D01*
X115519309Y-83014404D01*
X115156452Y-83377261D01*
X115549547Y-83377261D01*
X116124071Y-82742261D02*
X115821690Y-82742261D01*
X115791452Y-83044642D01*
X115821690Y-83014404D01*
X115882166Y-82984166D01*
X116033357Y-82984166D01*
X116093833Y-83014404D01*
X116124071Y-83044642D01*
X116154309Y-83105119D01*
X116154309Y-83256309D01*
X116124071Y-83316785D01*
X116093833Y-83347023D01*
X116033357Y-83377261D01*
X115882166Y-83377261D01*
X115821690Y-83347023D01*
X115791452Y-83316785D01*
X116595785Y-114740214D02*
X116626023Y-114770452D01*
X116656261Y-114861166D01*
X116656261Y-114921642D01*
X116626023Y-115012357D01*
X116565547Y-115072833D01*
X116505071Y-115103071D01*
X116384119Y-115133309D01*
X116293404Y-115133309D01*
X116172452Y-115103071D01*
X116111976Y-115072833D01*
X116051500Y-115012357D01*
X116021261Y-114921642D01*
X116021261Y-114861166D01*
X116051500Y-114770452D01*
X116081738Y-114740214D01*
X116081738Y-114498309D02*
X116051500Y-114468071D01*
X116021261Y-114407595D01*
X116021261Y-114256404D01*
X116051500Y-114195928D01*
X116081738Y-114165690D01*
X116142214Y-114135452D01*
X116202690Y-114135452D01*
X116293404Y-114165690D01*
X116656261Y-114528547D01*
X116656261Y-114135452D01*
X116656261Y-113833071D02*
X116656261Y-113712119D01*
X116626023Y-113651642D01*
X116595785Y-113621404D01*
X116505071Y-113560928D01*
X116384119Y-113530690D01*
X116142214Y-113530690D01*
X116081738Y-113560928D01*
X116051500Y-113591166D01*
X116021261Y-113651642D01*
X116021261Y-113772595D01*
X116051500Y-113833071D01*
X116081738Y-113863309D01*
X116142214Y-113893547D01*
X116293404Y-113893547D01*
X116353880Y-113863309D01*
X116384119Y-113833071D01*
X116414357Y-113772595D01*
X116414357Y-113651642D01*
X116384119Y-113591166D01*
X116353880Y-113560928D01*
X116293404Y-113530690D01*
X106242261Y-88324214D02*
X105939880Y-88535880D01*
X106242261Y-88687071D02*
X105607261Y-88687071D01*
X105607261Y-88445166D01*
X105637500Y-88384690D01*
X105667738Y-88354452D01*
X105728214Y-88324214D01*
X105818928Y-88324214D01*
X105879404Y-88354452D01*
X105909642Y-88384690D01*
X105939880Y-88445166D01*
X105939880Y-88687071D01*
X105667738Y-88082309D02*
X105637500Y-88052071D01*
X105607261Y-87991595D01*
X105607261Y-87840404D01*
X105637500Y-87779928D01*
X105667738Y-87749690D01*
X105728214Y-87719452D01*
X105788690Y-87719452D01*
X105879404Y-87749690D01*
X106242261Y-88112547D01*
X106242261Y-87719452D01*
X105607261Y-87144928D02*
X105607261Y-87447309D01*
X105909642Y-87477547D01*
X105879404Y-87447309D01*
X105849166Y-87386833D01*
X105849166Y-87235642D01*
X105879404Y-87175166D01*
X105909642Y-87144928D01*
X105970119Y-87114690D01*
X106121309Y-87114690D01*
X106181785Y-87144928D01*
X106212023Y-87175166D01*
X106242261Y-87235642D01*
X106242261Y-87386833D01*
X106212023Y-87447309D01*
X106181785Y-87477547D01*
X128582166Y-104779785D02*
X128551928Y-104810023D01*
X128461214Y-104840261D01*
X128400738Y-104840261D01*
X128310023Y-104810023D01*
X128249547Y-104749547D01*
X128219309Y-104689071D01*
X128189071Y-104568119D01*
X128189071Y-104477404D01*
X128219309Y-104356452D01*
X128249547Y-104295976D01*
X128310023Y-104235500D01*
X128400738Y-104205261D01*
X128461214Y-104205261D01*
X128551928Y-104235500D01*
X128582166Y-104265738D01*
X128793833Y-104205261D02*
X129186928Y-104205261D01*
X128975261Y-104447166D01*
X129065976Y-104447166D01*
X129126452Y-104477404D01*
X129156690Y-104507642D01*
X129186928Y-104568119D01*
X129186928Y-104719309D01*
X129156690Y-104779785D01*
X129126452Y-104810023D01*
X129065976Y-104840261D01*
X128884547Y-104840261D01*
X128824071Y-104810023D01*
X128793833Y-104779785D01*
X131581785Y-108186833D02*
X131612023Y-108217071D01*
X131642261Y-108307785D01*
X131642261Y-108368261D01*
X131612023Y-108458976D01*
X131551547Y-108519452D01*
X131491071Y-108549690D01*
X131370119Y-108579928D01*
X131279404Y-108579928D01*
X131158452Y-108549690D01*
X131097976Y-108519452D01*
X131037500Y-108458976D01*
X131007261Y-108368261D01*
X131007261Y-108307785D01*
X131037500Y-108217071D01*
X131067738Y-108186833D01*
X131067738Y-107944928D02*
X131037500Y-107914690D01*
X131007261Y-107854214D01*
X131007261Y-107703023D01*
X131037500Y-107642547D01*
X131067738Y-107612309D01*
X131128214Y-107582071D01*
X131188690Y-107582071D01*
X131279404Y-107612309D01*
X131642261Y-107975166D01*
X131642261Y-107582071D01*
X103829261Y-96149833D02*
X103526880Y-96361500D01*
X103829261Y-96512690D02*
X103194261Y-96512690D01*
X103194261Y-96270785D01*
X103224500Y-96210309D01*
X103254738Y-96180071D01*
X103315214Y-96149833D01*
X103405928Y-96149833D01*
X103466404Y-96180071D01*
X103496642Y-96210309D01*
X103526880Y-96270785D01*
X103526880Y-96512690D01*
X103829261Y-95847452D02*
X103829261Y-95726500D01*
X103799023Y-95666023D01*
X103768785Y-95635785D01*
X103678071Y-95575309D01*
X103557119Y-95545071D01*
X103315214Y-95545071D01*
X103254738Y-95575309D01*
X103224500Y-95605547D01*
X103194261Y-95666023D01*
X103194261Y-95786976D01*
X103224500Y-95847452D01*
X103254738Y-95877690D01*
X103315214Y-95907928D01*
X103466404Y-95907928D01*
X103526880Y-95877690D01*
X103557119Y-95847452D01*
X103587357Y-95786976D01*
X103587357Y-95666023D01*
X103557119Y-95605547D01*
X103526880Y-95575309D01*
X103466404Y-95545071D01*
X125853023Y-98947666D02*
X125883261Y-98856952D01*
X125883261Y-98705761D01*
X125853023Y-98645285D01*
X125822785Y-98615047D01*
X125762309Y-98584809D01*
X125701833Y-98584809D01*
X125641357Y-98615047D01*
X125611119Y-98645285D01*
X125580880Y-98705761D01*
X125550642Y-98826714D01*
X125520404Y-98887190D01*
X125490166Y-98917428D01*
X125429690Y-98947666D01*
X125369214Y-98947666D01*
X125308738Y-98917428D01*
X125278500Y-98887190D01*
X125248261Y-98826714D01*
X125248261Y-98675523D01*
X125278500Y-98584809D01*
X125248261Y-98373142D02*
X125883261Y-98221952D01*
X125429690Y-98101000D01*
X125883261Y-97980047D01*
X125248261Y-97828857D01*
X125308738Y-97617190D02*
X125278500Y-97586952D01*
X125248261Y-97526476D01*
X125248261Y-97375285D01*
X125278500Y-97314809D01*
X125308738Y-97284571D01*
X125369214Y-97254333D01*
X125429690Y-97254333D01*
X125520404Y-97284571D01*
X125883261Y-97647428D01*
X125883261Y-97254333D01*
X102813261Y-122057833D02*
X102510880Y-122269500D01*
X102813261Y-122420690D02*
X102178261Y-122420690D01*
X102178261Y-122178785D01*
X102208500Y-122118309D01*
X102238738Y-122088071D01*
X102299214Y-122057833D01*
X102389928Y-122057833D01*
X102450404Y-122088071D01*
X102480642Y-122118309D01*
X102510880Y-122178785D01*
X102510880Y-122420690D01*
X102178261Y-121513547D02*
X102178261Y-121634500D01*
X102208500Y-121694976D01*
X102238738Y-121725214D01*
X102329452Y-121785690D01*
X102450404Y-121815928D01*
X102692309Y-121815928D01*
X102752785Y-121785690D01*
X102783023Y-121755452D01*
X102813261Y-121694976D01*
X102813261Y-121574023D01*
X102783023Y-121513547D01*
X102752785Y-121483309D01*
X102692309Y-121453071D01*
X102541119Y-121453071D01*
X102480642Y-121483309D01*
X102450404Y-121513547D01*
X102420166Y-121574023D01*
X102420166Y-121694976D01*
X102450404Y-121755452D01*
X102480642Y-121785690D01*
X102541119Y-121815928D01*
X100466785Y-95950261D02*
X100255119Y-95647880D01*
X100103928Y-95950261D02*
X100103928Y-95315261D01*
X100345833Y-95315261D01*
X100406309Y-95345500D01*
X100436547Y-95375738D01*
X100466785Y-95436214D01*
X100466785Y-95526928D01*
X100436547Y-95587404D01*
X100406309Y-95617642D01*
X100345833Y-95647880D01*
X100103928Y-95647880D01*
X101071547Y-95950261D02*
X100708690Y-95950261D01*
X100890119Y-95950261D02*
X100890119Y-95315261D01*
X100829642Y-95405976D01*
X100769166Y-95466452D01*
X100708690Y-95496690D01*
X101283214Y-95315261D02*
X101676309Y-95315261D01*
X101464642Y-95557166D01*
X101555357Y-95557166D01*
X101615833Y-95587404D01*
X101646071Y-95617642D01*
X101676309Y-95678119D01*
X101676309Y-95829309D01*
X101646071Y-95889785D01*
X101615833Y-95920023D01*
X101555357Y-95950261D01*
X101373928Y-95950261D01*
X101313452Y-95920023D01*
X101283214Y-95889785D01*
X103829261Y-98484214D02*
X103526880Y-98695880D01*
X103829261Y-98847071D02*
X103194261Y-98847071D01*
X103194261Y-98605166D01*
X103224500Y-98544690D01*
X103254738Y-98514452D01*
X103315214Y-98484214D01*
X103405928Y-98484214D01*
X103466404Y-98514452D01*
X103496642Y-98544690D01*
X103526880Y-98605166D01*
X103526880Y-98847071D01*
X103829261Y-97879452D02*
X103829261Y-98242309D01*
X103829261Y-98060880D02*
X103194261Y-98060880D01*
X103284976Y-98121357D01*
X103345452Y-98181833D01*
X103375690Y-98242309D01*
X103194261Y-97486357D02*
X103194261Y-97425880D01*
X103224500Y-97365404D01*
X103254738Y-97335166D01*
X103315214Y-97304928D01*
X103436166Y-97274690D01*
X103587357Y-97274690D01*
X103708309Y-97304928D01*
X103768785Y-97335166D01*
X103799023Y-97365404D01*
X103829261Y-97425880D01*
X103829261Y-97486357D01*
X103799023Y-97546833D01*
X103768785Y-97577071D01*
X103708309Y-97607309D01*
X103587357Y-97637547D01*
X103436166Y-97637547D01*
X103315214Y-97607309D01*
X103254738Y-97577071D01*
X103224500Y-97546833D01*
X103194261Y-97486357D01*
X129011547Y-81284785D02*
X128981309Y-81315023D01*
X128890595Y-81345261D01*
X128830119Y-81345261D01*
X128739404Y-81315023D01*
X128678928Y-81254547D01*
X128648690Y-81194071D01*
X128618452Y-81073119D01*
X128618452Y-80982404D01*
X128648690Y-80861452D01*
X128678928Y-80800976D01*
X128739404Y-80740500D01*
X128830119Y-80710261D01*
X128890595Y-80710261D01*
X128981309Y-80740500D01*
X129011547Y-80770738D01*
X129283690Y-81345261D02*
X129283690Y-80710261D01*
X129646547Y-81345261D01*
X129646547Y-80710261D01*
X129888452Y-80710261D02*
X130281547Y-80710261D01*
X130069880Y-80952166D01*
X130160595Y-80952166D01*
X130221071Y-80982404D01*
X130251309Y-81012642D01*
X130281547Y-81073119D01*
X130281547Y-81224309D01*
X130251309Y-81284785D01*
X130221071Y-81315023D01*
X130160595Y-81345261D01*
X129979166Y-81345261D01*
X129918690Y-81315023D01*
X129888452Y-81284785D01*
X121675785Y-114740214D02*
X121706023Y-114770452D01*
X121736261Y-114861166D01*
X121736261Y-114921642D01*
X121706023Y-115012357D01*
X121645547Y-115072833D01*
X121585071Y-115103071D01*
X121464119Y-115133309D01*
X121373404Y-115133309D01*
X121252452Y-115103071D01*
X121191976Y-115072833D01*
X121131500Y-115012357D01*
X121101261Y-114921642D01*
X121101261Y-114861166D01*
X121131500Y-114770452D01*
X121161738Y-114740214D01*
X121736261Y-114135452D02*
X121736261Y-114498309D01*
X121736261Y-114316880D02*
X121101261Y-114316880D01*
X121191976Y-114377357D01*
X121252452Y-114437833D01*
X121282690Y-114498309D01*
X121101261Y-113923785D02*
X121101261Y-113530690D01*
X121343166Y-113742357D01*
X121343166Y-113651642D01*
X121373404Y-113591166D01*
X121403642Y-113560928D01*
X121464119Y-113530690D01*
X121615309Y-113530690D01*
X121675785Y-113560928D01*
X121706023Y-113591166D01*
X121736261Y-113651642D01*
X121736261Y-113833071D01*
X121706023Y-113893547D01*
X121675785Y-113923785D01*
X87516192Y-118437271D02*
X87516192Y-117802271D01*
X87516192Y-118104652D02*
X87879049Y-118104652D01*
X87879049Y-118437271D02*
X87879049Y-117802271D01*
X88453573Y-118013938D02*
X88453573Y-118437271D01*
X88302382Y-117772033D02*
X88151192Y-118225605D01*
X88544287Y-118225605D01*
X90893404Y-81600261D02*
X90591023Y-81600261D01*
X90591023Y-80965261D01*
X91105071Y-81267642D02*
X91316738Y-81267642D01*
X91407452Y-81600261D02*
X91105071Y-81600261D01*
X91105071Y-80965261D01*
X91407452Y-80965261D01*
X91679595Y-81600261D02*
X91679595Y-80965261D01*
X91830785Y-80965261D01*
X91921500Y-80995500D01*
X91981976Y-81055976D01*
X92012214Y-81116452D01*
X92042452Y-81237404D01*
X92042452Y-81328119D01*
X92012214Y-81449071D01*
X91981976Y-81509547D01*
X91921500Y-81570023D01*
X91830785Y-81600261D01*
X91679595Y-81600261D01*
X92647214Y-81600261D02*
X92284357Y-81600261D01*
X92465785Y-81600261D02*
X92465785Y-80965261D01*
X92405309Y-81055976D01*
X92344833Y-81116452D01*
X92284357Y-81146690D01*
X88401785Y-103945214D02*
X88432023Y-103975452D01*
X88462261Y-104066166D01*
X88462261Y-104126642D01*
X88432023Y-104217357D01*
X88371547Y-104277833D01*
X88311071Y-104308071D01*
X88190119Y-104338309D01*
X88099404Y-104338309D01*
X87978452Y-104308071D01*
X87917976Y-104277833D01*
X87857500Y-104217357D01*
X87827261Y-104126642D01*
X87827261Y-104066166D01*
X87857500Y-103975452D01*
X87887738Y-103945214D01*
X88462261Y-103340452D02*
X88462261Y-103703309D01*
X88462261Y-103521880D02*
X87827261Y-103521880D01*
X87917976Y-103582357D01*
X87978452Y-103642833D01*
X88008690Y-103703309D01*
X87887738Y-103098547D02*
X87857500Y-103068309D01*
X87827261Y-103007833D01*
X87827261Y-102856642D01*
X87857500Y-102796166D01*
X87887738Y-102765928D01*
X87948214Y-102735690D01*
X88008690Y-102735690D01*
X88099404Y-102765928D01*
X88462261Y-103128785D01*
X88462261Y-102735690D01*
X101277166Y-119953261D02*
X101065500Y-119650880D01*
X100914309Y-119953261D02*
X100914309Y-119318261D01*
X101156214Y-119318261D01*
X101216690Y-119348500D01*
X101246928Y-119378738D01*
X101277166Y-119439214D01*
X101277166Y-119529928D01*
X101246928Y-119590404D01*
X101216690Y-119620642D01*
X101156214Y-119650880D01*
X100914309Y-119650880D01*
X101488833Y-119318261D02*
X101912166Y-119318261D01*
X101640023Y-119953261D01*
X94751785Y-124271261D02*
X94540119Y-123968880D01*
X94388928Y-124271261D02*
X94388928Y-123636261D01*
X94630833Y-123636261D01*
X94691309Y-123666500D01*
X94721547Y-123696738D01*
X94751785Y-123757214D01*
X94751785Y-123847928D01*
X94721547Y-123908404D01*
X94691309Y-123938642D01*
X94630833Y-123968880D01*
X94388928Y-123968880D01*
X95356547Y-124271261D02*
X94993690Y-124271261D01*
X95175119Y-124271261D02*
X95175119Y-123636261D01*
X95114642Y-123726976D01*
X95054166Y-123787452D01*
X94993690Y-123817690D01*
X95658928Y-124271261D02*
X95779880Y-124271261D01*
X95840357Y-124241023D01*
X95870595Y-124210785D01*
X95931071Y-124120071D01*
X95961309Y-123999119D01*
X95961309Y-123757214D01*
X95931071Y-123696738D01*
X95900833Y-123666500D01*
X95840357Y-123636261D01*
X95719404Y-123636261D01*
X95658928Y-123666500D01*
X95628690Y-123696738D01*
X95598452Y-123757214D01*
X95598452Y-123908404D01*
X95628690Y-123968880D01*
X95658928Y-123999119D01*
X95719404Y-124029357D01*
X95840357Y-124029357D01*
X95900833Y-123999119D01*
X95931071Y-123968880D01*
X95961309Y-123908404D01*
X97926785Y-116010214D02*
X97957023Y-116040452D01*
X97987261Y-116131166D01*
X97987261Y-116191642D01*
X97957023Y-116282357D01*
X97896547Y-116342833D01*
X97836071Y-116373071D01*
X97715119Y-116403309D01*
X97624404Y-116403309D01*
X97503452Y-116373071D01*
X97442976Y-116342833D01*
X97382500Y-116282357D01*
X97352261Y-116191642D01*
X97352261Y-116131166D01*
X97382500Y-116040452D01*
X97412738Y-116010214D01*
X97412738Y-115768309D02*
X97382500Y-115738071D01*
X97352261Y-115677595D01*
X97352261Y-115526404D01*
X97382500Y-115465928D01*
X97412738Y-115435690D01*
X97473214Y-115405452D01*
X97533690Y-115405452D01*
X97624404Y-115435690D01*
X97987261Y-115798547D01*
X97987261Y-115405452D01*
X97412738Y-115163547D02*
X97382500Y-115133309D01*
X97352261Y-115072833D01*
X97352261Y-114921642D01*
X97382500Y-114861166D01*
X97412738Y-114830928D01*
X97473214Y-114800690D01*
X97533690Y-114800690D01*
X97624404Y-114830928D01*
X97987261Y-115193785D01*
X97987261Y-114800690D01*
X92338785Y-79052452D02*
X92369023Y-79082690D01*
X92399261Y-79173404D01*
X92399261Y-79233880D01*
X92369023Y-79324595D01*
X92308547Y-79385071D01*
X92248071Y-79415309D01*
X92127119Y-79445547D01*
X92036404Y-79445547D01*
X91915452Y-79415309D01*
X91854976Y-79385071D01*
X91794500Y-79324595D01*
X91764261Y-79233880D01*
X91764261Y-79173404D01*
X91794500Y-79082690D01*
X91824738Y-79052452D01*
X92399261Y-78780309D02*
X91764261Y-78780309D01*
X92399261Y-78417452D01*
X91764261Y-78417452D01*
X91824738Y-78145309D02*
X91794500Y-78115071D01*
X91764261Y-78054595D01*
X91764261Y-77903404D01*
X91794500Y-77842928D01*
X91824738Y-77812690D01*
X91885214Y-77782452D01*
X91945690Y-77782452D01*
X92036404Y-77812690D01*
X92399261Y-78175547D01*
X92399261Y-77782452D01*
X115198785Y-114740214D02*
X115229023Y-114770452D01*
X115259261Y-114861166D01*
X115259261Y-114921642D01*
X115229023Y-115012357D01*
X115168547Y-115072833D01*
X115108071Y-115103071D01*
X114987119Y-115133309D01*
X114896404Y-115133309D01*
X114775452Y-115103071D01*
X114714976Y-115072833D01*
X114654500Y-115012357D01*
X114624261Y-114921642D01*
X114624261Y-114861166D01*
X114654500Y-114770452D01*
X114684738Y-114740214D01*
X114624261Y-114528547D02*
X114624261Y-114135452D01*
X114866166Y-114347119D01*
X114866166Y-114256404D01*
X114896404Y-114195928D01*
X114926642Y-114165690D01*
X114987119Y-114135452D01*
X115138309Y-114135452D01*
X115198785Y-114165690D01*
X115229023Y-114195928D01*
X115259261Y-114256404D01*
X115259261Y-114437833D01*
X115229023Y-114498309D01*
X115198785Y-114528547D01*
X114624261Y-113742357D02*
X114624261Y-113681880D01*
X114654500Y-113621404D01*
X114684738Y-113591166D01*
X114745214Y-113560928D01*
X114866166Y-113530690D01*
X115017357Y-113530690D01*
X115138309Y-113560928D01*
X115198785Y-113591166D01*
X115229023Y-113621404D01*
X115259261Y-113681880D01*
X115259261Y-113742357D01*
X115229023Y-113802833D01*
X115198785Y-113833071D01*
X115138309Y-113863309D01*
X115017357Y-113893547D01*
X114866166Y-113893547D01*
X114745214Y-113863309D01*
X114684738Y-113833071D01*
X114654500Y-113802833D01*
X114624261Y-113742357D01*
X124342785Y-95006833D02*
X124373023Y-95037071D01*
X124403261Y-95127785D01*
X124403261Y-95188261D01*
X124373023Y-95278976D01*
X124312547Y-95339452D01*
X124252071Y-95369690D01*
X124131119Y-95399928D01*
X124040404Y-95399928D01*
X123919452Y-95369690D01*
X123858976Y-95339452D01*
X123798500Y-95278976D01*
X123768261Y-95188261D01*
X123768261Y-95127785D01*
X123798500Y-95037071D01*
X123828738Y-95006833D01*
X124403261Y-94704452D02*
X124403261Y-94583500D01*
X124373023Y-94523023D01*
X124342785Y-94492785D01*
X124252071Y-94432309D01*
X124131119Y-94402071D01*
X123889214Y-94402071D01*
X123828738Y-94432309D01*
X123798500Y-94462547D01*
X123768261Y-94523023D01*
X123768261Y-94643976D01*
X123798500Y-94704452D01*
X123828738Y-94734690D01*
X123889214Y-94764928D01*
X124040404Y-94764928D01*
X124100880Y-94734690D01*
X124131119Y-94704452D01*
X124161357Y-94643976D01*
X124161357Y-94523023D01*
X124131119Y-94462547D01*
X124100880Y-94432309D01*
X124040404Y-94402071D01*
D13*
X91440000Y-91281504D02*
X97790000Y-91281504D01*
X97790000Y-91281504D02*
X97790000Y-88106504D01*
X97790000Y-88106504D02*
X91821000Y-88106504D01*
X91440000Y-88487504D02*
X91440000Y-91281504D01*
X94869000Y-88233504D02*
X94824845Y-88250395D01*
X94918717Y-88215729D02*
G75*
G03*
X94906168Y-88219623I30196J-119475D01*
G01*
X94906168Y-88219623D02*
X94869000Y-88233504D01*
X94824845Y-88250395D02*
X94776099Y-88269507D01*
X94776099Y-88269507D02*
X94728089Y-88288280D01*
X94728089Y-88288280D02*
X94686253Y-88304102D01*
X95036322Y-88271265D02*
X94991256Y-88284021D01*
X95943978Y-88541486D02*
G75*
G03*
X95946952Y-88542816I8900J15911D01*
G01*
X95969167Y-88452188D02*
X95952712Y-88449382D01*
X95235899Y-88221997D02*
X95135697Y-88246397D01*
X94976501Y-88279943D02*
G75*
G03*
X94983030Y-88284215I9638J7606D01*
G01*
X94958827Y-88227644D02*
G75*
G03*
X94950626Y-88216386I-23222J-8299D01*
G01*
X94938677Y-88212690D02*
G75*
G03*
X94918717Y-88215730I5747J-104755D01*
G01*
X95999836Y-88560848D02*
X95971564Y-88551257D01*
X95980759Y-88454403D02*
X95969167Y-88452188D01*
X95275884Y-88213807D02*
X95235899Y-88221997D01*
X95971564Y-88551257D02*
X95946952Y-88542816D01*
X95300413Y-88298491D02*
X95307248Y-88252907D01*
X95760185Y-88415917D02*
X95675781Y-88398389D01*
X95643299Y-88365398D02*
G75*
G03*
X95649298Y-88385084I18534J-5109D01*
G01*
X95314084Y-88207322D02*
X95275884Y-88213807D01*
X95943456Y-88539444D02*
X95950697Y-88528236D01*
X95950697Y-88528236D02*
X95960132Y-88514824D01*
X95943456Y-88539444D02*
G75*
G03*
X95943978Y-88541486I1232J-773D01*
G01*
X95972053Y-88499288D02*
X96003834Y-88459161D01*
X96110340Y-88598762D02*
X96069614Y-88584393D01*
X95934689Y-88446505D02*
X95917684Y-88443993D01*
X95917684Y-88443993D02*
X95895154Y-88440463D01*
X95960132Y-88514824D02*
X95972053Y-88499288D01*
X95952712Y-88449382D02*
X95934689Y-88446505D01*
X95895154Y-88440463D02*
X95854918Y-88433414D01*
X95808103Y-88424916D02*
X95760185Y-88415917D01*
X95657940Y-88327995D02*
G75*
G03*
X95643299Y-88365399I171603J-88739D01*
G01*
X95673197Y-88298491D02*
X95486805Y-88298491D01*
X95307248Y-88252907D02*
X95314084Y-88207322D01*
X95854918Y-88433414D02*
X95808103Y-88424916D01*
X94983030Y-88284214D02*
G75*
G03*
X94991256Y-88284020I3776J14422D01*
G01*
X96069614Y-88584393D02*
X96032684Y-88571836D01*
X96032684Y-88571836D02*
X95999836Y-88560848D01*
X95486805Y-88298491D02*
X95300413Y-88298491D01*
X96003834Y-88459161D02*
X95980759Y-88454403D01*
X95649298Y-88385084D02*
G75*
G03*
X95675781Y-88398389I39889J46388D01*
G01*
X95135697Y-88246397D02*
X95036322Y-88271265D01*
X94971122Y-88269954D02*
G75*
G03*
X94976501Y-88279943I31090J10300D01*
G01*
X94966062Y-88252094D02*
G75*
G03*
X94971122Y-88269954I206107J48743D01*
G01*
X96148705Y-88612723D02*
X96110340Y-88598762D01*
X95657940Y-88327995D02*
X95673197Y-88298491D01*
X94966062Y-88252094D02*
G75*
G03*
X94958826Y-88227644I-223634J-52888D01*
G01*
X94950626Y-88216386D02*
G75*
G03*
X94938677Y-88212689I-10963J-14273D01*
G01*
X94686253Y-88304102D02*
X94650120Y-88317389D01*
X94241615Y-88298117D02*
X94206072Y-88321518D01*
X93661828Y-88545051D02*
X93654815Y-88536166D01*
X93996240Y-88424614D02*
G75*
G03*
X94008902Y-88450187I255747J110707D01*
G01*
X94095582Y-88413142D02*
X94077283Y-88427719D01*
X94020928Y-88465634D02*
G75*
G03*
X94028482Y-88466500I4353J4592D01*
G01*
X93847465Y-88499423D02*
X93797326Y-88544937D01*
X93601069Y-88558532D02*
X93589190Y-88573122D01*
X94206072Y-88321518D02*
X94184365Y-88337662D01*
X93709436Y-88616994D02*
G75*
G03*
X93712340Y-88618300I2775J2290D01*
G01*
X93977246Y-88380736D02*
X93847465Y-88499423D01*
X93709435Y-88616994D02*
X93703092Y-88608889D01*
X93578647Y-88587626D02*
G75*
G03*
X93571440Y-88599560I99662J-68330D01*
G01*
X93754237Y-88583302D02*
X93716037Y-88616835D01*
X93563393Y-88612706D02*
G75*
G03*
X93571440Y-88599560I-98954J69612D01*
G01*
X93688364Y-88585991D02*
X93680137Y-88572279D01*
X93612548Y-88546166D02*
X93601069Y-88558532D01*
X93563393Y-88612706D02*
X93549362Y-88631886D01*
X93549362Y-88631886D02*
X93532719Y-88652950D01*
X94643882Y-88318491D02*
G75*
G03*
X94650121Y-88317388I0J18198D01*
G01*
X94632560Y-88293311D02*
G75*
G03*
X94636224Y-88306499I111192J23792D01*
G01*
X94113760Y-88396992D02*
X94095582Y-88413142D01*
X93645271Y-88527046D02*
G75*
G03*
X93638056Y-88525459I-5255J-6698D01*
G01*
X94640236Y-88316210D02*
G75*
G03*
X94643882Y-88318492I3646J1772D01*
G01*
X94184365Y-88337662D02*
X94158995Y-88357886D01*
X94636224Y-88306499D02*
G75*
G03*
X94640236Y-88316210I82119J28242D01*
G01*
X94077283Y-88427719D02*
X94061089Y-88439211D01*
X94388718Y-88349073D02*
X94370790Y-88359071D01*
X94572309Y-88256575D02*
G75*
G03*
X94595245Y-88240394I-72357J126915D01*
G01*
X94038140Y-88450847D02*
G75*
G03*
X94034011Y-88455167I15624J-19066D01*
G01*
X94324728Y-88389161D02*
X94303708Y-88356326D01*
X93996240Y-88424614D02*
X93977246Y-88380736D01*
X94609455Y-88231179D02*
G75*
G03*
X94595245Y-88240394I26751J-56813D01*
G01*
X94034012Y-88455166D02*
G75*
G03*
X94032684Y-88459165I5356J-3999D01*
G01*
X94303708Y-88356326D02*
X94271237Y-88307329D01*
X94467318Y-88312437D02*
X94422684Y-88332653D01*
X93695891Y-88598431D02*
X93688364Y-88585991D01*
X94572309Y-88256574D02*
X94521639Y-88284556D01*
X93638056Y-88525458D02*
G75*
G03*
X93629628Y-88529897I4390J-18558D01*
G01*
X93629628Y-88529898D02*
X93612548Y-88546166D01*
X94624536Y-88245092D02*
G75*
G03*
X94618362Y-88232903I-24337J-4669D01*
G01*
X94422684Y-88332653D02*
X94407001Y-88339727D01*
X94051260Y-88443944D02*
G75*
G03*
X94044152Y-88446888I13639J-42970D01*
G01*
X93797326Y-88544937D02*
X93754237Y-88583302D01*
X93712340Y-88618301D02*
G75*
G03*
X93716037Y-88616835I-212J5929D01*
G01*
X93703092Y-88608889D02*
X93695891Y-88598431D01*
X93654816Y-88536166D02*
G75*
G03*
X93645271Y-88527046I-51463J-44305D01*
G01*
X94271237Y-88307329D02*
G75*
G03*
X94257202Y-88296523I-23676J-16234D01*
G01*
X93670823Y-88557949D02*
X93661828Y-88545051D01*
X94632560Y-88293311D02*
X94629841Y-88277666D01*
X94158995Y-88357886D02*
X94134079Y-88378777D01*
X94407001Y-88339727D02*
X94388718Y-88349073D01*
X94134079Y-88378777D02*
X94113760Y-88396992D01*
X93680137Y-88572279D02*
X93670823Y-88557949D01*
X94629841Y-88277666D02*
X94624536Y-88245092D01*
X93589190Y-88573122D02*
X93578647Y-88587626D01*
X94521639Y-88284556D02*
X94467318Y-88312437D01*
X94370790Y-88359071D02*
X94356206Y-88368165D01*
X94356206Y-88368165D02*
X94324728Y-88389161D01*
X94044152Y-88446888D02*
G75*
G03*
X94038140Y-88450847I15933J-30740D01*
G01*
X94618362Y-88232903D02*
G75*
G03*
X94609456Y-88231178I-5633J-5228D01*
G01*
X94257201Y-88296524D02*
G75*
G03*
X94241615Y-88298118I-6119J-17166D01*
G01*
X94051260Y-88443942D02*
G75*
G03*
X94061088Y-88439211I-11710J36894D01*
G01*
X94028482Y-88466500D02*
G75*
G03*
X94032683Y-88459165I-4302J7335D01*
G01*
X94008902Y-88450187D02*
G75*
G03*
X94020928Y-88465634I56931J31918D01*
G01*
X93066028Y-89087745D02*
X93051173Y-89082898D01*
X93033285Y-89197177D02*
X93034701Y-89270991D01*
X93082684Y-89093491D02*
X93066028Y-89087745D01*
X93287234Y-88885662D02*
G75*
G03*
X93288671Y-88885522I647J807D01*
G01*
X93021364Y-89527645D02*
X92989887Y-89643491D01*
X93532719Y-88652950D02*
X93515597Y-88672998D01*
X92973742Y-89690444D02*
X92949730Y-89744450D01*
X93473511Y-88720367D02*
X93418216Y-88693314D01*
X93214533Y-88821205D02*
X93184115Y-88937348D01*
X93330297Y-88719844D02*
X93312763Y-88795910D01*
X92949730Y-89744450D02*
X92923848Y-89793890D01*
X92902730Y-89823491D02*
G75*
G03*
X92895455Y-89832726I75118J-66659D01*
G01*
X93119676Y-89105874D02*
G75*
G03*
X93132956Y-89106639I8144J25707D01*
G01*
X92859389Y-89896164D02*
X92802468Y-89946937D01*
X92859388Y-89896163D02*
G75*
G03*
X92878436Y-89865118I-49686J51849D01*
G01*
X93032908Y-89135038D02*
X93033285Y-89197177D01*
X92670380Y-90026798D02*
X92645602Y-90032925D01*
X93515597Y-88672998D02*
X93473511Y-88720367D01*
X93051173Y-89082898D02*
X93038589Y-89079007D01*
X93264752Y-88866954D02*
X93250744Y-88854379D01*
X93119676Y-89105873D02*
X93082684Y-89093491D01*
X92582034Y-90037128D02*
G75*
G03*
X92603257Y-90038492I21223J164478D01*
G01*
X92603257Y-90038491D02*
G75*
G03*
X92621819Y-90037161I0J130221D01*
G01*
X93330297Y-88719844D02*
G75*
G03*
X93332683Y-88698443I-94783J21401D01*
G01*
X92902730Y-89823491D02*
G75*
G03*
X92923849Y-89793890I-128405J113943D01*
G01*
X92542522Y-90008265D02*
G75*
G03*
X92555402Y-90023833I113736J80986D01*
G01*
X92567439Y-90032692D02*
G75*
G03*
X92582034Y-90037128I20476J41143D01*
G01*
X92542521Y-90008265D02*
G75*
G03*
X92503006Y-89970697I-116449J-82920D01*
G01*
X92284011Y-90012147D02*
G75*
G03*
X92259692Y-90058270I372113J-225676D01*
G01*
X93312763Y-88795910D02*
X93293910Y-88875176D01*
X93184115Y-88937348D02*
X93171985Y-88983833D01*
X93151268Y-89064186D02*
X93147106Y-89080991D01*
X92670380Y-90026798D02*
G75*
G03*
X92692345Y-90019540I-71485J253200D01*
G01*
X92448361Y-89946138D02*
G75*
G03*
X92389548Y-89938504I-55120J-194277D01*
G01*
X92389549Y-89938504D02*
G75*
G03*
X92337905Y-89950210I2382J-130281D01*
G01*
X93288671Y-88885522D02*
G75*
G03*
X93293910Y-88875176I-19199J16221D01*
G01*
X93250744Y-88854379D02*
X93214533Y-88821205D01*
X93033100Y-89080497D02*
X93032908Y-89135038D01*
X93035115Y-89078491D02*
G75*
G03*
X93033099Y-89080497I0J-2016D01*
G01*
X92802468Y-89946937D02*
X92740206Y-89994290D01*
X92888273Y-89843969D02*
X92882213Y-89855395D01*
X93033006Y-89466073D02*
G75*
G03*
X93036663Y-89401906I-508386J61161D01*
G01*
X92692345Y-90019539D02*
G75*
G03*
X92740206Y-89994290I-78758J207272D01*
G01*
X92503007Y-89970697D02*
G75*
G03*
X92448362Y-89946139I-110883J-173654D01*
G01*
X92973741Y-89690444D02*
G75*
G03*
X92989887Y-89643492I-421428J171168D01*
G01*
X93276822Y-88877212D02*
X93264752Y-88866954D01*
X93140792Y-89100272D02*
G75*
G03*
X93147107Y-89080991I-115210J48406D01*
G01*
X93353131Y-88672701D02*
G75*
G03*
X93338554Y-88680613I1172J-19543D01*
G01*
X93338554Y-88680613D02*
G75*
G03*
X93332684Y-88698443I24142J-17830D01*
G01*
X92882213Y-89855395D02*
G75*
G03*
X92878436Y-89865119I61494J-29480D01*
G01*
X92337905Y-89950210D02*
G75*
G03*
X92313428Y-89969513I27159J-59610D01*
G01*
X93132956Y-89106640D02*
G75*
G03*
X93140792Y-89100273I-2040J10517D01*
G01*
X93418216Y-88693314D02*
G75*
G03*
X93378837Y-88676489I-183731J-375532D01*
G01*
X93034701Y-89270991D02*
X93036663Y-89401906D01*
X92313428Y-89969513D02*
G75*
G03*
X92284011Y-90012147I347341J-271127D01*
G01*
X93038589Y-89079007D02*
G75*
G03*
X93035115Y-89078492I-3474J-11461D01*
G01*
X92645602Y-90032925D02*
X92621819Y-90037162D01*
X93171985Y-88983833D02*
X93160696Y-89027453D01*
X93378837Y-88676489D02*
G75*
G03*
X93353130Y-88672701I-21908J-59549D01*
G01*
X92895455Y-89832727D02*
X92888273Y-89843969D01*
X92555402Y-90023833D02*
G75*
G03*
X92567439Y-90032692I31413J30074D01*
G01*
X93160696Y-89027453D02*
X93151268Y-89064186D01*
X93021364Y-89527645D02*
G75*
G03*
X93033006Y-89466073I-452018J117353D01*
G01*
X93287234Y-88885662D02*
X93276822Y-88877212D01*
X92962684Y-90757220D02*
X93096773Y-90810642D01*
X92718657Y-90600396D02*
X92856061Y-90699608D01*
X93522626Y-91030893D02*
G75*
G03*
X93526990Y-91060609I60978J-6224D01*
G01*
X93581707Y-90920631D02*
G75*
G03*
X93578872Y-90908214I-7731J4767D01*
G01*
X93201878Y-90844171D02*
G75*
G03*
X93309743Y-90867399I294002J1103193D01*
G01*
X94154631Y-91066419D02*
G75*
G03*
X94202296Y-91018646I-280279J327311D01*
G01*
X94202296Y-91018647D02*
G75*
G03*
X94241287Y-90965050I-328109J279679D01*
G01*
X95268335Y-91088739D02*
G75*
G03*
X95317335Y-91097870I49722J130779D01*
G01*
X95977213Y-91016682D02*
G75*
G03*
X95988246Y-90974329I-227033J81757D01*
G01*
X94013108Y-91095504D02*
X94088781Y-91092437D01*
X95277007Y-90959496D02*
G75*
G03*
X95251678Y-91004727I262957J-176957D01*
G01*
X95959595Y-91049933D02*
G75*
G03*
X95977213Y-91016682I-107833J78427D01*
G01*
X94782007Y-90908491D02*
X95311331Y-90908491D01*
X96056977Y-90888835D02*
X96192568Y-90852986D01*
X96457171Y-90766250D02*
X96572684Y-90722270D01*
X96000355Y-90927573D02*
G75*
G03*
X95988246Y-90974330I254826J-90940D01*
G01*
X92591201Y-90494126D02*
X92718657Y-90600396D01*
X96572684Y-90722269D02*
G75*
G03*
X96673654Y-90675300I-320164J820263D01*
G01*
X93610080Y-91095613D02*
X93682456Y-91097913D01*
X92468451Y-90333071D02*
G75*
G03*
X92422041Y-90273366I-662256J-466902D01*
G01*
X94088781Y-91092437D02*
G75*
G03*
X94113127Y-91088534I-5179J110183D01*
G01*
X93922774Y-91097697D02*
X94013108Y-91095504D01*
X92259692Y-90058271D02*
G75*
G03*
X92252684Y-90090730I71666J-32459D01*
G01*
X92259438Y-90121417D02*
G75*
G03*
X92279690Y-90154166I145281J67207D01*
G01*
X92524974Y-90416754D02*
G75*
G03*
X92591201Y-90494126I320225J207071D01*
G01*
X93557946Y-90955186D02*
G75*
G03*
X93581707Y-90920631I-335146J255903D01*
G01*
X94465193Y-90908911D02*
X94782007Y-90908491D01*
X94241287Y-90965050D02*
G75*
G03*
X94252684Y-90924811I-65339J40239D01*
G01*
X95317335Y-91097870D02*
X95581984Y-91098363D01*
X92468451Y-90333071D02*
X92524973Y-90416754D01*
X93533072Y-90995002D02*
G75*
G03*
X93522626Y-91030893I92564J-46405D01*
G01*
X93096773Y-90810642D02*
G75*
G03*
X93201878Y-90844171I399009J1069293D01*
G01*
X92381998Y-90232049D02*
G75*
G03*
X92345981Y-90207430I-105870J-116230D01*
G01*
X94113127Y-91088532D02*
G75*
G03*
X94154630Y-91066419I-29024J104475D01*
G01*
X96056977Y-90888835D02*
G75*
G03*
X96019028Y-90904895I39891J-147129D01*
G01*
X93566365Y-91091360D02*
X93610080Y-91095613D01*
X95581984Y-91098363D02*
X95841625Y-91096880D01*
X95242014Y-91042928D02*
G75*
G03*
X95248233Y-91071210I51659J-3466D01*
G01*
X93309743Y-90867400D02*
X93452684Y-90887806D01*
X96192568Y-90852986D02*
X96265618Y-90832150D01*
X95935591Y-91073629D02*
G75*
G03*
X95959596Y-91049933I-60009J84799D01*
G01*
X94262225Y-90914626D02*
G75*
G03*
X94252683Y-90924811I665J-10185D01*
G01*
X92279690Y-90154166D02*
G75*
G03*
X92309803Y-90184330I151437J121068D01*
G01*
X93682456Y-91097913D02*
X93822409Y-91098436D01*
X94336270Y-90911069D02*
X94465193Y-90908911D01*
X96354524Y-90802947D02*
X96457171Y-90766250D01*
X93526990Y-91060609D02*
G75*
G03*
X93544908Y-91082924I47295J19625D01*
G01*
X95905704Y-91087822D02*
G75*
G03*
X95935591Y-91073629I-25789J92869D01*
G01*
X95311331Y-90908491D02*
X95277007Y-90959496D01*
X93822409Y-91098436D02*
X93922774Y-91097697D01*
X95841625Y-91096880D02*
G75*
G03*
X95905704Y-91087822I-2483J248755D01*
G01*
X92856061Y-90699608D02*
G75*
G03*
X92962684Y-90757220I357974J535036D01*
G01*
X93578873Y-90908215D02*
G75*
G03*
X93559362Y-90901116I-25592J-39979D01*
G01*
X95251679Y-91004728D02*
G75*
G03*
X95242014Y-91042928I99657J-45536D01*
G01*
X92422040Y-90273366D02*
G75*
G03*
X92381998Y-90232049I-351278J-300377D01*
G01*
X93557946Y-90955186D02*
G75*
G03*
X93533071Y-90995002I199384J-152242D01*
G01*
X92252684Y-90090730D02*
G75*
G03*
X92259438Y-90121417I73090J0D01*
G01*
X93544909Y-91082924D02*
G75*
G03*
X93566365Y-91091359I28232J40306D01*
G01*
X95248233Y-91071210D02*
G75*
G03*
X95268335Y-91088739I33780J18448D01*
G01*
X93452684Y-90887806D02*
X93559361Y-90901116D01*
X96019028Y-90904896D02*
G75*
G03*
X96000356Y-90927572I22111J-37231D01*
G01*
X92309803Y-90184330D02*
G75*
G03*
X92345981Y-90207430I124760J155515D01*
G01*
X96265618Y-90832150D02*
X96354524Y-90802947D01*
X94262225Y-90914626D02*
X94336270Y-90911069D01*
X96412904Y-90538827D02*
G75*
G03*
X96431187Y-90550375I20999J12998D01*
G01*
X96839384Y-90524175D02*
G75*
G03*
X96825800Y-90514474I-13692J-4812D01*
G01*
X96410518Y-90517862D02*
G75*
G03*
X96409034Y-90524752I19890J-7889D01*
G01*
X96545969Y-90352333D02*
X96556403Y-90319870D01*
X96764003Y-89566807D02*
X96780681Y-89561689D01*
X96736681Y-89503274D02*
X96716970Y-89481290D01*
X96716970Y-89481290D02*
X96695764Y-89456365D01*
X96661988Y-89413491D02*
X96648451Y-89395674D01*
X96762619Y-90515653D02*
X96689223Y-90521931D01*
X96476561Y-90552362D02*
G75*
G03*
X96538001Y-90547351I-11940J525538D01*
G01*
X96830904Y-90560512D02*
G75*
G03*
X96839384Y-90524174I-24277J24824D01*
G01*
X96448161Y-90514725D02*
G75*
G03*
X96435682Y-90507399I-80586J-122988D01*
G01*
X96556403Y-90319870D02*
X96562984Y-90296597D01*
X96623127Y-90255408D02*
X96671310Y-90261115D01*
X96435682Y-90507399D02*
G75*
G03*
X96427222Y-90504919I-10463J-20020D01*
G01*
X96671310Y-90261115D02*
X96665718Y-90098689D01*
X96719091Y-89577462D02*
X96743470Y-89572193D01*
X96562984Y-90296597D02*
X96574944Y-90249702D01*
X96715651Y-89803491D02*
X96701314Y-89761049D01*
X96743470Y-89572193D02*
X96764003Y-89566807D01*
X96689223Y-90521931D02*
X96614293Y-90534252D01*
X96695764Y-89456365D02*
X96676222Y-89432335D01*
X96431187Y-90550375D02*
G75*
G03*
X96476561Y-90552362I37609J339819D01*
G01*
X96420511Y-90506381D02*
G75*
G03*
X96414173Y-90511698I11431J-20063D01*
G01*
X96533899Y-90387570D02*
X96545969Y-90352333D01*
X96648451Y-89395674D02*
X96631353Y-89375102D01*
X96755065Y-89916996D02*
X96715651Y-89803491D01*
X96660125Y-89936263D02*
X96712420Y-89943455D01*
X96782684Y-89558939D02*
G75*
G03*
X96781350Y-89555138I-6084J0D01*
G01*
X96631353Y-89375102D02*
X96613589Y-89355082D01*
X96781350Y-89555138D02*
X96769170Y-89540160D01*
X96613589Y-89355082D02*
X96597990Y-89338973D01*
X96479195Y-90524000D02*
G75*
G03*
X96488860Y-90518331I-2533J15391D01*
G01*
X96597990Y-89338973D02*
X96584464Y-89325189D01*
X96665718Y-90098689D02*
X96660125Y-89936263D01*
X96409855Y-90531904D02*
G75*
G03*
X96412904Y-90538827I26198J7405D01*
G01*
X96780681Y-89561689D02*
G75*
G03*
X96782684Y-89558939I-887J2750D01*
G01*
X96754311Y-89522778D02*
X96736681Y-89503274D01*
X96675238Y-89675342D02*
X96668054Y-89646797D01*
X96493736Y-90500672D02*
G75*
G03*
X96492684Y-90507396I20950J-6723D01*
G01*
X96488859Y-90518331D02*
G75*
G03*
X96492684Y-90507395I-13721J10936D01*
G01*
X96701314Y-89761049D02*
X96687214Y-89716213D01*
X96758308Y-89937866D02*
G75*
G03*
X96755065Y-89916997I-59879J1382D01*
G01*
X96521854Y-90420486D02*
X96533899Y-90387570D01*
X96464694Y-90522798D02*
G75*
G03*
X96479195Y-90524000I9645J28296D01*
G01*
X96769170Y-89540160D02*
X96754311Y-89522778D01*
X96673654Y-90675300D02*
G75*
G03*
X96764326Y-90617339I-367500J674810D01*
G01*
X96427222Y-90504918D02*
G75*
G03*
X96420510Y-90506381I-1019J-11453D01*
G01*
X96501252Y-90477775D02*
X96510679Y-90450704D01*
X96676222Y-89432335D02*
X96661988Y-89413491D01*
X96510679Y-90450704D02*
X96521854Y-90420486D01*
X96668054Y-89646797D02*
X96655499Y-89590103D01*
X96825799Y-90514474D02*
X96762619Y-90515653D01*
X96764326Y-90617339D02*
G75*
G03*
X96830904Y-90560512I-385792J519401D01*
G01*
X96614293Y-90534252D02*
X96538001Y-90547351D01*
X96493736Y-90500672D02*
X96501252Y-90477775D01*
X96574944Y-90249702D02*
X96623127Y-90255408D01*
X96409034Y-90524752D02*
G75*
G03*
X96409856Y-90531904I22416J-1048D01*
G01*
X96655499Y-89590103D02*
X96719091Y-89577462D01*
X96448161Y-90514724D02*
G75*
G03*
X96464694Y-90522798I40199J61351D01*
G01*
X96414173Y-90511697D02*
G75*
G03*
X96410518Y-90517861I17572J-14584D01*
G01*
X96749507Y-89946318D02*
G75*
G03*
X96758308Y-89937865I150J8652D01*
G01*
X96712420Y-89943454D02*
G75*
G03*
X96749506Y-89946317I42510J309085D01*
G01*
X96687214Y-89716213D02*
X96675238Y-89675342D01*
X96661970Y-89241805D02*
X96635637Y-89215675D01*
X96449597Y-89033848D02*
X96420654Y-89004204D01*
X96244063Y-88747905D02*
G75*
G03*
X96242683Y-88754294I14103J-6389D01*
G01*
X96254572Y-88767537D02*
G75*
G03*
X96267654Y-88775900I76613J105429D01*
G01*
X96457836Y-88972533D02*
X96470101Y-88962921D01*
X96293524Y-88668316D02*
X96265604Y-88657894D01*
X96564818Y-89292788D02*
G75*
G03*
X96562684Y-89296751I2612J-3963D01*
G01*
X96605912Y-89186463D02*
X96570612Y-89152252D01*
X96662684Y-89243520D02*
G75*
G03*
X96661970Y-89241805I-2418J0D01*
G01*
X96497084Y-89080857D02*
X96466255Y-89050584D01*
X96502391Y-88937657D02*
G75*
G03*
X96500131Y-88933479I-5573J-314D01*
G01*
X96245041Y-88759698D02*
G75*
G03*
X96254573Y-88767537I70161J75596D01*
G01*
X96584464Y-89325189D02*
X96573055Y-89312331D01*
X96500468Y-88941731D02*
G75*
G03*
X96502391Y-88937657I-2791J3808D01*
G01*
X96244063Y-88747905D02*
X96250151Y-88735423D01*
X96631852Y-89259111D02*
X96647996Y-89251610D01*
X96242684Y-88754294D02*
G75*
G03*
X96245041Y-88759697I7372J0D01*
G01*
X96570612Y-89152252D02*
X96533240Y-89116096D01*
X96466255Y-89050584D02*
X96449597Y-89033848D01*
X96250151Y-88735423D02*
X96258370Y-88720866D01*
X96562685Y-89296751D02*
G75*
G03*
X96564226Y-89301299I7480J0D01*
G01*
X96481601Y-88954396D02*
X96490126Y-88948700D01*
X96283156Y-88783704D02*
X96267655Y-88775900D01*
X96265604Y-88657894D02*
X96250937Y-88652336D01*
X96250937Y-88652336D02*
X96228260Y-88643578D01*
X96228260Y-88643578D02*
X96202703Y-88633623D01*
X96268104Y-88705725D02*
X96293524Y-88668316D01*
X96202703Y-88633623D02*
X96177684Y-88623792D01*
X96564818Y-89292788D02*
X96577371Y-89284992D01*
X96428345Y-88885924D02*
X96379044Y-88851983D01*
X96420654Y-89004204D02*
X96446612Y-88981877D01*
X96177684Y-88623792D02*
X96148705Y-88612723D01*
X96593523Y-89276339D02*
X96612684Y-89267538D01*
X96258370Y-88720866D02*
X96268104Y-88705725D01*
X96379044Y-88851983D02*
X96340049Y-88823819D01*
X96330656Y-88813547D02*
G75*
G03*
X96340049Y-88823819I30601J18552D01*
G01*
X96612684Y-89267538D02*
X96631852Y-89259111D01*
X96647996Y-89251610D02*
X96661816Y-89244911D01*
X96573055Y-89312331D02*
X96564225Y-89301300D01*
X96577371Y-89284992D02*
X96593523Y-89276339D01*
X96490126Y-88948700D02*
X96500468Y-88941731D01*
X96488830Y-88925671D02*
X96428345Y-88885924D01*
X96325540Y-88807966D02*
X96313804Y-88799999D01*
X96661816Y-89244911D02*
G75*
G03*
X96662684Y-89243520I-680J1391D01*
G01*
X96635637Y-89215675D02*
X96605912Y-89186463D01*
X96533240Y-89116096D02*
X96497084Y-89080857D01*
X96330656Y-88813547D02*
G75*
G03*
X96325540Y-88807966I-16542J-10028D01*
G01*
X96313804Y-88799999D02*
X96299166Y-88791542D01*
X96446612Y-88981877D02*
X96457836Y-88972533D01*
X96299166Y-88791542D02*
X96283156Y-88783704D01*
X96470101Y-88962921D02*
X96481601Y-88954396D01*
X96500131Y-88933479D02*
X96488830Y-88925671D01*
D14*
X93214533Y-88821205D02*
X93032908Y-89135038D01*
X93032908Y-89135038D02*
X92989887Y-89643491D01*
X92989887Y-89643491D02*
X92740206Y-89994290D01*
X92740206Y-89994290D02*
X92603257Y-90038491D01*
X92603257Y-90038491D02*
X92389549Y-89938504D01*
X92389549Y-89938504D02*
X92284011Y-90012147D01*
X92284011Y-90012147D02*
X92279690Y-90154166D01*
X92279690Y-90154166D02*
X92591201Y-90494126D01*
X92591201Y-90494126D02*
X92583000Y-91281504D01*
X92583000Y-91281504D02*
X91440000Y-91281504D01*
X91440000Y-91281504D02*
X91440000Y-88472264D01*
X91440000Y-88472264D02*
X91810840Y-88101424D01*
X91810840Y-88101424D02*
X93218000Y-88106504D01*
X93218000Y-88106504D02*
X93214533Y-88821205D01*
G36*
X93218000Y-88106504D02*
G01*
X93214533Y-88821205D01*
X93032908Y-89135038D01*
X92989887Y-89643491D01*
X92740206Y-89994290D01*
X92603257Y-90038491D01*
X92389549Y-89938504D01*
X92284011Y-90012147D01*
X92279690Y-90154166D01*
X92591201Y-90494126D01*
X92583000Y-91281504D01*
X91440000Y-91281504D01*
X91440000Y-88472264D01*
X91810840Y-88101424D01*
X93218000Y-88106504D01*
G37*
X93218000Y-88106504D02*
X93214533Y-88821205D01*
X93032908Y-89135038D01*
X92989887Y-89643491D01*
X92740206Y-89994290D01*
X92603257Y-90038491D01*
X92389549Y-89938504D01*
X92284011Y-90012147D01*
X92279690Y-90154166D01*
X92591201Y-90494126D01*
X92583000Y-91281504D01*
X91440000Y-91281504D01*
X91440000Y-88472264D01*
X91810840Y-88101424D01*
X93218000Y-88106504D01*
X97790000Y-89249504D02*
X96605912Y-89186463D01*
X96605912Y-89186463D02*
X96449597Y-89033848D01*
X96449597Y-89033848D02*
X96488830Y-88925671D01*
X96488830Y-88925671D02*
X96393000Y-88868504D01*
X96393000Y-88868504D02*
X96267654Y-88775900D01*
X96267654Y-88775900D02*
X96265604Y-88657894D01*
X96265604Y-88657894D02*
X95971564Y-88551257D01*
X95971564Y-88551257D02*
X95952712Y-88449382D01*
X95952712Y-88449382D02*
X95675781Y-88398389D01*
X95675781Y-88398389D02*
X95657940Y-88327995D01*
X95657940Y-88327995D02*
X95300413Y-88298491D01*
X95300413Y-88298491D02*
X95275884Y-88213807D01*
X95275884Y-88213807D02*
X94991256Y-88284020D01*
X94991256Y-88284020D02*
X94935605Y-88235943D01*
X94935605Y-88235943D02*
X94650120Y-88317389D01*
X94650120Y-88317389D02*
X94600199Y-88249761D01*
X94600199Y-88249761D02*
X94324728Y-88389161D01*
X94324728Y-88389161D02*
X94247561Y-88323563D01*
X94247561Y-88323563D02*
X94020928Y-88465634D01*
X94020928Y-88465634D02*
X93977246Y-88380736D01*
X93977246Y-88380736D02*
X93712340Y-88618301D01*
X93712340Y-88618301D02*
X93612548Y-88546166D01*
X93612548Y-88546166D02*
X93473511Y-88720367D01*
X93473511Y-88720367D02*
X93354303Y-88692244D01*
X93354303Y-88692244D02*
X93312763Y-88795910D01*
X93312763Y-88795910D02*
X93214533Y-88821205D01*
X93214533Y-88821205D02*
X93214533Y-88106504D01*
X93214533Y-88106504D02*
X97790000Y-88106504D01*
X97790000Y-88106504D02*
X97790000Y-89249504D01*
G36*
X97790000Y-89249504D02*
G01*
X96605912Y-89186463D01*
X96449597Y-89033848D01*
X96488830Y-88925671D01*
X96393000Y-88868504D01*
X96267654Y-88775900D01*
X96265604Y-88657894D01*
X95971564Y-88551257D01*
X95952712Y-88449382D01*
X95675781Y-88398389D01*
X95657940Y-88327995D01*
X95300413Y-88298491D01*
X95275884Y-88213807D01*
X94991256Y-88284020D01*
X94935605Y-88235943D01*
X94650120Y-88317389D01*
X94600199Y-88249761D01*
X94324728Y-88389161D01*
X94247561Y-88323563D01*
X94020928Y-88465634D01*
X93977246Y-88380736D01*
X93712340Y-88618301D01*
X93612548Y-88546166D01*
X93473511Y-88720367D01*
X93354303Y-88692244D01*
X93312763Y-88795910D01*
X93214533Y-88821205D01*
X93214533Y-88106504D01*
X97790000Y-88106504D01*
X97790000Y-89249504D01*
G37*
X97790000Y-89249504D02*
X96605912Y-89186463D01*
X96449597Y-89033848D01*
X96488830Y-88925671D01*
X96393000Y-88868504D01*
X96267654Y-88775900D01*
X96265604Y-88657894D01*
X95971564Y-88551257D01*
X95952712Y-88449382D01*
X95675781Y-88398389D01*
X95657940Y-88327995D01*
X95300413Y-88298491D01*
X95275884Y-88213807D01*
X94991256Y-88284020D01*
X94935605Y-88235943D01*
X94650120Y-88317389D01*
X94600199Y-88249761D01*
X94324728Y-88389161D01*
X94247561Y-88323563D01*
X94020928Y-88465634D01*
X93977246Y-88380736D01*
X93712340Y-88618301D01*
X93612548Y-88546166D01*
X93473511Y-88720367D01*
X93354303Y-88692244D01*
X93312763Y-88795910D01*
X93214533Y-88821205D01*
X93214533Y-88106504D01*
X97790000Y-88106504D01*
X97790000Y-89249504D01*
X97790000Y-91281504D02*
X96012000Y-91281504D01*
X96012000Y-91281504D02*
X96019028Y-90904895D01*
X96019028Y-90904895D02*
X96457171Y-90766250D01*
X96457171Y-90766250D02*
X96764326Y-90617339D01*
X96764326Y-90617339D02*
X96774000Y-90519504D01*
X96774000Y-90519504D02*
X96479195Y-90524000D01*
X96479195Y-90524000D02*
X96562984Y-90296597D01*
X96562984Y-90296597D02*
X96671310Y-90261115D01*
X96671310Y-90261115D02*
X96660125Y-89936263D01*
X96660125Y-89936263D02*
X96755065Y-89916996D01*
X96755065Y-89916996D02*
X96647000Y-89630504D01*
X96647000Y-89630504D02*
X96743470Y-89572193D01*
X96743470Y-89572193D02*
X96597990Y-89338973D01*
X96597990Y-89338973D02*
X96661816Y-89244911D01*
X96661816Y-89244911D02*
X96605912Y-89186463D01*
X96605912Y-89186463D02*
X97790000Y-89186463D01*
X97790000Y-89186463D02*
X97790000Y-91281504D01*
G36*
X97790000Y-91281504D02*
G01*
X96012000Y-91281504D01*
X96019028Y-90904895D01*
X96457171Y-90766250D01*
X96764326Y-90617339D01*
X96774000Y-90519504D01*
X96479195Y-90524000D01*
X96562984Y-90296597D01*
X96671310Y-90261115D01*
X96660125Y-89936263D01*
X96755065Y-89916996D01*
X96647000Y-89630504D01*
X96743470Y-89572193D01*
X96597990Y-89338973D01*
X96661816Y-89244911D01*
X96605912Y-89186463D01*
X97790000Y-89186463D01*
X97790000Y-91281504D01*
G37*
X97790000Y-91281504D02*
X96012000Y-91281504D01*
X96019028Y-90904895D01*
X96457171Y-90766250D01*
X96764326Y-90617339D01*
X96774000Y-90519504D01*
X96479195Y-90524000D01*
X96562984Y-90296597D01*
X96671310Y-90261115D01*
X96660125Y-89936263D01*
X96755065Y-89916996D01*
X96647000Y-89630504D01*
X96743470Y-89572193D01*
X96597990Y-89338973D01*
X96661816Y-89244911D01*
X96605912Y-89186463D01*
X97790000Y-89186463D01*
X97790000Y-91281504D01*
X92856061Y-90699608D02*
X93559362Y-90901116D01*
X93559362Y-90901116D02*
X93566365Y-91091360D01*
X93566365Y-91091360D02*
X94113127Y-91088534D01*
X94113127Y-91088534D02*
X94262890Y-90924811D01*
X94262890Y-90924811D02*
X95311331Y-90908491D01*
X95311331Y-90908491D02*
X95268335Y-91088739D01*
X95268335Y-91088739D02*
X95905704Y-91087822D01*
X95905704Y-91087822D02*
X96000355Y-90927573D01*
X96000355Y-90927573D02*
X96012000Y-91281504D01*
X96012000Y-91281504D02*
X92583000Y-91281504D01*
X92583000Y-91281504D02*
X92583000Y-90519504D01*
X92583000Y-90519504D02*
X92856061Y-90699608D01*
G36*
X92856061Y-90699608D02*
G01*
X93559362Y-90901116D01*
X93566365Y-91091360D01*
X94113127Y-91088534D01*
X94262890Y-90924811D01*
X95311331Y-90908491D01*
X95268335Y-91088739D01*
X95905704Y-91087822D01*
X96000355Y-90927573D01*
X96012000Y-91281504D01*
X92583000Y-91281504D01*
X92583000Y-90519504D01*
X92856061Y-90699608D01*
G37*
X92856061Y-90699608D02*
X93559362Y-90901116D01*
X93566365Y-91091360D01*
X94113127Y-91088534D01*
X94262890Y-90924811D01*
X95311331Y-90908491D01*
X95268335Y-91088739D01*
X95905704Y-91087822D01*
X96000355Y-90927573D01*
X96012000Y-91281504D01*
X92583000Y-91281504D01*
X92583000Y-90519504D01*
X92856061Y-90699608D01*
D13*
X113728641Y-86647000D02*
X113421359Y-86647000D01*
X113728641Y-87407000D02*
X113421359Y-87407000D01*
X113941000Y-89132000D02*
X114391000Y-89132000D01*
X107621000Y-89132000D02*
X107171000Y-89132000D01*
X107171000Y-96352000D02*
X107171000Y-95902000D01*
X107171000Y-89582000D02*
X105881000Y-89582000D01*
X113941000Y-96352000D02*
X114391000Y-96352000D01*
X107621000Y-96352000D02*
X107171000Y-96352000D01*
X114391000Y-96352000D02*
X114391000Y-95902000D01*
X107171000Y-89132000D02*
X107171000Y-89582000D01*
X114391000Y-89132000D02*
X114391000Y-89582000D01*
X132090359Y-114714000D02*
X132397641Y-114714000D01*
X132090359Y-115474000D02*
X132397641Y-115474000D01*
X89063000Y-99700359D02*
X89063000Y-100007641D01*
X88303000Y-99700359D02*
X88303000Y-100007641D01*
X126949000Y-85729996D02*
X129234000Y-85729996D01*
X126949000Y-84259996D02*
X126949000Y-85729996D01*
X129234000Y-84259996D02*
X126949000Y-84259996D01*
X112197164Y-82180000D02*
X112412836Y-82180000D01*
X112197164Y-81460000D02*
X112412836Y-81460000D01*
X121047000Y-120335936D02*
X121047000Y-121790064D01*
X122867000Y-120335936D02*
X122867000Y-121790064D01*
X126949000Y-82482000D02*
X126949000Y-83952000D01*
X126949000Y-83952000D02*
X129234000Y-83952000D01*
X129234000Y-82482000D02*
X126949000Y-82482000D01*
X125512000Y-93403641D02*
X125512000Y-93096359D01*
X124752000Y-93403641D02*
X124752000Y-93096359D01*
X117042992Y-83951996D02*
X119327992Y-83951996D01*
X119327992Y-82481996D02*
X117042992Y-82481996D01*
X117042992Y-82481996D02*
X117042992Y-83951996D01*
X123647000Y-83952000D02*
X125932000Y-83952000D01*
X123647000Y-82482000D02*
X123647000Y-83952000D01*
X125932000Y-82482000D02*
X123647000Y-82482000D01*
X100873000Y-117647580D02*
X100873000Y-117366420D01*
X101893000Y-117647580D02*
X101893000Y-117366420D01*
X123647000Y-84259996D02*
X123647000Y-85729996D01*
X123647000Y-85729996D02*
X125932000Y-85729996D01*
X125932000Y-84259996D02*
X123647000Y-84259996D01*
X132751000Y-106403359D02*
X132751000Y-106710641D01*
X131991000Y-106403359D02*
X131991000Y-106710641D01*
X106368500Y-112281000D02*
X106368500Y-111021000D01*
X106368500Y-105461000D02*
X106368500Y-106721000D01*
X110128500Y-105461000D02*
X106368500Y-105461000D01*
X112378500Y-112281000D02*
X106368500Y-112281000D01*
X130250992Y-91063996D02*
X132535992Y-91063996D01*
X132535992Y-89593996D02*
X130250992Y-89593996D01*
X130250992Y-89593996D02*
X130250992Y-91063996D01*
X119136000Y-122452748D02*
X119136000Y-122975252D01*
X117666000Y-122452748D02*
X117666000Y-122975252D01*
X130250992Y-84259996D02*
X130250992Y-85729996D01*
X130250992Y-85729996D02*
X132535992Y-85729996D01*
X132535992Y-84259996D02*
X130250992Y-84259996D01*
X122629992Y-87815996D02*
X120344992Y-87815996D01*
X120344992Y-89285996D02*
X122629992Y-89285996D01*
X120344992Y-87815996D02*
X120344992Y-89285996D01*
X113065000Y-108095420D02*
X113065000Y-108376580D01*
X114085000Y-108095420D02*
X114085000Y-108376580D01*
D12*
X98053000Y-122166000D02*
X98449450Y-122166000D01*
X94553000Y-122166000D02*
X93803000Y-122166000D01*
X98449450Y-122166000D02*
X98803000Y-121812450D01*
X93803000Y-122166000D02*
X93803000Y-121416000D01*
X93803000Y-117166000D02*
X93803000Y-117916000D01*
X94553000Y-117166000D02*
X93803000Y-117166000D01*
X98803000Y-117166000D02*
X98053000Y-117166000D01*
X98803000Y-117916000D02*
X98803000Y-117166000D01*
X98803000Y-121812450D02*
X98803000Y-121416000D01*
X99553000Y-121916000D02*
G75*
G03*
X99553000Y-121916000I-250000J0D01*
G01*
D13*
X94504000Y-107620164D02*
X94504000Y-107835836D01*
X93784000Y-107620164D02*
X93784000Y-107835836D01*
X101003000Y-123322359D02*
X101003000Y-123629641D01*
X101763000Y-123322359D02*
X101763000Y-123629641D01*
X120345000Y-83952000D02*
X122630000Y-83952000D01*
X120345000Y-82482000D02*
X120345000Y-83952000D01*
X122630000Y-82482000D02*
X120345000Y-82482000D01*
X119327992Y-87815996D02*
X117042992Y-87815996D01*
X117042992Y-87815996D02*
X117042992Y-89285996D01*
X117042992Y-89285996D02*
X119327992Y-89285996D01*
D12*
X91207000Y-108851000D02*
X91747000Y-108851000D01*
X91747000Y-106351000D02*
X91207000Y-106351000D01*
D15*
X89227000Y-108571000D02*
G75*
G03*
X89227000Y-108571000I-100000J0D01*
G01*
D13*
X103060641Y-120302000D02*
X102753359Y-120302000D01*
X103060641Y-121062000D02*
X102753359Y-121062000D01*
X132524641Y-104173000D02*
X132217359Y-104173000D01*
X132524641Y-104933000D02*
X132217359Y-104933000D01*
X91210000Y-101968500D02*
X91210000Y-103258500D01*
X90760000Y-101968500D02*
X91210000Y-101968500D01*
X90760000Y-95198500D02*
X90760000Y-94748500D01*
X97980000Y-94748500D02*
X97530000Y-94748500D01*
X97980000Y-95198500D02*
X97980000Y-94748500D01*
X97980000Y-101968500D02*
X97530000Y-101968500D01*
X97980000Y-101518500D02*
X97980000Y-101968500D01*
X90760000Y-101518500D02*
X90760000Y-101968500D01*
X90760000Y-94748500D02*
X91210000Y-94748500D01*
X126949000Y-87507996D02*
X129234000Y-87507996D01*
X129234000Y-86037996D02*
X126949000Y-86037996D01*
X126949000Y-86037996D02*
X126949000Y-87507996D01*
D12*
X127844500Y-105744000D02*
X127844500Y-111744000D01*
X121844500Y-105744000D02*
X127844500Y-105744000D01*
X121844500Y-111744000D02*
X127844500Y-111744000D01*
X121844500Y-111744000D02*
X121844500Y-105744000D01*
D15*
X131194500Y-111044000D02*
G75*
G03*
X131194500Y-111044000I-100000J0D01*
G01*
D13*
X92092836Y-104955000D02*
X91877164Y-104955000D01*
X92092836Y-105675000D02*
X91877164Y-105675000D01*
X103417000Y-117647580D02*
X103417000Y-117366420D01*
X102397000Y-117647580D02*
X102397000Y-117366420D01*
X127926000Y-115511000D02*
X128576000Y-115511000D01*
X127926000Y-115511000D02*
X127276000Y-115511000D01*
X127926000Y-112391000D02*
X128576000Y-112391000D01*
X127926000Y-112391000D02*
X126251000Y-112391000D01*
X117104000Y-122452748D02*
X117104000Y-122975252D01*
X115634000Y-122452748D02*
X115634000Y-122975252D01*
X122175000Y-116491000D02*
X122175000Y-118291000D01*
X125295000Y-116491000D02*
X125295000Y-117291000D01*
X125295000Y-116491000D02*
X125295000Y-115691000D01*
X122175000Y-116491000D02*
X122175000Y-115691000D01*
X100473000Y-117995836D02*
X100473000Y-117780164D01*
X99753000Y-117995836D02*
X99753000Y-117780164D01*
X93764000Y-104399359D02*
X93764000Y-104706641D01*
X94524000Y-104399359D02*
X94524000Y-104706641D01*
X117666000Y-117260252D02*
X117666000Y-116737748D01*
X119136000Y-117260252D02*
X119136000Y-116737748D01*
X126949000Y-89285996D02*
X129234000Y-89285996D01*
X129234000Y-87815996D02*
X126949000Y-87815996D01*
X126949000Y-87815996D02*
X126949000Y-89285996D01*
X126949000Y-89593996D02*
X126949000Y-91063996D01*
X126949000Y-91063996D02*
X129234000Y-91063996D01*
X129234000Y-89593996D02*
X126949000Y-89593996D01*
X86525000Y-88196641D02*
X86525000Y-87889359D01*
X87285000Y-88196641D02*
X87285000Y-87889359D01*
X115609000Y-108095420D02*
X115609000Y-108376580D01*
X114589000Y-108095420D02*
X114589000Y-108376580D01*
X96697580Y-109504000D02*
X96416420Y-109504000D01*
X96697580Y-110524000D02*
X96416420Y-110524000D01*
X119565000Y-121844164D02*
X119565000Y-122059836D01*
X120285000Y-121844164D02*
X120285000Y-122059836D01*
X113513663Y-116913004D02*
X106496355Y-116913004D01*
X114958009Y-121371123D02*
X114958009Y-120194185D01*
X105052009Y-126133204D02*
X114958009Y-126133204D01*
X114958009Y-126133204D02*
X114958009Y-123848887D01*
X105052009Y-120194185D02*
X105052009Y-121371123D01*
X105052009Y-123848887D02*
X105052009Y-126133204D01*
D16*
X104470509Y-116820004D02*
G75*
G03*
X104470509Y-116820004I-220500J0D01*
G01*
D13*
X117042992Y-84259996D02*
X117042992Y-85729996D01*
X117042992Y-85729996D02*
X119327992Y-85729996D01*
X119327992Y-84259996D02*
X117042992Y-84259996D01*
X90200000Y-103076664D02*
X90200000Y-103292336D01*
X90920000Y-103076664D02*
X90920000Y-103292336D01*
X120344992Y-86037996D02*
X120344992Y-87507996D01*
X120344992Y-87507996D02*
X122629992Y-87507996D01*
X122629992Y-86037996D02*
X120344992Y-86037996D01*
X115634000Y-117260252D02*
X115634000Y-116737748D01*
X117104000Y-117260252D02*
X117104000Y-116737748D01*
X95775836Y-104701000D02*
X95560164Y-104701000D01*
X95775836Y-105421000D02*
X95560164Y-105421000D01*
X87566641Y-86899000D02*
X87259359Y-86899000D01*
X87566641Y-86139000D02*
X87259359Y-86139000D01*
X89354000Y-83979000D02*
X89354000Y-84629000D01*
X86234000Y-83979000D02*
X86234000Y-85654000D01*
X86234000Y-83979000D02*
X86234000Y-83329000D01*
X89354000Y-83979000D02*
X89354000Y-83329000D01*
X120344992Y-89593996D02*
X120344992Y-91063996D01*
X122629992Y-89593996D02*
X120344992Y-89593996D01*
X120344992Y-91063996D02*
X122629992Y-91063996D01*
X105935836Y-81587000D02*
X105720164Y-81587000D01*
X105935836Y-82307000D02*
X105720164Y-82307000D01*
D12*
X123306000Y-95076000D02*
X123306000Y-101076000D01*
X117306000Y-95076000D02*
X123306000Y-95076000D01*
X123306000Y-101076000D02*
X117306000Y-101076000D01*
X117306000Y-95076000D02*
X117306000Y-101076000D01*
D15*
X118106000Y-104326000D02*
G75*
G03*
X118106000Y-104326000I-100000J0D01*
G01*
D13*
X126550000Y-121790064D02*
X126550000Y-120335936D01*
X124730000Y-121790064D02*
X124730000Y-120335936D01*
X99591420Y-114584000D02*
X99872580Y-114584000D01*
X99591420Y-115604000D02*
X99872580Y-115604000D01*
X117042992Y-87507996D02*
X119327992Y-87507996D01*
X117042992Y-86037996D02*
X117042992Y-87507996D01*
X119327992Y-86037996D02*
X117042992Y-86037996D01*
X95775836Y-103685000D02*
X95560164Y-103685000D01*
X95775836Y-104405000D02*
X95560164Y-104405000D01*
X101765000Y-82301359D02*
X101765000Y-82608641D01*
X102525000Y-82301359D02*
X102525000Y-82608641D01*
X130305000Y-114149000D02*
X132990000Y-114149000D01*
X130305000Y-112229000D02*
X130305000Y-114149000D01*
X132990000Y-112229000D02*
X130305000Y-112229000D01*
X96022359Y-115476000D02*
X96329641Y-115476000D01*
X96022359Y-116236000D02*
X96329641Y-116236000D01*
X132535992Y-87815996D02*
X130250992Y-87815996D01*
X130250992Y-87815996D02*
X130250992Y-89285996D01*
X130250992Y-89285996D02*
X132535992Y-89285996D01*
X95108000Y-106947378D02*
X95108000Y-107746622D01*
X96228000Y-106947378D02*
X96228000Y-107746622D01*
X113681000Y-111811164D02*
X113681000Y-112026836D01*
X112961000Y-111811164D02*
X112961000Y-112026836D01*
X125932000Y-87815996D02*
X123647000Y-87815996D01*
X123647000Y-89285996D02*
X125932000Y-89285996D01*
X123647000Y-87815996D02*
X123647000Y-89285996D01*
X101028641Y-97188000D02*
X100721359Y-97188000D01*
X101028641Y-97948000D02*
X100721359Y-97948000D01*
X99448000Y-93673080D02*
X99448000Y-93391920D01*
X100468000Y-93673080D02*
X100468000Y-93391920D01*
X132535992Y-86037996D02*
X130250992Y-86037996D01*
X130250992Y-87507996D02*
X132535992Y-87507996D01*
X130250992Y-86037996D02*
X130250992Y-87507996D01*
X125932000Y-89593996D02*
X123647000Y-89593996D01*
X123647000Y-89593996D02*
X123647000Y-91063996D01*
X123647000Y-91063996D02*
X125932000Y-91063996D01*
X93101359Y-123348000D02*
X93408641Y-123348000D01*
X93101359Y-122588000D02*
X93408641Y-122588000D01*
X98328000Y-94275336D02*
X98328000Y-94059664D01*
X99048000Y-94275336D02*
X99048000Y-94059664D01*
X102908000Y-82301359D02*
X102908000Y-82608641D01*
X103668000Y-82301359D02*
X103668000Y-82608641D01*
X120344992Y-85729996D02*
X122629992Y-85729996D01*
X122629992Y-84259996D02*
X120344992Y-84259996D01*
X120344992Y-84259996D02*
X120344992Y-85729996D01*
X111778420Y-85247000D02*
X112059580Y-85247000D01*
X111778420Y-86267000D02*
X112059580Y-86267000D01*
X111435164Y-86667000D02*
X111650836Y-86667000D01*
X111435164Y-87387000D02*
X111650836Y-87387000D01*
X125932000Y-86037996D02*
X123647000Y-86037996D01*
X123647000Y-86037996D02*
X123647000Y-87507996D01*
X123647000Y-87507996D02*
X125932000Y-87507996D01*
X98006000Y-107746622D02*
X98006000Y-106947378D01*
X96886000Y-107746622D02*
X96886000Y-106947378D01*
X94270000Y-83116641D02*
X94270000Y-82809359D01*
X93510000Y-83116641D02*
X93510000Y-82809359D01*
X112672420Y-83600000D02*
X112953580Y-83600000D01*
X112672420Y-82580000D02*
X112953580Y-82580000D01*
X115605000Y-111905420D02*
X115605000Y-112186580D01*
X116625000Y-111905420D02*
X116625000Y-112186580D01*
X106591000Y-87762359D02*
X106591000Y-88069641D01*
X107351000Y-87762359D02*
X107351000Y-88069641D01*
X130231164Y-104913000D02*
X130446836Y-104913000D01*
X130231164Y-104193000D02*
X130446836Y-104193000D01*
X131715000Y-106664836D02*
X131715000Y-106449164D01*
X130995000Y-106664836D02*
X130995000Y-106449164D01*
X102906000Y-96197641D02*
X102906000Y-95890359D01*
X102146000Y-96197641D02*
X102146000Y-95890359D01*
D12*
X126831000Y-95076000D02*
X132831000Y-95076000D01*
X132831000Y-101076000D02*
X126831000Y-101076000D01*
X132831000Y-95076000D02*
X132831000Y-101076000D01*
X126831000Y-95076000D02*
X126831000Y-101076000D01*
D15*
X127631000Y-104326000D02*
G75*
G03*
X127631000Y-104326000I-100000J0D01*
G01*
D13*
X102906000Y-123322359D02*
X102906000Y-123629641D01*
X102146000Y-123322359D02*
X102146000Y-123629641D01*
X101028641Y-96172000D02*
X100721359Y-96172000D01*
X101028641Y-96932000D02*
X100721359Y-96932000D01*
X102906000Y-97922359D02*
X102906000Y-98229641D01*
X102146000Y-97922359D02*
X102146000Y-98229641D01*
X132535992Y-82481996D02*
X130250992Y-82481996D01*
X130250992Y-83951996D02*
X132535992Y-83951996D01*
X130250992Y-82481996D02*
X130250992Y-83951996D01*
X124909000Y-80268000D02*
X124909000Y-79768000D01*
X119009000Y-79768000D02*
X119009000Y-80268000D01*
X111609000Y-75958000D02*
X111309000Y-75958000D01*
X127969000Y-76158000D02*
X109849000Y-76158000D01*
X122809000Y-80268000D02*
X122809000Y-79768000D01*
X112909000Y-80268000D02*
X112909000Y-79768000D01*
X110799000Y-75858000D02*
X109549000Y-75858000D01*
X122909000Y-80268000D02*
X122909000Y-79768000D01*
X114909000Y-80268000D02*
X114909000Y-79768000D01*
X118909000Y-80268000D02*
X118909000Y-79768000D01*
X127969000Y-78768000D02*
X127359000Y-78768000D01*
X109549000Y-75858000D02*
X109549000Y-77108000D01*
X127969000Y-80878000D02*
X127969000Y-76158000D01*
X116809000Y-80268000D02*
X116809000Y-79768000D01*
X110459000Y-80268000D02*
X127359000Y-80268000D01*
X118809000Y-79768000D02*
X119009000Y-79768000D01*
X125009000Y-79768000D02*
X125009000Y-80268000D01*
X110459000Y-76768000D02*
X110459000Y-80268000D01*
X120809000Y-80268000D02*
X120809000Y-79768000D01*
X120909000Y-80268000D02*
X120909000Y-79768000D01*
X109849000Y-76158000D02*
X109849000Y-80878000D01*
X114809000Y-80268000D02*
X114809000Y-79768000D01*
X109849000Y-80878000D02*
X127969000Y-80878000D01*
X118809000Y-80268000D02*
X118809000Y-79768000D01*
X117009000Y-79768000D02*
X117009000Y-80268000D01*
X112409000Y-76768000D02*
X110459000Y-76768000D01*
X127359000Y-80268000D02*
X127359000Y-76768000D01*
X124809000Y-80268000D02*
X124809000Y-79768000D01*
X127969000Y-77468000D02*
X127359000Y-77468000D01*
X123009000Y-79768000D02*
X123009000Y-80268000D01*
X109849000Y-77468000D02*
X110459000Y-77468000D01*
X111609000Y-76058000D02*
X111309000Y-76058000D01*
X111309000Y-75958000D02*
X111309000Y-76158000D01*
X116909000Y-80268000D02*
X116909000Y-79768000D01*
X112809000Y-79768000D02*
X113009000Y-79768000D01*
X127359000Y-76768000D02*
X125409000Y-76768000D01*
X121009000Y-79768000D02*
X121009000Y-80268000D01*
X120809000Y-79768000D02*
X121009000Y-79768000D01*
X114809000Y-79768000D02*
X115009000Y-79768000D01*
X113009000Y-79768000D02*
X113009000Y-80268000D01*
X111609000Y-76158000D02*
X111609000Y-75958000D01*
X122809000Y-79768000D02*
X123009000Y-79768000D01*
X112809000Y-80268000D02*
X112809000Y-79768000D01*
X125409000Y-76768000D02*
X125409000Y-76158000D01*
X109849000Y-78768000D02*
X110459000Y-78768000D01*
X124809000Y-79768000D02*
X125009000Y-79768000D01*
X112409000Y-76158000D02*
X112409000Y-76768000D01*
X115009000Y-79768000D02*
X115009000Y-80268000D01*
X116809000Y-79768000D02*
X117009000Y-79768000D01*
X121089000Y-116344836D02*
X121089000Y-116129164D01*
X121809000Y-116344836D02*
X121809000Y-116129164D01*
X89919000Y-83923000D02*
X92604000Y-83923000D01*
X92604000Y-82003000D02*
X89919000Y-82003000D01*
X89919000Y-82003000D02*
X89919000Y-83923000D01*
X89800000Y-103170920D02*
X89800000Y-103452080D01*
X88780000Y-103170920D02*
X88780000Y-103452080D01*
X103060641Y-119286000D02*
X102753359Y-119286000D01*
X103060641Y-120046000D02*
X102753359Y-120046000D01*
X117042992Y-89593996D02*
X117042992Y-91063996D01*
X117042992Y-91063996D02*
X119327992Y-91063996D01*
X119327992Y-89593996D02*
X117042992Y-89593996D01*
X93101359Y-124364000D02*
X93408641Y-124364000D01*
X93101359Y-123604000D02*
X93408641Y-123604000D01*
X99116164Y-116724000D02*
X99331836Y-116724000D01*
X99116164Y-116004000D02*
X99331836Y-116004000D01*
X108495000Y-76114000D02*
X93255000Y-76114000D01*
X108495000Y-81114000D02*
X108495000Y-76114000D01*
X93255000Y-81114000D02*
X93255000Y-76114000D01*
X108495000Y-81114000D02*
X93255000Y-81114000D01*
D17*
X104855000Y-75514000D02*
G75*
G03*
X104855000Y-75514000I-180000J0D01*
G01*
D13*
X115101000Y-111905420D02*
X115101000Y-112186580D01*
X114081000Y-111905420D02*
X114081000Y-112186580D01*
X123756000Y-93357836D02*
X123756000Y-93142164D01*
X124476000Y-93357836D02*
X124476000Y-93142164D01*
%LPC*%
D18*
X114085000Y-87027000D03*
X113065000Y-87027000D03*
D19*
X106618500Y-89992000D03*
X106618500Y-90492000D03*
X106618500Y-90992000D03*
X106618500Y-91492000D03*
X106618500Y-91992000D03*
X106618500Y-92492000D03*
X106618500Y-92992000D03*
X106618500Y-93492000D03*
X106618500Y-93992000D03*
X106618500Y-94492000D03*
X106618500Y-94992000D03*
X106618500Y-95492000D03*
D20*
X108031000Y-96904500D03*
X108531000Y-96904500D03*
X109031000Y-96904500D03*
X109531000Y-96904500D03*
X110031000Y-96904500D03*
X110531000Y-96904500D03*
X111031000Y-96904500D03*
X111531000Y-96904500D03*
X112031000Y-96904500D03*
X112531000Y-96904500D03*
X113031000Y-96904500D03*
X113531000Y-96904500D03*
D19*
X114943500Y-95492000D03*
X114943500Y-94992000D03*
X114943500Y-94492000D03*
X114943500Y-93992000D03*
X114943500Y-93492000D03*
X114943500Y-92992000D03*
X114943500Y-92492000D03*
X114943500Y-91992000D03*
X114943500Y-91492000D03*
X114943500Y-90992000D03*
X114943500Y-90492000D03*
X114943500Y-89992000D03*
D20*
X113531000Y-88579500D03*
X113031000Y-88579500D03*
X112531000Y-88579500D03*
X112031000Y-88579500D03*
X111531000Y-88579500D03*
X111031000Y-88579500D03*
X110531000Y-88579500D03*
X110031000Y-88579500D03*
X109531000Y-88579500D03*
X109031000Y-88579500D03*
X108531000Y-88579500D03*
X108031000Y-88579500D03*
D21*
X110781000Y-92742000D03*
D22*
X131999990Y-122000010D03*
D23*
X131734000Y-115094000D03*
X132754000Y-115094000D03*
D24*
X88683000Y-99344000D03*
X88683000Y-100364000D03*
D25*
X127646500Y-84994996D03*
X129221500Y-84994996D03*
D26*
X111825000Y-81820000D03*
X112785000Y-81820000D03*
D27*
X121957000Y-119600500D03*
X121957000Y-122525500D03*
D25*
X127646500Y-83217000D03*
X129221500Y-83217000D03*
D28*
X125132000Y-93760000D03*
X125132000Y-92740000D03*
D25*
X117740492Y-83216996D03*
X119315492Y-83216996D03*
X124344500Y-83217000D03*
X125919500Y-83217000D03*
D29*
X101383000Y-118282000D03*
X101383000Y-116732000D03*
D25*
X124344500Y-84994996D03*
X125919500Y-84994996D03*
D24*
X132371000Y-106047000D03*
X132371000Y-107067000D03*
D30*
X111378500Y-111411000D03*
X111378500Y-110141000D03*
D31*
X105078500Y-108871000D03*
D30*
X111378500Y-108871000D03*
X111378500Y-107601000D03*
X111378500Y-106331000D03*
D25*
X130948492Y-90328996D03*
X132523492Y-90328996D03*
D32*
X118401000Y-121764000D03*
X118401000Y-123664000D03*
D25*
X130948492Y-84994996D03*
X132523492Y-84994996D03*
X121042492Y-88550996D03*
X122617492Y-88550996D03*
D33*
X113575000Y-107461000D03*
X113575000Y-109011000D03*
D34*
X98893000Y-121166000D03*
X98893000Y-120666000D03*
X98893000Y-120166000D03*
X98893000Y-119666000D03*
X98893000Y-119166000D03*
X98893000Y-118666000D03*
X98893000Y-118166000D03*
D35*
X97803000Y-117076000D03*
X97303000Y-117076000D03*
X96803000Y-117076000D03*
X96303000Y-117076000D03*
X95803000Y-117076000D03*
X95303000Y-117076000D03*
X94803000Y-117076000D03*
D34*
X93713000Y-118166000D03*
X93713000Y-118666000D03*
X93713000Y-119166000D03*
X93713000Y-119666000D03*
X93713000Y-120166000D03*
X93713000Y-120666000D03*
X93713000Y-121166000D03*
D35*
X94803000Y-122256000D03*
X95303000Y-122256000D03*
X95803000Y-122256000D03*
X96303000Y-122256000D03*
X96803000Y-122256000D03*
X97303000Y-122256000D03*
X97803000Y-122256000D03*
D36*
X96303000Y-119666000D03*
D37*
X94144000Y-107248000D03*
X94144000Y-108208000D03*
D24*
X101383000Y-122966000D03*
X101383000Y-123986000D03*
D25*
X121042500Y-83217000D03*
X122617500Y-83217000D03*
X117740492Y-88550996D03*
X119315492Y-88550996D03*
D38*
X90327000Y-108501000D03*
X92627000Y-108501000D03*
X92627000Y-106701000D03*
X90327000Y-106701000D03*
D18*
X103417000Y-120682000D03*
X102397000Y-120682000D03*
X132881000Y-104553000D03*
X131861000Y-104553000D03*
D39*
X91620000Y-102521000D03*
X92120000Y-102521000D03*
X92620000Y-102521000D03*
X93120000Y-102521000D03*
X93620000Y-102521000D03*
X94120000Y-102521000D03*
X94620000Y-102521000D03*
X95120000Y-102521000D03*
X95620000Y-102521000D03*
X96120000Y-102521000D03*
X96620000Y-102521000D03*
X97120000Y-102521000D03*
D40*
X98532500Y-101108500D03*
X98532500Y-100608500D03*
X98532500Y-100108500D03*
X98532500Y-99608500D03*
X98532500Y-99108500D03*
X98532500Y-98608500D03*
X98532500Y-98108500D03*
X98532500Y-97608500D03*
X98532500Y-97108500D03*
X98532500Y-96608500D03*
X98532500Y-96108500D03*
X98532500Y-95608500D03*
D39*
X97120000Y-94196000D03*
X96620000Y-94196000D03*
X96120000Y-94196000D03*
X95620000Y-94196000D03*
X95120000Y-94196000D03*
X94620000Y-94196000D03*
X94120000Y-94196000D03*
X93620000Y-94196000D03*
X93120000Y-94196000D03*
X92620000Y-94196000D03*
X92120000Y-94196000D03*
X91620000Y-94196000D03*
D40*
X90207500Y-95608500D03*
X90207500Y-96108500D03*
X90207500Y-96608500D03*
X90207500Y-97108500D03*
X90207500Y-97608500D03*
X90207500Y-98108500D03*
X90207500Y-98608500D03*
X90207500Y-99108500D03*
X90207500Y-99608500D03*
X90207500Y-100108500D03*
X90207500Y-100608500D03*
X90207500Y-101108500D03*
D25*
X127646500Y-86772996D03*
X129221500Y-86772996D03*
D41*
X129394500Y-110994000D03*
X120294500Y-110994000D03*
X129394500Y-106494000D03*
X120294500Y-106494000D03*
D42*
X92465000Y-105315000D03*
X91505000Y-105315000D03*
D29*
X102907000Y-118282000D03*
X102907000Y-116732000D03*
D43*
X126988500Y-113001000D03*
X126988500Y-114901000D03*
X128863500Y-113951000D03*
D32*
X116369000Y-121764000D03*
X116369000Y-123664000D03*
D44*
X122785000Y-117628500D03*
X123735000Y-117628500D03*
X124685000Y-117628500D03*
X124685000Y-115353500D03*
X122785000Y-115353500D03*
D45*
X100113000Y-118368000D03*
X100113000Y-117408000D03*
D24*
X94144000Y-104043000D03*
X94144000Y-105063000D03*
D46*
X118401000Y-117949000D03*
X118401000Y-116049000D03*
D22*
X131999990Y-77999996D03*
D25*
X127646500Y-88550996D03*
X129221500Y-88550996D03*
X127646500Y-90328996D03*
X129221500Y-90328996D03*
D28*
X86905000Y-88553000D03*
X86905000Y-87533000D03*
D33*
X115099000Y-107461000D03*
X115099000Y-109011000D03*
D47*
X97332000Y-110014000D03*
X95782000Y-110014000D03*
D37*
X119925000Y-121472000D03*
X119925000Y-122432000D03*
D48*
X107030009Y-117960004D03*
X107880009Y-117960004D03*
X108730009Y-117960004D03*
X109580009Y-117960004D03*
X110430010Y-117960004D03*
X111280008Y-117960004D03*
X112130009Y-117960004D03*
X112980010Y-117960004D03*
X112980010Y-119310004D03*
X112130009Y-119310004D03*
X111280008Y-119310004D03*
X110430010Y-119310004D03*
X109580009Y-119310004D03*
X108730009Y-119310004D03*
X107880009Y-119310004D03*
X107030009Y-119310004D03*
D49*
X105685008Y-122610005D03*
D50*
X105685008Y-118460003D03*
X114325008Y-118460003D03*
D49*
X114325008Y-122610005D03*
D25*
X117740492Y-84994996D03*
X119315492Y-84994996D03*
D37*
X90560000Y-102704500D03*
X90560000Y-103664500D03*
D25*
X121042492Y-86772996D03*
X122617492Y-86772996D03*
D46*
X116369000Y-117949000D03*
X116369000Y-116049000D03*
D42*
X96148000Y-105061000D03*
X95188000Y-105061000D03*
D18*
X87923000Y-86519000D03*
X86903000Y-86519000D03*
D51*
X86844000Y-84916500D03*
X88744000Y-84916500D03*
X87794000Y-83041500D03*
D25*
X121042492Y-90328996D03*
X122617492Y-90328996D03*
D22*
X88000002Y-77999996D03*
D42*
X106308000Y-81947000D03*
X105348000Y-81947000D03*
D52*
X118056000Y-102626000D03*
X118056000Y-93526000D03*
X122556000Y-102626000D03*
X122556000Y-93526000D03*
D53*
X125640000Y-122525500D03*
X125640000Y-119600500D03*
D54*
X98957000Y-115094000D03*
X100507000Y-115094000D03*
D25*
X117740492Y-86772996D03*
X119315492Y-86772996D03*
D42*
X96148000Y-104045000D03*
X95188000Y-104045000D03*
D24*
X102145000Y-81945000D03*
X102145000Y-82965000D03*
D55*
X131052500Y-113189000D03*
X132927500Y-113189000D03*
D23*
X95666000Y-115856000D03*
X96686000Y-115856000D03*
D25*
X130948492Y-88550996D03*
X132523492Y-88550996D03*
D56*
X95668000Y-106284500D03*
X95668000Y-108409500D03*
D37*
X113321000Y-111439000D03*
X113321000Y-112399000D03*
D25*
X124344500Y-88550996D03*
X125919500Y-88550996D03*
D18*
X101385000Y-97568000D03*
X100365000Y-97568000D03*
D29*
X99958000Y-94307500D03*
X99958000Y-92757500D03*
D25*
X130948492Y-86772996D03*
X132523492Y-86772996D03*
X124344500Y-90328996D03*
X125919500Y-90328996D03*
D23*
X92745000Y-122968000D03*
X93765000Y-122968000D03*
D45*
X98688000Y-94647500D03*
X98688000Y-93687500D03*
D24*
X103288000Y-81945000D03*
X103288000Y-82965000D03*
D25*
X121042492Y-84994996D03*
X122617492Y-84994996D03*
D54*
X111144000Y-85757000D03*
X112694000Y-85757000D03*
D26*
X111063000Y-87027000D03*
X112023000Y-87027000D03*
D25*
X124344500Y-86772996D03*
X125919500Y-86772996D03*
D57*
X97446000Y-108409500D03*
X97446000Y-106284500D03*
D28*
X93890000Y-83473000D03*
X93890000Y-82453000D03*
D54*
X112038000Y-83090000D03*
X113588000Y-83090000D03*
D33*
X116115000Y-111271000D03*
X116115000Y-112821000D03*
D24*
X106971000Y-87406000D03*
X106971000Y-88426000D03*
D26*
X129859000Y-104553000D03*
X130819000Y-104553000D03*
D45*
X131355000Y-107037000D03*
X131355000Y-106077000D03*
D28*
X102526000Y-96554000D03*
X102526000Y-95534000D03*
D52*
X127581000Y-102626000D03*
X127581000Y-93526000D03*
X132081000Y-102626000D03*
X132081000Y-93526000D03*
D24*
X102526000Y-122966000D03*
X102526000Y-123986000D03*
D18*
X101385000Y-96552000D03*
X100365000Y-96552000D03*
D24*
X102526000Y-97566000D03*
X102526000Y-98586000D03*
D25*
X130948492Y-83216996D03*
X132523492Y-83216996D03*
D58*
X111909000Y-77968000D03*
D59*
X113909000Y-77968000D03*
X115909000Y-77968000D03*
X117909000Y-77968000D03*
X119909000Y-77968000D03*
X121909000Y-77968000D03*
X123909000Y-77968000D03*
X125909000Y-77968000D03*
D45*
X121449000Y-116717000D03*
X121449000Y-115757000D03*
D22*
X88000002Y-122000010D03*
D55*
X90666500Y-82963000D03*
X92541500Y-82963000D03*
D33*
X89290000Y-102536500D03*
X89290000Y-104086500D03*
D18*
X103417000Y-119666000D03*
X102397000Y-119666000D03*
D25*
X117740492Y-90328996D03*
X119315492Y-90328996D03*
D23*
X92745000Y-123984000D03*
X93765000Y-123984000D03*
D26*
X98744000Y-116364000D03*
X99704000Y-116364000D03*
D60*
X104685000Y-77979000D03*
X104685000Y-79249000D03*
X103415000Y-77979000D03*
X103415000Y-79249000D03*
X102145000Y-77979000D03*
X102145000Y-79249000D03*
X100875000Y-77979000D03*
X100875000Y-79249000D03*
X99605000Y-77979000D03*
X99605000Y-79249000D03*
X98335000Y-77979000D03*
X98335000Y-79249000D03*
X97065000Y-77979000D03*
X97065000Y-79249000D03*
D33*
X114591000Y-111271000D03*
X114591000Y-112821000D03*
D45*
X124116000Y-93730000D03*
X124116000Y-92770000D03*
M02*
