M48
; DRILL file {KiCad (6.0.0)} date Tue May 24 20:36:02 2022
; FORMAT={-:-/ absolute / metric / decimal}
; #@! TF.CreationDate,2022-05-24T20:36:02-07:00
; #@! TF.GenerationSoftware,Kicad,Pcbnew,(6.0.0)
; #@! TF.FileFunction,Plated,1,4,PTH
FMAT,2
METRIC
; #@! TA.AperFunction,Plated,PTH,ViaDrill
T1C0.200
; #@! TA.AperFunction,Plated,PTH,ComponentDrill
T2C0.400
; #@! TA.AperFunction,Plated,PTH,ComponentDrill
T3C0.700
; #@! TA.AperFunction,Plated,PTH,ComponentDrill
T4C0.750
%
G90
G05
T1
X85.725Y-80.772
X85.725Y-86.487
X85.725Y-102.108
X85.725Y-109.474
X85.725Y-118.999
X86.016Y-87.408
X86.016Y-101.251
X86.524Y-99.219
X86.868Y-96.647
X86.905Y-95.282
X87.376Y-118.11
X87.503Y-90.17
X87.63Y-100.108
X87.757Y-101.981
X87.884Y-107.696
X87.921Y-85.884
X88.011Y-89.154
X88.556Y-102.521
X88.646Y-88.265
X88.683Y-100.87
X88.683Y-104.68
X89.191Y-87.408
X89.281Y-116.332
X89.318Y-106.712
X89.445Y-84.995
X89.789Y-93.98
X89.953Y-104.68
X90.297Y-91.059
X90.588Y-104.172
X90.805Y-85.598
X90.932Y-75.692
X90.932Y-94.742
X90.969Y-105.315
X91.44Y-100.711
X91.44Y-121.793
X91.694Y-95.885
X91.821Y-98.679
X92.075Y-92.456
X92.62Y-109.379
X92.71Y-91.567
X92.71Y-120.015
X92.837Y-89.662
X93.345Y-92.075
X93.636Y-95.282
X94.144Y-108.744
X94.615Y-81.915
X94.652Y-101.251
X95.033Y-108.998
X95.033Y-110.014
X95.123Y-115.951
X95.25Y-118.745
X95.25Y-120.65
X95.631Y-100.711
X95.631Y-123.317
X95.885Y-98.679
X96.012Y-92.329
X96.012Y-99.695
X96.139Y-80.645
X96.647Y-89.281
X97.065Y-99.981
X97.065Y-100.743
X97.155Y-92.583
X97.155Y-118.745
X97.155Y-120.65
X97.261Y-75.692
X97.917Y-103.251
X98.081Y-110.014
X98.425Y-92.075
X98.425Y-105.918
X98.552Y-88.9
X98.552Y-111.379
X98.716Y-93.123
X98.806Y-114.3
X99.224Y-113.443
X99.314Y-83.185
X99.822Y-106.807
X100.076Y-111.379
X100.203Y-123.698
X100.33Y-105.664
X100.33Y-116.713
X100.584Y-120.269
X100.748Y-92.742
X100.748Y-94.266
X100.965Y-104.775
X101.092Y-114.427
X101.473Y-86.106
X101.473Y-115.951
X101.6Y-121.412
X101.727Y-122.301
X102.108Y-90.551
X102.526Y-95.028
X102.526Y-99.092
X102.616Y-106.299
X102.616Y-112.776
X102.616Y-114.046
X102.743Y-93.218
X102.743Y-104.14
X102.87Y-100.457
X102.997Y-91.44
X102.997Y-101.854
X103.124Y-121.92
X103.124Y-122.809
X103.505Y-116.078
X103.59Y-75.692
X103.632Y-118.237
X103.669Y-107.22
X103.669Y-108.871
X103.669Y-110.522
X103.759Y-84.074
X104.14Y-122.682
X104.267Y-96.901
X104.431Y-84.741
X104.775Y-88.773
X104.902Y-85.979
X105.029Y-92.583
X105.32Y-82.582
X105.41Y-88.011
X105.537Y-91.567
X105.574Y-93.504
X105.574Y-94.52
X105.574Y-95.536
X106.082Y-86.265
X106.336Y-82.582
X106.426Y-85.344
X106.463Y-107.22
X106.463Y-108.871
X106.463Y-110.522
X106.553Y-83.566
X106.807Y-112.776
X106.807Y-114.046
X106.807Y-116.967
X106.971Y-86.9
X107.315Y-98.679
X107.442Y-121.666
X107.569Y-79.375
X107.569Y-82.55
X107.696Y-115.824
X107.733Y-91.853
X107.759Y-92.454
X107.86Y-94.139
X107.86Y-95.071
X107.869Y-93.046
X107.95Y-106.299
X107.987Y-96.044
X108.065Y-83.598
X108.077Y-104.013
X108.622Y-82.709
X108.712Y-108.204
X108.966Y-93.599
X109.003Y-84.741
X109.003Y-98.457
X109.093Y-101.346
X109.474Y-106.299
X109.474Y-111.252
X109.511Y-98.965
X109.638Y-84.233
X109.918Y-75.692
X110.019Y-99.473
X110.019Y-108.871
X110.236Y-87.376
X110.363Y-92.075
X110.4Y-85.757
X110.527Y-118.523
X110.871Y-120.523
X110.983Y-95.738
X111.289Y-83.217
X111.543Y-99.981
X112.051Y-100.616
X112.066Y-87.563
X112.522Y-89.567
X112.559Y-101.759
X112.776Y-112.395
X112.813Y-108.871
X112.903Y-91.948
X112.94Y-102.267
X113.194Y-106.585
X113.411Y-81.693
X113.448Y-85.63
X113.448Y-102.775
X113.575Y-109.76
X113.792Y-112.903
X113.829Y-105.823
X114.173Y-101.219
X114.3Y-97.79
X114.337Y-83.217
X114.337Y-106.585
X114.337Y-108.998
X114.591Y-87.027
X114.681Y-113.919
X114.718Y-84.233
X114.935Y-85.471
X114.972Y-103.283
X115.099Y-105.823
X115.099Y-109.76
X115.316Y-79.502
X115.349Y-81.704
X115.383Y-84.194
X115.443Y-89.281
X115.48Y-120.555
X115.607Y-106.585
X115.607Y-115.348
X115.607Y-124.365
X115.824Y-86.868
X115.824Y-114.046
X115.861Y-84.741
X115.861Y-108.998
X116.078Y-103.759
X116.115Y-119.285
X116.242Y-88.805
X116.247Y-75.692
X116.429Y-81.687
X116.459Y-91.948
X116.623Y-86.265
X116.713Y-97.79
X116.713Y-101.219
X116.75Y-120.555
X116.84Y-95.885
X116.84Y-104.267
X116.877Y-82.963
X116.877Y-84.487
X116.877Y-110.776
X116.877Y-111.792
X116.877Y-115.348
X116.877Y-124.365
X117.131Y-88.424
X117.221Y-114.173
X117.348Y-112.903
X117.385Y-119.285
X117.893Y-115.348
X118.02Y-120.555
X118.11Y-95.631
X118.274Y-124.365
X118.491Y-84.074
X118.491Y-85.852
X118.491Y-87.63
X118.618Y-80.01
X118.655Y-119.285
X118.999Y-110.871
X119.126Y-91.948
X119.163Y-115.348
X119.253Y-81.661
X119.29Y-120.555
X119.29Y-124.365
X119.507Y-91.186
X119.888Y-82.677
X119.925Y-119.285
X119.925Y-122.968
X120.269Y-108.204
X120.306Y-83.217
X120.306Y-84.995
X120.306Y-86.773
X120.523Y-79.502
X120.56Y-89.186
X120.56Y-120.555
X120.904Y-81.915
X121.068Y-90.964
X121.158Y-101.219
X121.449Y-115.221
X121.539Y-84.074
X121.539Y-85.852
X121.539Y-87.63
X121.539Y-89.408
X121.666Y-97.536
X121.666Y-110.871
X121.666Y-114.173
X121.793Y-112.776
X121.92Y-95.123
X122.555Y-82.423
X122.555Y-104.267
X122.576Y-75.692
X123.444Y-84.074
X123.444Y-85.852
X123.698Y-87.63
X123.698Y-95.885
X123.735Y-83.217
X123.735Y-84.995
X123.735Y-86.773
X123.735Y-88.551
X123.735Y-116.618
X123.735Y-118.523
X123.952Y-89.408
X124.079Y-94.869
X124.243Y-91.345
X124.685Y-114.017
X124.714Y-91.821
X124.841Y-101.092
X125.005Y-118.65
X125.222Y-84.074
X125.222Y-85.852
X125.222Y-87.63
X125.349Y-89.408
X125.349Y-104.394
X125.64Y-117.38
X125.857Y-91.059
X125.984Y-82.423
X126.238Y-110.871
X126.275Y-118.65
X126.365Y-91.948
X126.873Y-107.315
X126.91Y-115.475
X126.91Y-117.38
X127.037Y-83.217
X127.418Y-84.233
X127.545Y-118.65
X127.799Y-86.011
X128.016Y-110.998
X128.18Y-117.38
X128.18Y-119.92
X128.27Y-97.282
X128.434Y-87.916
X128.815Y-91.472
X128.815Y-118.65
X128.905Y-75.692
X129.286Y-82.423
X129.413Y-91.059
X129.413Y-92.075
X129.45Y-117.38
X129.921Y-84.201
X129.921Y-85.979
X129.921Y-87.63
X129.921Y-89.408
X130.085Y-118.65
X130.466Y-82.455
X130.72Y-117.38
X130.81Y-102.235
X130.81Y-110.49
X130.932Y-84.233
X131.064Y-103.378
X131.191Y-109.601
X131.191Y-114.427
X131.313Y-86.138
X131.318Y-107.569
X131.694Y-87.916
X131.699Y-84.074
X131.953Y-85.852
X132.207Y-91.44
X132.588Y-82.423
X132.715Y-100.457
X132.969Y-91.059
X132.969Y-95.25
X132.969Y-109.601
X133.477Y-104.521
X133.477Y-114.427
X134.239Y-80.772
X134.239Y-86.197
X134.239Y-91.621
X134.239Y-97.046
X134.239Y-102.471
X134.239Y-107.896
X134.239Y-113.32
X134.239Y-118.745
T2
X107.03Y-117.96
X107.03Y-119.31
X107.88Y-117.96
X107.88Y-119.31
X108.73Y-117.96
X108.73Y-119.31
X109.58Y-117.96
X109.58Y-119.31
X110.43Y-117.96
X110.43Y-119.31
X111.28Y-117.96
X111.28Y-119.31
X112.13Y-117.96
X112.13Y-119.31
X112.98Y-117.96
X112.98Y-119.31
T3
X97.065Y-77.979
X97.065Y-79.249
X98.335Y-77.979
X98.335Y-79.249
X99.605Y-77.979
X99.605Y-79.249
X100.875Y-77.979
X100.875Y-79.249
X102.145Y-77.979
X102.145Y-79.249
X103.415Y-77.979
X103.415Y-79.249
X104.685Y-77.979
X104.685Y-79.249
T4
X111.909Y-77.968
X113.909Y-77.968
X115.909Y-77.968
X117.909Y-77.968
X119.909Y-77.968
X121.909Y-77.968
X123.909Y-77.968
X125.909Y-77.968
T3
X105.685Y-117.81G85X105.685Y-119.11
G05
X105.685Y-122.16G85X105.685Y-123.06
G05
X114.325Y-117.81G85X114.325Y-119.11
G05
X114.325Y-122.16G85X114.325Y-123.06
G05
T0
M30
