G04 #@! TF.GenerationSoftware,KiCad,Pcbnew,(6.0.0)*
G04 #@! TF.CreationDate,2022-05-24T20:35:50-07:00*
G04 #@! TF.ProjectId,TrackpadLights,54726163-6b70-4616-944c-69676874732e,rev?*
G04 #@! TF.SameCoordinates,Original*
G04 #@! TF.FileFunction,Soldermask,Bot*
G04 #@! TF.FilePolarity,Negative*
%FSLAX46Y46*%
G04 Gerber Fmt 4.6, Leading zero omitted, Abs format (unit mm)*
G04 Created by KiCad (PCBNEW (6.0.0)) date 2022-05-24 20:35:50*
%MOMM*%
%LPD*%
G01*
G04 APERTURE LIST*
G04 Aperture macros list*
%AMRoundRect*
0 Rectangle with rounded corners*
0 $1 Rounding radius*
0 $2 $3 $4 $5 $6 $7 $8 $9 X,Y pos of 4 corners*
0 Add a 4 corners polygon primitive as box body*
4,1,4,$2,$3,$4,$5,$6,$7,$8,$9,$2,$3,0*
0 Add four circle primitives for the rounded corners*
1,1,$1+$1,$2,$3*
1,1,$1+$1,$4,$5*
1,1,$1+$1,$6,$7*
1,1,$1+$1,$8,$9*
0 Add four rect primitives between the rounded corners*
20,1,$1+$1,$2,$3,$4,$5,0*
20,1,$1+$1,$4,$5,$6,$7,0*
20,1,$1+$1,$6,$7,$8,$9,0*
20,1,$1+$1,$8,$9,$2,$3,0*%
G04 Aperture macros list end*
%ADD10C,0.254000*%
%ADD11C,1.225034*%
%ADD12C,3.200000*%
%ADD13R,1.000000X1.000000*%
%ADD14C,0.685800*%
%ADD15O,1.300000X2.500000*%
%ADD16O,1.300000X3.200000*%
%ADD17RoundRect,0.250000X-0.350000X-0.625000X0.350000X-0.625000X0.350000X0.625000X-0.350000X0.625000X0*%
%ADD18O,1.200000X1.750000*%
%ADD19C,1.100000*%
G04 APERTURE END LIST*
D10*
X96266000Y-112649000D02*
G75*
G03*
X96266000Y-112649000I-4572000J0D01*
G01*
D11*
X90020517Y-111125000D02*
G75*
G03*
X90020517Y-111125000I-612517J0D01*
G01*
X94592517Y-111125000D02*
G75*
G03*
X94592517Y-111125000I-612517J0D01*
G01*
D10*
X93706042Y-114989428D02*
X93706042Y-113465428D01*
X92835185Y-114989428D01*
X92835185Y-113465428D01*
X92109471Y-114989428D02*
X92109471Y-113973428D01*
X92109471Y-113465428D02*
X92182042Y-113538000D01*
X92109471Y-113610571D01*
X92036900Y-113538000D01*
X92109471Y-113465428D01*
X92109471Y-113610571D01*
X90730614Y-114916857D02*
X90875757Y-114989428D01*
X91166042Y-114989428D01*
X91311185Y-114916857D01*
X91383757Y-114844285D01*
X91456328Y-114699142D01*
X91456328Y-114263714D01*
X91383757Y-114118571D01*
X91311185Y-114046000D01*
X91166042Y-113973428D01*
X90875757Y-113973428D01*
X90730614Y-114046000D01*
X89496900Y-114916857D02*
X89642042Y-114989428D01*
X89932328Y-114989428D01*
X90077471Y-114916857D01*
X90150042Y-114771714D01*
X90150042Y-114191142D01*
X90077471Y-114046000D01*
X89932328Y-113973428D01*
X89642042Y-113973428D01*
X89496900Y-114046000D01*
X89424328Y-114191142D01*
X89424328Y-114336285D01*
X90150042Y-114481428D01*
D12*
X131999990Y-122000010D03*
D13*
X108585000Y-111125000D03*
X100711000Y-84201000D03*
X100584000Y-88265000D03*
D12*
X131999990Y-77999996D03*
D13*
X97917000Y-122682000D03*
D14*
X107030009Y-117960004D03*
X107880009Y-117960004D03*
X108730009Y-117960004D03*
X109580009Y-117960004D03*
X110430010Y-117960004D03*
X111280008Y-117960004D03*
X112130009Y-117960004D03*
X112980010Y-117960004D03*
X112980010Y-119310004D03*
X112130009Y-119310004D03*
X111280008Y-119310004D03*
X110430010Y-119310004D03*
X109580009Y-119310004D03*
X108730009Y-119310004D03*
X107880009Y-119310004D03*
X107030009Y-119310004D03*
D15*
X105685008Y-122610005D03*
D16*
X105685008Y-118460003D03*
X114325008Y-118460003D03*
D15*
X114325008Y-122610005D03*
D12*
X88000002Y-77999996D03*
D13*
X106426000Y-98679000D03*
X100076000Y-122682000D03*
D17*
X111909000Y-77968000D03*
D18*
X113909000Y-77968000D03*
X115909000Y-77968000D03*
X117909000Y-77968000D03*
X119909000Y-77968000D03*
X121909000Y-77968000D03*
X123909000Y-77968000D03*
X125909000Y-77968000D03*
D12*
X88000002Y-122000010D03*
D19*
X104685000Y-77979000D03*
X104685000Y-79249000D03*
X103415000Y-77979000D03*
X103415000Y-79249000D03*
X102145000Y-77979000D03*
X102145000Y-79249000D03*
X100875000Y-77979000D03*
X100875000Y-79249000D03*
X99605000Y-77979000D03*
X99605000Y-79249000D03*
X98335000Y-77979000D03*
X98335000Y-79249000D03*
X97065000Y-77979000D03*
X97065000Y-79249000D03*
D13*
X104267000Y-98679000D03*
M02*
