M48
; DRILL file {KiCad (6.0.0)} date Tue May 24 21:35:41 2022
; FORMAT={-:-/ absolute / metric / decimal}
; #@! TF.CreationDate,2022-05-24T21:35:41-07:00
; #@! TF.GenerationSoftware,Kicad,Pcbnew,(6.0.0)
; #@! TF.FileFunction,Plated,1,2,PTH
FMAT,2
METRIC
; #@! TA.AperFunction,Plated,PTH,ViaDrill
T1C0.300
; #@! TA.AperFunction,Plated,PTH,ComponentDrill
T2C0.750
%
G90
G05
T1
X58.166Y-54.737
X59.436Y-54.102
X69.469Y-65.659
X69.469Y-85.979
X69.469Y-106.299
X69.469Y-126.619
X69.469Y-146.939
X71.501Y-65.659
X71.501Y-85.979
X71.501Y-106.299
X71.501Y-126.619
X71.501Y-146.939
X86.106Y-47.752
X86.741Y-49.911
X86.868Y-40.005
X86.868Y-46.228
X87.503Y-48.641
X87.884Y-50.8
X89.789Y-65.659
X89.789Y-85.979
X89.789Y-106.299
X89.789Y-126.619
X89.789Y-146.939
X90.043Y-47.752
X91.821Y-46.101
X91.821Y-47.244
X91.821Y-65.659
X91.821Y-85.979
X91.821Y-106.299
X91.821Y-126.619
X91.821Y-146.939
X92.329Y-48.26
X93.726Y-48.006
X93.853Y-46.355
X94.742Y-39.37
X95.377Y-48.641
X95.758Y-46.355
X96.901Y-38.608
X97.282Y-48.641
X97.917Y-46.482
X101.6Y-46.355
X101.6Y-48.768
X101.6Y-50.927
X102.235Y-42.164
X102.362Y-37.592
X103.886Y-37.719
X103.886Y-49.911
X106.553Y-41.656
X107.569Y-47.244
X107.823Y-41.656
X107.95Y-38.552
X108.077Y-48.006
X108.458Y-39.37
X110.109Y-65.659
X110.109Y-85.979
X110.109Y-106.299
X110.109Y-126.619
X110.109Y-146.939
X110.617Y-40.005
X110.617Y-41.021
X110.617Y-41.783
X112.141Y-65.659
X112.141Y-85.979
X112.141Y-106.299
X112.141Y-126.619
X112.141Y-146.939
X113.665Y-52.07
X115.443Y-38.735
X115.443Y-40.005
X115.443Y-41.021
X115.443Y-42.037
X115.443Y-43.053
X120.142Y-36.83
X120.142Y-38.735
X124.968Y-41.402
X126.238Y-45.212
X126.365Y-43.18
X126.746Y-40.894
X127.508Y-36.83
X127.635Y-38.989
X128.905Y-37.719
X129.413Y-40.64
X130.429Y-65.659
X130.429Y-85.979
X130.429Y-106.299
X130.429Y-126.619
X130.429Y-146.939
X131.699Y-40.894
X132.461Y-65.659
X132.461Y-85.979
X132.461Y-106.299
X132.461Y-126.619
X132.461Y-146.939
X150.749Y-65.659
X150.749Y-85.979
X150.749Y-106.299
X150.749Y-126.619
X150.749Y-146.939
X152.781Y-65.659
X152.781Y-85.979
X152.781Y-106.299
X152.781Y-126.619
X152.781Y-146.939
X162.56Y-53.34
X163.576Y-53.975
X164.465Y-54.61
T2
X84.836Y-42.672
X86.836Y-42.672
X88.836Y-42.672
X90.836Y-42.672
X92.836Y-42.672
X94.836Y-42.672
X96.836Y-42.672
X98.836Y-42.672
T0
M30
