G04 #@! TF.GenerationSoftware,KiCad,Pcbnew,(6.0.0)*
G04 #@! TF.CreationDate,2022-05-24T21:35:38-07:00*
G04 #@! TF.ProjectId,capTouch,63617054-6f75-4636-982e-6b696361645f,rev?*
G04 #@! TF.SameCoordinates,Original*
G04 #@! TF.FileFunction,Legend,Top*
G04 #@! TF.FilePolarity,Positive*
%FSLAX46Y46*%
G04 Gerber Fmt 4.6, Leading zero omitted, Abs format (unit mm)*
G04 Created by KiCad (PCBNEW (6.0.0)) date 2022-05-24 21:35:38*
%MOMM*%
%LPD*%
G01*
G04 APERTURE LIST*
G04 Aperture macros list*
%AMRoundRect*
0 Rectangle with rounded corners*
0 $1 Rounding radius*
0 $2 $3 $4 $5 $6 $7 $8 $9 X,Y pos of 4 corners*
0 Add a 4 corners polygon primitive as box body*
4,1,4,$2,$3,$4,$5,$6,$7,$8,$9,$2,$3,0*
0 Add four circle primitives for the rounded corners*
1,1,$1+$1,$2,$3*
1,1,$1+$1,$4,$5*
1,1,$1+$1,$6,$7*
1,1,$1+$1,$8,$9*
0 Add four rect primitives between the rounded corners*
20,1,$1+$1,$2,$3,$4,$5,0*
20,1,$1+$1,$4,$5,$6,$7,0*
20,1,$1+$1,$6,$7,$8,$9,0*
20,1,$1+$1,$8,$9,$2,$3,0*%
%AMFreePoly0*
4,1,17,0.230680,0.111820,0.364318,-0.021819,0.364320,-0.021820,0.364320,-0.021821,0.377501,-0.053640,0.377500,-0.053642,0.377500,-0.080000,0.364320,-0.111820,0.332500,-0.125000,-0.332500,-0.125000,-0.364320,-0.111820,-0.377500,-0.080000,-0.377500,0.080000,-0.364320,0.111820,-0.332500,0.125000,0.198860,0.125000,0.230680,0.111820,0.230680,0.111820,$1*%
%AMFreePoly1*
4,1,17,0.364320,0.111820,0.377500,0.080000,0.377500,0.053642,0.377501,0.053640,0.369779,0.035000,0.364320,0.021820,0.364318,0.021819,0.230680,-0.111820,0.198860,-0.125000,-0.332500,-0.125000,-0.364320,-0.111820,-0.377500,-0.080000,-0.377500,0.080000,-0.364320,0.111820,-0.332500,0.125000,0.332500,0.125000,0.364320,0.111820,0.364320,0.111820,$1*%
%AMFreePoly2*
4,1,17,0.053642,0.377500,0.080000,0.377500,0.111820,0.364320,0.125000,0.332500,0.125000,-0.332500,0.111820,-0.364320,0.080000,-0.377500,-0.080000,-0.377500,-0.111820,-0.364320,-0.125000,-0.332500,-0.125000,0.198860,-0.111820,0.230680,0.021819,0.364318,0.021820,0.364320,0.031140,0.368181,0.053640,0.377501,0.053642,0.377500,0.053642,0.377500,$1*%
%AMFreePoly3*
4,1,17,-0.021820,0.364320,0.111818,0.230681,0.111820,0.230680,0.111820,0.230679,0.125001,0.198860,0.125000,0.198858,0.125000,-0.332500,0.111820,-0.364320,0.080000,-0.377500,-0.080000,-0.377500,-0.111820,-0.364320,-0.125000,-0.332500,-0.125000,0.332500,-0.111820,0.364320,-0.080000,0.377500,-0.053640,0.377500,-0.021820,0.364320,-0.021820,0.364320,$1*%
%AMFreePoly4*
4,1,17,0.364320,0.111820,0.377500,0.080000,0.377500,-0.080000,0.364320,-0.111820,0.332500,-0.125000,-0.198858,-0.125000,-0.198860,-0.125001,-0.221360,-0.115681,-0.230680,-0.111820,-0.230681,-0.111818,-0.364320,0.021820,-0.377500,0.053640,-0.377500,0.080000,-0.364320,0.111820,-0.332500,0.125000,0.332500,0.125000,0.364320,0.111820,0.364320,0.111820,$1*%
%AMFreePoly5*
4,1,17,-0.198858,0.125000,0.332500,0.125000,0.364320,0.111820,0.377500,0.080000,0.377500,-0.080000,0.364320,-0.111820,0.332500,-0.125000,-0.332500,-0.125000,-0.364320,-0.111820,-0.377500,-0.080000,-0.377500,-0.053640,-0.364320,-0.021820,-0.230681,0.111818,-0.230680,0.111820,-0.221360,0.115681,-0.198860,0.125001,-0.198858,0.125000,-0.198858,0.125000,$1*%
%AMFreePoly6*
4,1,17,0.111820,0.364320,0.125000,0.332500,0.125000,-0.198858,0.125001,-0.198860,0.115681,-0.221360,0.111820,-0.230680,0.111818,-0.230681,-0.021820,-0.364320,-0.053640,-0.377500,-0.080000,-0.377500,-0.111820,-0.364320,-0.125000,-0.332500,-0.125000,0.332500,-0.111820,0.364320,-0.080000,0.377500,0.080000,0.377500,0.111820,0.364320,0.111820,0.364320,$1*%
%AMFreePoly7*
4,1,17,0.111820,0.364320,0.125000,0.332500,0.125000,-0.332500,0.111820,-0.364320,0.080000,-0.377500,0.053642,-0.377500,0.053640,-0.377501,0.031140,-0.368181,0.021820,-0.364320,0.021819,-0.364318,-0.111820,-0.230680,-0.125000,-0.198860,-0.125000,0.332500,-0.111820,0.364320,-0.080000,0.377500,0.080000,0.377500,0.111820,0.364320,0.111820,0.364320,$1*%
G04 Aperture macros list end*
%ADD10C,0.150000*%
%ADD11C,0.127000*%
%ADD12C,0.254000*%
%ADD13C,0.120000*%
%ADD14C,0.100000*%
%ADD15RoundRect,0.225000X-0.225000X-0.250000X0.225000X-0.250000X0.225000X0.250000X-0.225000X0.250000X0*%
%ADD16RoundRect,0.225000X-0.250000X0.225000X-0.250000X-0.225000X0.250000X-0.225000X0.250000X0.225000X0*%
%ADD17RoundRect,0.135000X-0.135000X-0.185000X0.135000X-0.185000X0.135000X0.185000X-0.135000X0.185000X0*%
%ADD18RoundRect,0.135000X-0.185000X0.135000X-0.185000X-0.135000X0.185000X-0.135000X0.185000X0.135000X0*%
%ADD19RoundRect,0.250000X-0.350000X-0.625000X0.350000X-0.625000X0.350000X0.625000X-0.350000X0.625000X0*%
%ADD20O,1.200000X1.750000*%
%ADD21RoundRect,0.243750X-0.243750X-0.456250X0.243750X-0.456250X0.243750X0.456250X-0.243750X0.456250X0*%
%ADD22RoundRect,0.140000X0.170000X-0.140000X0.170000X0.140000X-0.170000X0.140000X-0.170000X-0.140000X0*%
%ADD23RoundRect,0.135000X0.185000X-0.135000X0.185000X0.135000X-0.185000X0.135000X-0.185000X-0.135000X0*%
%ADD24RoundRect,0.140000X-0.140000X-0.170000X0.140000X-0.170000X0.140000X0.170000X-0.140000X0.170000X0*%
%ADD25RoundRect,0.135000X0.135000X0.185000X-0.135000X0.185000X-0.135000X-0.185000X0.135000X-0.185000X0*%
%ADD26C,3.200000*%
%ADD27FreePoly0,0.000000*%
%ADD28RoundRect,0.062500X-0.375000X-0.062500X0.375000X-0.062500X0.375000X0.062500X-0.375000X0.062500X0*%
%ADD29FreePoly1,0.000000*%
%ADD30FreePoly2,0.000000*%
%ADD31RoundRect,0.062500X-0.062500X-0.375000X0.062500X-0.375000X0.062500X0.375000X-0.062500X0.375000X0*%
%ADD32FreePoly3,0.000000*%
%ADD33FreePoly4,0.000000*%
%ADD34FreePoly5,0.000000*%
%ADD35FreePoly6,0.000000*%
%ADD36FreePoly7,0.000000*%
%ADD37R,0.450000X0.700000*%
%ADD38RoundRect,0.140000X-0.170000X0.140000X-0.170000X-0.140000X0.170000X-0.140000X0.170000X0.140000X0*%
%ADD39RoundRect,0.225000X0.250000X-0.225000X0.250000X0.225000X-0.250000X0.225000X-0.250000X-0.225000X0*%
G04 APERTURE END LIST*
D10*
X98433000Y-39399595D02*
X98385380Y-39494833D01*
X98385380Y-39637690D01*
X98433000Y-39780547D01*
X98528238Y-39875785D01*
X98623476Y-39923404D01*
X98813952Y-39971023D01*
X98956809Y-39971023D01*
X99147285Y-39923404D01*
X99242523Y-39875785D01*
X99337761Y-39780547D01*
X99385380Y-39637690D01*
X99385380Y-39542452D01*
X99337761Y-39399595D01*
X99290142Y-39351976D01*
X98956809Y-39351976D01*
X98956809Y-39542452D01*
X99385380Y-38923404D02*
X98385380Y-38923404D01*
X99385380Y-38351976D01*
X98385380Y-38351976D01*
X99385380Y-37875785D02*
X98385380Y-37875785D01*
X98385380Y-37637690D01*
X98433000Y-37494833D01*
X98528238Y-37399595D01*
X98623476Y-37351976D01*
X98813952Y-37304357D01*
X98956809Y-37304357D01*
X99147285Y-37351976D01*
X99242523Y-37399595D01*
X99337761Y-37494833D01*
X99385380Y-37637690D01*
X99385380Y-37875785D01*
X93289380Y-39351976D02*
X92813190Y-39685309D01*
X93289380Y-39923404D02*
X92289380Y-39923404D01*
X92289380Y-39542452D01*
X92337000Y-39447214D01*
X92384619Y-39399595D01*
X92479857Y-39351976D01*
X92622714Y-39351976D01*
X92717952Y-39399595D01*
X92765571Y-39447214D01*
X92813190Y-39542452D01*
X92813190Y-39923404D01*
X93289380Y-38923404D02*
X92289380Y-38923404D01*
X92289380Y-38685309D01*
X92337000Y-38542452D01*
X92432238Y-38447214D01*
X92527476Y-38399595D01*
X92717952Y-38351976D01*
X92860809Y-38351976D01*
X93051285Y-38399595D01*
X93146523Y-38447214D01*
X93241761Y-38542452D01*
X93289380Y-38685309D01*
X93289380Y-38923404D01*
X92813190Y-37732928D02*
X93289380Y-37732928D01*
X92289380Y-38066261D02*
X92813190Y-37732928D01*
X92289380Y-37399595D01*
X90336714Y-39923404D02*
X91003380Y-39923404D01*
X90431952Y-39923404D02*
X90384333Y-39875785D01*
X90336714Y-39780547D01*
X90336714Y-39637690D01*
X90384333Y-39542452D01*
X90479571Y-39494833D01*
X91003380Y-39494833D01*
X91003380Y-38447214D02*
X90527190Y-38780547D01*
X91003380Y-39018642D02*
X90003380Y-39018642D01*
X90003380Y-38637690D01*
X90051000Y-38542452D01*
X90098619Y-38494833D01*
X90193857Y-38447214D01*
X90336714Y-38447214D01*
X90431952Y-38494833D01*
X90479571Y-38542452D01*
X90527190Y-38637690D01*
X90527190Y-39018642D01*
X90955761Y-38066261D02*
X91003380Y-37923404D01*
X91003380Y-37685309D01*
X90955761Y-37590071D01*
X90908142Y-37542452D01*
X90812904Y-37494833D01*
X90717666Y-37494833D01*
X90622428Y-37542452D01*
X90574809Y-37590071D01*
X90527190Y-37685309D01*
X90479571Y-37875785D01*
X90431952Y-37971023D01*
X90384333Y-38018642D01*
X90289095Y-38066261D01*
X90193857Y-38066261D01*
X90098619Y-38018642D01*
X90051000Y-37971023D01*
X90003380Y-37875785D01*
X90003380Y-37637690D01*
X90051000Y-37494833D01*
X90003380Y-37209119D02*
X90003380Y-36637690D01*
X91003380Y-36923404D02*
X90003380Y-36923404D01*
X97480380Y-39923404D02*
X96480380Y-39923404D01*
X96480380Y-39542452D01*
X96528000Y-39447214D01*
X96575619Y-39399595D01*
X96670857Y-39351976D01*
X96813714Y-39351976D01*
X96908952Y-39399595D01*
X96956571Y-39447214D01*
X97004190Y-39542452D01*
X97004190Y-39923404D01*
X96528000Y-38399595D02*
X96480380Y-38494833D01*
X96480380Y-38637690D01*
X96528000Y-38780547D01*
X96623238Y-38875785D01*
X96718476Y-38923404D01*
X96908952Y-38971023D01*
X97051809Y-38971023D01*
X97242285Y-38923404D01*
X97337523Y-38875785D01*
X97432761Y-38780547D01*
X97480380Y-38637690D01*
X97480380Y-38542452D01*
X97432761Y-38399595D01*
X97385142Y-38351976D01*
X97051809Y-38351976D01*
X97051809Y-38542452D01*
X97480380Y-37923404D02*
X96480380Y-37923404D01*
X97194666Y-37590071D01*
X96480380Y-37256738D01*
X97480380Y-37256738D01*
X138241738Y-37171380D02*
X138813166Y-37171380D01*
X138527452Y-38171380D02*
X138527452Y-37171380D01*
X139146500Y-38171380D02*
X139146500Y-37504714D01*
X139146500Y-37695190D02*
X139194119Y-37599952D01*
X139241738Y-37552333D01*
X139336976Y-37504714D01*
X139432214Y-37504714D01*
X140194119Y-38171380D02*
X140194119Y-37647571D01*
X140146500Y-37552333D01*
X140051261Y-37504714D01*
X139860785Y-37504714D01*
X139765547Y-37552333D01*
X140194119Y-38123761D02*
X140098880Y-38171380D01*
X139860785Y-38171380D01*
X139765547Y-38123761D01*
X139717928Y-38028523D01*
X139717928Y-37933285D01*
X139765547Y-37838047D01*
X139860785Y-37790428D01*
X140098880Y-37790428D01*
X140194119Y-37742809D01*
X141098880Y-38123761D02*
X141003642Y-38171380D01*
X140813166Y-38171380D01*
X140717928Y-38123761D01*
X140670309Y-38076142D01*
X140622690Y-37980904D01*
X140622690Y-37695190D01*
X140670309Y-37599952D01*
X140717928Y-37552333D01*
X140813166Y-37504714D01*
X141003642Y-37504714D01*
X141098880Y-37552333D01*
X141527452Y-38171380D02*
X141527452Y-37171380D01*
X141622690Y-37790428D02*
X141908404Y-38171380D01*
X141908404Y-37504714D02*
X141527452Y-37885666D01*
X142336976Y-37504714D02*
X142336976Y-38504714D01*
X142336976Y-37552333D02*
X142432214Y-37504714D01*
X142622690Y-37504714D01*
X142717928Y-37552333D01*
X142765547Y-37599952D01*
X142813166Y-37695190D01*
X142813166Y-37980904D01*
X142765547Y-38076142D01*
X142717928Y-38123761D01*
X142622690Y-38171380D01*
X142432214Y-38171380D01*
X142336976Y-38123761D01*
X143670309Y-38171380D02*
X143670309Y-37647571D01*
X143622690Y-37552333D01*
X143527452Y-37504714D01*
X143336976Y-37504714D01*
X143241738Y-37552333D01*
X143670309Y-38123761D02*
X143575071Y-38171380D01*
X143336976Y-38171380D01*
X143241738Y-38123761D01*
X143194119Y-38028523D01*
X143194119Y-37933285D01*
X143241738Y-37838047D01*
X143336976Y-37790428D01*
X143575071Y-37790428D01*
X143670309Y-37742809D01*
X144575071Y-38171380D02*
X144575071Y-37171380D01*
X144575071Y-38123761D02*
X144479833Y-38171380D01*
X144289357Y-38171380D01*
X144194119Y-38123761D01*
X144146500Y-38076142D01*
X144098880Y-37980904D01*
X144098880Y-37695190D01*
X144146500Y-37599952D01*
X144194119Y-37552333D01*
X144289357Y-37504714D01*
X144479833Y-37504714D01*
X144575071Y-37552333D01*
X144813166Y-38266619D02*
X145575071Y-38266619D01*
X146384595Y-38076142D02*
X146336976Y-38123761D01*
X146194119Y-38171380D01*
X146098880Y-38171380D01*
X145956023Y-38123761D01*
X145860785Y-38028523D01*
X145813166Y-37933285D01*
X145765547Y-37742809D01*
X145765547Y-37599952D01*
X145813166Y-37409476D01*
X145860785Y-37314238D01*
X145956023Y-37219000D01*
X146098880Y-37171380D01*
X146194119Y-37171380D01*
X146336976Y-37219000D01*
X146384595Y-37266619D01*
X147241738Y-38171380D02*
X147241738Y-37647571D01*
X147194119Y-37552333D01*
X147098880Y-37504714D01*
X146908404Y-37504714D01*
X146813166Y-37552333D01*
X147241738Y-38123761D02*
X147146500Y-38171380D01*
X146908404Y-38171380D01*
X146813166Y-38123761D01*
X146765547Y-38028523D01*
X146765547Y-37933285D01*
X146813166Y-37838047D01*
X146908404Y-37790428D01*
X147146500Y-37790428D01*
X147241738Y-37742809D01*
X147717928Y-37504714D02*
X147717928Y-38504714D01*
X147717928Y-37552333D02*
X147813166Y-37504714D01*
X148003642Y-37504714D01*
X148098880Y-37552333D01*
X148146500Y-37599952D01*
X148194119Y-37695190D01*
X148194119Y-37980904D01*
X148146500Y-38076142D01*
X148098880Y-38123761D01*
X148003642Y-38171380D01*
X147813166Y-38171380D01*
X147717928Y-38123761D01*
X148384595Y-38266619D02*
X149146500Y-38266619D01*
X149241738Y-37171380D02*
X149813166Y-37171380D01*
X149527452Y-38171380D02*
X149527452Y-37171380D01*
X150289357Y-38171380D02*
X150194119Y-38123761D01*
X150146500Y-38076142D01*
X150098880Y-37980904D01*
X150098880Y-37695190D01*
X150146500Y-37599952D01*
X150194119Y-37552333D01*
X150289357Y-37504714D01*
X150432214Y-37504714D01*
X150527452Y-37552333D01*
X150575071Y-37599952D01*
X150622690Y-37695190D01*
X150622690Y-37980904D01*
X150575071Y-38076142D01*
X150527452Y-38123761D01*
X150432214Y-38171380D01*
X150289357Y-38171380D01*
X151479833Y-37504714D02*
X151479833Y-38171380D01*
X151051261Y-37504714D02*
X151051261Y-38028523D01*
X151098880Y-38123761D01*
X151194119Y-38171380D01*
X151336976Y-38171380D01*
X151432214Y-38123761D01*
X151479833Y-38076142D01*
X152384595Y-38123761D02*
X152289357Y-38171380D01*
X152098880Y-38171380D01*
X152003642Y-38123761D01*
X151956023Y-38076142D01*
X151908404Y-37980904D01*
X151908404Y-37695190D01*
X151956023Y-37599952D01*
X152003642Y-37552333D01*
X152098880Y-37504714D01*
X152289357Y-37504714D01*
X152384595Y-37552333D01*
X152813166Y-38171380D02*
X152813166Y-37171380D01*
X153241738Y-38171380D02*
X153241738Y-37647571D01*
X153194119Y-37552333D01*
X153098880Y-37504714D01*
X152956023Y-37504714D01*
X152860785Y-37552333D01*
X152813166Y-37599952D01*
X153479833Y-38266619D02*
X154241738Y-38266619D01*
X155051261Y-38171380D02*
X154717928Y-37695190D01*
X154479833Y-38171380D02*
X154479833Y-37171380D01*
X154860785Y-37171380D01*
X154956023Y-37219000D01*
X155003642Y-37266619D01*
X155051261Y-37361857D01*
X155051261Y-37504714D01*
X155003642Y-37599952D01*
X154956023Y-37647571D01*
X154860785Y-37695190D01*
X154479833Y-37695190D01*
X155860785Y-38123761D02*
X155765547Y-38171380D01*
X155575071Y-38171380D01*
X155479833Y-38123761D01*
X155432214Y-38028523D01*
X155432214Y-37647571D01*
X155479833Y-37552333D01*
X155575071Y-37504714D01*
X155765547Y-37504714D01*
X155860785Y-37552333D01*
X155908404Y-37647571D01*
X155908404Y-37742809D01*
X155432214Y-37838047D01*
X156241738Y-37504714D02*
X156479833Y-38171380D01*
X156717928Y-37504714D01*
X156860785Y-38266619D02*
X157622690Y-38266619D01*
X157813166Y-37885666D02*
X158289357Y-37885666D01*
X157717928Y-38171380D02*
X158051261Y-37171380D01*
X158384595Y-38171380D01*
X86383761Y-39971023D02*
X86431380Y-39828166D01*
X86431380Y-39590071D01*
X86383761Y-39494833D01*
X86336142Y-39447214D01*
X86240904Y-39399595D01*
X86145666Y-39399595D01*
X86050428Y-39447214D01*
X86002809Y-39494833D01*
X85955190Y-39590071D01*
X85907571Y-39780547D01*
X85859952Y-39875785D01*
X85812333Y-39923404D01*
X85717095Y-39971023D01*
X85621857Y-39971023D01*
X85526619Y-39923404D01*
X85479000Y-39875785D01*
X85431380Y-39780547D01*
X85431380Y-39542452D01*
X85479000Y-39399595D01*
X86431380Y-38971023D02*
X85431380Y-38971023D01*
X85431380Y-38732928D01*
X85479000Y-38590071D01*
X85574238Y-38494833D01*
X85669476Y-38447214D01*
X85859952Y-38399595D01*
X86002809Y-38399595D01*
X86193285Y-38447214D01*
X86288523Y-38494833D01*
X86383761Y-38590071D01*
X86431380Y-38732928D01*
X86431380Y-38971023D01*
X86145666Y-38018642D02*
X86145666Y-37542452D01*
X86431380Y-38113880D02*
X85431380Y-37780547D01*
X86431380Y-37447214D01*
X95654761Y-39971023D02*
X95702380Y-39828166D01*
X95702380Y-39590071D01*
X95654761Y-39494833D01*
X95607142Y-39447214D01*
X95511904Y-39399595D01*
X95416666Y-39399595D01*
X95321428Y-39447214D01*
X95273809Y-39494833D01*
X95226190Y-39590071D01*
X95178571Y-39780547D01*
X95130952Y-39875785D01*
X95083333Y-39923404D01*
X94988095Y-39971023D01*
X94892857Y-39971023D01*
X94797619Y-39923404D01*
X94750000Y-39875785D01*
X94702380Y-39780547D01*
X94702380Y-39542452D01*
X94750000Y-39399595D01*
X94702380Y-39066261D02*
X95702380Y-38828166D01*
X94988095Y-38637690D01*
X95702380Y-38447214D01*
X94702380Y-38209119D01*
X95702380Y-37828166D02*
X94702380Y-37828166D01*
X95702380Y-37351976D02*
X94702380Y-37351976D01*
X95702380Y-36780547D01*
X94702380Y-36780547D01*
X88669761Y-39971023D02*
X88717380Y-39828166D01*
X88717380Y-39590071D01*
X88669761Y-39494833D01*
X88622142Y-39447214D01*
X88526904Y-39399595D01*
X88431666Y-39399595D01*
X88336428Y-39447214D01*
X88288809Y-39494833D01*
X88241190Y-39590071D01*
X88193571Y-39780547D01*
X88145952Y-39875785D01*
X88098333Y-39923404D01*
X88003095Y-39971023D01*
X87907857Y-39971023D01*
X87812619Y-39923404D01*
X87765000Y-39875785D01*
X87717380Y-39780547D01*
X87717380Y-39542452D01*
X87765000Y-39399595D01*
X88622142Y-38399595D02*
X88669761Y-38447214D01*
X88717380Y-38590071D01*
X88717380Y-38685309D01*
X88669761Y-38828166D01*
X88574523Y-38923404D01*
X88479285Y-38971023D01*
X88288809Y-39018642D01*
X88145952Y-39018642D01*
X87955476Y-38971023D01*
X87860238Y-38923404D01*
X87765000Y-38828166D01*
X87717380Y-38685309D01*
X87717380Y-38590071D01*
X87765000Y-38447214D01*
X87812619Y-38399595D01*
X88717380Y-37494833D02*
X88717380Y-37971023D01*
X87717380Y-37971023D01*
X83653380Y-40018642D02*
X83653380Y-39399595D01*
X84034333Y-39732928D01*
X84034333Y-39590071D01*
X84081952Y-39494833D01*
X84129571Y-39447214D01*
X84224809Y-39399595D01*
X84462904Y-39399595D01*
X84558142Y-39447214D01*
X84605761Y-39494833D01*
X84653380Y-39590071D01*
X84653380Y-39875785D01*
X84605761Y-39971023D01*
X84558142Y-40018642D01*
X83653380Y-39113880D02*
X84653380Y-38780547D01*
X83653380Y-38447214D01*
X83653380Y-38209119D02*
X83653380Y-37590071D01*
X84034333Y-37923404D01*
X84034333Y-37780547D01*
X84081952Y-37685309D01*
X84129571Y-37637690D01*
X84224809Y-37590071D01*
X84462904Y-37590071D01*
X84558142Y-37637690D01*
X84605761Y-37685309D01*
X84653380Y-37780547D01*
X84653380Y-38066261D01*
X84605761Y-38161500D01*
X84558142Y-38209119D01*
X138575071Y-39203380D02*
X138670309Y-39203380D01*
X138765547Y-39251000D01*
X138813166Y-39298619D01*
X138860785Y-39393857D01*
X138908404Y-39584333D01*
X138908404Y-39822428D01*
X138860785Y-40012904D01*
X138813166Y-40108142D01*
X138765547Y-40155761D01*
X138670309Y-40203380D01*
X138575071Y-40203380D01*
X138479833Y-40155761D01*
X138432214Y-40108142D01*
X138384595Y-40012904D01*
X138336976Y-39822428D01*
X138336976Y-39584333D01*
X138384595Y-39393857D01*
X138432214Y-39298619D01*
X138479833Y-39251000D01*
X138575071Y-39203380D01*
X139813166Y-39203380D02*
X139336976Y-39203380D01*
X139289357Y-39679571D01*
X139336976Y-39631952D01*
X139432214Y-39584333D01*
X139670309Y-39584333D01*
X139765547Y-39631952D01*
X139813166Y-39679571D01*
X139860785Y-39774809D01*
X139860785Y-40012904D01*
X139813166Y-40108142D01*
X139765547Y-40155761D01*
X139670309Y-40203380D01*
X139432214Y-40203380D01*
X139336976Y-40155761D01*
X139289357Y-40108142D01*
X141003642Y-39155761D02*
X140146500Y-40441476D01*
X141860785Y-40203380D02*
X141289357Y-40203380D01*
X141575071Y-40203380D02*
X141575071Y-39203380D01*
X141479833Y-39346238D01*
X141384595Y-39441476D01*
X141289357Y-39489095D01*
X142432214Y-39631952D02*
X142336976Y-39584333D01*
X142289357Y-39536714D01*
X142241738Y-39441476D01*
X142241738Y-39393857D01*
X142289357Y-39298619D01*
X142336976Y-39251000D01*
X142432214Y-39203380D01*
X142622690Y-39203380D01*
X142717928Y-39251000D01*
X142765547Y-39298619D01*
X142813166Y-39393857D01*
X142813166Y-39441476D01*
X142765547Y-39536714D01*
X142717928Y-39584333D01*
X142622690Y-39631952D01*
X142432214Y-39631952D01*
X142336976Y-39679571D01*
X142289357Y-39727190D01*
X142241738Y-39822428D01*
X142241738Y-40012904D01*
X142289357Y-40108142D01*
X142336976Y-40155761D01*
X142432214Y-40203380D01*
X142622690Y-40203380D01*
X142717928Y-40155761D01*
X142765547Y-40108142D01*
X142813166Y-40012904D01*
X142813166Y-39822428D01*
X142765547Y-39727190D01*
X142717928Y-39679571D01*
X142622690Y-39631952D01*
X143956023Y-39155761D02*
X143098880Y-40441476D01*
X144241738Y-39298619D02*
X144289357Y-39251000D01*
X144384595Y-39203380D01*
X144622690Y-39203380D01*
X144717928Y-39251000D01*
X144765547Y-39298619D01*
X144813166Y-39393857D01*
X144813166Y-39489095D01*
X144765547Y-39631952D01*
X144194119Y-40203380D01*
X144813166Y-40203380D01*
X145432214Y-39203380D02*
X145527452Y-39203380D01*
X145622690Y-39251000D01*
X145670309Y-39298619D01*
X145717928Y-39393857D01*
X145765547Y-39584333D01*
X145765547Y-39822428D01*
X145717928Y-40012904D01*
X145670309Y-40108142D01*
X145622690Y-40155761D01*
X145527452Y-40203380D01*
X145432214Y-40203380D01*
X145336976Y-40155761D01*
X145289357Y-40108142D01*
X145241738Y-40012904D01*
X145194119Y-39822428D01*
X145194119Y-39584333D01*
X145241738Y-39393857D01*
X145289357Y-39298619D01*
X145336976Y-39251000D01*
X145432214Y-39203380D01*
X146146500Y-39298619D02*
X146194119Y-39251000D01*
X146289357Y-39203380D01*
X146527452Y-39203380D01*
X146622690Y-39251000D01*
X146670309Y-39298619D01*
X146717928Y-39393857D01*
X146717928Y-39489095D01*
X146670309Y-39631952D01*
X146098880Y-40203380D01*
X146717928Y-40203380D01*
X147098880Y-39298619D02*
X147146500Y-39251000D01*
X147241738Y-39203380D01*
X147479833Y-39203380D01*
X147575071Y-39251000D01*
X147622690Y-39298619D01*
X147670309Y-39393857D01*
X147670309Y-39489095D01*
X147622690Y-39631952D01*
X147051261Y-40203380D01*
X147670309Y-40203380D01*
X119648504Y-82992980D02*
X120219933Y-82992980D01*
X119934219Y-83992980D02*
X119934219Y-82992980D01*
X120553266Y-83992980D02*
X120553266Y-82992980D01*
X120934219Y-82992980D01*
X121029457Y-83040600D01*
X121077076Y-83088219D01*
X121124695Y-83183457D01*
X121124695Y-83326314D01*
X121077076Y-83421552D01*
X121029457Y-83469171D01*
X120934219Y-83516790D01*
X120553266Y-83516790D01*
X121458028Y-82992980D02*
X122077076Y-82992980D01*
X121743742Y-83373933D01*
X121886600Y-83373933D01*
X121981838Y-83421552D01*
X122029457Y-83469171D01*
X122077076Y-83564409D01*
X122077076Y-83802504D01*
X122029457Y-83897742D01*
X121981838Y-83945361D01*
X121886600Y-83992980D01*
X121600885Y-83992980D01*
X121505647Y-83945361D01*
X121458028Y-83897742D01*
X122410409Y-82992980D02*
X123077076Y-82992980D01*
X122648504Y-83992980D01*
X99328504Y-103312980D02*
X99899933Y-103312980D01*
X99614219Y-104312980D02*
X99614219Y-103312980D01*
X100233266Y-104312980D02*
X100233266Y-103312980D01*
X100614219Y-103312980D01*
X100709457Y-103360600D01*
X100757076Y-103408219D01*
X100804695Y-103503457D01*
X100804695Y-103646314D01*
X100757076Y-103741552D01*
X100709457Y-103789171D01*
X100614219Y-103836790D01*
X100233266Y-103836790D01*
X101185647Y-103408219D02*
X101233266Y-103360600D01*
X101328504Y-103312980D01*
X101566600Y-103312980D01*
X101661838Y-103360600D01*
X101709457Y-103408219D01*
X101757076Y-103503457D01*
X101757076Y-103598695D01*
X101709457Y-103741552D01*
X101138028Y-104312980D01*
X101757076Y-104312980D01*
X102328504Y-103741552D02*
X102233266Y-103693933D01*
X102185647Y-103646314D01*
X102138028Y-103551076D01*
X102138028Y-103503457D01*
X102185647Y-103408219D01*
X102233266Y-103360600D01*
X102328504Y-103312980D01*
X102518980Y-103312980D01*
X102614219Y-103360600D01*
X102661838Y-103408219D01*
X102709457Y-103503457D01*
X102709457Y-103551076D01*
X102661838Y-103646314D01*
X102614219Y-103693933D01*
X102518980Y-103741552D01*
X102328504Y-103741552D01*
X102233266Y-103789171D01*
X102185647Y-103836790D01*
X102138028Y-103932028D01*
X102138028Y-104122504D01*
X102185647Y-104217742D01*
X102233266Y-104265361D01*
X102328504Y-104312980D01*
X102518980Y-104312980D01*
X102614219Y-104265361D01*
X102661838Y-104217742D01*
X102709457Y-104122504D01*
X102709457Y-103932028D01*
X102661838Y-103836790D01*
X102614219Y-103789171D01*
X102518980Y-103741552D01*
X99328504Y-62672980D02*
X99899933Y-62672980D01*
X99614219Y-63672980D02*
X99614219Y-62672980D01*
X100233266Y-63672980D02*
X100233266Y-62672980D01*
X100614219Y-62672980D01*
X100709457Y-62720600D01*
X100757076Y-62768219D01*
X100804695Y-62863457D01*
X100804695Y-63006314D01*
X100757076Y-63101552D01*
X100709457Y-63149171D01*
X100614219Y-63196790D01*
X100233266Y-63196790D01*
X101185647Y-62768219D02*
X101233266Y-62720600D01*
X101328504Y-62672980D01*
X101566600Y-62672980D01*
X101661838Y-62720600D01*
X101709457Y-62768219D01*
X101757076Y-62863457D01*
X101757076Y-62958695D01*
X101709457Y-63101552D01*
X101138028Y-63672980D01*
X101757076Y-63672980D01*
X102614219Y-62672980D02*
X102423742Y-62672980D01*
X102328504Y-62720600D01*
X102280885Y-62768219D01*
X102185647Y-62911076D01*
X102138028Y-63101552D01*
X102138028Y-63482504D01*
X102185647Y-63577742D01*
X102233266Y-63625361D01*
X102328504Y-63672980D01*
X102518980Y-63672980D01*
X102614219Y-63625361D01*
X102661838Y-63577742D01*
X102709457Y-63482504D01*
X102709457Y-63244409D01*
X102661838Y-63149171D01*
X102614219Y-63101552D01*
X102518980Y-63053933D01*
X102328504Y-63053933D01*
X102233266Y-63101552D01*
X102185647Y-63149171D01*
X102138028Y-63244409D01*
X139968504Y-62672980D02*
X140539933Y-62672980D01*
X140254219Y-63672980D02*
X140254219Y-62672980D01*
X140873266Y-63672980D02*
X140873266Y-62672980D01*
X141254219Y-62672980D01*
X141349457Y-62720600D01*
X141397076Y-62768219D01*
X141444695Y-62863457D01*
X141444695Y-63006314D01*
X141397076Y-63101552D01*
X141349457Y-63149171D01*
X141254219Y-63196790D01*
X140873266Y-63196790D01*
X142349457Y-62672980D02*
X141873266Y-62672980D01*
X141825647Y-63149171D01*
X141873266Y-63101552D01*
X141968504Y-63053933D01*
X142206600Y-63053933D01*
X142301838Y-63101552D01*
X142349457Y-63149171D01*
X142397076Y-63244409D01*
X142397076Y-63482504D01*
X142349457Y-63577742D01*
X142301838Y-63625361D01*
X142206600Y-63672980D01*
X141968504Y-63672980D01*
X141873266Y-63625361D01*
X141825647Y-63577742D01*
X143254219Y-62672980D02*
X143063742Y-62672980D01*
X142968504Y-62720600D01*
X142920885Y-62768219D01*
X142825647Y-62911076D01*
X142778028Y-63101552D01*
X142778028Y-63482504D01*
X142825647Y-63577742D01*
X142873266Y-63625361D01*
X142968504Y-63672980D01*
X143158980Y-63672980D01*
X143254219Y-63625361D01*
X143301838Y-63577742D01*
X143349457Y-63482504D01*
X143349457Y-63244409D01*
X143301838Y-63149171D01*
X143254219Y-63101552D01*
X143158980Y-63053933D01*
X142968504Y-63053933D01*
X142873266Y-63101552D01*
X142825647Y-63149171D01*
X142778028Y-63244409D01*
D11*
X88017166Y-47047785D02*
X87986928Y-47078023D01*
X87896214Y-47108261D01*
X87835738Y-47108261D01*
X87745023Y-47078023D01*
X87684547Y-47017547D01*
X87654309Y-46957071D01*
X87624071Y-46836119D01*
X87624071Y-46745404D01*
X87654309Y-46624452D01*
X87684547Y-46563976D01*
X87745023Y-46503500D01*
X87835738Y-46473261D01*
X87896214Y-46473261D01*
X87986928Y-46503500D01*
X88017166Y-46533738D01*
X88561452Y-46473261D02*
X88440500Y-46473261D01*
X88380023Y-46503500D01*
X88349785Y-46533738D01*
X88289309Y-46624452D01*
X88259071Y-46745404D01*
X88259071Y-46987309D01*
X88289309Y-47047785D01*
X88319547Y-47078023D01*
X88380023Y-47108261D01*
X88500976Y-47108261D01*
X88561452Y-47078023D01*
X88591690Y-47047785D01*
X88621928Y-46987309D01*
X88621928Y-46836119D01*
X88591690Y-46775642D01*
X88561452Y-46745404D01*
X88500976Y-46715166D01*
X88380023Y-46715166D01*
X88319547Y-46745404D01*
X88289309Y-46775642D01*
X88259071Y-46836119D01*
D10*
X62215780Y-67022504D02*
X62215780Y-66451076D01*
X63215780Y-66736790D02*
X62215780Y-66736790D01*
X63215780Y-66117742D02*
X62215780Y-66117742D01*
X62215780Y-65736790D01*
X62263400Y-65641552D01*
X62311019Y-65593933D01*
X62406257Y-65546314D01*
X62549114Y-65546314D01*
X62644352Y-65593933D01*
X62691971Y-65641552D01*
X62739590Y-65736790D01*
X62739590Y-66117742D01*
X62215780Y-64689171D02*
X62215780Y-64879647D01*
X62263400Y-64974885D01*
X62311019Y-65022504D01*
X62453876Y-65117742D01*
X62644352Y-65165361D01*
X63025304Y-65165361D01*
X63120542Y-65117742D01*
X63168161Y-65070123D01*
X63215780Y-64974885D01*
X63215780Y-64784409D01*
X63168161Y-64689171D01*
X63120542Y-64641552D01*
X63025304Y-64593933D01*
X62787209Y-64593933D01*
X62691971Y-64641552D01*
X62644352Y-64689171D01*
X62596733Y-64784409D01*
X62596733Y-64974885D01*
X62644352Y-65070123D01*
X62691971Y-65117742D01*
X62787209Y-65165361D01*
D11*
X106779785Y-38332833D02*
X106810023Y-38363071D01*
X106840261Y-38453785D01*
X106840261Y-38514261D01*
X106810023Y-38604976D01*
X106749547Y-38665452D01*
X106689071Y-38695690D01*
X106568119Y-38725928D01*
X106477404Y-38725928D01*
X106356452Y-38695690D01*
X106295976Y-38665452D01*
X106235500Y-38604976D01*
X106205261Y-38514261D01*
X106205261Y-38453785D01*
X106235500Y-38363071D01*
X106265738Y-38332833D01*
X106840261Y-37728071D02*
X106840261Y-38090928D01*
X106840261Y-37909500D02*
X106205261Y-37909500D01*
X106295976Y-37969976D01*
X106356452Y-38030452D01*
X106386690Y-38090928D01*
D10*
X158938980Y-128255495D02*
X158938980Y-127684066D01*
X159938980Y-127969780D02*
X158938980Y-127969780D01*
X159938980Y-127350733D02*
X158938980Y-127350733D01*
X158938980Y-126969780D01*
X158986600Y-126874542D01*
X159034219Y-126826923D01*
X159129457Y-126779304D01*
X159272314Y-126779304D01*
X159367552Y-126826923D01*
X159415171Y-126874542D01*
X159462790Y-126969780D01*
X159462790Y-127350733D01*
X159272314Y-125922161D02*
X159938980Y-125922161D01*
X158891361Y-126160257D02*
X159605647Y-126398352D01*
X159605647Y-125779304D01*
X159938980Y-125350733D02*
X159938980Y-125160257D01*
X159891361Y-125065019D01*
X159843742Y-125017400D01*
X159700885Y-124922161D01*
X159510409Y-124874542D01*
X159129457Y-124874542D01*
X159034219Y-124922161D01*
X158986600Y-124969780D01*
X158938980Y-125065019D01*
X158938980Y-125255495D01*
X158986600Y-125350733D01*
X159034219Y-125398352D01*
X159129457Y-125445971D01*
X159367552Y-125445971D01*
X159462790Y-125398352D01*
X159510409Y-125350733D01*
X159558028Y-125255495D01*
X159558028Y-125065019D01*
X159510409Y-124969780D01*
X159462790Y-124922161D01*
X159367552Y-124874542D01*
D11*
X130704166Y-45499261D02*
X130492500Y-45196880D01*
X130341309Y-45499261D02*
X130341309Y-44864261D01*
X130583214Y-44864261D01*
X130643690Y-44894500D01*
X130673928Y-44924738D01*
X130704166Y-44985214D01*
X130704166Y-45075928D01*
X130673928Y-45136404D01*
X130643690Y-45166642D01*
X130583214Y-45196880D01*
X130341309Y-45196880D01*
X131278690Y-44864261D02*
X130976309Y-44864261D01*
X130946071Y-45166642D01*
X130976309Y-45136404D01*
X131036785Y-45106166D01*
X131187976Y-45106166D01*
X131248452Y-45136404D01*
X131278690Y-45166642D01*
X131308928Y-45227119D01*
X131308928Y-45378309D01*
X131278690Y-45438785D01*
X131248452Y-45469023D01*
X131187976Y-45499261D01*
X131036785Y-45499261D01*
X130976309Y-45469023D01*
X130946071Y-45438785D01*
D10*
X129808504Y-93152980D02*
X130379933Y-93152980D01*
X130094219Y-94152980D02*
X130094219Y-93152980D01*
X130713266Y-94152980D02*
X130713266Y-93152980D01*
X131094219Y-93152980D01*
X131189457Y-93200600D01*
X131237076Y-93248219D01*
X131284695Y-93343457D01*
X131284695Y-93486314D01*
X131237076Y-93581552D01*
X131189457Y-93629171D01*
X131094219Y-93676790D01*
X130713266Y-93676790D01*
X131665647Y-93248219D02*
X131713266Y-93200600D01*
X131808504Y-93152980D01*
X132046600Y-93152980D01*
X132141838Y-93200600D01*
X132189457Y-93248219D01*
X132237076Y-93343457D01*
X132237076Y-93438695D01*
X132189457Y-93581552D01*
X131618028Y-94152980D01*
X132237076Y-94152980D01*
X133094219Y-93486314D02*
X133094219Y-94152980D01*
X132856123Y-93105361D02*
X132618028Y-93819647D01*
X133237076Y-93819647D01*
X150128504Y-72832980D02*
X150699933Y-72832980D01*
X150414219Y-73832980D02*
X150414219Y-72832980D01*
X151033266Y-73832980D02*
X151033266Y-72832980D01*
X151414219Y-72832980D01*
X151509457Y-72880600D01*
X151557076Y-72928219D01*
X151604695Y-73023457D01*
X151604695Y-73166314D01*
X151557076Y-73261552D01*
X151509457Y-73309171D01*
X151414219Y-73356790D01*
X151033266Y-73356790D01*
X152557076Y-73832980D02*
X151985647Y-73832980D01*
X152271361Y-73832980D02*
X152271361Y-72832980D01*
X152176123Y-72975838D01*
X152080885Y-73071076D01*
X151985647Y-73118695D01*
X153461838Y-72832980D02*
X152985647Y-72832980D01*
X152938028Y-73309171D01*
X152985647Y-73261552D01*
X153080885Y-73213933D01*
X153318980Y-73213933D01*
X153414219Y-73261552D01*
X153461838Y-73309171D01*
X153509457Y-73404409D01*
X153509457Y-73642504D01*
X153461838Y-73737742D01*
X153414219Y-73785361D01*
X153318980Y-73832980D01*
X153080885Y-73832980D01*
X152985647Y-73785361D01*
X152938028Y-73737742D01*
X109488504Y-72832980D02*
X110059933Y-72832980D01*
X109774219Y-73832980D02*
X109774219Y-72832980D01*
X110393266Y-73832980D02*
X110393266Y-72832980D01*
X110774219Y-72832980D01*
X110869457Y-72880600D01*
X110917076Y-72928219D01*
X110964695Y-73023457D01*
X110964695Y-73166314D01*
X110917076Y-73261552D01*
X110869457Y-73309171D01*
X110774219Y-73356790D01*
X110393266Y-73356790D01*
X111917076Y-73832980D02*
X111345647Y-73832980D01*
X111631361Y-73832980D02*
X111631361Y-72832980D01*
X111536123Y-72975838D01*
X111440885Y-73071076D01*
X111345647Y-73118695D01*
X112250409Y-72832980D02*
X112869457Y-72832980D01*
X112536123Y-73213933D01*
X112678980Y-73213933D01*
X112774219Y-73261552D01*
X112821838Y-73309171D01*
X112869457Y-73404409D01*
X112869457Y-73642504D01*
X112821838Y-73737742D01*
X112774219Y-73785361D01*
X112678980Y-73832980D01*
X112393266Y-73832980D01*
X112298028Y-73785361D01*
X112250409Y-73737742D01*
D11*
X91092261Y-48873833D02*
X90789880Y-49085500D01*
X91092261Y-49236690D02*
X90457261Y-49236690D01*
X90457261Y-48994785D01*
X90487500Y-48934309D01*
X90517738Y-48904071D01*
X90578214Y-48873833D01*
X90668928Y-48873833D01*
X90729404Y-48904071D01*
X90759642Y-48934309D01*
X90789880Y-48994785D01*
X90789880Y-49236690D01*
X90517738Y-48631928D02*
X90487500Y-48601690D01*
X90457261Y-48541214D01*
X90457261Y-48390023D01*
X90487500Y-48329547D01*
X90517738Y-48299309D01*
X90578214Y-48269071D01*
X90638690Y-48269071D01*
X90729404Y-48299309D01*
X91092261Y-48662166D01*
X91092261Y-48269071D01*
D10*
X139968504Y-143952980D02*
X140539933Y-143952980D01*
X140254219Y-144952980D02*
X140254219Y-143952980D01*
X140873266Y-144952980D02*
X140873266Y-143952980D01*
X141254219Y-143952980D01*
X141349457Y-144000600D01*
X141397076Y-144048219D01*
X141444695Y-144143457D01*
X141444695Y-144286314D01*
X141397076Y-144381552D01*
X141349457Y-144429171D01*
X141254219Y-144476790D01*
X140873266Y-144476790D01*
X142301838Y-143952980D02*
X142111361Y-143952980D01*
X142016123Y-144000600D01*
X141968504Y-144048219D01*
X141873266Y-144191076D01*
X141825647Y-144381552D01*
X141825647Y-144762504D01*
X141873266Y-144857742D01*
X141920885Y-144905361D01*
X142016123Y-144952980D01*
X142206600Y-144952980D01*
X142301838Y-144905361D01*
X142349457Y-144857742D01*
X142397076Y-144762504D01*
X142397076Y-144524409D01*
X142349457Y-144429171D01*
X142301838Y-144381552D01*
X142206600Y-144333933D01*
X142016123Y-144333933D01*
X141920885Y-144381552D01*
X141873266Y-144429171D01*
X141825647Y-144524409D01*
X143016123Y-143952980D02*
X143111361Y-143952980D01*
X143206600Y-144000600D01*
X143254219Y-144048219D01*
X143301838Y-144143457D01*
X143349457Y-144333933D01*
X143349457Y-144572028D01*
X143301838Y-144762504D01*
X143254219Y-144857742D01*
X143206600Y-144905361D01*
X143111361Y-144952980D01*
X143016123Y-144952980D01*
X142920885Y-144905361D01*
X142873266Y-144857742D01*
X142825647Y-144762504D01*
X142778028Y-144572028D01*
X142778028Y-144333933D01*
X142825647Y-144143457D01*
X142873266Y-144048219D01*
X142920885Y-144000600D01*
X143016123Y-143952980D01*
D11*
X82014785Y-41840452D02*
X82045023Y-41870690D01*
X82075261Y-41961404D01*
X82075261Y-42021880D01*
X82045023Y-42112595D01*
X81984547Y-42173071D01*
X81924071Y-42203309D01*
X81803119Y-42233547D01*
X81712404Y-42233547D01*
X81591452Y-42203309D01*
X81530976Y-42173071D01*
X81470500Y-42112595D01*
X81440261Y-42021880D01*
X81440261Y-41961404D01*
X81470500Y-41870690D01*
X81500738Y-41840452D01*
X82075261Y-41568309D02*
X81440261Y-41568309D01*
X82075261Y-41205452D01*
X81440261Y-41205452D01*
X82075261Y-40570452D02*
X82075261Y-40933309D01*
X82075261Y-40751880D02*
X81440261Y-40751880D01*
X81530976Y-40812357D01*
X81591452Y-40872833D01*
X81621690Y-40933309D01*
X131115404Y-43848261D02*
X130813023Y-43848261D01*
X130813023Y-43213261D01*
X131327071Y-43515642D02*
X131538738Y-43515642D01*
X131629452Y-43848261D02*
X131327071Y-43848261D01*
X131327071Y-43213261D01*
X131629452Y-43213261D01*
X131901595Y-43848261D02*
X131901595Y-43213261D01*
X132052785Y-43213261D01*
X132143500Y-43243500D01*
X132203976Y-43303976D01*
X132234214Y-43364452D01*
X132264452Y-43485404D01*
X132264452Y-43576119D01*
X132234214Y-43697071D01*
X132203976Y-43757547D01*
X132143500Y-43818023D01*
X132052785Y-43848261D01*
X131901595Y-43848261D01*
X132869214Y-43848261D02*
X132506357Y-43848261D01*
X132687785Y-43848261D02*
X132687785Y-43213261D01*
X132627309Y-43303976D01*
X132566833Y-43364452D01*
X132506357Y-43394690D01*
X108049785Y-44428833D02*
X108080023Y-44459071D01*
X108110261Y-44549785D01*
X108110261Y-44610261D01*
X108080023Y-44700976D01*
X108019547Y-44761452D01*
X107959071Y-44791690D01*
X107838119Y-44821928D01*
X107747404Y-44821928D01*
X107626452Y-44791690D01*
X107565976Y-44761452D01*
X107505500Y-44700976D01*
X107475261Y-44610261D01*
X107475261Y-44549785D01*
X107505500Y-44459071D01*
X107535738Y-44428833D01*
X107686928Y-43884547D02*
X108110261Y-43884547D01*
X107445023Y-44035738D02*
X107898595Y-44186928D01*
X107898595Y-43793833D01*
D10*
X119648504Y-123632980D02*
X120219933Y-123632980D01*
X119934219Y-124632980D02*
X119934219Y-123632980D01*
X120553266Y-124632980D02*
X120553266Y-123632980D01*
X120934219Y-123632980D01*
X121029457Y-123680600D01*
X121077076Y-123728219D01*
X121124695Y-123823457D01*
X121124695Y-123966314D01*
X121077076Y-124061552D01*
X121029457Y-124109171D01*
X120934219Y-124156790D01*
X120553266Y-124156790D01*
X121458028Y-123632980D02*
X122077076Y-123632980D01*
X121743742Y-124013933D01*
X121886600Y-124013933D01*
X121981838Y-124061552D01*
X122029457Y-124109171D01*
X122077076Y-124204409D01*
X122077076Y-124442504D01*
X122029457Y-124537742D01*
X121981838Y-124585361D01*
X121886600Y-124632980D01*
X121600885Y-124632980D01*
X121505647Y-124585361D01*
X121458028Y-124537742D01*
X122553266Y-124632980D02*
X122743742Y-124632980D01*
X122838980Y-124585361D01*
X122886600Y-124537742D01*
X122981838Y-124394885D01*
X123029457Y-124204409D01*
X123029457Y-123823457D01*
X122981838Y-123728219D01*
X122934219Y-123680600D01*
X122838980Y-123632980D01*
X122648504Y-123632980D01*
X122553266Y-123680600D01*
X122505647Y-123728219D01*
X122458028Y-123823457D01*
X122458028Y-124061552D01*
X122505647Y-124156790D01*
X122553266Y-124204409D01*
X122648504Y-124252028D01*
X122838980Y-124252028D01*
X122934219Y-124204409D01*
X122981838Y-124156790D01*
X123029457Y-124061552D01*
X129808504Y-154112980D02*
X130379933Y-154112980D01*
X130094219Y-155112980D02*
X130094219Y-154112980D01*
X130713266Y-155112980D02*
X130713266Y-154112980D01*
X131094219Y-154112980D01*
X131189457Y-154160600D01*
X131237076Y-154208219D01*
X131284695Y-154303457D01*
X131284695Y-154446314D01*
X131237076Y-154541552D01*
X131189457Y-154589171D01*
X131094219Y-154636790D01*
X130713266Y-154636790D01*
X132141838Y-154446314D02*
X132141838Y-155112980D01*
X131903742Y-154065361D02*
X131665647Y-154779647D01*
X132284695Y-154779647D01*
X133094219Y-154446314D02*
X133094219Y-155112980D01*
X132856123Y-154065361D02*
X132618028Y-154779647D01*
X133237076Y-154779647D01*
X79008504Y-82992980D02*
X79579933Y-82992980D01*
X79294219Y-83992980D02*
X79294219Y-82992980D01*
X79913266Y-83992980D02*
X79913266Y-82992980D01*
X80294219Y-82992980D01*
X80389457Y-83040600D01*
X80437076Y-83088219D01*
X80484695Y-83183457D01*
X80484695Y-83326314D01*
X80437076Y-83421552D01*
X80389457Y-83469171D01*
X80294219Y-83516790D01*
X79913266Y-83516790D01*
X81437076Y-83992980D02*
X80865647Y-83992980D01*
X81151361Y-83992980D02*
X81151361Y-82992980D01*
X81056123Y-83135838D01*
X80960885Y-83231076D01*
X80865647Y-83278695D01*
X81770409Y-82992980D02*
X82437076Y-82992980D01*
X82008504Y-83992980D01*
D12*
X140764380Y-43010666D02*
X141369142Y-43010666D01*
X140643428Y-43373523D02*
X141066761Y-42103523D01*
X141490095Y-43373523D01*
X141913428Y-43373523D02*
X141913428Y-42103523D01*
X142639142Y-43373523D01*
X142639142Y-42103523D01*
D11*
X97061261Y-48873833D02*
X96758880Y-49085500D01*
X97061261Y-49236690D02*
X96426261Y-49236690D01*
X96426261Y-48994785D01*
X96456500Y-48934309D01*
X96486738Y-48904071D01*
X96547214Y-48873833D01*
X96637928Y-48873833D01*
X96698404Y-48904071D01*
X96728642Y-48934309D01*
X96758880Y-48994785D01*
X96758880Y-49236690D01*
X96637928Y-48329547D02*
X97061261Y-48329547D01*
X96396023Y-48480738D02*
X96849595Y-48631928D01*
X96849595Y-48238833D01*
D10*
X89168504Y-154112980D02*
X89739933Y-154112980D01*
X89454219Y-155112980D02*
X89454219Y-154112980D01*
X90073266Y-155112980D02*
X90073266Y-154112980D01*
X90454219Y-154112980D01*
X90549457Y-154160600D01*
X90597076Y-154208219D01*
X90644695Y-154303457D01*
X90644695Y-154446314D01*
X90597076Y-154541552D01*
X90549457Y-154589171D01*
X90454219Y-154636790D01*
X90073266Y-154636790D01*
X91501838Y-154446314D02*
X91501838Y-155112980D01*
X91263742Y-154065361D02*
X91025647Y-154779647D01*
X91644695Y-154779647D01*
X91978028Y-154208219D02*
X92025647Y-154160600D01*
X92120885Y-154112980D01*
X92358980Y-154112980D01*
X92454219Y-154160600D01*
X92501838Y-154208219D01*
X92549457Y-154303457D01*
X92549457Y-154398695D01*
X92501838Y-154541552D01*
X91930409Y-155112980D01*
X92549457Y-155112980D01*
X150128504Y-154112980D02*
X150699933Y-154112980D01*
X150414219Y-155112980D02*
X150414219Y-154112980D01*
X151033266Y-155112980D02*
X151033266Y-154112980D01*
X151414219Y-154112980D01*
X151509457Y-154160600D01*
X151557076Y-154208219D01*
X151604695Y-154303457D01*
X151604695Y-154446314D01*
X151557076Y-154541552D01*
X151509457Y-154589171D01*
X151414219Y-154636790D01*
X151033266Y-154636790D01*
X152461838Y-154446314D02*
X152461838Y-155112980D01*
X152223742Y-154065361D02*
X151985647Y-154779647D01*
X152604695Y-154779647D01*
X153461838Y-154112980D02*
X152985647Y-154112980D01*
X152938028Y-154589171D01*
X152985647Y-154541552D01*
X153080885Y-154493933D01*
X153318980Y-154493933D01*
X153414219Y-154541552D01*
X153461838Y-154589171D01*
X153509457Y-154684409D01*
X153509457Y-154922504D01*
X153461838Y-155017742D01*
X153414219Y-155065361D01*
X153318980Y-155112980D01*
X153080885Y-155112980D01*
X152985647Y-155065361D01*
X152938028Y-155017742D01*
X150401495Y-57389780D02*
X150972923Y-57389780D01*
X150687209Y-58389780D02*
X150687209Y-57389780D01*
X151306257Y-58389780D02*
X151306257Y-57389780D01*
X151687209Y-57389780D01*
X151782447Y-57437400D01*
X151830066Y-57485019D01*
X151877685Y-57580257D01*
X151877685Y-57723114D01*
X151830066Y-57818352D01*
X151782447Y-57865971D01*
X151687209Y-57913590D01*
X151306257Y-57913590D01*
X152782447Y-57389780D02*
X152306257Y-57389780D01*
X152258638Y-57865971D01*
X152306257Y-57818352D01*
X152401495Y-57770733D01*
X152639590Y-57770733D01*
X152734828Y-57818352D01*
X152782447Y-57865971D01*
X152830066Y-57961209D01*
X152830066Y-58199304D01*
X152782447Y-58294542D01*
X152734828Y-58342161D01*
X152639590Y-58389780D01*
X152401495Y-58389780D01*
X152306257Y-58342161D01*
X152258638Y-58294542D01*
D11*
X87016166Y-48613785D02*
X86985928Y-48644023D01*
X86895214Y-48674261D01*
X86834738Y-48674261D01*
X86744023Y-48644023D01*
X86683547Y-48583547D01*
X86653309Y-48523071D01*
X86623071Y-48402119D01*
X86623071Y-48311404D01*
X86653309Y-48190452D01*
X86683547Y-48129976D01*
X86744023Y-48069500D01*
X86834738Y-48039261D01*
X86895214Y-48039261D01*
X86985928Y-48069500D01*
X87016166Y-48099738D01*
X87590690Y-48039261D02*
X87288309Y-48039261D01*
X87258071Y-48341642D01*
X87288309Y-48311404D01*
X87348785Y-48281166D01*
X87499976Y-48281166D01*
X87560452Y-48311404D01*
X87590690Y-48341642D01*
X87620928Y-48402119D01*
X87620928Y-48553309D01*
X87590690Y-48613785D01*
X87560452Y-48644023D01*
X87499976Y-48674261D01*
X87348785Y-48674261D01*
X87288309Y-48644023D01*
X87258071Y-48613785D01*
D10*
X129808504Y-113472980D02*
X130379933Y-113472980D01*
X130094219Y-114472980D02*
X130094219Y-113472980D01*
X130713266Y-114472980D02*
X130713266Y-113472980D01*
X131094219Y-113472980D01*
X131189457Y-113520600D01*
X131237076Y-113568219D01*
X131284695Y-113663457D01*
X131284695Y-113806314D01*
X131237076Y-113901552D01*
X131189457Y-113949171D01*
X131094219Y-113996790D01*
X130713266Y-113996790D01*
X131618028Y-113472980D02*
X132237076Y-113472980D01*
X131903742Y-113853933D01*
X132046600Y-113853933D01*
X132141838Y-113901552D01*
X132189457Y-113949171D01*
X132237076Y-114044409D01*
X132237076Y-114282504D01*
X132189457Y-114377742D01*
X132141838Y-114425361D01*
X132046600Y-114472980D01*
X131760885Y-114472980D01*
X131665647Y-114425361D01*
X131618028Y-114377742D01*
X133094219Y-113806314D02*
X133094219Y-114472980D01*
X132856123Y-113425361D02*
X132618028Y-114139647D01*
X133237076Y-114139647D01*
X139968504Y-103312980D02*
X140539933Y-103312980D01*
X140254219Y-104312980D02*
X140254219Y-103312980D01*
X140873266Y-104312980D02*
X140873266Y-103312980D01*
X141254219Y-103312980D01*
X141349457Y-103360600D01*
X141397076Y-103408219D01*
X141444695Y-103503457D01*
X141444695Y-103646314D01*
X141397076Y-103741552D01*
X141349457Y-103789171D01*
X141254219Y-103836790D01*
X140873266Y-103836790D01*
X142349457Y-103312980D02*
X141873266Y-103312980D01*
X141825647Y-103789171D01*
X141873266Y-103741552D01*
X141968504Y-103693933D01*
X142206600Y-103693933D01*
X142301838Y-103741552D01*
X142349457Y-103789171D01*
X142397076Y-103884409D01*
X142397076Y-104122504D01*
X142349457Y-104217742D01*
X142301838Y-104265361D01*
X142206600Y-104312980D01*
X141968504Y-104312980D01*
X141873266Y-104265361D01*
X141825647Y-104217742D01*
X142968504Y-103741552D02*
X142873266Y-103693933D01*
X142825647Y-103646314D01*
X142778028Y-103551076D01*
X142778028Y-103503457D01*
X142825647Y-103408219D01*
X142873266Y-103360600D01*
X142968504Y-103312980D01*
X143158980Y-103312980D01*
X143254219Y-103360600D01*
X143301838Y-103408219D01*
X143349457Y-103503457D01*
X143349457Y-103551076D01*
X143301838Y-103646314D01*
X143254219Y-103693933D01*
X143158980Y-103741552D01*
X142968504Y-103741552D01*
X142873266Y-103789171D01*
X142825647Y-103836790D01*
X142778028Y-103932028D01*
X142778028Y-104122504D01*
X142825647Y-104217742D01*
X142873266Y-104265361D01*
X142968504Y-104312980D01*
X143158980Y-104312980D01*
X143254219Y-104265361D01*
X143301838Y-104217742D01*
X143349457Y-104122504D01*
X143349457Y-103932028D01*
X143301838Y-103836790D01*
X143254219Y-103789171D01*
X143158980Y-103741552D01*
X79008504Y-143952980D02*
X79579933Y-143952980D01*
X79294219Y-144952980D02*
X79294219Y-143952980D01*
X79913266Y-144952980D02*
X79913266Y-143952980D01*
X80294219Y-143952980D01*
X80389457Y-144000600D01*
X80437076Y-144048219D01*
X80484695Y-144143457D01*
X80484695Y-144286314D01*
X80437076Y-144381552D01*
X80389457Y-144429171D01*
X80294219Y-144476790D01*
X79913266Y-144476790D01*
X80865647Y-144048219D02*
X80913266Y-144000600D01*
X81008504Y-143952980D01*
X81246600Y-143952980D01*
X81341838Y-144000600D01*
X81389457Y-144048219D01*
X81437076Y-144143457D01*
X81437076Y-144238695D01*
X81389457Y-144381552D01*
X80818028Y-144952980D01*
X81437076Y-144952980D01*
X82056123Y-143952980D02*
X82151361Y-143952980D01*
X82246600Y-144000600D01*
X82294219Y-144048219D01*
X82341838Y-144143457D01*
X82389457Y-144333933D01*
X82389457Y-144572028D01*
X82341838Y-144762504D01*
X82294219Y-144857742D01*
X82246600Y-144905361D01*
X82151361Y-144952980D01*
X82056123Y-144952980D01*
X81960885Y-144905361D01*
X81913266Y-144857742D01*
X81865647Y-144762504D01*
X81818028Y-144572028D01*
X81818028Y-144333933D01*
X81865647Y-144143457D01*
X81913266Y-144048219D01*
X81960885Y-144000600D01*
X82056123Y-143952980D01*
X89168504Y-133792980D02*
X89739933Y-133792980D01*
X89454219Y-134792980D02*
X89454219Y-133792980D01*
X90073266Y-134792980D02*
X90073266Y-133792980D01*
X90454219Y-133792980D01*
X90549457Y-133840600D01*
X90597076Y-133888219D01*
X90644695Y-133983457D01*
X90644695Y-134126314D01*
X90597076Y-134221552D01*
X90549457Y-134269171D01*
X90454219Y-134316790D01*
X90073266Y-134316790D01*
X91549457Y-133792980D02*
X91073266Y-133792980D01*
X91025647Y-134269171D01*
X91073266Y-134221552D01*
X91168504Y-134173933D01*
X91406600Y-134173933D01*
X91501838Y-134221552D01*
X91549457Y-134269171D01*
X91597076Y-134364409D01*
X91597076Y-134602504D01*
X91549457Y-134697742D01*
X91501838Y-134745361D01*
X91406600Y-134792980D01*
X91168504Y-134792980D01*
X91073266Y-134745361D01*
X91025647Y-134697742D01*
X91978028Y-133888219D02*
X92025647Y-133840600D01*
X92120885Y-133792980D01*
X92358980Y-133792980D01*
X92454219Y-133840600D01*
X92501838Y-133888219D01*
X92549457Y-133983457D01*
X92549457Y-134078695D01*
X92501838Y-134221552D01*
X91930409Y-134792980D01*
X92549457Y-134792980D01*
X129808504Y-72832980D02*
X130379933Y-72832980D01*
X130094219Y-73832980D02*
X130094219Y-72832980D01*
X130713266Y-73832980D02*
X130713266Y-72832980D01*
X131094219Y-72832980D01*
X131189457Y-72880600D01*
X131237076Y-72928219D01*
X131284695Y-73023457D01*
X131284695Y-73166314D01*
X131237076Y-73261552D01*
X131189457Y-73309171D01*
X131094219Y-73356790D01*
X130713266Y-73356790D01*
X132237076Y-73832980D02*
X131665647Y-73832980D01*
X131951361Y-73832980D02*
X131951361Y-72832980D01*
X131856123Y-72975838D01*
X131760885Y-73071076D01*
X131665647Y-73118695D01*
X133094219Y-73166314D02*
X133094219Y-73832980D01*
X132856123Y-72785361D02*
X132618028Y-73499647D01*
X133237076Y-73499647D01*
X150128504Y-113472980D02*
X150699933Y-113472980D01*
X150414219Y-114472980D02*
X150414219Y-113472980D01*
X151033266Y-114472980D02*
X151033266Y-113472980D01*
X151414219Y-113472980D01*
X151509457Y-113520600D01*
X151557076Y-113568219D01*
X151604695Y-113663457D01*
X151604695Y-113806314D01*
X151557076Y-113901552D01*
X151509457Y-113949171D01*
X151414219Y-113996790D01*
X151033266Y-113996790D01*
X151938028Y-113472980D02*
X152557076Y-113472980D01*
X152223742Y-113853933D01*
X152366600Y-113853933D01*
X152461838Y-113901552D01*
X152509457Y-113949171D01*
X152557076Y-114044409D01*
X152557076Y-114282504D01*
X152509457Y-114377742D01*
X152461838Y-114425361D01*
X152366600Y-114472980D01*
X152080885Y-114472980D01*
X151985647Y-114425361D01*
X151938028Y-114377742D01*
X153461838Y-113472980D02*
X152985647Y-113472980D01*
X152938028Y-113949171D01*
X152985647Y-113901552D01*
X153080885Y-113853933D01*
X153318980Y-113853933D01*
X153414219Y-113901552D01*
X153461838Y-113949171D01*
X153509457Y-114044409D01*
X153509457Y-114282504D01*
X153461838Y-114377742D01*
X153414219Y-114425361D01*
X153318980Y-114472980D01*
X153080885Y-114472980D01*
X152985647Y-114425361D01*
X152938028Y-114377742D01*
X150128504Y-133792980D02*
X150699933Y-133792980D01*
X150414219Y-134792980D02*
X150414219Y-133792980D01*
X151033266Y-134792980D02*
X151033266Y-133792980D01*
X151414219Y-133792980D01*
X151509457Y-133840600D01*
X151557076Y-133888219D01*
X151604695Y-133983457D01*
X151604695Y-134126314D01*
X151557076Y-134221552D01*
X151509457Y-134269171D01*
X151414219Y-134316790D01*
X151033266Y-134316790D01*
X152509457Y-133792980D02*
X152033266Y-133792980D01*
X151985647Y-134269171D01*
X152033266Y-134221552D01*
X152128504Y-134173933D01*
X152366600Y-134173933D01*
X152461838Y-134221552D01*
X152509457Y-134269171D01*
X152557076Y-134364409D01*
X152557076Y-134602504D01*
X152509457Y-134697742D01*
X152461838Y-134745361D01*
X152366600Y-134792980D01*
X152128504Y-134792980D01*
X152033266Y-134745361D01*
X151985647Y-134697742D01*
X153461838Y-133792980D02*
X152985647Y-133792980D01*
X152938028Y-134269171D01*
X152985647Y-134221552D01*
X153080885Y-134173933D01*
X153318980Y-134173933D01*
X153414219Y-134221552D01*
X153461838Y-134269171D01*
X153509457Y-134364409D01*
X153509457Y-134602504D01*
X153461838Y-134697742D01*
X153414219Y-134745361D01*
X153318980Y-134792980D01*
X153080885Y-134792980D01*
X152985647Y-134745361D01*
X152938028Y-134697742D01*
X139968504Y-82992980D02*
X140539933Y-82992980D01*
X140254219Y-83992980D02*
X140254219Y-82992980D01*
X140873266Y-83992980D02*
X140873266Y-82992980D01*
X141254219Y-82992980D01*
X141349457Y-83040600D01*
X141397076Y-83088219D01*
X141444695Y-83183457D01*
X141444695Y-83326314D01*
X141397076Y-83421552D01*
X141349457Y-83469171D01*
X141254219Y-83516790D01*
X140873266Y-83516790D01*
X142349457Y-82992980D02*
X141873266Y-82992980D01*
X141825647Y-83469171D01*
X141873266Y-83421552D01*
X141968504Y-83373933D01*
X142206600Y-83373933D01*
X142301838Y-83421552D01*
X142349457Y-83469171D01*
X142397076Y-83564409D01*
X142397076Y-83802504D01*
X142349457Y-83897742D01*
X142301838Y-83945361D01*
X142206600Y-83992980D01*
X141968504Y-83992980D01*
X141873266Y-83945361D01*
X141825647Y-83897742D01*
X142730409Y-82992980D02*
X143397076Y-82992980D01*
X142968504Y-83992980D01*
D11*
X129561166Y-42197261D02*
X129349500Y-41894880D01*
X129198309Y-42197261D02*
X129198309Y-41562261D01*
X129440214Y-41562261D01*
X129500690Y-41592500D01*
X129530928Y-41622738D01*
X129561166Y-41683214D01*
X129561166Y-41773928D01*
X129530928Y-41834404D01*
X129500690Y-41864642D01*
X129440214Y-41894880D01*
X129198309Y-41894880D01*
X130105452Y-41562261D02*
X129984500Y-41562261D01*
X129924023Y-41592500D01*
X129893785Y-41622738D01*
X129833309Y-41713452D01*
X129803071Y-41834404D01*
X129803071Y-42076309D01*
X129833309Y-42136785D01*
X129863547Y-42167023D01*
X129924023Y-42197261D01*
X130044976Y-42197261D01*
X130105452Y-42167023D01*
X130135690Y-42136785D01*
X130165928Y-42076309D01*
X130165928Y-41925119D01*
X130135690Y-41864642D01*
X130105452Y-41834404D01*
X130044976Y-41804166D01*
X129924023Y-41804166D01*
X129863547Y-41834404D01*
X129833309Y-41864642D01*
X129803071Y-41925119D01*
D10*
X162814095Y-36226380D02*
X162814095Y-35226380D01*
X162814095Y-35702571D02*
X163385523Y-35702571D01*
X163385523Y-36226380D02*
X163385523Y-35226380D01*
X163814095Y-35321619D02*
X163861714Y-35274000D01*
X163956952Y-35226380D01*
X164195047Y-35226380D01*
X164290285Y-35274000D01*
X164337904Y-35321619D01*
X164385523Y-35416857D01*
X164385523Y-35512095D01*
X164337904Y-35654952D01*
X163766476Y-36226380D01*
X164385523Y-36226380D01*
X79008504Y-103312980D02*
X79579933Y-103312980D01*
X79294219Y-104312980D02*
X79294219Y-103312980D01*
X79913266Y-104312980D02*
X79913266Y-103312980D01*
X80294219Y-103312980D01*
X80389457Y-103360600D01*
X80437076Y-103408219D01*
X80484695Y-103503457D01*
X80484695Y-103646314D01*
X80437076Y-103741552D01*
X80389457Y-103789171D01*
X80294219Y-103836790D01*
X79913266Y-103836790D01*
X81437076Y-104312980D02*
X80865647Y-104312980D01*
X81151361Y-104312980D02*
X81151361Y-103312980D01*
X81056123Y-103455838D01*
X80960885Y-103551076D01*
X80865647Y-103598695D01*
X82008504Y-103741552D02*
X81913266Y-103693933D01*
X81865647Y-103646314D01*
X81818028Y-103551076D01*
X81818028Y-103503457D01*
X81865647Y-103408219D01*
X81913266Y-103360600D01*
X82008504Y-103312980D01*
X82198980Y-103312980D01*
X82294219Y-103360600D01*
X82341838Y-103408219D01*
X82389457Y-103503457D01*
X82389457Y-103551076D01*
X82341838Y-103646314D01*
X82294219Y-103693933D01*
X82198980Y-103741552D01*
X82008504Y-103741552D01*
X81913266Y-103789171D01*
X81865647Y-103836790D01*
X81818028Y-103932028D01*
X81818028Y-104122504D01*
X81865647Y-104217742D01*
X81913266Y-104265361D01*
X82008504Y-104312980D01*
X82198980Y-104312980D01*
X82294219Y-104265361D01*
X82341838Y-104217742D01*
X82389457Y-104122504D01*
X82389457Y-103932028D01*
X82341838Y-103836790D01*
X82294219Y-103789171D01*
X82198980Y-103741552D01*
X129808504Y-133792980D02*
X130379933Y-133792980D01*
X130094219Y-134792980D02*
X130094219Y-133792980D01*
X130713266Y-134792980D02*
X130713266Y-133792980D01*
X131094219Y-133792980D01*
X131189457Y-133840600D01*
X131237076Y-133888219D01*
X131284695Y-133983457D01*
X131284695Y-134126314D01*
X131237076Y-134221552D01*
X131189457Y-134269171D01*
X131094219Y-134316790D01*
X130713266Y-134316790D01*
X132189457Y-133792980D02*
X131713266Y-133792980D01*
X131665647Y-134269171D01*
X131713266Y-134221552D01*
X131808504Y-134173933D01*
X132046600Y-134173933D01*
X132141838Y-134221552D01*
X132189457Y-134269171D01*
X132237076Y-134364409D01*
X132237076Y-134602504D01*
X132189457Y-134697742D01*
X132141838Y-134745361D01*
X132046600Y-134792980D01*
X131808504Y-134792980D01*
X131713266Y-134745361D01*
X131665647Y-134697742D01*
X133094219Y-134126314D02*
X133094219Y-134792980D01*
X132856123Y-133745361D02*
X132618028Y-134459647D01*
X133237076Y-134459647D01*
X58674095Y-159670380D02*
X58674095Y-158670380D01*
X58674095Y-159146571D02*
X59245523Y-159146571D01*
X59245523Y-159670380D02*
X59245523Y-158670380D01*
X60245523Y-159670380D02*
X59674095Y-159670380D01*
X59959809Y-159670380D02*
X59959809Y-158670380D01*
X59864571Y-158813238D01*
X59769333Y-158908476D01*
X59674095Y-158956095D01*
X158938980Y-87615495D02*
X158938980Y-87044066D01*
X159938980Y-87329780D02*
X158938980Y-87329780D01*
X159938980Y-86710733D02*
X158938980Y-86710733D01*
X158938980Y-86329780D01*
X158986600Y-86234542D01*
X159034219Y-86186923D01*
X159129457Y-86139304D01*
X159272314Y-86139304D01*
X159367552Y-86186923D01*
X159415171Y-86234542D01*
X159462790Y-86329780D01*
X159462790Y-86710733D01*
X159272314Y-85282161D02*
X159938980Y-85282161D01*
X158891361Y-85520257D02*
X159605647Y-85758352D01*
X159605647Y-85139304D01*
X158938980Y-84853590D02*
X158938980Y-84186923D01*
X159938980Y-84615495D01*
D11*
X95156261Y-48873833D02*
X94853880Y-49085500D01*
X95156261Y-49236690D02*
X94521261Y-49236690D01*
X94521261Y-48994785D01*
X94551500Y-48934309D01*
X94581738Y-48904071D01*
X94642214Y-48873833D01*
X94732928Y-48873833D01*
X94793404Y-48904071D01*
X94823642Y-48934309D01*
X94853880Y-48994785D01*
X94853880Y-49236690D01*
X94521261Y-48662166D02*
X94521261Y-48269071D01*
X94763166Y-48480738D01*
X94763166Y-48390023D01*
X94793404Y-48329547D01*
X94823642Y-48299309D01*
X94884119Y-48269071D01*
X95035309Y-48269071D01*
X95095785Y-48299309D01*
X95126023Y-48329547D01*
X95156261Y-48390023D01*
X95156261Y-48571452D01*
X95126023Y-48631928D01*
X95095785Y-48662166D01*
D10*
X99328504Y-123632980D02*
X99899933Y-123632980D01*
X99614219Y-124632980D02*
X99614219Y-123632980D01*
X100233266Y-124632980D02*
X100233266Y-123632980D01*
X100614219Y-123632980D01*
X100709457Y-123680600D01*
X100757076Y-123728219D01*
X100804695Y-123823457D01*
X100804695Y-123966314D01*
X100757076Y-124061552D01*
X100709457Y-124109171D01*
X100614219Y-124156790D01*
X100233266Y-124156790D01*
X101185647Y-123728219D02*
X101233266Y-123680600D01*
X101328504Y-123632980D01*
X101566600Y-123632980D01*
X101661838Y-123680600D01*
X101709457Y-123728219D01*
X101757076Y-123823457D01*
X101757076Y-123918695D01*
X101709457Y-124061552D01*
X101138028Y-124632980D01*
X101757076Y-124632980D01*
X102233266Y-124632980D02*
X102423742Y-124632980D01*
X102518980Y-124585361D01*
X102566600Y-124537742D01*
X102661838Y-124394885D01*
X102709457Y-124204409D01*
X102709457Y-123823457D01*
X102661838Y-123728219D01*
X102614219Y-123680600D01*
X102518980Y-123632980D01*
X102328504Y-123632980D01*
X102233266Y-123680600D01*
X102185647Y-123728219D01*
X102138028Y-123823457D01*
X102138028Y-124061552D01*
X102185647Y-124156790D01*
X102233266Y-124204409D01*
X102328504Y-124252028D01*
X102518980Y-124252028D01*
X102614219Y-124204409D01*
X102661838Y-124156790D01*
X102709457Y-124061552D01*
X109488504Y-93152980D02*
X110059933Y-93152980D01*
X109774219Y-94152980D02*
X109774219Y-93152980D01*
X110393266Y-94152980D02*
X110393266Y-93152980D01*
X110774219Y-93152980D01*
X110869457Y-93200600D01*
X110917076Y-93248219D01*
X110964695Y-93343457D01*
X110964695Y-93486314D01*
X110917076Y-93581552D01*
X110869457Y-93629171D01*
X110774219Y-93676790D01*
X110393266Y-93676790D01*
X111345647Y-93248219D02*
X111393266Y-93200600D01*
X111488504Y-93152980D01*
X111726600Y-93152980D01*
X111821838Y-93200600D01*
X111869457Y-93248219D01*
X111917076Y-93343457D01*
X111917076Y-93438695D01*
X111869457Y-93581552D01*
X111298028Y-94152980D01*
X111917076Y-94152980D01*
X112250409Y-93152980D02*
X112869457Y-93152980D01*
X112536123Y-93533933D01*
X112678980Y-93533933D01*
X112774219Y-93581552D01*
X112821838Y-93629171D01*
X112869457Y-93724409D01*
X112869457Y-93962504D01*
X112821838Y-94057742D01*
X112774219Y-94105361D01*
X112678980Y-94152980D01*
X112393266Y-94152980D01*
X112298028Y-94105361D01*
X112250409Y-94057742D01*
X68848504Y-154112980D02*
X69419933Y-154112980D01*
X69134219Y-155112980D02*
X69134219Y-154112980D01*
X69753266Y-155112980D02*
X69753266Y-154112980D01*
X70134219Y-154112980D01*
X70229457Y-154160600D01*
X70277076Y-154208219D01*
X70324695Y-154303457D01*
X70324695Y-154446314D01*
X70277076Y-154541552D01*
X70229457Y-154589171D01*
X70134219Y-154636790D01*
X69753266Y-154636790D01*
X71181838Y-154446314D02*
X71181838Y-155112980D01*
X70943742Y-154065361D02*
X70705647Y-154779647D01*
X71324695Y-154779647D01*
X72229457Y-155112980D02*
X71658028Y-155112980D01*
X71943742Y-155112980D02*
X71943742Y-154112980D01*
X71848504Y-154255838D01*
X71753266Y-154351076D01*
X71658028Y-154398695D01*
D11*
X111022190Y-37353261D02*
X111022190Y-37867309D01*
X111052428Y-37927785D01*
X111082666Y-37958023D01*
X111143142Y-37988261D01*
X111264095Y-37988261D01*
X111324571Y-37958023D01*
X111354809Y-37927785D01*
X111385047Y-37867309D01*
X111385047Y-37353261D01*
X112020047Y-37988261D02*
X111657190Y-37988261D01*
X111838619Y-37988261D02*
X111838619Y-37353261D01*
X111778142Y-37443976D01*
X111717666Y-37504452D01*
X111657190Y-37534690D01*
D10*
X99328504Y-143952980D02*
X99899933Y-143952980D01*
X99614219Y-144952980D02*
X99614219Y-143952980D01*
X100233266Y-144952980D02*
X100233266Y-143952980D01*
X100614219Y-143952980D01*
X100709457Y-144000600D01*
X100757076Y-144048219D01*
X100804695Y-144143457D01*
X100804695Y-144286314D01*
X100757076Y-144381552D01*
X100709457Y-144429171D01*
X100614219Y-144476790D01*
X100233266Y-144476790D01*
X101138028Y-143952980D02*
X101757076Y-143952980D01*
X101423742Y-144333933D01*
X101566600Y-144333933D01*
X101661838Y-144381552D01*
X101709457Y-144429171D01*
X101757076Y-144524409D01*
X101757076Y-144762504D01*
X101709457Y-144857742D01*
X101661838Y-144905361D01*
X101566600Y-144952980D01*
X101280885Y-144952980D01*
X101185647Y-144905361D01*
X101138028Y-144857742D01*
X102376123Y-143952980D02*
X102471361Y-143952980D01*
X102566600Y-144000600D01*
X102614219Y-144048219D01*
X102661838Y-144143457D01*
X102709457Y-144333933D01*
X102709457Y-144572028D01*
X102661838Y-144762504D01*
X102614219Y-144857742D01*
X102566600Y-144905361D01*
X102471361Y-144952980D01*
X102376123Y-144952980D01*
X102280885Y-144905361D01*
X102233266Y-144857742D01*
X102185647Y-144762504D01*
X102138028Y-144572028D01*
X102138028Y-144333933D01*
X102185647Y-144143457D01*
X102233266Y-144048219D01*
X102280885Y-144000600D01*
X102376123Y-143952980D01*
X79008504Y-62672980D02*
X79579933Y-62672980D01*
X79294219Y-63672980D02*
X79294219Y-62672980D01*
X79913266Y-63672980D02*
X79913266Y-62672980D01*
X80294219Y-62672980D01*
X80389457Y-62720600D01*
X80437076Y-62768219D01*
X80484695Y-62863457D01*
X80484695Y-63006314D01*
X80437076Y-63101552D01*
X80389457Y-63149171D01*
X80294219Y-63196790D01*
X79913266Y-63196790D01*
X81437076Y-63672980D02*
X80865647Y-63672980D01*
X81151361Y-63672980D02*
X81151361Y-62672980D01*
X81056123Y-62815838D01*
X80960885Y-62911076D01*
X80865647Y-62958695D01*
X82294219Y-62672980D02*
X82103742Y-62672980D01*
X82008504Y-62720600D01*
X81960885Y-62768219D01*
X81865647Y-62911076D01*
X81818028Y-63101552D01*
X81818028Y-63482504D01*
X81865647Y-63577742D01*
X81913266Y-63625361D01*
X82008504Y-63672980D01*
X82198980Y-63672980D01*
X82294219Y-63625361D01*
X82341838Y-63577742D01*
X82389457Y-63482504D01*
X82389457Y-63244409D01*
X82341838Y-63149171D01*
X82294219Y-63101552D01*
X82198980Y-63053933D01*
X82008504Y-63053933D01*
X81913266Y-63101552D01*
X81865647Y-63149171D01*
X81818028Y-63244409D01*
D11*
X93124261Y-48746833D02*
X92821880Y-48958500D01*
X93124261Y-49109690D02*
X92489261Y-49109690D01*
X92489261Y-48867785D01*
X92519500Y-48807309D01*
X92549738Y-48777071D01*
X92610214Y-48746833D01*
X92700928Y-48746833D01*
X92761404Y-48777071D01*
X92791642Y-48807309D01*
X92821880Y-48867785D01*
X92821880Y-49109690D01*
X93124261Y-48142071D02*
X93124261Y-48504928D01*
X93124261Y-48323500D02*
X92489261Y-48323500D01*
X92579976Y-48383976D01*
X92640452Y-48444452D01*
X92670690Y-48504928D01*
D10*
X109488504Y-113472980D02*
X110059933Y-113472980D01*
X109774219Y-114472980D02*
X109774219Y-113472980D01*
X110393266Y-114472980D02*
X110393266Y-113472980D01*
X110774219Y-113472980D01*
X110869457Y-113520600D01*
X110917076Y-113568219D01*
X110964695Y-113663457D01*
X110964695Y-113806314D01*
X110917076Y-113901552D01*
X110869457Y-113949171D01*
X110774219Y-113996790D01*
X110393266Y-113996790D01*
X111298028Y-113472980D02*
X111917076Y-113472980D01*
X111583742Y-113853933D01*
X111726600Y-113853933D01*
X111821838Y-113901552D01*
X111869457Y-113949171D01*
X111917076Y-114044409D01*
X111917076Y-114282504D01*
X111869457Y-114377742D01*
X111821838Y-114425361D01*
X111726600Y-114472980D01*
X111440885Y-114472980D01*
X111345647Y-114425361D01*
X111298028Y-114377742D01*
X112250409Y-113472980D02*
X112869457Y-113472980D01*
X112536123Y-113853933D01*
X112678980Y-113853933D01*
X112774219Y-113901552D01*
X112821838Y-113949171D01*
X112869457Y-114044409D01*
X112869457Y-114282504D01*
X112821838Y-114377742D01*
X112774219Y-114425361D01*
X112678980Y-114472980D01*
X112393266Y-114472980D01*
X112298028Y-114425361D01*
X112250409Y-114377742D01*
X68848504Y-93152980D02*
X69419933Y-93152980D01*
X69134219Y-94152980D02*
X69134219Y-93152980D01*
X69753266Y-94152980D02*
X69753266Y-93152980D01*
X70134219Y-93152980D01*
X70229457Y-93200600D01*
X70277076Y-93248219D01*
X70324695Y-93343457D01*
X70324695Y-93486314D01*
X70277076Y-93581552D01*
X70229457Y-93629171D01*
X70134219Y-93676790D01*
X69753266Y-93676790D01*
X70705647Y-93248219D02*
X70753266Y-93200600D01*
X70848504Y-93152980D01*
X71086600Y-93152980D01*
X71181838Y-93200600D01*
X71229457Y-93248219D01*
X71277076Y-93343457D01*
X71277076Y-93438695D01*
X71229457Y-93581552D01*
X70658028Y-94152980D01*
X71277076Y-94152980D01*
X72229457Y-94152980D02*
X71658028Y-94152980D01*
X71943742Y-94152980D02*
X71943742Y-93152980D01*
X71848504Y-93295838D01*
X71753266Y-93391076D01*
X71658028Y-93438695D01*
X119648504Y-143952980D02*
X120219933Y-143952980D01*
X119934219Y-144952980D02*
X119934219Y-143952980D01*
X120553266Y-144952980D02*
X120553266Y-143952980D01*
X120934219Y-143952980D01*
X121029457Y-144000600D01*
X121077076Y-144048219D01*
X121124695Y-144143457D01*
X121124695Y-144286314D01*
X121077076Y-144381552D01*
X121029457Y-144429171D01*
X120934219Y-144476790D01*
X120553266Y-144476790D01*
X121981838Y-144286314D02*
X121981838Y-144952980D01*
X121743742Y-143905361D02*
X121505647Y-144619647D01*
X122124695Y-144619647D01*
X122696123Y-143952980D02*
X122791361Y-143952980D01*
X122886600Y-144000600D01*
X122934219Y-144048219D01*
X122981838Y-144143457D01*
X123029457Y-144333933D01*
X123029457Y-144572028D01*
X122981838Y-144762504D01*
X122934219Y-144857742D01*
X122886600Y-144905361D01*
X122791361Y-144952980D01*
X122696123Y-144952980D01*
X122600885Y-144905361D01*
X122553266Y-144857742D01*
X122505647Y-144762504D01*
X122458028Y-144572028D01*
X122458028Y-144333933D01*
X122505647Y-144143457D01*
X122553266Y-144048219D01*
X122600885Y-144000600D01*
X122696123Y-143952980D01*
X68848504Y-133792980D02*
X69419933Y-133792980D01*
X69134219Y-134792980D02*
X69134219Y-133792980D01*
X69753266Y-134792980D02*
X69753266Y-133792980D01*
X70134219Y-133792980D01*
X70229457Y-133840600D01*
X70277076Y-133888219D01*
X70324695Y-133983457D01*
X70324695Y-134126314D01*
X70277076Y-134221552D01*
X70229457Y-134269171D01*
X70134219Y-134316790D01*
X69753266Y-134316790D01*
X71229457Y-133792980D02*
X70753266Y-133792980D01*
X70705647Y-134269171D01*
X70753266Y-134221552D01*
X70848504Y-134173933D01*
X71086600Y-134173933D01*
X71181838Y-134221552D01*
X71229457Y-134269171D01*
X71277076Y-134364409D01*
X71277076Y-134602504D01*
X71229457Y-134697742D01*
X71181838Y-134745361D01*
X71086600Y-134792980D01*
X70848504Y-134792980D01*
X70753266Y-134745361D01*
X70705647Y-134697742D01*
X72229457Y-134792980D02*
X71658028Y-134792980D01*
X71943742Y-134792980D02*
X71943742Y-133792980D01*
X71848504Y-133935838D01*
X71753266Y-134031076D01*
X71658028Y-134078695D01*
D11*
X123510523Y-42384738D02*
X123450047Y-42354500D01*
X123389571Y-42294023D01*
X123298857Y-42203309D01*
X123238380Y-42173071D01*
X123177904Y-42173071D01*
X123208142Y-42324261D02*
X123147666Y-42294023D01*
X123087190Y-42233547D01*
X123056952Y-42112595D01*
X123056952Y-41900928D01*
X123087190Y-41779976D01*
X123147666Y-41719500D01*
X123208142Y-41689261D01*
X123329095Y-41689261D01*
X123389571Y-41719500D01*
X123450047Y-41779976D01*
X123480285Y-41900928D01*
X123480285Y-42112595D01*
X123450047Y-42233547D01*
X123389571Y-42294023D01*
X123329095Y-42324261D01*
X123208142Y-42324261D01*
X124085047Y-42324261D02*
X123722190Y-42324261D01*
X123903619Y-42324261D02*
X123903619Y-41689261D01*
X123843142Y-41779976D01*
X123782666Y-41840452D01*
X123722190Y-41870690D01*
D10*
X62215780Y-107662504D02*
X62215780Y-107091076D01*
X63215780Y-107376790D02*
X62215780Y-107376790D01*
X63215780Y-106757742D02*
X62215780Y-106757742D01*
X62215780Y-106376790D01*
X62263400Y-106281552D01*
X62311019Y-106233933D01*
X62406257Y-106186314D01*
X62549114Y-106186314D01*
X62644352Y-106233933D01*
X62691971Y-106281552D01*
X62739590Y-106376790D01*
X62739590Y-106757742D01*
X62644352Y-105614885D02*
X62596733Y-105710123D01*
X62549114Y-105757742D01*
X62453876Y-105805361D01*
X62406257Y-105805361D01*
X62311019Y-105757742D01*
X62263400Y-105710123D01*
X62215780Y-105614885D01*
X62215780Y-105424409D01*
X62263400Y-105329171D01*
X62311019Y-105281552D01*
X62406257Y-105233933D01*
X62453876Y-105233933D01*
X62549114Y-105281552D01*
X62596733Y-105329171D01*
X62644352Y-105424409D01*
X62644352Y-105614885D01*
X62691971Y-105710123D01*
X62739590Y-105757742D01*
X62834828Y-105805361D01*
X63025304Y-105805361D01*
X63120542Y-105757742D01*
X63168161Y-105710123D01*
X63215780Y-105614885D01*
X63215780Y-105424409D01*
X63168161Y-105329171D01*
X63120542Y-105281552D01*
X63025304Y-105233933D01*
X62834828Y-105233933D01*
X62739590Y-105281552D01*
X62691971Y-105329171D01*
X62644352Y-105424409D01*
X69121495Y-57389780D02*
X69692923Y-57389780D01*
X69407209Y-58389780D02*
X69407209Y-57389780D01*
X70026257Y-58389780D02*
X70026257Y-57389780D01*
X70407209Y-57389780D01*
X70502447Y-57437400D01*
X70550066Y-57485019D01*
X70597685Y-57580257D01*
X70597685Y-57723114D01*
X70550066Y-57818352D01*
X70502447Y-57865971D01*
X70407209Y-57913590D01*
X70026257Y-57913590D01*
X71550066Y-58389780D02*
X70978638Y-58389780D01*
X71264352Y-58389780D02*
X71264352Y-57389780D01*
X71169114Y-57532638D01*
X71073876Y-57627876D01*
X70978638Y-57675495D01*
X158938980Y-148575495D02*
X158938980Y-148004066D01*
X159938980Y-148289780D02*
X158938980Y-148289780D01*
X159938980Y-147670733D02*
X158938980Y-147670733D01*
X158938980Y-147289780D01*
X158986600Y-147194542D01*
X159034219Y-147146923D01*
X159129457Y-147099304D01*
X159272314Y-147099304D01*
X159367552Y-147146923D01*
X159415171Y-147194542D01*
X159462790Y-147289780D01*
X159462790Y-147670733D01*
X158938980Y-146194542D02*
X158938980Y-146670733D01*
X159415171Y-146718352D01*
X159367552Y-146670733D01*
X159319933Y-146575495D01*
X159319933Y-146337400D01*
X159367552Y-146242161D01*
X159415171Y-146194542D01*
X159510409Y-146146923D01*
X159748504Y-146146923D01*
X159843742Y-146194542D01*
X159891361Y-146242161D01*
X159938980Y-146337400D01*
X159938980Y-146575495D01*
X159891361Y-146670733D01*
X159843742Y-146718352D01*
X158938980Y-145527876D02*
X158938980Y-145432638D01*
X158986600Y-145337400D01*
X159034219Y-145289780D01*
X159129457Y-145242161D01*
X159319933Y-145194542D01*
X159558028Y-145194542D01*
X159748504Y-145242161D01*
X159843742Y-145289780D01*
X159891361Y-145337400D01*
X159938980Y-145432638D01*
X159938980Y-145527876D01*
X159891361Y-145623114D01*
X159843742Y-145670733D01*
X159748504Y-145718352D01*
X159558028Y-145765971D01*
X159319933Y-145765971D01*
X159129457Y-145718352D01*
X159034219Y-145670733D01*
X158986600Y-145623114D01*
X158938980Y-145527876D01*
X89168504Y-113472980D02*
X89739933Y-113472980D01*
X89454219Y-114472980D02*
X89454219Y-113472980D01*
X90073266Y-114472980D02*
X90073266Y-113472980D01*
X90454219Y-113472980D01*
X90549457Y-113520600D01*
X90597076Y-113568219D01*
X90644695Y-113663457D01*
X90644695Y-113806314D01*
X90597076Y-113901552D01*
X90549457Y-113949171D01*
X90454219Y-113996790D01*
X90073266Y-113996790D01*
X90978028Y-113472980D02*
X91597076Y-113472980D01*
X91263742Y-113853933D01*
X91406600Y-113853933D01*
X91501838Y-113901552D01*
X91549457Y-113949171D01*
X91597076Y-114044409D01*
X91597076Y-114282504D01*
X91549457Y-114377742D01*
X91501838Y-114425361D01*
X91406600Y-114472980D01*
X91120885Y-114472980D01*
X91025647Y-114425361D01*
X90978028Y-114377742D01*
X91978028Y-113568219D02*
X92025647Y-113520600D01*
X92120885Y-113472980D01*
X92358980Y-113472980D01*
X92454219Y-113520600D01*
X92501838Y-113568219D01*
X92549457Y-113663457D01*
X92549457Y-113758695D01*
X92501838Y-113901552D01*
X91930409Y-114472980D01*
X92549457Y-114472980D01*
X139968504Y-123632980D02*
X140539933Y-123632980D01*
X140254219Y-124632980D02*
X140254219Y-123632980D01*
X140873266Y-124632980D02*
X140873266Y-123632980D01*
X141254219Y-123632980D01*
X141349457Y-123680600D01*
X141397076Y-123728219D01*
X141444695Y-123823457D01*
X141444695Y-123966314D01*
X141397076Y-124061552D01*
X141349457Y-124109171D01*
X141254219Y-124156790D01*
X140873266Y-124156790D01*
X142349457Y-123632980D02*
X141873266Y-123632980D01*
X141825647Y-124109171D01*
X141873266Y-124061552D01*
X141968504Y-124013933D01*
X142206600Y-124013933D01*
X142301838Y-124061552D01*
X142349457Y-124109171D01*
X142397076Y-124204409D01*
X142397076Y-124442504D01*
X142349457Y-124537742D01*
X142301838Y-124585361D01*
X142206600Y-124632980D01*
X141968504Y-124632980D01*
X141873266Y-124585361D01*
X141825647Y-124537742D01*
X142873266Y-124632980D02*
X143063742Y-124632980D01*
X143158980Y-124585361D01*
X143206600Y-124537742D01*
X143301838Y-124394885D01*
X143349457Y-124204409D01*
X143349457Y-123823457D01*
X143301838Y-123728219D01*
X143254219Y-123680600D01*
X143158980Y-123632980D01*
X142968504Y-123632980D01*
X142873266Y-123680600D01*
X142825647Y-123728219D01*
X142778028Y-123823457D01*
X142778028Y-124061552D01*
X142825647Y-124156790D01*
X142873266Y-124204409D01*
X142968504Y-124252028D01*
X143158980Y-124252028D01*
X143254219Y-124204409D01*
X143301838Y-124156790D01*
X143349457Y-124061552D01*
X109488504Y-154112980D02*
X110059933Y-154112980D01*
X109774219Y-155112980D02*
X109774219Y-154112980D01*
X110393266Y-155112980D02*
X110393266Y-154112980D01*
X110774219Y-154112980D01*
X110869457Y-154160600D01*
X110917076Y-154208219D01*
X110964695Y-154303457D01*
X110964695Y-154446314D01*
X110917076Y-154541552D01*
X110869457Y-154589171D01*
X110774219Y-154636790D01*
X110393266Y-154636790D01*
X111821838Y-154446314D02*
X111821838Y-155112980D01*
X111583742Y-154065361D02*
X111345647Y-154779647D01*
X111964695Y-154779647D01*
X112250409Y-154112980D02*
X112869457Y-154112980D01*
X112536123Y-154493933D01*
X112678980Y-154493933D01*
X112774219Y-154541552D01*
X112821838Y-154589171D01*
X112869457Y-154684409D01*
X112869457Y-154922504D01*
X112821838Y-155017742D01*
X112774219Y-155065361D01*
X112678980Y-155112980D01*
X112393266Y-155112980D01*
X112298028Y-155065361D01*
X112250409Y-155017742D01*
X162814095Y-167370380D02*
X162814095Y-166370380D01*
X162814095Y-166846571D02*
X163385523Y-166846571D01*
X163385523Y-167370380D02*
X163385523Y-166370380D01*
X164290285Y-166703714D02*
X164290285Y-167370380D01*
X164052190Y-166322761D02*
X163814095Y-167037047D01*
X164433142Y-167037047D01*
X68848504Y-72832980D02*
X69419933Y-72832980D01*
X69134219Y-73832980D02*
X69134219Y-72832980D01*
X69753266Y-73832980D02*
X69753266Y-72832980D01*
X70134219Y-72832980D01*
X70229457Y-72880600D01*
X70277076Y-72928219D01*
X70324695Y-73023457D01*
X70324695Y-73166314D01*
X70277076Y-73261552D01*
X70229457Y-73309171D01*
X70134219Y-73356790D01*
X69753266Y-73356790D01*
X71277076Y-73832980D02*
X70705647Y-73832980D01*
X70991361Y-73832980D02*
X70991361Y-72832980D01*
X70896123Y-72975838D01*
X70800885Y-73071076D01*
X70705647Y-73118695D01*
X72229457Y-73832980D02*
X71658028Y-73832980D01*
X71943742Y-73832980D02*
X71943742Y-72832980D01*
X71848504Y-72975838D01*
X71753266Y-73071076D01*
X71658028Y-73118695D01*
X150128504Y-93152980D02*
X150699933Y-93152980D01*
X150414219Y-94152980D02*
X150414219Y-93152980D01*
X151033266Y-94152980D02*
X151033266Y-93152980D01*
X151414219Y-93152980D01*
X151509457Y-93200600D01*
X151557076Y-93248219D01*
X151604695Y-93343457D01*
X151604695Y-93486314D01*
X151557076Y-93581552D01*
X151509457Y-93629171D01*
X151414219Y-93676790D01*
X151033266Y-93676790D01*
X151985647Y-93248219D02*
X152033266Y-93200600D01*
X152128504Y-93152980D01*
X152366600Y-93152980D01*
X152461838Y-93200600D01*
X152509457Y-93248219D01*
X152557076Y-93343457D01*
X152557076Y-93438695D01*
X152509457Y-93581552D01*
X151938028Y-94152980D01*
X152557076Y-94152980D01*
X153461838Y-93152980D02*
X152985647Y-93152980D01*
X152938028Y-93629171D01*
X152985647Y-93581552D01*
X153080885Y-93533933D01*
X153318980Y-93533933D01*
X153414219Y-93581552D01*
X153461838Y-93629171D01*
X153509457Y-93724409D01*
X153509457Y-93962504D01*
X153461838Y-94057742D01*
X153414219Y-94105361D01*
X153318980Y-94152980D01*
X153080885Y-94152980D01*
X152985647Y-94105361D01*
X152938028Y-94057742D01*
X99328504Y-82992980D02*
X99899933Y-82992980D01*
X99614219Y-83992980D02*
X99614219Y-82992980D01*
X100233266Y-83992980D02*
X100233266Y-82992980D01*
X100614219Y-82992980D01*
X100709457Y-83040600D01*
X100757076Y-83088219D01*
X100804695Y-83183457D01*
X100804695Y-83326314D01*
X100757076Y-83421552D01*
X100709457Y-83469171D01*
X100614219Y-83516790D01*
X100233266Y-83516790D01*
X101185647Y-83088219D02*
X101233266Y-83040600D01*
X101328504Y-82992980D01*
X101566600Y-82992980D01*
X101661838Y-83040600D01*
X101709457Y-83088219D01*
X101757076Y-83183457D01*
X101757076Y-83278695D01*
X101709457Y-83421552D01*
X101138028Y-83992980D01*
X101757076Y-83992980D01*
X102090409Y-82992980D02*
X102757076Y-82992980D01*
X102328504Y-83992980D01*
X119648504Y-62672980D02*
X120219933Y-62672980D01*
X119934219Y-63672980D02*
X119934219Y-62672980D01*
X120553266Y-63672980D02*
X120553266Y-62672980D01*
X120934219Y-62672980D01*
X121029457Y-62720600D01*
X121077076Y-62768219D01*
X121124695Y-62863457D01*
X121124695Y-63006314D01*
X121077076Y-63101552D01*
X121029457Y-63149171D01*
X120934219Y-63196790D01*
X120553266Y-63196790D01*
X121458028Y-62672980D02*
X122077076Y-62672980D01*
X121743742Y-63053933D01*
X121886600Y-63053933D01*
X121981838Y-63101552D01*
X122029457Y-63149171D01*
X122077076Y-63244409D01*
X122077076Y-63482504D01*
X122029457Y-63577742D01*
X121981838Y-63625361D01*
X121886600Y-63672980D01*
X121600885Y-63672980D01*
X121505647Y-63625361D01*
X121458028Y-63577742D01*
X122934219Y-62672980D02*
X122743742Y-62672980D01*
X122648504Y-62720600D01*
X122600885Y-62768219D01*
X122505647Y-62911076D01*
X122458028Y-63101552D01*
X122458028Y-63482504D01*
X122505647Y-63577742D01*
X122553266Y-63625361D01*
X122648504Y-63672980D01*
X122838980Y-63672980D01*
X122934219Y-63625361D01*
X122981838Y-63577742D01*
X123029457Y-63482504D01*
X123029457Y-63244409D01*
X122981838Y-63149171D01*
X122934219Y-63101552D01*
X122838980Y-63053933D01*
X122648504Y-63053933D01*
X122553266Y-63101552D01*
X122505647Y-63149171D01*
X122458028Y-63244409D01*
X58674095Y-36226380D02*
X58674095Y-35226380D01*
X58674095Y-35702571D02*
X59245523Y-35702571D01*
X59245523Y-36226380D02*
X59245523Y-35226380D01*
X59626476Y-35226380D02*
X60245523Y-35226380D01*
X59912190Y-35607333D01*
X60055047Y-35607333D01*
X60150285Y-35654952D01*
X60197904Y-35702571D01*
X60245523Y-35797809D01*
X60245523Y-36035904D01*
X60197904Y-36131142D01*
X60150285Y-36178761D01*
X60055047Y-36226380D01*
X59769333Y-36226380D01*
X59674095Y-36178761D01*
X59626476Y-36131142D01*
X79008504Y-123632980D02*
X79579933Y-123632980D01*
X79294219Y-124632980D02*
X79294219Y-123632980D01*
X79913266Y-124632980D02*
X79913266Y-123632980D01*
X80294219Y-123632980D01*
X80389457Y-123680600D01*
X80437076Y-123728219D01*
X80484695Y-123823457D01*
X80484695Y-123966314D01*
X80437076Y-124061552D01*
X80389457Y-124109171D01*
X80294219Y-124156790D01*
X79913266Y-124156790D01*
X81437076Y-124632980D02*
X80865647Y-124632980D01*
X81151361Y-124632980D02*
X81151361Y-123632980D01*
X81056123Y-123775838D01*
X80960885Y-123871076D01*
X80865647Y-123918695D01*
X81913266Y-124632980D02*
X82103742Y-124632980D01*
X82198980Y-124585361D01*
X82246600Y-124537742D01*
X82341838Y-124394885D01*
X82389457Y-124204409D01*
X82389457Y-123823457D01*
X82341838Y-123728219D01*
X82294219Y-123680600D01*
X82198980Y-123632980D01*
X82008504Y-123632980D01*
X81913266Y-123680600D01*
X81865647Y-123728219D01*
X81818028Y-123823457D01*
X81818028Y-124061552D01*
X81865647Y-124156790D01*
X81913266Y-124204409D01*
X82008504Y-124252028D01*
X82198980Y-124252028D01*
X82294219Y-124204409D01*
X82341838Y-124156790D01*
X82389457Y-124061552D01*
X158938980Y-107935495D02*
X158938980Y-107364066D01*
X159938980Y-107649780D02*
X158938980Y-107649780D01*
X159938980Y-107030733D02*
X158938980Y-107030733D01*
X158938980Y-106649780D01*
X158986600Y-106554542D01*
X159034219Y-106506923D01*
X159129457Y-106459304D01*
X159272314Y-106459304D01*
X159367552Y-106506923D01*
X159415171Y-106554542D01*
X159462790Y-106649780D01*
X159462790Y-107030733D01*
X159272314Y-105602161D02*
X159938980Y-105602161D01*
X158891361Y-105840257D02*
X159605647Y-106078352D01*
X159605647Y-105459304D01*
X159367552Y-104935495D02*
X159319933Y-105030733D01*
X159272314Y-105078352D01*
X159177076Y-105125971D01*
X159129457Y-105125971D01*
X159034219Y-105078352D01*
X158986600Y-105030733D01*
X158938980Y-104935495D01*
X158938980Y-104745019D01*
X158986600Y-104649780D01*
X159034219Y-104602161D01*
X159129457Y-104554542D01*
X159177076Y-104554542D01*
X159272314Y-104602161D01*
X159319933Y-104649780D01*
X159367552Y-104745019D01*
X159367552Y-104935495D01*
X159415171Y-105030733D01*
X159462790Y-105078352D01*
X159558028Y-105125971D01*
X159748504Y-105125971D01*
X159843742Y-105078352D01*
X159891361Y-105030733D01*
X159938980Y-104935495D01*
X159938980Y-104745019D01*
X159891361Y-104649780D01*
X159843742Y-104602161D01*
X159748504Y-104554542D01*
X159558028Y-104554542D01*
X159462790Y-104602161D01*
X159415171Y-104649780D01*
X159367552Y-104745019D01*
X109488504Y-133792980D02*
X110059933Y-133792980D01*
X109774219Y-134792980D02*
X109774219Y-133792980D01*
X110393266Y-134792980D02*
X110393266Y-133792980D01*
X110774219Y-133792980D01*
X110869457Y-133840600D01*
X110917076Y-133888219D01*
X110964695Y-133983457D01*
X110964695Y-134126314D01*
X110917076Y-134221552D01*
X110869457Y-134269171D01*
X110774219Y-134316790D01*
X110393266Y-134316790D01*
X111869457Y-133792980D02*
X111393266Y-133792980D01*
X111345647Y-134269171D01*
X111393266Y-134221552D01*
X111488504Y-134173933D01*
X111726600Y-134173933D01*
X111821838Y-134221552D01*
X111869457Y-134269171D01*
X111917076Y-134364409D01*
X111917076Y-134602504D01*
X111869457Y-134697742D01*
X111821838Y-134745361D01*
X111726600Y-134792980D01*
X111488504Y-134792980D01*
X111393266Y-134745361D01*
X111345647Y-134697742D01*
X112250409Y-133792980D02*
X112869457Y-133792980D01*
X112536123Y-134173933D01*
X112678980Y-134173933D01*
X112774219Y-134221552D01*
X112821838Y-134269171D01*
X112869457Y-134364409D01*
X112869457Y-134602504D01*
X112821838Y-134697742D01*
X112774219Y-134745361D01*
X112678980Y-134792980D01*
X112393266Y-134792980D01*
X112298028Y-134745361D01*
X112250409Y-134697742D01*
X130081495Y-57389780D02*
X130652923Y-57389780D01*
X130367209Y-58389780D02*
X130367209Y-57389780D01*
X130986257Y-58389780D02*
X130986257Y-57389780D01*
X131367209Y-57389780D01*
X131462447Y-57437400D01*
X131510066Y-57485019D01*
X131557685Y-57580257D01*
X131557685Y-57723114D01*
X131510066Y-57818352D01*
X131462447Y-57865971D01*
X131367209Y-57913590D01*
X130986257Y-57913590D01*
X132414828Y-57723114D02*
X132414828Y-58389780D01*
X132176733Y-57342161D02*
X131938638Y-58056447D01*
X132557685Y-58056447D01*
X89168504Y-93152980D02*
X89739933Y-93152980D01*
X89454219Y-94152980D02*
X89454219Y-93152980D01*
X90073266Y-94152980D02*
X90073266Y-93152980D01*
X90454219Y-93152980D01*
X90549457Y-93200600D01*
X90597076Y-93248219D01*
X90644695Y-93343457D01*
X90644695Y-93486314D01*
X90597076Y-93581552D01*
X90549457Y-93629171D01*
X90454219Y-93676790D01*
X90073266Y-93676790D01*
X91025647Y-93248219D02*
X91073266Y-93200600D01*
X91168504Y-93152980D01*
X91406600Y-93152980D01*
X91501838Y-93200600D01*
X91549457Y-93248219D01*
X91597076Y-93343457D01*
X91597076Y-93438695D01*
X91549457Y-93581552D01*
X90978028Y-94152980D01*
X91597076Y-94152980D01*
X91978028Y-93248219D02*
X92025647Y-93200600D01*
X92120885Y-93152980D01*
X92358980Y-93152980D01*
X92454219Y-93200600D01*
X92501838Y-93248219D01*
X92549457Y-93343457D01*
X92549457Y-93438695D01*
X92501838Y-93581552D01*
X91930409Y-94152980D01*
X92549457Y-94152980D01*
X62215780Y-87342504D02*
X62215780Y-86771076D01*
X63215780Y-87056790D02*
X62215780Y-87056790D01*
X63215780Y-86437742D02*
X62215780Y-86437742D01*
X62215780Y-86056790D01*
X62263400Y-85961552D01*
X62311019Y-85913933D01*
X62406257Y-85866314D01*
X62549114Y-85866314D01*
X62644352Y-85913933D01*
X62691971Y-85961552D01*
X62739590Y-86056790D01*
X62739590Y-86437742D01*
X62215780Y-85532980D02*
X62215780Y-84866314D01*
X63215780Y-85294885D01*
X109761495Y-57389780D02*
X110332923Y-57389780D01*
X110047209Y-58389780D02*
X110047209Y-57389780D01*
X110666257Y-58389780D02*
X110666257Y-57389780D01*
X111047209Y-57389780D01*
X111142447Y-57437400D01*
X111190066Y-57485019D01*
X111237685Y-57580257D01*
X111237685Y-57723114D01*
X111190066Y-57818352D01*
X111142447Y-57865971D01*
X111047209Y-57913590D01*
X110666257Y-57913590D01*
X111571019Y-57389780D02*
X112190066Y-57389780D01*
X111856733Y-57770733D01*
X111999590Y-57770733D01*
X112094828Y-57818352D01*
X112142447Y-57865971D01*
X112190066Y-57961209D01*
X112190066Y-58199304D01*
X112142447Y-58294542D01*
X112094828Y-58342161D01*
X111999590Y-58389780D01*
X111713876Y-58389780D01*
X111618638Y-58342161D01*
X111571019Y-58294542D01*
X62215780Y-148778695D02*
X62215780Y-148207266D01*
X63215780Y-148492980D02*
X62215780Y-148492980D01*
X63215780Y-147873933D02*
X62215780Y-147873933D01*
X62215780Y-147492980D01*
X62263400Y-147397742D01*
X62311019Y-147350123D01*
X62406257Y-147302504D01*
X62549114Y-147302504D01*
X62644352Y-147350123D01*
X62691971Y-147397742D01*
X62739590Y-147492980D01*
X62739590Y-147873933D01*
X63215780Y-146350123D02*
X63215780Y-146921552D01*
X63215780Y-146635838D02*
X62215780Y-146635838D01*
X62358638Y-146731076D01*
X62453876Y-146826314D01*
X62501495Y-146921552D01*
X62215780Y-145731076D02*
X62215780Y-145635838D01*
X62263400Y-145540600D01*
X62311019Y-145492980D01*
X62406257Y-145445361D01*
X62596733Y-145397742D01*
X62834828Y-145397742D01*
X63025304Y-145445361D01*
X63120542Y-145492980D01*
X63168161Y-145540600D01*
X63215780Y-145635838D01*
X63215780Y-145731076D01*
X63168161Y-145826314D01*
X63120542Y-145873933D01*
X63025304Y-145921552D01*
X62834828Y-145969171D01*
X62596733Y-145969171D01*
X62406257Y-145921552D01*
X62311019Y-145873933D01*
X62263400Y-145826314D01*
X62215780Y-145731076D01*
X62215780Y-127982504D02*
X62215780Y-127411076D01*
X63215780Y-127696790D02*
X62215780Y-127696790D01*
X63215780Y-127077742D02*
X62215780Y-127077742D01*
X62215780Y-126696790D01*
X62263400Y-126601552D01*
X62311019Y-126553933D01*
X62406257Y-126506314D01*
X62549114Y-126506314D01*
X62644352Y-126553933D01*
X62691971Y-126601552D01*
X62739590Y-126696790D01*
X62739590Y-127077742D01*
X63215780Y-126030123D02*
X63215780Y-125839647D01*
X63168161Y-125744409D01*
X63120542Y-125696790D01*
X62977685Y-125601552D01*
X62787209Y-125553933D01*
X62406257Y-125553933D01*
X62311019Y-125601552D01*
X62263400Y-125649171D01*
X62215780Y-125744409D01*
X62215780Y-125934885D01*
X62263400Y-126030123D01*
X62311019Y-126077742D01*
X62406257Y-126125361D01*
X62644352Y-126125361D01*
X62739590Y-126077742D01*
X62787209Y-126030123D01*
X62834828Y-125934885D01*
X62834828Y-125744409D01*
X62787209Y-125649171D01*
X62739590Y-125601552D01*
X62644352Y-125553933D01*
D11*
X108049785Y-39221833D02*
X108080023Y-39252071D01*
X108110261Y-39342785D01*
X108110261Y-39403261D01*
X108080023Y-39493976D01*
X108019547Y-39554452D01*
X107959071Y-39584690D01*
X107838119Y-39614928D01*
X107747404Y-39614928D01*
X107626452Y-39584690D01*
X107565976Y-39554452D01*
X107505500Y-39493976D01*
X107475261Y-39403261D01*
X107475261Y-39342785D01*
X107505500Y-39252071D01*
X107535738Y-39221833D01*
X107535738Y-38979928D02*
X107505500Y-38949690D01*
X107475261Y-38889214D01*
X107475261Y-38738023D01*
X107505500Y-38677547D01*
X107535738Y-38647309D01*
X107596214Y-38617071D01*
X107656690Y-38617071D01*
X107747404Y-38647309D01*
X108110261Y-39010166D01*
X108110261Y-38617071D01*
D10*
X68848504Y-113472980D02*
X69419933Y-113472980D01*
X69134219Y-114472980D02*
X69134219Y-113472980D01*
X69753266Y-114472980D02*
X69753266Y-113472980D01*
X70134219Y-113472980D01*
X70229457Y-113520600D01*
X70277076Y-113568219D01*
X70324695Y-113663457D01*
X70324695Y-113806314D01*
X70277076Y-113901552D01*
X70229457Y-113949171D01*
X70134219Y-113996790D01*
X69753266Y-113996790D01*
X70658028Y-113472980D02*
X71277076Y-113472980D01*
X70943742Y-113853933D01*
X71086600Y-113853933D01*
X71181838Y-113901552D01*
X71229457Y-113949171D01*
X71277076Y-114044409D01*
X71277076Y-114282504D01*
X71229457Y-114377742D01*
X71181838Y-114425361D01*
X71086600Y-114472980D01*
X70800885Y-114472980D01*
X70705647Y-114425361D01*
X70658028Y-114377742D01*
X72229457Y-114472980D02*
X71658028Y-114472980D01*
X71943742Y-114472980D02*
X71943742Y-113472980D01*
X71848504Y-113615838D01*
X71753266Y-113711076D01*
X71658028Y-113758695D01*
X119648504Y-103312980D02*
X120219933Y-103312980D01*
X119934219Y-104312980D02*
X119934219Y-103312980D01*
X120553266Y-104312980D02*
X120553266Y-103312980D01*
X120934219Y-103312980D01*
X121029457Y-103360600D01*
X121077076Y-103408219D01*
X121124695Y-103503457D01*
X121124695Y-103646314D01*
X121077076Y-103741552D01*
X121029457Y-103789171D01*
X120934219Y-103836790D01*
X120553266Y-103836790D01*
X121458028Y-103312980D02*
X122077076Y-103312980D01*
X121743742Y-103693933D01*
X121886600Y-103693933D01*
X121981838Y-103741552D01*
X122029457Y-103789171D01*
X122077076Y-103884409D01*
X122077076Y-104122504D01*
X122029457Y-104217742D01*
X121981838Y-104265361D01*
X121886600Y-104312980D01*
X121600885Y-104312980D01*
X121505647Y-104265361D01*
X121458028Y-104217742D01*
X122648504Y-103741552D02*
X122553266Y-103693933D01*
X122505647Y-103646314D01*
X122458028Y-103551076D01*
X122458028Y-103503457D01*
X122505647Y-103408219D01*
X122553266Y-103360600D01*
X122648504Y-103312980D01*
X122838980Y-103312980D01*
X122934219Y-103360600D01*
X122981838Y-103408219D01*
X123029457Y-103503457D01*
X123029457Y-103551076D01*
X122981838Y-103646314D01*
X122934219Y-103693933D01*
X122838980Y-103741552D01*
X122648504Y-103741552D01*
X122553266Y-103789171D01*
X122505647Y-103836790D01*
X122458028Y-103932028D01*
X122458028Y-104122504D01*
X122505647Y-104217742D01*
X122553266Y-104265361D01*
X122648504Y-104312980D01*
X122838980Y-104312980D01*
X122934219Y-104265361D01*
X122981838Y-104217742D01*
X123029457Y-104122504D01*
X123029457Y-103932028D01*
X122981838Y-103836790D01*
X122934219Y-103789171D01*
X122838980Y-103741552D01*
X89441495Y-57389780D02*
X90012923Y-57389780D01*
X89727209Y-58389780D02*
X89727209Y-57389780D01*
X90346257Y-58389780D02*
X90346257Y-57389780D01*
X90727209Y-57389780D01*
X90822447Y-57437400D01*
X90870066Y-57485019D01*
X90917685Y-57580257D01*
X90917685Y-57723114D01*
X90870066Y-57818352D01*
X90822447Y-57865971D01*
X90727209Y-57913590D01*
X90346257Y-57913590D01*
X91298638Y-57485019D02*
X91346257Y-57437400D01*
X91441495Y-57389780D01*
X91679590Y-57389780D01*
X91774828Y-57437400D01*
X91822447Y-57485019D01*
X91870066Y-57580257D01*
X91870066Y-57675495D01*
X91822447Y-57818352D01*
X91251019Y-58389780D01*
X91870066Y-58389780D01*
X89168504Y-72832980D02*
X89739933Y-72832980D01*
X89454219Y-73832980D02*
X89454219Y-72832980D01*
X90073266Y-73832980D02*
X90073266Y-72832980D01*
X90454219Y-72832980D01*
X90549457Y-72880600D01*
X90597076Y-72928219D01*
X90644695Y-73023457D01*
X90644695Y-73166314D01*
X90597076Y-73261552D01*
X90549457Y-73309171D01*
X90454219Y-73356790D01*
X90073266Y-73356790D01*
X91597076Y-73832980D02*
X91025647Y-73832980D01*
X91311361Y-73832980D02*
X91311361Y-72832980D01*
X91216123Y-72975838D01*
X91120885Y-73071076D01*
X91025647Y-73118695D01*
X91978028Y-72928219D02*
X92025647Y-72880600D01*
X92120885Y-72832980D01*
X92358980Y-72832980D01*
X92454219Y-72880600D01*
X92501838Y-72928219D01*
X92549457Y-73023457D01*
X92549457Y-73118695D01*
X92501838Y-73261552D01*
X91930409Y-73832980D01*
X92549457Y-73832980D01*
X158938980Y-67295495D02*
X158938980Y-66724066D01*
X159938980Y-67009780D02*
X158938980Y-67009780D01*
X159938980Y-66390733D02*
X158938980Y-66390733D01*
X158938980Y-66009780D01*
X158986600Y-65914542D01*
X159034219Y-65866923D01*
X159129457Y-65819304D01*
X159272314Y-65819304D01*
X159367552Y-65866923D01*
X159415171Y-65914542D01*
X159462790Y-66009780D01*
X159462790Y-66390733D01*
X159272314Y-64962161D02*
X159938980Y-64962161D01*
X158891361Y-65200257D02*
X159605647Y-65438352D01*
X159605647Y-64819304D01*
X158938980Y-64009780D02*
X158938980Y-64200257D01*
X158986600Y-64295495D01*
X159034219Y-64343114D01*
X159177076Y-64438352D01*
X159367552Y-64485971D01*
X159748504Y-64485971D01*
X159843742Y-64438352D01*
X159891361Y-64390733D01*
X159938980Y-64295495D01*
X159938980Y-64105019D01*
X159891361Y-64009780D01*
X159843742Y-63962161D01*
X159748504Y-63914542D01*
X159510409Y-63914542D01*
X159415171Y-63962161D01*
X159367552Y-64009780D01*
X159319933Y-64105019D01*
X159319933Y-64295495D01*
X159367552Y-64390733D01*
X159415171Y-64438352D01*
X159510409Y-64485971D01*
D11*
X106779785Y-45571833D02*
X106810023Y-45602071D01*
X106840261Y-45692785D01*
X106840261Y-45753261D01*
X106810023Y-45843976D01*
X106749547Y-45904452D01*
X106689071Y-45934690D01*
X106568119Y-45964928D01*
X106477404Y-45964928D01*
X106356452Y-45934690D01*
X106295976Y-45904452D01*
X106235500Y-45843976D01*
X106205261Y-45753261D01*
X106205261Y-45692785D01*
X106235500Y-45602071D01*
X106265738Y-45571833D01*
X106205261Y-45360166D02*
X106205261Y-44967071D01*
X106447166Y-45178738D01*
X106447166Y-45088023D01*
X106477404Y-45027547D01*
X106507642Y-44997309D01*
X106568119Y-44967071D01*
X106719309Y-44967071D01*
X106779785Y-44997309D01*
X106810023Y-45027547D01*
X106840261Y-45088023D01*
X106840261Y-45269452D01*
X106810023Y-45329928D01*
X106779785Y-45360166D01*
D13*
X85457420Y-47500000D02*
X85738580Y-47500000D01*
X85457420Y-46480000D02*
X85738580Y-46480000D01*
X106043000Y-39991420D02*
X106043000Y-40272580D01*
X107063000Y-39991420D02*
X107063000Y-40272580D01*
X129132359Y-44832000D02*
X129439641Y-44832000D01*
X129132359Y-45592000D02*
X129439641Y-45592000D01*
X90425000Y-46963359D02*
X90425000Y-47270641D01*
X91185000Y-46963359D02*
X91185000Y-47270641D01*
X85836000Y-44972000D02*
X85836000Y-44472000D01*
X97836000Y-44972000D02*
X97836000Y-44472000D01*
X83726000Y-40562000D02*
X82476000Y-40562000D01*
X89736000Y-44972000D02*
X89736000Y-44472000D01*
X91836000Y-44972000D02*
X91836000Y-44472000D01*
X85736000Y-44472000D02*
X85936000Y-44472000D01*
X95836000Y-44972000D02*
X95836000Y-44472000D01*
X100286000Y-41472000D02*
X98336000Y-41472000D01*
X85336000Y-41472000D02*
X83386000Y-41472000D01*
X83386000Y-44972000D02*
X100286000Y-44972000D01*
X98336000Y-41472000D02*
X98336000Y-40862000D01*
X87936000Y-44472000D02*
X87936000Y-44972000D01*
X85736000Y-44972000D02*
X85736000Y-44472000D01*
X95736000Y-44972000D02*
X95736000Y-44472000D01*
X100896000Y-43472000D02*
X100286000Y-43472000D01*
X91736000Y-44472000D02*
X91936000Y-44472000D01*
X95936000Y-44472000D02*
X95936000Y-44972000D01*
X95736000Y-44472000D02*
X95936000Y-44472000D01*
X100896000Y-40862000D02*
X82776000Y-40862000D01*
X100896000Y-42172000D02*
X100286000Y-42172000D01*
X91736000Y-44972000D02*
X91736000Y-44472000D01*
X84236000Y-40662000D02*
X84236000Y-40862000D01*
X100286000Y-44972000D02*
X100286000Y-41472000D01*
X82776000Y-43472000D02*
X83386000Y-43472000D01*
X84536000Y-40862000D02*
X84536000Y-40662000D01*
X84536000Y-40662000D02*
X84236000Y-40662000D01*
X93836000Y-44972000D02*
X93836000Y-44472000D01*
X97736000Y-44972000D02*
X97736000Y-44472000D01*
X84536000Y-40762000D02*
X84236000Y-40762000D01*
X89736000Y-44472000D02*
X89936000Y-44472000D01*
X97736000Y-44472000D02*
X97936000Y-44472000D01*
X85336000Y-40862000D02*
X85336000Y-41472000D01*
X89836000Y-44972000D02*
X89836000Y-44472000D01*
X82776000Y-42172000D02*
X83386000Y-42172000D01*
X87736000Y-44472000D02*
X87936000Y-44472000D01*
X87736000Y-44972000D02*
X87736000Y-44472000D01*
X83386000Y-41472000D02*
X83386000Y-44972000D01*
X91936000Y-44472000D02*
X91936000Y-44972000D01*
X93736000Y-44972000D02*
X93736000Y-44472000D01*
X97936000Y-44472000D02*
X97936000Y-44972000D01*
X82476000Y-40562000D02*
X82476000Y-41812000D01*
X93736000Y-44472000D02*
X93936000Y-44472000D01*
X82776000Y-40862000D02*
X82776000Y-45582000D01*
X82776000Y-45582000D02*
X100896000Y-45582000D01*
X93936000Y-44472000D02*
X93936000Y-44972000D01*
X87836000Y-44972000D02*
X87836000Y-44472000D01*
X89936000Y-44472000D02*
X89936000Y-44972000D01*
X85936000Y-44472000D02*
X85936000Y-44972000D01*
X100896000Y-45582000D02*
X100896000Y-40862000D01*
X127093000Y-44521000D02*
X129778000Y-44521000D01*
X127093000Y-42601000D02*
X127093000Y-44521000D01*
X129778000Y-42601000D02*
X127093000Y-42601000D01*
X107463000Y-42779836D02*
X107463000Y-42564164D01*
X108183000Y-42779836D02*
X108183000Y-42564164D01*
X141676253Y-41345598D02*
X141640120Y-41358885D01*
X143677214Y-42757709D02*
X143665238Y-42716838D01*
X141196072Y-41363014D02*
X141174365Y-41379158D01*
X141360790Y-41400567D02*
X141346206Y-41409661D01*
X140912774Y-44139193D02*
X141003108Y-44137000D01*
X141148995Y-41399382D02*
X141124079Y-41420273D01*
X143752619Y-43557149D02*
X143679223Y-43563427D01*
X140141268Y-42105682D02*
X140137106Y-42122487D01*
X142961564Y-41592753D02*
X142936952Y-41584312D01*
X143234063Y-41789401D02*
X143240151Y-41776919D01*
X142750185Y-41457413D02*
X142665781Y-41439885D01*
X142307335Y-44139366D02*
X142571984Y-44139859D01*
X143679223Y-43563427D02*
X143604293Y-43575748D01*
X143436612Y-42023373D02*
X143447836Y-42014029D01*
X143604293Y-43575748D02*
X143528001Y-43588847D01*
X140022908Y-42176534D02*
X140023285Y-42238673D01*
X143815799Y-43555970D02*
X143752619Y-43557149D01*
X139885455Y-42874223D02*
X139878273Y-42885465D01*
X142647940Y-41369491D02*
X142663197Y-41339987D01*
X140109676Y-42147369D02*
X140072684Y-42134987D01*
X143546403Y-43361366D02*
X143552984Y-43338093D01*
X142571984Y-44139859D02*
X142831625Y-44138376D01*
X143248370Y-41762362D02*
X143258104Y-41747221D01*
X140556365Y-44132856D02*
X140600080Y-44137109D01*
X142885154Y-41481959D02*
X142844918Y-41474910D01*
X143289166Y-41833038D02*
X143273156Y-41825200D01*
X143602684Y-42309034D02*
X143621852Y-42300607D01*
X141619841Y-41319162D02*
X141614536Y-41286588D01*
X142798103Y-41466412D02*
X142750185Y-41457413D01*
X143480126Y-41990196D02*
X143490468Y-41983227D01*
X142950132Y-41556320D02*
X142962053Y-41540784D01*
X139878273Y-42885465D02*
X139872213Y-42896891D01*
X143100340Y-41640258D02*
X143059614Y-41625889D01*
X143638451Y-42437170D02*
X143621353Y-42416598D01*
X141174365Y-41379158D02*
X141148995Y-41399382D01*
X143685764Y-42497861D02*
X143666222Y-42473831D01*
X143218260Y-41685074D02*
X143192703Y-41675119D01*
X143369044Y-41893479D02*
X143330049Y-41865315D01*
X143554818Y-42334284D02*
X143567371Y-42326488D01*
X143192703Y-41675119D02*
X143167684Y-41665288D01*
X141326270Y-43952565D02*
X141455193Y-43950407D01*
X140041173Y-42124394D02*
X140028589Y-42120503D01*
X142924689Y-41488001D02*
X142907684Y-41485489D01*
X143706970Y-42522786D02*
X143685764Y-42497861D01*
X143650125Y-42977759D02*
X143702420Y-42984951D01*
X143567371Y-42326488D02*
X143583523Y-42317835D01*
X139792468Y-42988433D02*
X139730206Y-43035786D01*
X140967246Y-41422232D02*
X140837465Y-41540919D01*
X143258104Y-41747221D02*
X143283524Y-41709812D01*
X143754003Y-42608303D02*
X143770681Y-42603185D01*
X143603589Y-42396578D02*
X143587990Y-42380469D01*
X140539362Y-41673382D02*
X140522719Y-41694446D01*
X143240151Y-41776919D02*
X143248370Y-41762362D01*
X140056028Y-42129241D02*
X140041173Y-42124394D01*
X143771350Y-42596634D02*
X143759170Y-42581656D01*
X143564944Y-43291198D02*
X143613127Y-43296904D01*
X143460101Y-42004417D02*
X143471601Y-41995892D01*
X141397001Y-41381223D02*
X141378718Y-41390569D01*
X140685891Y-41639927D02*
X140678364Y-41627487D01*
X143240937Y-41693832D02*
X143218260Y-41685074D01*
X140463511Y-41761863D02*
X140408216Y-41734810D01*
X140693092Y-41650385D02*
X140685891Y-41639927D01*
X143759170Y-42581656D02*
X143744311Y-42564274D01*
X143645499Y-42631599D02*
X143709091Y-42618958D01*
X143315540Y-41849462D02*
X143303804Y-41841495D01*
X143418345Y-41927420D02*
X143369044Y-41893479D01*
X139849389Y-42937660D02*
X139792468Y-42988433D01*
X143661310Y-43302611D02*
X143655718Y-43140185D01*
X143563055Y-42353827D02*
X143554225Y-42342796D01*
X143182568Y-43894482D02*
X143255618Y-43873646D01*
X140320297Y-41761340D02*
X140302763Y-41837406D01*
X140277234Y-41927158D02*
X140266822Y-41918708D01*
X141766099Y-41311003D02*
X141718089Y-41329776D01*
X140837465Y-41540919D02*
X140787326Y-41586433D01*
X143666222Y-42473831D02*
X143651988Y-42454987D01*
X143595912Y-42227959D02*
X143560612Y-42193748D01*
X141103760Y-41438488D02*
X141085582Y-41454638D01*
X143587990Y-42380469D02*
X143574464Y-42366685D01*
X141412684Y-41374149D02*
X141397001Y-41381223D01*
X144780000Y-41148000D02*
X138811000Y-41148000D01*
X143273156Y-41825200D02*
X143257655Y-41817396D01*
X139635602Y-43074421D02*
X139611819Y-43078658D01*
X138430000Y-44323000D02*
X144780000Y-44323000D01*
X141511639Y-41326052D02*
X141457318Y-41353933D01*
X143344524Y-43844443D02*
X143447171Y-43807746D01*
X143744311Y-42564274D02*
X143726681Y-42544770D01*
X141378718Y-41390569D02*
X141360790Y-41400567D01*
X143705651Y-42844987D02*
X143691314Y-42802545D01*
X141718089Y-41329776D02*
X141676253Y-41345598D01*
X139708657Y-43641892D02*
X139846061Y-43741104D01*
X142026322Y-41312761D02*
X141981256Y-41325517D01*
X141231615Y-41339613D02*
X141196072Y-41363014D01*
X143574464Y-42366685D02*
X143563055Y-42353827D01*
X140619628Y-41571394D02*
X140602548Y-41587662D01*
X141562309Y-41298070D02*
X141511639Y-41326052D01*
X143500679Y-43492200D02*
X143511854Y-43461982D01*
X142959167Y-41493684D02*
X142942712Y-41490878D01*
X140024701Y-42312487D02*
X140026663Y-42443402D01*
X141622560Y-41334807D02*
X141619841Y-41319162D01*
X143651988Y-42454987D02*
X143638451Y-42437170D01*
X143535969Y-43393829D02*
X143546403Y-43361366D01*
X140505597Y-41714494D02*
X140463511Y-41761863D01*
X143621852Y-42300607D02*
X143637996Y-42293106D01*
X139581201Y-43535622D02*
X139708657Y-43641892D01*
X143637996Y-42293106D02*
X143651816Y-42286407D01*
X143059614Y-41625889D02*
X143022684Y-41613332D01*
X143447836Y-42014029D02*
X143460101Y-42004417D01*
X143478830Y-41967167D02*
X143418345Y-41927420D01*
X141003108Y-44137000D02*
X141078781Y-44133933D01*
X143726681Y-42544770D02*
X143706970Y-42522786D01*
X142942712Y-41490878D02*
X142924689Y-41488001D01*
X141814845Y-41291891D02*
X141766099Y-41311003D01*
X143283524Y-41709812D02*
X143255604Y-41699390D01*
X142844918Y-41474910D02*
X142798103Y-41466412D01*
X140023100Y-42121993D02*
X140022908Y-42176534D01*
X140812409Y-44139932D02*
X140912774Y-44139193D01*
X142290413Y-41339987D02*
X142297248Y-41294403D01*
X140302763Y-41837406D02*
X140283910Y-41916672D01*
X142993834Y-41500657D02*
X142970759Y-41495899D01*
X139939730Y-42785946D02*
X139913848Y-42835386D01*
X143511854Y-43461982D02*
X143523899Y-43429066D01*
X140699435Y-41658490D02*
X140693092Y-41650385D01*
X140672456Y-44139409D02*
X140812409Y-44139932D01*
X142933456Y-41580940D02*
X142940697Y-41569732D01*
X143439597Y-42075344D02*
X143410654Y-42045700D01*
X140591069Y-41600028D02*
X140579190Y-41614618D01*
X139458451Y-43374567D02*
X139514973Y-43458250D01*
X143167684Y-41665288D02*
X143138705Y-41654219D01*
X140787326Y-41586433D02*
X140744237Y-41624798D01*
X138430000Y-41529000D02*
X138430000Y-44323000D01*
X143733470Y-42613689D02*
X143754003Y-42608303D01*
X142989836Y-41602344D02*
X142961564Y-41592753D01*
X140023285Y-42238673D02*
X140024701Y-42312487D01*
X140660823Y-41599445D02*
X140651828Y-41586547D01*
X140299743Y-43908896D02*
X140442684Y-43929302D01*
X142304084Y-41248818D02*
X142265884Y-41255303D01*
X140986240Y-41466110D02*
X140967246Y-41422232D01*
X143665238Y-42716838D02*
X143658054Y-42688293D01*
X144780000Y-44323000D02*
X144780000Y-41148000D01*
X141067283Y-41469215D02*
X141051089Y-41480707D01*
X140442684Y-43929302D02*
X140549361Y-43942612D01*
X143487084Y-42122353D02*
X143456255Y-42092080D01*
X143745065Y-42958492D02*
X143705651Y-42844987D01*
X141346206Y-41409661D02*
X141314728Y-41430657D01*
X142225899Y-41263493D02*
X142125697Y-41287893D01*
X141457318Y-41353933D02*
X141412684Y-41374149D01*
X139963742Y-42731940D02*
X139939730Y-42785946D01*
X140553393Y-41654202D02*
X140539362Y-41673382D01*
X139660380Y-43068294D02*
X139635602Y-43074421D01*
X143523899Y-43429066D02*
X143535969Y-43393829D01*
X143046977Y-43930331D02*
X143182568Y-43894482D01*
X140744237Y-41624798D02*
X140706037Y-41658331D01*
X143255604Y-41699390D02*
X143240937Y-41693832D01*
X142663197Y-41339987D02*
X142476805Y-41339987D01*
X142970759Y-41495899D02*
X142959167Y-41493684D01*
X142265884Y-41255303D02*
X142225899Y-41263493D01*
X143709091Y-42618958D02*
X143733470Y-42613689D01*
X142125697Y-41287893D02*
X142026322Y-41312761D01*
X140011364Y-42569141D02*
X139979887Y-42684987D01*
X139952684Y-43798716D02*
X140086773Y-43852138D01*
X140254752Y-41908450D02*
X140240744Y-41895875D01*
X140522719Y-41694446D02*
X140505597Y-41714494D01*
X143583523Y-42317835D02*
X143602684Y-42309034D01*
X140240744Y-41895875D02*
X140204533Y-41862701D01*
X143022684Y-41613332D02*
X142989836Y-41602344D01*
X143490131Y-41974975D02*
X143478830Y-41967167D01*
X141252225Y-43956122D02*
X141326270Y-43952565D01*
X143625637Y-42257171D02*
X143595912Y-42227959D01*
X140174115Y-41978844D02*
X140161985Y-42025329D01*
X141896168Y-41261119D02*
X141859000Y-41275000D01*
X143255618Y-43873646D02*
X143344524Y-43844443D01*
X141085582Y-41454638D02*
X141067283Y-41469215D01*
X140602548Y-41587662D02*
X140591069Y-41600028D01*
X140072684Y-42134987D02*
X140056028Y-42129241D01*
X140600080Y-44137109D02*
X140672456Y-44139409D01*
X140579190Y-41614618D02*
X140568647Y-41629122D01*
X143483736Y-43542168D02*
X143491252Y-43519271D01*
X141772007Y-43949987D02*
X142301331Y-43949987D01*
X142962053Y-41540784D02*
X142993834Y-41500657D01*
X142907684Y-41485489D02*
X142885154Y-41481959D01*
X141859000Y-41275000D02*
X141814845Y-41291891D01*
X140670137Y-41613775D02*
X140660823Y-41599445D01*
X143651970Y-42283301D02*
X143625637Y-42257171D01*
X140266822Y-41918708D02*
X140254752Y-41908450D01*
X143655718Y-43140185D02*
X143650125Y-42977759D01*
X143621353Y-42416598D02*
X143603589Y-42396578D01*
X141455193Y-43950407D02*
X141772007Y-43949987D01*
X143491252Y-43519271D02*
X143500679Y-43492200D01*
X140204533Y-41862701D02*
X140174115Y-41978844D01*
X143523240Y-42157592D02*
X143487084Y-42122353D01*
X143560612Y-42193748D02*
X143523240Y-42157592D01*
X141314728Y-41430657D02*
X141293708Y-41397822D01*
X143456255Y-42092080D02*
X143439597Y-42075344D01*
X143691314Y-42802545D02*
X143677214Y-42757709D01*
X143410654Y-42045700D02*
X143436612Y-42023373D01*
X143471601Y-41995892D02*
X143480126Y-41990196D01*
X143138705Y-41654219D02*
X143100340Y-41640258D01*
X140678364Y-41627487D02*
X140670137Y-41613775D01*
X142940697Y-41569732D02*
X142950132Y-41556320D01*
X143658054Y-42688293D02*
X143645499Y-42631599D01*
X141293708Y-41397822D02*
X141261237Y-41348825D01*
X143552984Y-43338093D02*
X143564944Y-43291198D01*
X141124079Y-41420273D02*
X141103760Y-41438488D01*
X143303804Y-41841495D02*
X143289166Y-41833038D01*
X143613127Y-43296904D02*
X143661310Y-43302611D01*
X142476805Y-41339987D02*
X142290413Y-41339987D01*
X140651828Y-41586547D02*
X140644815Y-41577662D01*
X142297248Y-41294403D02*
X142304084Y-41248818D01*
X140150696Y-42068949D02*
X140141268Y-42105682D01*
X142301331Y-43949987D02*
X142267007Y-44000992D01*
X143447171Y-43807746D02*
X143562684Y-43763766D01*
X140161985Y-42025329D02*
X140150696Y-42068949D01*
X140699435Y-41658490D02*
G75*
G03*
X140702340Y-41659796I2775J2289D01*
G01*
X143754326Y-43658835D02*
G75*
G03*
X143820904Y-43602008I-385746J519351D01*
G01*
X143438161Y-43556220D02*
G75*
G03*
X143425682Y-43548895I-80547J-122930D01*
G01*
X143399855Y-43573400D02*
G75*
G03*
X143402904Y-43580323I26206J7409D01*
G01*
X141247201Y-41338021D02*
G75*
G03*
X141231615Y-41339614I-6119J-17169D01*
G01*
X140998902Y-41491683D02*
G75*
G03*
X141010928Y-41507130I56953J31935D01*
G01*
X141608362Y-41274399D02*
G75*
G03*
X141599456Y-41272674I-5632J-5226D01*
G01*
X140534909Y-44124420D02*
G75*
G03*
X140556365Y-44132855I28228J40297D01*
G01*
X140328554Y-41722109D02*
G75*
G03*
X140322684Y-41739939I24138J-17828D01*
G01*
X139514973Y-43458250D02*
G75*
G03*
X139581201Y-43535622I320258J207100D01*
G01*
X139532522Y-43049761D02*
G75*
G03*
X139493006Y-43012193I-116477J-82950D01*
G01*
X141010928Y-41507130D02*
G75*
G03*
X141018482Y-41507996I4353J4593D01*
G01*
X140023006Y-42507569D02*
G75*
G03*
X140026663Y-42443402I-508510J61169D01*
G01*
X140191878Y-43885667D02*
G75*
G03*
X140299743Y-43908895I293977J1103093D01*
G01*
X143469195Y-43565496D02*
G75*
G03*
X143478860Y-43559827I-2535J15395D01*
G01*
X141626224Y-41347995D02*
G75*
G03*
X141630236Y-41357706I82167J28262D01*
G01*
X143702420Y-42984951D02*
G75*
G03*
X143739506Y-42987813I42512J309167D01*
G01*
X140568647Y-41629122D02*
G75*
G03*
X140561440Y-41641056I99559J-68268D01*
G01*
X139872213Y-42896891D02*
G75*
G03*
X139868436Y-42906615I61444J-29462D01*
G01*
X139892730Y-42864987D02*
G75*
G03*
X139885455Y-42874222I75040J-66596D01*
G01*
X142241679Y-44046224D02*
G75*
G03*
X142232014Y-44084424I99648J-45535D01*
G01*
X140278671Y-41927018D02*
G75*
G03*
X140283910Y-41916672I-19214J16229D01*
G01*
X142925591Y-44115125D02*
G75*
G03*
X142949596Y-44091429I-59988J84778D01*
G01*
X143009028Y-43946391D02*
G75*
G03*
X142990356Y-43969068I22109J-37230D01*
G01*
X143562684Y-43763766D02*
G75*
G03*
X143663654Y-43716796I-320152J820233D01*
G01*
X141018482Y-41507996D02*
G75*
G03*
X141022683Y-41500661I-4307J7337D01*
G01*
X143554818Y-42334284D02*
G75*
G03*
X143552684Y-42338247I2612J-3963D01*
G01*
X143232684Y-41795790D02*
G75*
G03*
X143235041Y-41801193I7374J1D01*
G01*
X139242684Y-43132226D02*
G75*
G03*
X139249438Y-43162913I73069J-5D01*
G01*
X142933456Y-41580940D02*
G75*
G03*
X142933978Y-41582982I1232J-773D01*
G01*
X142831625Y-44138376D02*
G75*
G03*
X142895704Y-44129318I-2478J248718D01*
G01*
X140086773Y-43852138D02*
G75*
G03*
X140191878Y-43885667I399054J1069431D01*
G01*
X139269690Y-43195662D02*
G75*
G03*
X139299803Y-43225826I151429J121060D01*
G01*
X142647940Y-41369491D02*
G75*
G03*
X142633299Y-41406895I171679J-88768D01*
G01*
X141041260Y-41485439D02*
G75*
G03*
X141051088Y-41480707I-11717J36908D01*
G01*
X140547946Y-43996682D02*
G75*
G03*
X140523071Y-44036498I199397J-152252D01*
G01*
X143417222Y-43546414D02*
G75*
G03*
X143410510Y-43547877I-1017J-11462D01*
G01*
X139379549Y-42980000D02*
G75*
G03*
X139327905Y-42991706I2383J-130286D01*
G01*
X143552684Y-42338247D02*
G75*
G03*
X143554226Y-42342795I7479J0D01*
G01*
X142967213Y-44058178D02*
G75*
G03*
X142978246Y-44015825I-226974J81741D01*
G01*
X140512627Y-44072389D02*
G75*
G03*
X140516990Y-44102105I60988J-6222D01*
G01*
X141252225Y-43956122D02*
G75*
G03*
X141242683Y-43966307I665J-10185D01*
G01*
X142933978Y-41582982D02*
G75*
G03*
X142936952Y-41584312I8850J15799D01*
G01*
X142258335Y-44130235D02*
G75*
G03*
X142307335Y-44139366I49722J130785D01*
G01*
X143739507Y-42987814D02*
G75*
G03*
X143748308Y-42979361I150J8652D01*
G01*
X141630236Y-41357706D02*
G75*
G03*
X141633882Y-41359988I3647J1773D01*
G01*
X143490468Y-41983227D02*
G75*
G03*
X143492391Y-41979153I-2790J3808D01*
G01*
X141028140Y-41492343D02*
G75*
G03*
X141024011Y-41496663I15588J-19032D01*
G01*
X141966501Y-41321439D02*
G75*
G03*
X141973030Y-41325711I9633J7597D01*
G01*
X140568873Y-43949711D02*
G75*
G03*
X140549362Y-43942612I-25586J-39958D01*
G01*
X139846061Y-43741104D02*
G75*
G03*
X139952684Y-43798716I357961J535011D01*
G01*
X139274011Y-43053643D02*
G75*
G03*
X139249692Y-43099766I372069J-225651D01*
G01*
X143234063Y-41789401D02*
G75*
G03*
X143232683Y-41795790I14104J-6390D01*
G01*
X139892730Y-42864987D02*
G75*
G03*
X139913849Y-42835386I-128360J113913D01*
G01*
X139412040Y-43314862D02*
G75*
G03*
X139371998Y-43273545I-351206J-300307D01*
G01*
X143438161Y-43556220D02*
G75*
G03*
X143454694Y-43564294I40214J61382D01*
G01*
X142238233Y-44112706D02*
G75*
G03*
X142258335Y-44130235I33782J18450D01*
G01*
X143663654Y-43716796D02*
G75*
G03*
X143754326Y-43658835I-367458J674739D01*
G01*
X140547946Y-43996682D02*
G75*
G03*
X140571707Y-43962127I-335354J256046D01*
G01*
X140628056Y-41566955D02*
G75*
G03*
X140619628Y-41571393I4382J-18544D01*
G01*
X141961122Y-41311450D02*
G75*
G03*
X141966501Y-41321439I31112J10311D01*
G01*
X140109676Y-42147369D02*
G75*
G03*
X140122956Y-42148135I8144J25697D01*
G01*
X140516990Y-44102105D02*
G75*
G03*
X140534908Y-44124420I47287J19618D01*
G01*
X142895704Y-44129318D02*
G75*
G03*
X142925591Y-44115125I-25777J92844D01*
G01*
X140277234Y-41927158D02*
G75*
G03*
X140278671Y-41927018I647J808D01*
G01*
X142639298Y-41426580D02*
G75*
G03*
X142665781Y-41439885I39896J46403D01*
G01*
X139299803Y-43225826D02*
G75*
G03*
X139335981Y-43248926I124692J155405D01*
G01*
X143466561Y-43593858D02*
G75*
G03*
X143528001Y-43588847I-11931J525448D01*
G01*
X143046977Y-43930331D02*
G75*
G03*
X143009028Y-43946391I39894J-147133D01*
G01*
X143400518Y-43559358D02*
G75*
G03*
X143399034Y-43566248I19857J-7882D01*
G01*
X143410511Y-43547877D02*
G75*
G03*
X143404173Y-43553194I11423J-20052D01*
G01*
X142267007Y-44000992D02*
G75*
G03*
X142241678Y-44046223I262932J-176948D01*
G01*
X143399034Y-43566248D02*
G75*
G03*
X143399856Y-43573400I22469J-1041D01*
G01*
X140320297Y-41761340D02*
G75*
G03*
X140322683Y-41739939I-94726J21394D01*
G01*
X142633299Y-41406894D02*
G75*
G03*
X142639298Y-41426580I18537J-5108D01*
G01*
X143652684Y-42285016D02*
G75*
G03*
X143651970Y-42283301I-2420J-1D01*
G01*
X143421187Y-43591871D02*
G75*
G03*
X143466561Y-43593858I37607J339717D01*
G01*
X143320656Y-41855043D02*
G75*
G03*
X143330049Y-41865315I30596J18547D01*
G01*
X139532522Y-43049761D02*
G75*
G03*
X139545402Y-43065329I113787J81028D01*
G01*
X143235041Y-41801194D02*
G75*
G03*
X143244573Y-41809033I70295J75762D01*
G01*
X142232014Y-44084424D02*
G75*
G03*
X142238233Y-44112706I51657J-3466D01*
G01*
X139545402Y-43065329D02*
G75*
G03*
X139557439Y-43074188I31426J30092D01*
G01*
X141599455Y-41272674D02*
G75*
G03*
X141585245Y-41281890I26771J-56840D01*
G01*
X139327905Y-42991706D02*
G75*
G03*
X139303428Y-43011009I27161J-59612D01*
G01*
X140408216Y-41734810D02*
G75*
G03*
X140368837Y-41717985I-183748J-375568D01*
G01*
X140368837Y-41717985D02*
G75*
G03*
X140343130Y-41714197I-21908J-59554D01*
G01*
X141103127Y-44130029D02*
G75*
G03*
X141144630Y-44107915I-29024J104474D01*
G01*
X139572034Y-43078624D02*
G75*
G03*
X139593257Y-43079988I21213J164269D01*
G01*
X141024012Y-41496662D02*
G75*
G03*
X141022684Y-41500661I5362J-4001D01*
G01*
X141034152Y-41488384D02*
G75*
G03*
X141028140Y-41492343I15956J-30775D01*
G01*
X139303428Y-43011009D02*
G75*
G03*
X139274011Y-43053643I347052J-270928D01*
G01*
X139458451Y-43374567D02*
G75*
G03*
X139412041Y-43314862I-662278J-466913D01*
G01*
X139849389Y-42937660D02*
G75*
G03*
X139868436Y-42906614I-49693J51853D01*
G01*
X141948826Y-41269140D02*
G75*
G03*
X141940626Y-41257882I-23226J-8302D01*
G01*
X139371998Y-43273545D02*
G75*
G03*
X139335981Y-43248926I-105851J-116202D01*
G01*
X140343131Y-41714197D02*
G75*
G03*
X140328554Y-41722109I1171J-19541D01*
G01*
X140986240Y-41466110D02*
G75*
G03*
X140998902Y-41491683I255367J110519D01*
G01*
X140028589Y-42120503D02*
G75*
G03*
X140025115Y-42119988I-3468J-11419D01*
G01*
X140523071Y-44036498D02*
G75*
G03*
X140512626Y-44072389I92589J-46411D01*
G01*
X143244572Y-41809033D02*
G75*
G03*
X143257654Y-41817396I76682J105538D01*
G01*
X143483736Y-43542168D02*
G75*
G03*
X143482684Y-43548892I20995J-6729D01*
G01*
X139557439Y-43074188D02*
G75*
G03*
X139572034Y-43078624I20471J41125D01*
G01*
X139593257Y-43079987D02*
G75*
G03*
X139611819Y-43078657I-2J130217D01*
G01*
X140644815Y-41577662D02*
G75*
G03*
X140635271Y-41568542I-51422J-44259D01*
G01*
X140571707Y-43962127D02*
G75*
G03*
X140568872Y-43949710I-7730J4767D01*
G01*
X139682345Y-43061036D02*
G75*
G03*
X139730206Y-43035786I-78779J207309D01*
G01*
X139660380Y-43068294D02*
G75*
G03*
X139682345Y-43061036I-71371J252856D01*
G01*
X141622560Y-41334807D02*
G75*
G03*
X141626224Y-41347995I111022J23742D01*
G01*
X143320656Y-41855043D02*
G75*
G03*
X143315540Y-41849462I-16540J-10026D01*
G01*
X141633882Y-41359987D02*
G75*
G03*
X141640121Y-41358884I-1J18203D01*
G01*
X141928677Y-41254185D02*
G75*
G03*
X141908717Y-41257226I5743J-104718D01*
G01*
X140025115Y-42119987D02*
G75*
G03*
X140023099Y-42121993I0J-2016D01*
G01*
X140122956Y-42148136D02*
G75*
G03*
X140130792Y-42141769I-2040J10517D01*
G01*
X143748308Y-42979362D02*
G75*
G03*
X143745065Y-42958493I-59911J1376D01*
G01*
X139493007Y-43012193D02*
G75*
G03*
X139438362Y-42987635I-110873J-173632D01*
G01*
X139438361Y-42987634D02*
G75*
G03*
X139379548Y-42980000I-55117J-194259D01*
G01*
X141956062Y-41293590D02*
G75*
G03*
X141948826Y-41269140I-223935J-52978D01*
G01*
X143492391Y-41979153D02*
G75*
G03*
X143490131Y-41974975I-5580J-318D01*
G01*
X141231287Y-44006546D02*
G75*
G03*
X141242684Y-43966307I-65331J40237D01*
G01*
X140553393Y-41654202D02*
G75*
G03*
X140561440Y-41641056I-99037J69659D01*
G01*
X143402904Y-43580323D02*
G75*
G03*
X143421187Y-43591871I21003J13005D01*
G01*
X143820904Y-43602008D02*
G75*
G03*
X143829384Y-43565670I-24278J24824D01*
G01*
X143772684Y-42600435D02*
G75*
G03*
X143771350Y-42596634I-6080J1D01*
G01*
X142949596Y-44091429D02*
G75*
G03*
X142967213Y-44058178I-107869J78443D01*
G01*
X141144631Y-44107915D02*
G75*
G03*
X141192296Y-44060142I-280306J327338D01*
G01*
X141261237Y-41348825D02*
G75*
G03*
X141247202Y-41338019I-23670J-16226D01*
G01*
X141940626Y-41257882D02*
G75*
G03*
X141928677Y-41254185I-10962J-14272D01*
G01*
X141908717Y-41257225D02*
G75*
G03*
X141896168Y-41261119I30296J-119800D01*
G01*
X142990355Y-43969069D02*
G75*
G03*
X142978246Y-44015826I254823J-90940D01*
G01*
X141078781Y-44133932D02*
G75*
G03*
X141103127Y-44130030I-5177J110178D01*
G01*
X143425682Y-43548895D02*
G75*
G03*
X143417222Y-43546415I-10459J-20009D01*
G01*
X139963742Y-42731940D02*
G75*
G03*
X139979887Y-42684988I-421886J171322D01*
G01*
X140130792Y-42141768D02*
G75*
G03*
X140137107Y-42122487I-115045J48355D01*
G01*
X141192296Y-44060143D02*
G75*
G03*
X141231287Y-44006546I-328087J279659D01*
G01*
X141956062Y-41293590D02*
G75*
G03*
X141961122Y-41311450I206007J48718D01*
G01*
X140011364Y-42569141D02*
G75*
G03*
X140023006Y-42507569I-451929J117337D01*
G01*
X143829384Y-43565671D02*
G75*
G03*
X143815800Y-43555970I-13692J-4812D01*
G01*
X143478859Y-43559827D02*
G75*
G03*
X143482684Y-43548891I-13723J10937D01*
G01*
X140702340Y-41659797D02*
G75*
G03*
X140706037Y-41658331I-212J5929D01*
G01*
X141562309Y-41298070D02*
G75*
G03*
X141585245Y-41281890I-72331J126879D01*
G01*
X143770681Y-42603185D02*
G75*
G03*
X143772684Y-42600435I-887J2751D01*
G01*
X140635271Y-41568542D02*
G75*
G03*
X140628056Y-41566955I-5255J-6696D01*
G01*
X143404173Y-43553193D02*
G75*
G03*
X143400518Y-43559357I17569J-14583D01*
G01*
X143454694Y-43564294D02*
G75*
G03*
X143469195Y-43565496I9645J28286D01*
G01*
X141614536Y-41286588D02*
G75*
G03*
X141608362Y-41274399I-24335J-4668D01*
G01*
X141973030Y-41325710D02*
G75*
G03*
X141981256Y-41325516I3775J14416D01*
G01*
X139249692Y-43099767D02*
G75*
G03*
X139242684Y-43132226I71672J-32460D01*
G01*
X139249438Y-43162913D02*
G75*
G03*
X139269690Y-43195662I145290J67211D01*
G01*
X141041260Y-41485439D02*
G75*
G03*
X141034152Y-41488384I13677J-43061D01*
G01*
X143651816Y-42286407D02*
G75*
G03*
X143652684Y-42285016I-681J1391D01*
G01*
D14*
X144780000Y-42291000D02*
X143595912Y-42227959D01*
X143595912Y-42227959D02*
X143439597Y-42075344D01*
X143439597Y-42075344D02*
X143478830Y-41967167D01*
X143478830Y-41967167D02*
X143383000Y-41910000D01*
X143383000Y-41910000D02*
X143257654Y-41817396D01*
X143257654Y-41817396D02*
X143255604Y-41699390D01*
X143255604Y-41699390D02*
X142961564Y-41592753D01*
X142961564Y-41592753D02*
X142942712Y-41490878D01*
X142942712Y-41490878D02*
X142665781Y-41439885D01*
X142665781Y-41439885D02*
X142647940Y-41369491D01*
X142647940Y-41369491D02*
X142290413Y-41339987D01*
X142290413Y-41339987D02*
X142265884Y-41255303D01*
X142265884Y-41255303D02*
X141981256Y-41325516D01*
X141981256Y-41325516D02*
X141925605Y-41277439D01*
X141925605Y-41277439D02*
X141640120Y-41358885D01*
X141640120Y-41358885D02*
X141590199Y-41291257D01*
X141590199Y-41291257D02*
X141314728Y-41430657D01*
X141314728Y-41430657D02*
X141237561Y-41365059D01*
X141237561Y-41365059D02*
X141010928Y-41507130D01*
X141010928Y-41507130D02*
X140967246Y-41422232D01*
X140967246Y-41422232D02*
X140702340Y-41659797D01*
X140702340Y-41659797D02*
X140602548Y-41587662D01*
X140602548Y-41587662D02*
X140463511Y-41761863D01*
X140463511Y-41761863D02*
X140344303Y-41733740D01*
X140344303Y-41733740D02*
X140302763Y-41837406D01*
X140302763Y-41837406D02*
X140204533Y-41862701D01*
X140204533Y-41862701D02*
X140204533Y-41148000D01*
X140204533Y-41148000D02*
X144780000Y-41148000D01*
X144780000Y-41148000D02*
X144780000Y-42291000D01*
G36*
X144780000Y-42291000D02*
G01*
X143595912Y-42227959D01*
X143439597Y-42075344D01*
X143478830Y-41967167D01*
X143383000Y-41910000D01*
X143257654Y-41817396D01*
X143255604Y-41699390D01*
X142961564Y-41592753D01*
X142942712Y-41490878D01*
X142665781Y-41439885D01*
X142647940Y-41369491D01*
X142290413Y-41339987D01*
X142265884Y-41255303D01*
X141981256Y-41325516D01*
X141925605Y-41277439D01*
X141640120Y-41358885D01*
X141590199Y-41291257D01*
X141314728Y-41430657D01*
X141237561Y-41365059D01*
X141010928Y-41507130D01*
X140967246Y-41422232D01*
X140702340Y-41659797D01*
X140602548Y-41587662D01*
X140463511Y-41761863D01*
X140344303Y-41733740D01*
X140302763Y-41837406D01*
X140204533Y-41862701D01*
X140204533Y-41148000D01*
X144780000Y-41148000D01*
X144780000Y-42291000D01*
G37*
X144780000Y-42291000D02*
X143595912Y-42227959D01*
X143439597Y-42075344D01*
X143478830Y-41967167D01*
X143383000Y-41910000D01*
X143257654Y-41817396D01*
X143255604Y-41699390D01*
X142961564Y-41592753D01*
X142942712Y-41490878D01*
X142665781Y-41439885D01*
X142647940Y-41369491D01*
X142290413Y-41339987D01*
X142265884Y-41255303D01*
X141981256Y-41325516D01*
X141925605Y-41277439D01*
X141640120Y-41358885D01*
X141590199Y-41291257D01*
X141314728Y-41430657D01*
X141237561Y-41365059D01*
X141010928Y-41507130D01*
X140967246Y-41422232D01*
X140702340Y-41659797D01*
X140602548Y-41587662D01*
X140463511Y-41761863D01*
X140344303Y-41733740D01*
X140302763Y-41837406D01*
X140204533Y-41862701D01*
X140204533Y-41148000D01*
X144780000Y-41148000D01*
X144780000Y-42291000D01*
X140204533Y-41862701D02*
X140022908Y-42176534D01*
X140022908Y-42176534D02*
X139979887Y-42684987D01*
X139979887Y-42684987D02*
X139730206Y-43035786D01*
X139730206Y-43035786D02*
X139593257Y-43079987D01*
X139593257Y-43079987D02*
X139379549Y-42980000D01*
X139379549Y-42980000D02*
X139274011Y-43053643D01*
X139274011Y-43053643D02*
X139269690Y-43195662D01*
X139269690Y-43195662D02*
X139581201Y-43535622D01*
X139581201Y-43535622D02*
X139573000Y-44323000D01*
X139573000Y-44323000D02*
X138430000Y-44323000D01*
X138430000Y-44323000D02*
X138430000Y-41513760D01*
X138430000Y-41513760D02*
X138800840Y-41142920D01*
X138800840Y-41142920D02*
X140208000Y-41148000D01*
X140208000Y-41148000D02*
X140204533Y-41862701D01*
G36*
X140208000Y-41148000D02*
G01*
X140204533Y-41862701D01*
X140022908Y-42176534D01*
X139979887Y-42684987D01*
X139730206Y-43035786D01*
X139593257Y-43079987D01*
X139379549Y-42980000D01*
X139274011Y-43053643D01*
X139269690Y-43195662D01*
X139581201Y-43535622D01*
X139573000Y-44323000D01*
X138430000Y-44323000D01*
X138430000Y-41513760D01*
X138800840Y-41142920D01*
X140208000Y-41148000D01*
G37*
X140208000Y-41148000D02*
X140204533Y-41862701D01*
X140022908Y-42176534D01*
X139979887Y-42684987D01*
X139730206Y-43035786D01*
X139593257Y-43079987D01*
X139379549Y-42980000D01*
X139274011Y-43053643D01*
X139269690Y-43195662D01*
X139581201Y-43535622D01*
X139573000Y-44323000D01*
X138430000Y-44323000D01*
X138430000Y-41513760D01*
X138800840Y-41142920D01*
X140208000Y-41148000D01*
X144780000Y-44323000D02*
X143002000Y-44323000D01*
X143002000Y-44323000D02*
X143009028Y-43946391D01*
X143009028Y-43946391D02*
X143447171Y-43807746D01*
X143447171Y-43807746D02*
X143754326Y-43658835D01*
X143754326Y-43658835D02*
X143764000Y-43561000D01*
X143764000Y-43561000D02*
X143469195Y-43565496D01*
X143469195Y-43565496D02*
X143552984Y-43338093D01*
X143552984Y-43338093D02*
X143661310Y-43302611D01*
X143661310Y-43302611D02*
X143650125Y-42977759D01*
X143650125Y-42977759D02*
X143745065Y-42958492D01*
X143745065Y-42958492D02*
X143637000Y-42672000D01*
X143637000Y-42672000D02*
X143733470Y-42613689D01*
X143733470Y-42613689D02*
X143587990Y-42380469D01*
X143587990Y-42380469D02*
X143651816Y-42286407D01*
X143651816Y-42286407D02*
X143595912Y-42227959D01*
X143595912Y-42227959D02*
X144780000Y-42227959D01*
X144780000Y-42227959D02*
X144780000Y-44323000D01*
G36*
X144780000Y-44323000D02*
G01*
X143002000Y-44323000D01*
X143009028Y-43946391D01*
X143447171Y-43807746D01*
X143754326Y-43658835D01*
X143764000Y-43561000D01*
X143469195Y-43565496D01*
X143552984Y-43338093D01*
X143661310Y-43302611D01*
X143650125Y-42977759D01*
X143745065Y-42958492D01*
X143637000Y-42672000D01*
X143733470Y-42613689D01*
X143587990Y-42380469D01*
X143651816Y-42286407D01*
X143595912Y-42227959D01*
X144780000Y-42227959D01*
X144780000Y-44323000D01*
G37*
X144780000Y-44323000D02*
X143002000Y-44323000D01*
X143009028Y-43946391D01*
X143447171Y-43807746D01*
X143754326Y-43658835D01*
X143764000Y-43561000D01*
X143469195Y-43565496D01*
X143552984Y-43338093D01*
X143661310Y-43302611D01*
X143650125Y-42977759D01*
X143745065Y-42958492D01*
X143637000Y-42672000D01*
X143733470Y-42613689D01*
X143587990Y-42380469D01*
X143651816Y-42286407D01*
X143595912Y-42227959D01*
X144780000Y-42227959D01*
X144780000Y-44323000D01*
X139846061Y-43741104D02*
X140549362Y-43942612D01*
X140549362Y-43942612D02*
X140556365Y-44132856D01*
X140556365Y-44132856D02*
X141103127Y-44130030D01*
X141103127Y-44130030D02*
X141252890Y-43966307D01*
X141252890Y-43966307D02*
X142301331Y-43949987D01*
X142301331Y-43949987D02*
X142258335Y-44130235D01*
X142258335Y-44130235D02*
X142895704Y-44129318D01*
X142895704Y-44129318D02*
X142990355Y-43969069D01*
X142990355Y-43969069D02*
X143002000Y-44323000D01*
X143002000Y-44323000D02*
X139573000Y-44323000D01*
X139573000Y-44323000D02*
X139573000Y-43561000D01*
X139573000Y-43561000D02*
X139846061Y-43741104D01*
G36*
X139846061Y-43741104D02*
G01*
X140549362Y-43942612D01*
X140556365Y-44132856D01*
X141103127Y-44130030D01*
X141252890Y-43966307D01*
X142301331Y-43949987D01*
X142258335Y-44130235D01*
X142895704Y-44129318D01*
X142990355Y-43969069D01*
X143002000Y-44323000D01*
X139573000Y-44323000D01*
X139573000Y-43561000D01*
X139846061Y-43741104D01*
G37*
X139846061Y-43741104D02*
X140549362Y-43942612D01*
X140556365Y-44132856D01*
X141103127Y-44130030D01*
X141252890Y-43966307D01*
X142301331Y-43949987D01*
X142258335Y-44130235D01*
X142895704Y-44129318D01*
X142990355Y-43969069D01*
X143002000Y-44323000D01*
X139573000Y-44323000D01*
X139573000Y-43561000D01*
X139846061Y-43741104D01*
D13*
X96394000Y-47270641D02*
X96394000Y-46963359D01*
X97154000Y-47270641D02*
X97154000Y-46963359D01*
X85363164Y-48747000D02*
X85578836Y-48747000D01*
X85363164Y-48027000D02*
X85578836Y-48027000D01*
X128169641Y-42290000D02*
X127862359Y-42290000D01*
X128169641Y-41530000D02*
X127862359Y-41530000D01*
X94489000Y-47270641D02*
X94489000Y-46963359D01*
X95249000Y-47270641D02*
X95249000Y-46963359D01*
X113391000Y-43131000D02*
X113616000Y-43131000D01*
X113616000Y-43131000D02*
X113616000Y-42906000D01*
X113616000Y-38911000D02*
X113616000Y-39136000D01*
X109396000Y-43131000D02*
X109396000Y-42906000D01*
X109621000Y-43131000D02*
X109396000Y-43131000D01*
X109621000Y-38911000D02*
X109396000Y-38911000D01*
X113391000Y-38911000D02*
X113616000Y-38911000D01*
X92457000Y-46963359D02*
X92457000Y-47270641D01*
X93217000Y-46963359D02*
X93217000Y-47270641D01*
X126763000Y-43910000D02*
X126103000Y-43910000D01*
X126763000Y-43910000D02*
X126763000Y-41880000D01*
X125103000Y-43910000D02*
X124443000Y-43910000D01*
X124443000Y-42500000D02*
X124443000Y-43910000D01*
X108183000Y-40532164D02*
X108183000Y-40747836D01*
X107463000Y-40532164D02*
X107463000Y-40747836D01*
X106043000Y-43320580D02*
X106043000Y-43039420D01*
X107063000Y-43320580D02*
X107063000Y-43039420D01*
%LPC*%
D15*
X84823000Y-46990000D03*
X86373000Y-46990000D03*
D16*
X106553000Y-39357000D03*
X106553000Y-40907000D03*
D17*
X128776000Y-45212000D03*
X129796000Y-45212000D03*
D18*
X90805000Y-46607000D03*
X90805000Y-47627000D03*
D19*
X84836000Y-42672000D03*
D20*
X86836000Y-42672000D03*
X88836000Y-42672000D03*
X90836000Y-42672000D03*
X92836000Y-42672000D03*
X94836000Y-42672000D03*
X96836000Y-42672000D03*
X98836000Y-42672000D03*
D21*
X127840500Y-43561000D03*
X129715500Y-43561000D03*
D22*
X107823000Y-43152000D03*
X107823000Y-42192000D03*
D23*
X96774000Y-47627000D03*
X96774000Y-46607000D03*
D24*
X84991000Y-48387000D03*
X85951000Y-48387000D03*
D25*
X128526000Y-41910000D03*
X127506000Y-41910000D03*
D26*
X163576000Y-39624000D03*
X59436000Y-163068000D03*
D23*
X94869000Y-47627000D03*
X94869000Y-46607000D03*
D27*
X109508500Y-39521000D03*
D28*
X109568500Y-40021000D03*
X109568500Y-40521000D03*
X109568500Y-41021000D03*
X109568500Y-41521000D03*
X109568500Y-42021000D03*
D29*
X109508500Y-42521000D03*
D30*
X110006000Y-43018500D03*
D31*
X110506000Y-42958500D03*
X111006000Y-42958500D03*
X111506000Y-42958500D03*
X112006000Y-42958500D03*
X112506000Y-42958500D03*
D32*
X113006000Y-43018500D03*
D33*
X113503500Y-42521000D03*
D28*
X113443500Y-42021000D03*
X113443500Y-41521000D03*
X113443500Y-41021000D03*
X113443500Y-40521000D03*
X113443500Y-40021000D03*
D34*
X113503500Y-39521000D03*
D35*
X113006000Y-39023500D03*
D31*
X112506000Y-39083500D03*
X112006000Y-39083500D03*
X111506000Y-39083500D03*
X111006000Y-39083500D03*
X110506000Y-39083500D03*
D36*
X110006000Y-39023500D03*
D18*
X92837000Y-46607000D03*
X92837000Y-47627000D03*
D37*
X126253000Y-42180000D03*
X124953000Y-42180000D03*
X125603000Y-44180000D03*
D26*
X163576000Y-163068000D03*
X59436000Y-39624000D03*
D38*
X107823000Y-40160000D03*
X107823000Y-41120000D03*
D39*
X106553000Y-43955000D03*
X106553000Y-42405000D03*
M02*
